M48
; DRILL file {KiCad 7.0.8} date Fri Oct 27 20:47:05 2023
; FORMAT={-:-/ absolute / metric / decimal}
; #@! TF.CreationDate,2023-10-27T20:47:05+03:00
; #@! TF.GenerationSoftware,Kicad,Pcbnew,7.0.8
; #@! TF.FileFunction,Plated,1,2,PTH
FMAT,2
METRIC
; #@! TA.AperFunction,Plated,PTH,ViaDrill
T1C0.350
; #@! TA.AperFunction,Plated,PTH,ComponentDrill
T2C0.500
; #@! TA.AperFunction,Plated,PTH,ComponentDrill
T3C0.600
; #@! TA.AperFunction,Plated,PTH,ComponentDrill
T4C0.950
; #@! TA.AperFunction,Plated,PTH,ComponentDrill
T5C1.000
; #@! TA.AperFunction,Plated,PTH,ComponentDrill
T6C1.000
; #@! TA.AperFunction,Plated,PTH,ComponentDrill
T7C1.020
; #@! TA.AperFunction,Plated,PTH,ComponentDrill
T8C1.200
; #@! TA.AperFunction,Plated,PTH,ComponentDrill
T9C1.500
; #@! TA.AperFunction,Plated,PTH,ComponentDrill
T10C3.200
%
G90
G05
T1
X126.746Y-122.301
X131.953Y-123.698
X135.763Y-74.422
X136.138Y-103.465
X136.138Y-105.497
X136.144Y-124.333
X136.525Y-118.999
X138.176Y-118.364
X142.629Y-124.16
X146.812Y-96.266
X155.194Y-117.856
X155.194Y-119.634
X156.972Y-117.865
X156.972Y-119.634
X158.242Y-117.856
X158.242Y-119.634
X160.02Y-117.865
X160.02Y-119.634
X163.322Y-117.856
X163.322Y-119.634
X165.1Y-117.865
X165.1Y-119.634
X166.37Y-117.856
X166.37Y-119.634
X168.148Y-117.865
X168.148Y-119.634
X168.402Y-82.677
X169.799Y-93.853
X172.212Y-80.264
X175.387Y-82.804
X176.784Y-82.296
X176.784Y-85.344
X176.784Y-88.392
X179.197Y-116.713
X180.213Y-120.015
X183.388Y-95.885
X183.642Y-128.524
X184.785Y-128.524
X185.293Y-120.015
X186.055Y-114.808
X186.055Y-128.524
X186.563Y-106.68
X187.325Y-118.11
X188.468Y-70.358
X190.119Y-101.854
X190.119Y-107.823
X190.119Y-125.095
X190.246Y-103.632
X190.246Y-105.791
X190.627Y-96.647
X190.754Y-111.252
X193.929Y-99.822
X198.12Y-112.268
X199.263Y-96.774
T2
X127.694Y-65.705
X127.694Y-131.526
X128.397Y-64.008
X128.397Y-67.402
X128.397Y-129.829
X128.397Y-133.223
X130.094Y-63.305
X130.094Y-68.105
X130.094Y-129.126
X130.094Y-133.926
X131.791Y-64.008
X131.791Y-67.402
X131.791Y-129.829
X131.791Y-133.223
X132.494Y-65.705
X132.494Y-131.526
X181.676Y-88.435
X183.576Y-88.435
X193.515Y-65.705
X193.515Y-131.526
X194.218Y-64.008
X194.218Y-67.402
X194.218Y-129.829
X194.218Y-133.223
X195.915Y-63.305
X195.915Y-68.105
X195.915Y-129.126
X195.915Y-133.926
X197.612Y-64.008
X197.612Y-67.402
X197.612Y-129.829
X197.612Y-133.223
X198.315Y-65.705
X198.315Y-131.526
T4
X127.883Y-97.663
X127.883Y-100.163
X127.883Y-102.663
X127.883Y-105.163
X127.889Y-74.067
X127.889Y-76.567
X127.889Y-79.067
X127.889Y-81.567
X127.889Y-84.067
X127.889Y-86.567
X127.889Y-89.067
X127.889Y-91.567
T5
X193.929Y-115.072
X193.929Y-122.672
T6
X164.251Y-133.985
X166.751Y-133.985
X178.221Y-133.985
X180.721Y-133.985
T7
X140.081Y-66.061
X140.081Y-68.601
X140.081Y-71.141
X140.081Y-73.681
X140.081Y-76.221
X140.081Y-78.761
X140.081Y-81.301
X140.081Y-83.841
X140.081Y-86.381
X140.081Y-88.921
X140.081Y-91.461
X140.081Y-94.001
X140.081Y-96.541
X140.081Y-99.081
X140.081Y-101.621
X165.481Y-66.061
X165.481Y-68.601
X165.481Y-71.141
X165.481Y-73.681
X165.481Y-76.221
X165.481Y-78.761
X165.481Y-81.301
X165.481Y-83.841
X165.481Y-86.381
X165.481Y-88.921
X165.481Y-91.461
X165.481Y-94.001
X165.481Y-96.541
X165.481Y-99.081
X165.481Y-101.621
T8
X199.263Y-100.328
X199.263Y-108.328
T9
X177.583Y-68.453
X185.083Y-68.453
T10
X130.094Y-65.705
X130.094Y-131.526
X195.915Y-65.705
X195.915Y-131.526
T3
X135.255Y-131.54G85X135.255Y-132.62
G05
X157.861Y-131.54G85X157.861Y-132.62
G05
T0
M30
