G04 #@! TF.GenerationSoftware,KiCad,Pcbnew,7.0.8*
G04 #@! TF.CreationDate,2023-10-27T20:47:02+03:00*
G04 #@! TF.ProjectId,door-lock-pcb,646f6f72-2d6c-46f6-936b-2d7063622e6b,rev?*
G04 #@! TF.SameCoordinates,Original*
G04 #@! TF.FileFunction,Legend,Bot*
G04 #@! TF.FilePolarity,Positive*
%FSLAX46Y46*%
G04 Gerber Fmt 4.6, Leading zero omitted, Abs format (unit mm)*
G04 Created by KiCad (PCBNEW 7.0.8) date 2023-10-27 20:47:02*
%MOMM*%
%LPD*%
G01*
G04 APERTURE LIST*
G04 Aperture macros list*
%AMRoundRect*
0 Rectangle with rounded corners*
0 $1 Rounding radius*
0 $2 $3 $4 $5 $6 $7 $8 $9 X,Y pos of 4 corners*
0 Add a 4 corners polygon primitive as box body*
4,1,4,$2,$3,$4,$5,$6,$7,$8,$9,$2,$3,0*
0 Add four circle primitives for the rounded corners*
1,1,$1+$1,$2,$3*
1,1,$1+$1,$4,$5*
1,1,$1+$1,$6,$7*
1,1,$1+$1,$8,$9*
0 Add four rect primitives between the rounded corners*
20,1,$1+$1,$2,$3,$4,$5,0*
20,1,$1+$1,$4,$5,$6,$7,0*
20,1,$1+$1,$6,$7,$8,$9,0*
20,1,$1+$1,$8,$9,$2,$3,0*%
G04 Aperture macros list end*
%ADD10C,0.120000*%
%ADD11R,2.000000X2.000000*%
%ADD12C,2.000000*%
%ADD13C,1.800000*%
%ADD14C,0.800000*%
%ADD15C,6.400000*%
%ADD16RoundRect,0.250000X0.725000X-0.600000X0.725000X0.600000X-0.725000X0.600000X-0.725000X-0.600000X0*%
%ADD17O,1.950000X1.700000*%
%ADD18C,1.200000*%
%ADD19RoundRect,0.250000X0.600000X0.750000X-0.600000X0.750000X-0.600000X-0.750000X0.600000X-0.750000X0*%
%ADD20O,1.700000X2.000000*%
%ADD21O,1.000000X2.400000*%
%ADD22C,1.000000*%
%ADD23C,1.500000*%
%ADD24RoundRect,0.250000X0.350000X0.450000X-0.350000X0.450000X-0.350000X-0.450000X0.350000X-0.450000X0*%
%ADD25RoundRect,0.250000X-0.350000X-0.450000X0.350000X-0.450000X0.350000X0.450000X-0.350000X0.450000X0*%
%ADD26RoundRect,0.250000X-0.070711X0.565685X-0.565685X0.070711X0.070711X-0.565685X0.565685X-0.070711X0*%
G04 APERTURE END LIST*
D10*
X175741064Y-81634000D02*
X175286936Y-81634000D01*
X175741064Y-80164000D02*
X175286936Y-80164000D01*
X193082936Y-103024000D02*
X193537064Y-103024000D01*
X193082936Y-104494000D02*
X193537064Y-104494000D01*
X193082936Y-107088000D02*
X193537064Y-107088000D01*
X193082936Y-108558000D02*
X193537064Y-108558000D01*
X174416282Y-78464165D02*
X174095165Y-78785282D01*
X173376835Y-77424718D02*
X173055718Y-77745835D01*
X193082936Y-105056000D02*
X193537064Y-105056000D01*
X193082936Y-106526000D02*
X193537064Y-106526000D01*
X193082936Y-100992000D02*
X193537064Y-100992000D01*
X193082936Y-102462000D02*
X193537064Y-102462000D01*
%LPC*%
D11*
X165481000Y-101621000D03*
D12*
X165481000Y-99081000D03*
X165481000Y-96541000D03*
X165481000Y-94001000D03*
X165481000Y-91461000D03*
X165481000Y-88921000D03*
X165481000Y-86381000D03*
X165481000Y-83841000D03*
X165481000Y-81301000D03*
X165481000Y-78761000D03*
X165481000Y-76221000D03*
X165481000Y-73681000D03*
X165481000Y-71141000D03*
X165481000Y-68601000D03*
X165481000Y-66061000D03*
X140081000Y-66061000D03*
X140081000Y-68601000D03*
X140081000Y-71141000D03*
X140081000Y-73681000D03*
X140081000Y-76221000D03*
X140081000Y-78761000D03*
X140081000Y-81301000D03*
X140081000Y-83841000D03*
X140081000Y-86381000D03*
X140081000Y-88921000D03*
X140081000Y-91461000D03*
X140081000Y-94001000D03*
X140081000Y-96541000D03*
X140081000Y-99081000D03*
X140081000Y-101621000D03*
D13*
X193929000Y-122672000D03*
X193929000Y-115072000D03*
D14*
X127694056Y-131525944D03*
X128397000Y-129828888D03*
X128397000Y-133223000D03*
X130094056Y-129125944D03*
D15*
X130094056Y-131525944D03*
D14*
X130094056Y-133925944D03*
X131791112Y-129828888D03*
X131791112Y-133223000D03*
X132494056Y-131525944D03*
D16*
X127889000Y-91567000D03*
D17*
X127889000Y-89067000D03*
X127889000Y-86567000D03*
X127889000Y-84067000D03*
X127889000Y-81567000D03*
X127889000Y-79067000D03*
X127889000Y-76567000D03*
X127889000Y-74067000D03*
D18*
X199263000Y-108328000D03*
X199263000Y-100328000D03*
D14*
X193514944Y-131525944D03*
X194217888Y-129828888D03*
X194217888Y-133223000D03*
X195914944Y-129125944D03*
D15*
X195914944Y-131525944D03*
D14*
X195914944Y-133925944D03*
X197612000Y-129828888D03*
X197612000Y-133223000D03*
X198314944Y-131525944D03*
D19*
X166751000Y-133985000D03*
D20*
X164251000Y-133985000D03*
D14*
X127694056Y-65705056D03*
X128397000Y-64008000D03*
X128397000Y-67402112D03*
X130094056Y-63305056D03*
D15*
X130094056Y-65705056D03*
D14*
X130094056Y-68105056D03*
X131791112Y-64008000D03*
X131791112Y-67402112D03*
X132494056Y-65705056D03*
D21*
X157861000Y-132080000D03*
X135255000Y-132080000D03*
D14*
X193514944Y-65705056D03*
X194217888Y-64008000D03*
X194217888Y-67402112D03*
X195914944Y-63305056D03*
D15*
X195914944Y-65705056D03*
D14*
X195914944Y-68105056D03*
X197612000Y-64008000D03*
X197612000Y-67402112D03*
X198314944Y-65705056D03*
D19*
X180721000Y-133985000D03*
D20*
X178221000Y-133985000D03*
D22*
X183576000Y-88435000D03*
X181676000Y-88435000D03*
D16*
X127883500Y-105163000D03*
D17*
X127883500Y-102663000D03*
X127883500Y-100163000D03*
X127883500Y-97663000D03*
D23*
X177583000Y-68453000D03*
X185083000Y-68453000D03*
D24*
X176514000Y-80899000D03*
X174514000Y-80899000D03*
D25*
X192310000Y-103759000D03*
X194310000Y-103759000D03*
X192310000Y-107823000D03*
X194310000Y-107823000D03*
D26*
X174443107Y-77397893D03*
X173028893Y-78812107D03*
D25*
X192310000Y-105791000D03*
X194310000Y-105791000D03*
X192310000Y-101727000D03*
X194310000Y-101727000D03*
%LPD*%
M02*
