%TF.GenerationSoftware,KiCad,Pcbnew,7.0.8*%
%TF.CreationDate,2023-10-27T20:47:06+03:00*%
%TF.ProjectId,door-lock-pcb,646f6f72-2d6c-46f6-936b-2d7063622e6b,rev?*%
%TF.SameCoordinates,Original*%
%TF.FileFunction,Drillmap*%
%TF.FilePolarity,Positive*%
%FSLAX45Y45*%
G04 Gerber Fmt 4.5, Leading zero omitted, Abs format (unit mm)*
G04 Created by KiCad (PCBNEW 7.0.8) date 2023-10-27 20:47:06*
%MOMM*%
%LPD*%
G01*
G04 APERTURE LIST*
%ADD10C,0.100000*%
%ADD11C,0.200000*%
%ADD12C,0.035000*%
%ADD13C,0.050000*%
%ADD14C,0.060000*%
%ADD15C,0.095000*%
%ADD16C,0.099999*%
%ADD17C,0.102000*%
%ADD18C,0.120000*%
%ADD19C,0.150000*%
%ADD20C,0.320000*%
G04 APERTURE END LIST*
D10*
X12440920Y-13318540D02*
X12440920Y-6402020D01*
X20157440Y-6402020D02*
G75*
G03*
X19757440Y-6002020I-400000J0D01*
G01*
X12840920Y-6002020D02*
X19757440Y-6002020D01*
X19757440Y-13718540D02*
G75*
G03*
X20157440Y-13318540I0J400000D01*
G01*
X19757440Y-13718540D02*
X12840920Y-13718540D01*
X20157440Y-6402020D02*
X20157440Y-13318540D01*
X12840920Y-6002020D02*
G75*
G03*
X12440920Y-6402020I0J-400000D01*
G01*
X12440920Y-13318540D02*
G75*
G03*
X12840920Y-13718540I400000J0D01*
G01*
D11*
D12*
X12657100Y-12212600D02*
X12692100Y-12247600D01*
X12692100Y-12212600D02*
X12657100Y-12247600D01*
X13177800Y-12352300D02*
X13212800Y-12387300D01*
X13212800Y-12352300D02*
X13177800Y-12387300D01*
X13558800Y-7424700D02*
X13593800Y-7459700D01*
X13593800Y-7424700D02*
X13558800Y-7459700D01*
X13596350Y-10329000D02*
X13631350Y-10364000D01*
X13631350Y-10329000D02*
X13596350Y-10364000D01*
X13596350Y-10532200D02*
X13631350Y-10567200D01*
X13631350Y-10532200D02*
X13596350Y-10567200D01*
X13596900Y-12415800D02*
X13631900Y-12450800D01*
X13631900Y-12415800D02*
X13596900Y-12450800D01*
X13635000Y-11882400D02*
X13670000Y-11917400D01*
X13670000Y-11882400D02*
X13635000Y-11917400D01*
X13800100Y-11818900D02*
X13835100Y-11853900D01*
X13835100Y-11818900D02*
X13800100Y-11853900D01*
X14245400Y-12398500D02*
X14280400Y-12433500D01*
X14280400Y-12398500D02*
X14245400Y-12433500D01*
X14663700Y-9609100D02*
X14698700Y-9644100D01*
X14698700Y-9609100D02*
X14663700Y-9644100D01*
X15501900Y-11768100D02*
X15536900Y-11803100D01*
X15536900Y-11768100D02*
X15501900Y-11803100D01*
X15501900Y-11945900D02*
X15536900Y-11980900D01*
X15536900Y-11945900D02*
X15501900Y-11980900D01*
X15679700Y-11768988D02*
X15714700Y-11803988D01*
X15714700Y-11768988D02*
X15679700Y-11803988D01*
X15679700Y-11945900D02*
X15714700Y-11980900D01*
X15714700Y-11945900D02*
X15679700Y-11980900D01*
X15806700Y-11768100D02*
X15841700Y-11803100D01*
X15841700Y-11768100D02*
X15806700Y-11803100D01*
X15806700Y-11945900D02*
X15841700Y-11980900D01*
X15841700Y-11945900D02*
X15806700Y-11980900D01*
X15984500Y-11768988D02*
X16019500Y-11803988D01*
X16019500Y-11768988D02*
X15984500Y-11803988D01*
X15984500Y-11945900D02*
X16019500Y-11980900D01*
X16019500Y-11945900D02*
X15984500Y-11980900D01*
X16314700Y-11768100D02*
X16349700Y-11803100D01*
X16349700Y-11768100D02*
X16314700Y-11803100D01*
X16314700Y-11945900D02*
X16349700Y-11980900D01*
X16349700Y-11945900D02*
X16314700Y-11980900D01*
X16492500Y-11768988D02*
X16527500Y-11803988D01*
X16527500Y-11768988D02*
X16492500Y-11803988D01*
X16492500Y-11945900D02*
X16527500Y-11980900D01*
X16527500Y-11945900D02*
X16492500Y-11980900D01*
X16619500Y-11768100D02*
X16654500Y-11803100D01*
X16654500Y-11768100D02*
X16619500Y-11803100D01*
X16619500Y-11945900D02*
X16654500Y-11980900D01*
X16654500Y-11945900D02*
X16619500Y-11980900D01*
X16797300Y-11768988D02*
X16832300Y-11803988D01*
X16832300Y-11768988D02*
X16797300Y-11803988D01*
X16797300Y-11945900D02*
X16832300Y-11980900D01*
X16832300Y-11945900D02*
X16797300Y-11980900D01*
X16822700Y-8250200D02*
X16857700Y-8285200D01*
X16857700Y-8250200D02*
X16822700Y-8285200D01*
X16962400Y-9367800D02*
X16997400Y-9402800D01*
X16997400Y-9367800D02*
X16962400Y-9402800D01*
X17203700Y-8008900D02*
X17238700Y-8043900D01*
X17238700Y-8008900D02*
X17203700Y-8043900D01*
X17521200Y-8262900D02*
X17556200Y-8297900D01*
X17556200Y-8262900D02*
X17521200Y-8297900D01*
X17660900Y-8212100D02*
X17695900Y-8247100D01*
X17695900Y-8212100D02*
X17660900Y-8247100D01*
X17660900Y-8516900D02*
X17695900Y-8551900D01*
X17695900Y-8516900D02*
X17660900Y-8551900D01*
X17660900Y-8821700D02*
X17695900Y-8856700D01*
X17695900Y-8821700D02*
X17660900Y-8856700D01*
X17902200Y-11653800D02*
X17937200Y-11688800D01*
X17937200Y-11653800D02*
X17902200Y-11688800D01*
X18003800Y-11984000D02*
X18038800Y-12019000D01*
X18038800Y-11984000D02*
X18003800Y-12019000D01*
X18321300Y-9571000D02*
X18356300Y-9606000D01*
X18356300Y-9571000D02*
X18321300Y-9606000D01*
X18346700Y-12834900D02*
X18381700Y-12869900D01*
X18381700Y-12834900D02*
X18346700Y-12869900D01*
X18461000Y-12834900D02*
X18496000Y-12869900D01*
X18496000Y-12834900D02*
X18461000Y-12869900D01*
X18511800Y-11984000D02*
X18546800Y-12019000D01*
X18546800Y-11984000D02*
X18511800Y-12019000D01*
X18588000Y-11463300D02*
X18623000Y-11498300D01*
X18623000Y-11463300D02*
X18588000Y-11498300D01*
X18588000Y-12834900D02*
X18623000Y-12869900D01*
X18623000Y-12834900D02*
X18588000Y-12869900D01*
X18638800Y-10650500D02*
X18673800Y-10685500D01*
X18673800Y-10650500D02*
X18638800Y-10685500D01*
X18715000Y-11793500D02*
X18750000Y-11828500D01*
X18750000Y-11793500D02*
X18715000Y-11828500D01*
X18829300Y-7018300D02*
X18864300Y-7053300D01*
X18864300Y-7018300D02*
X18829300Y-7053300D01*
X18994400Y-10167900D02*
X19029400Y-10202900D01*
X19029400Y-10167900D02*
X18994400Y-10202900D01*
X18994400Y-10764800D02*
X19029400Y-10799800D01*
X19029400Y-10764800D02*
X18994400Y-10799800D01*
X18994400Y-12492000D02*
X19029400Y-12527000D01*
X19029400Y-12492000D02*
X18994400Y-12527000D01*
X19007100Y-10345700D02*
X19042100Y-10380700D01*
X19042100Y-10345700D02*
X19007100Y-10380700D01*
X19007100Y-10561600D02*
X19042100Y-10596600D01*
X19042100Y-10561600D02*
X19007100Y-10596600D01*
X19045200Y-9647200D02*
X19080200Y-9682200D01*
X19080200Y-9647200D02*
X19045200Y-9682200D01*
X19057900Y-11107700D02*
X19092900Y-11142700D01*
X19092900Y-11107700D02*
X19057900Y-11142700D01*
X19375400Y-9964700D02*
X19410400Y-9999700D01*
X19410400Y-9964700D02*
X19375400Y-9999700D01*
X19794500Y-11209300D02*
X19829500Y-11244300D01*
X19829500Y-11209300D02*
X19794500Y-11244300D01*
X19908800Y-9659900D02*
X19943800Y-9694900D01*
X19943800Y-9659900D02*
X19908800Y-9694900D01*
D13*
X12794406Y-6570506D02*
G75*
G03*
X12794406Y-6570506I-25000J0D01*
G01*
X12794406Y-13152594D02*
G75*
G03*
X12794406Y-13152594I-25000J0D01*
G01*
X12864700Y-6400800D02*
G75*
G03*
X12864700Y-6400800I-25000J0D01*
G01*
X12864700Y-6740211D02*
G75*
G03*
X12864700Y-6740211I-25000J0D01*
G01*
X12864700Y-12982889D02*
G75*
G03*
X12864700Y-12982889I-25000J0D01*
G01*
X12864700Y-13322300D02*
G75*
G03*
X12864700Y-13322300I-25000J0D01*
G01*
X13034406Y-6330506D02*
G75*
G03*
X13034406Y-6330506I-25000J0D01*
G01*
X13034406Y-6810506D02*
G75*
G03*
X13034406Y-6810506I-25000J0D01*
G01*
X13034406Y-12912594D02*
G75*
G03*
X13034406Y-12912594I-25000J0D01*
G01*
X13034406Y-13392594D02*
G75*
G03*
X13034406Y-13392594I-25000J0D01*
G01*
X13204111Y-6400800D02*
G75*
G03*
X13204111Y-6400800I-25000J0D01*
G01*
X13204111Y-6740211D02*
G75*
G03*
X13204111Y-6740211I-25000J0D01*
G01*
X13204111Y-12982889D02*
G75*
G03*
X13204111Y-12982889I-25000J0D01*
G01*
X13204111Y-13322300D02*
G75*
G03*
X13204111Y-13322300I-25000J0D01*
G01*
X13274406Y-6570506D02*
G75*
G03*
X13274406Y-6570506I-25000J0D01*
G01*
X13274406Y-13152594D02*
G75*
G03*
X13274406Y-13152594I-25000J0D01*
G01*
X18192600Y-8843500D02*
G75*
G03*
X18192600Y-8843500I-25000J0D01*
G01*
X18382600Y-8843500D02*
G75*
G03*
X18382600Y-8843500I-25000J0D01*
G01*
X19376494Y-6570506D02*
G75*
G03*
X19376494Y-6570506I-25000J0D01*
G01*
X19376494Y-13152594D02*
G75*
G03*
X19376494Y-13152594I-25000J0D01*
G01*
X19446789Y-6400800D02*
G75*
G03*
X19446789Y-6400800I-25000J0D01*
G01*
X19446789Y-6740211D02*
G75*
G03*
X19446789Y-6740211I-25000J0D01*
G01*
X19446789Y-12982889D02*
G75*
G03*
X19446789Y-12982889I-25000J0D01*
G01*
X19446789Y-13322300D02*
G75*
G03*
X19446789Y-13322300I-25000J0D01*
G01*
X19616494Y-6330506D02*
G75*
G03*
X19616494Y-6330506I-25000J0D01*
G01*
X19616494Y-6810506D02*
G75*
G03*
X19616494Y-6810506I-25000J0D01*
G01*
X19616494Y-12912594D02*
G75*
G03*
X19616494Y-12912594I-25000J0D01*
G01*
X19616494Y-13392594D02*
G75*
G03*
X19616494Y-13392594I-25000J0D01*
G01*
X19786200Y-6400800D02*
G75*
G03*
X19786200Y-6400800I-25000J0D01*
G01*
X19786200Y-6740211D02*
G75*
G03*
X19786200Y-6740211I-25000J0D01*
G01*
X19786200Y-12982889D02*
G75*
G03*
X19786200Y-12982889I-25000J0D01*
G01*
X19786200Y-13322300D02*
G75*
G03*
X19786200Y-13322300I-25000J0D01*
G01*
X19856494Y-6570506D02*
G75*
G03*
X19856494Y-6570506I-25000J0D01*
G01*
X19856494Y-13152594D02*
G75*
G03*
X19856494Y-13152594I-25000J0D01*
G01*
D14*
X13525500Y-13178000D02*
X13525500Y-13238000D01*
X13495500Y-13208000D02*
X13555500Y-13208000D01*
D11*
X13495500Y-13154000D02*
X13495500Y-13262000D01*
X13495500Y-13262000D02*
G75*
G03*
X13555500Y-13262000I30000J0D01*
G01*
X13555500Y-13262000D02*
X13555500Y-13154000D01*
X13555500Y-13154000D02*
G75*
G03*
X13495500Y-13154000I-30000J0D01*
G01*
D14*
X15786100Y-13178000D02*
X15786100Y-13238000D01*
X15756100Y-13208000D02*
X15816100Y-13208000D01*
D11*
X15756100Y-13154000D02*
X15756100Y-13262000D01*
X15756100Y-13262000D02*
G75*
G03*
X15816100Y-13262000I30000J0D01*
G01*
X15816100Y-13262000D02*
X15816100Y-13154000D01*
X15816100Y-13154000D02*
G75*
G03*
X15756100Y-13154000I-30000J0D01*
G01*
D15*
X12821938Y-9799888D02*
X12821938Y-9732712D01*
X12754762Y-9732712D01*
X12754762Y-9799888D01*
X12821938Y-9799888D01*
X12821938Y-10049888D02*
X12821938Y-9982712D01*
X12754762Y-9982712D01*
X12754762Y-10049888D01*
X12821938Y-10049888D01*
X12821938Y-10299888D02*
X12821938Y-10232712D01*
X12754762Y-10232712D01*
X12754762Y-10299888D01*
X12821938Y-10299888D01*
X12821938Y-10549888D02*
X12821938Y-10482712D01*
X12754762Y-10482712D01*
X12754762Y-10549888D01*
X12821938Y-10549888D01*
X12822488Y-7440288D02*
X12822488Y-7373112D01*
X12755312Y-7373112D01*
X12755312Y-7440288D01*
X12822488Y-7440288D01*
X12822488Y-7690288D02*
X12822488Y-7623112D01*
X12755312Y-7623112D01*
X12755312Y-7690288D01*
X12822488Y-7690288D01*
X12822488Y-7940288D02*
X12822488Y-7873112D01*
X12755312Y-7873112D01*
X12755312Y-7940288D01*
X12822488Y-7940288D01*
X12822488Y-8190288D02*
X12822488Y-8123112D01*
X12755312Y-8123112D01*
X12755312Y-8190288D01*
X12822488Y-8190288D01*
X12822488Y-8440288D02*
X12822488Y-8373112D01*
X12755312Y-8373112D01*
X12755312Y-8440288D01*
X12822488Y-8440288D01*
X12822488Y-8690288D02*
X12822488Y-8623112D01*
X12755312Y-8623112D01*
X12755312Y-8690288D01*
X12822488Y-8690288D01*
X12822488Y-8940288D02*
X12822488Y-8873112D01*
X12755312Y-8873112D01*
X12755312Y-8940288D01*
X12822488Y-8940288D01*
X12822488Y-9190288D02*
X12822488Y-9123112D01*
X12755312Y-9123112D01*
X12755312Y-9190288D01*
X12822488Y-9190288D01*
D16*
X19392900Y-11557200D02*
X19442900Y-11507200D01*
X19392900Y-11457200D01*
X19342900Y-11507200D01*
X19392900Y-11557200D01*
X19392900Y-12317200D02*
X19442900Y-12267200D01*
X19392900Y-12217200D01*
X19342900Y-12267200D01*
X19392900Y-12317200D01*
D10*
X16375100Y-13348500D02*
X16475100Y-13448500D01*
X16475100Y-13348500D02*
X16375100Y-13448500D01*
X16475100Y-13398500D02*
G75*
G03*
X16475100Y-13398500I-50000J0D01*
G01*
X16625100Y-13348500D02*
X16725100Y-13448500D01*
X16725100Y-13348500D02*
X16625100Y-13448500D01*
X16725100Y-13398500D02*
G75*
G03*
X16725100Y-13398500I-50000J0D01*
G01*
X17772100Y-13348500D02*
X17872100Y-13448500D01*
X17872100Y-13348500D02*
X17772100Y-13448500D01*
X17872100Y-13398500D02*
G75*
G03*
X17872100Y-13398500I-50000J0D01*
G01*
X18022100Y-13348500D02*
X18122100Y-13448500D01*
X18122100Y-13348500D02*
X18022100Y-13448500D01*
X18122100Y-13398500D02*
G75*
G03*
X18122100Y-13398500I-50000J0D01*
G01*
D17*
X13957100Y-6555100D02*
X14059100Y-6657100D01*
X14059100Y-6555100D02*
X13957100Y-6657100D01*
X14008100Y-6555100D02*
X14008100Y-6657100D01*
X13957100Y-6606100D02*
X14059100Y-6606100D01*
X13957100Y-6809100D02*
X14059100Y-6911100D01*
X14059100Y-6809100D02*
X13957100Y-6911100D01*
X14008100Y-6809100D02*
X14008100Y-6911100D01*
X13957100Y-6860100D02*
X14059100Y-6860100D01*
X13957100Y-7063100D02*
X14059100Y-7165100D01*
X14059100Y-7063100D02*
X13957100Y-7165100D01*
X14008100Y-7063100D02*
X14008100Y-7165100D01*
X13957100Y-7114100D02*
X14059100Y-7114100D01*
X13957100Y-7317100D02*
X14059100Y-7419100D01*
X14059100Y-7317100D02*
X13957100Y-7419100D01*
X14008100Y-7317100D02*
X14008100Y-7419100D01*
X13957100Y-7368100D02*
X14059100Y-7368100D01*
X13957100Y-7571100D02*
X14059100Y-7673100D01*
X14059100Y-7571100D02*
X13957100Y-7673100D01*
X14008100Y-7571100D02*
X14008100Y-7673100D01*
X13957100Y-7622100D02*
X14059100Y-7622100D01*
X13957100Y-7825100D02*
X14059100Y-7927100D01*
X14059100Y-7825100D02*
X13957100Y-7927100D01*
X14008100Y-7825100D02*
X14008100Y-7927100D01*
X13957100Y-7876100D02*
X14059100Y-7876100D01*
X13957100Y-8079100D02*
X14059100Y-8181100D01*
X14059100Y-8079100D02*
X13957100Y-8181100D01*
X14008100Y-8079100D02*
X14008100Y-8181100D01*
X13957100Y-8130100D02*
X14059100Y-8130100D01*
X13957100Y-8333100D02*
X14059100Y-8435100D01*
X14059100Y-8333100D02*
X13957100Y-8435100D01*
X14008100Y-8333100D02*
X14008100Y-8435100D01*
X13957100Y-8384100D02*
X14059100Y-8384100D01*
X13957100Y-8587100D02*
X14059100Y-8689100D01*
X14059100Y-8587100D02*
X13957100Y-8689100D01*
X14008100Y-8587100D02*
X14008100Y-8689100D01*
X13957100Y-8638100D02*
X14059100Y-8638100D01*
X13957100Y-8841100D02*
X14059100Y-8943100D01*
X14059100Y-8841100D02*
X13957100Y-8943100D01*
X14008100Y-8841100D02*
X14008100Y-8943100D01*
X13957100Y-8892100D02*
X14059100Y-8892100D01*
X13957100Y-9095100D02*
X14059100Y-9197100D01*
X14059100Y-9095100D02*
X13957100Y-9197100D01*
X14008100Y-9095100D02*
X14008100Y-9197100D01*
X13957100Y-9146100D02*
X14059100Y-9146100D01*
X13957100Y-9349100D02*
X14059100Y-9451100D01*
X14059100Y-9349100D02*
X13957100Y-9451100D01*
X14008100Y-9349100D02*
X14008100Y-9451100D01*
X13957100Y-9400100D02*
X14059100Y-9400100D01*
X13957100Y-9603100D02*
X14059100Y-9705100D01*
X14059100Y-9603100D02*
X13957100Y-9705100D01*
X14008100Y-9603100D02*
X14008100Y-9705100D01*
X13957100Y-9654100D02*
X14059100Y-9654100D01*
X13957100Y-9857100D02*
X14059100Y-9959100D01*
X14059100Y-9857100D02*
X13957100Y-9959100D01*
X14008100Y-9857100D02*
X14008100Y-9959100D01*
X13957100Y-9908100D02*
X14059100Y-9908100D01*
X13957100Y-10111100D02*
X14059100Y-10213100D01*
X14059100Y-10111100D02*
X13957100Y-10213100D01*
X14008100Y-10111100D02*
X14008100Y-10213100D01*
X13957100Y-10162100D02*
X14059100Y-10162100D01*
X16497100Y-6555100D02*
X16599100Y-6657100D01*
X16599100Y-6555100D02*
X16497100Y-6657100D01*
X16548100Y-6555100D02*
X16548100Y-6657100D01*
X16497100Y-6606100D02*
X16599100Y-6606100D01*
X16497100Y-6809100D02*
X16599100Y-6911100D01*
X16599100Y-6809100D02*
X16497100Y-6911100D01*
X16548100Y-6809100D02*
X16548100Y-6911100D01*
X16497100Y-6860100D02*
X16599100Y-6860100D01*
X16497100Y-7063100D02*
X16599100Y-7165100D01*
X16599100Y-7063100D02*
X16497100Y-7165100D01*
X16548100Y-7063100D02*
X16548100Y-7165100D01*
X16497100Y-7114100D02*
X16599100Y-7114100D01*
X16497100Y-7317100D02*
X16599100Y-7419100D01*
X16599100Y-7317100D02*
X16497100Y-7419100D01*
X16548100Y-7317100D02*
X16548100Y-7419100D01*
X16497100Y-7368100D02*
X16599100Y-7368100D01*
X16497100Y-7571100D02*
X16599100Y-7673100D01*
X16599100Y-7571100D02*
X16497100Y-7673100D01*
X16548100Y-7571100D02*
X16548100Y-7673100D01*
X16497100Y-7622100D02*
X16599100Y-7622100D01*
X16497100Y-7825100D02*
X16599100Y-7927100D01*
X16599100Y-7825100D02*
X16497100Y-7927100D01*
X16548100Y-7825100D02*
X16548100Y-7927100D01*
X16497100Y-7876100D02*
X16599100Y-7876100D01*
X16497100Y-8079100D02*
X16599100Y-8181100D01*
X16599100Y-8079100D02*
X16497100Y-8181100D01*
X16548100Y-8079100D02*
X16548100Y-8181100D01*
X16497100Y-8130100D02*
X16599100Y-8130100D01*
X16497100Y-8333100D02*
X16599100Y-8435100D01*
X16599100Y-8333100D02*
X16497100Y-8435100D01*
X16548100Y-8333100D02*
X16548100Y-8435100D01*
X16497100Y-8384100D02*
X16599100Y-8384100D01*
X16497100Y-8587100D02*
X16599100Y-8689100D01*
X16599100Y-8587100D02*
X16497100Y-8689100D01*
X16548100Y-8587100D02*
X16548100Y-8689100D01*
X16497100Y-8638100D02*
X16599100Y-8638100D01*
X16497100Y-8841100D02*
X16599100Y-8943100D01*
X16599100Y-8841100D02*
X16497100Y-8943100D01*
X16548100Y-8841100D02*
X16548100Y-8943100D01*
X16497100Y-8892100D02*
X16599100Y-8892100D01*
X16497100Y-9095100D02*
X16599100Y-9197100D01*
X16599100Y-9095100D02*
X16497100Y-9197100D01*
X16548100Y-9095100D02*
X16548100Y-9197100D01*
X16497100Y-9146100D02*
X16599100Y-9146100D01*
X16497100Y-9349100D02*
X16599100Y-9451100D01*
X16599100Y-9349100D02*
X16497100Y-9451100D01*
X16548100Y-9349100D02*
X16548100Y-9451100D01*
X16497100Y-9400100D02*
X16599100Y-9400100D01*
X16497100Y-9603100D02*
X16599100Y-9705100D01*
X16599100Y-9603100D02*
X16497100Y-9705100D01*
X16548100Y-9603100D02*
X16548100Y-9705100D01*
X16497100Y-9654100D02*
X16599100Y-9654100D01*
X16497100Y-9857100D02*
X16599100Y-9959100D01*
X16599100Y-9857100D02*
X16497100Y-9959100D01*
X16548100Y-9857100D02*
X16548100Y-9959100D01*
X16497100Y-9908100D02*
X16599100Y-9908100D01*
X16497100Y-10111100D02*
X16599100Y-10213100D01*
X16599100Y-10111100D02*
X16497100Y-10213100D01*
X16548100Y-10111100D02*
X16548100Y-10213100D01*
X16497100Y-10162100D02*
X16599100Y-10162100D01*
D18*
X19866300Y-9972800D02*
X19986300Y-10092800D01*
X19986300Y-9972800D02*
X19866300Y-10092800D01*
X19968727Y-10075227D02*
X19968727Y-9990373D01*
X19883873Y-9990373D01*
X19883873Y-10075227D01*
X19968727Y-10075227D01*
X19866300Y-10772800D02*
X19986300Y-10892800D01*
X19986300Y-10772800D02*
X19866300Y-10892800D01*
X19968727Y-10875227D02*
X19968727Y-10790373D01*
X19883873Y-10790373D01*
X19883873Y-10875227D01*
X19968727Y-10875227D01*
D19*
X17683300Y-6770300D02*
X17833300Y-6920300D01*
X17833300Y-6770300D02*
X17683300Y-6920300D01*
X17758300Y-6920300D02*
X17833300Y-6845300D01*
X17758300Y-6770300D01*
X17683300Y-6845300D01*
X17758300Y-6920300D01*
X18433300Y-6770300D02*
X18583300Y-6920300D01*
X18583300Y-6770300D02*
X18433300Y-6920300D01*
X18508300Y-6920300D02*
X18583300Y-6845300D01*
X18508300Y-6770300D01*
X18433300Y-6845300D01*
X18508300Y-6920300D01*
D20*
X13009406Y-6410506D02*
X13009406Y-6730506D01*
X12849406Y-6570506D02*
X13169406Y-6570506D01*
X13169406Y-6570506D02*
G75*
G03*
X13169406Y-6570506I-160000J0D01*
G01*
X13009406Y-12992594D02*
X13009406Y-13312594D01*
X12849406Y-13152594D02*
X13169406Y-13152594D01*
X13169406Y-13152594D02*
G75*
G03*
X13169406Y-13152594I-160000J0D01*
G01*
X19591494Y-6410506D02*
X19591494Y-6730506D01*
X19431494Y-6570506D02*
X19751494Y-6570506D01*
X19751494Y-6570506D02*
G75*
G03*
X19751494Y-6570506I-160000J0D01*
G01*
X19591494Y-12992594D02*
X19591494Y-13312594D01*
X19431494Y-13152594D02*
X19751494Y-13152594D01*
X19751494Y-13152594D02*
G75*
G03*
X19751494Y-13152594I-160000J0D01*
G01*
D11*
X12696697Y-14035024D02*
X12696697Y-13835024D01*
X12696697Y-13835024D02*
X12744316Y-13835024D01*
X12744316Y-13835024D02*
X12772887Y-13844548D01*
X12772887Y-13844548D02*
X12791935Y-13863595D01*
X12791935Y-13863595D02*
X12801459Y-13882643D01*
X12801459Y-13882643D02*
X12810982Y-13920738D01*
X12810982Y-13920738D02*
X12810982Y-13949309D01*
X12810982Y-13949309D02*
X12801459Y-13987405D01*
X12801459Y-13987405D02*
X12791935Y-14006452D01*
X12791935Y-14006452D02*
X12772887Y-14025500D01*
X12772887Y-14025500D02*
X12744316Y-14035024D01*
X12744316Y-14035024D02*
X12696697Y-14035024D01*
X12896697Y-14035024D02*
X12896697Y-13901690D01*
X12896697Y-13939786D02*
X12906221Y-13920738D01*
X12906221Y-13920738D02*
X12915744Y-13911214D01*
X12915744Y-13911214D02*
X12934792Y-13901690D01*
X12934792Y-13901690D02*
X12953840Y-13901690D01*
X13020506Y-14035024D02*
X13020506Y-13901690D01*
X13020506Y-13835024D02*
X13010982Y-13844548D01*
X13010982Y-13844548D02*
X13020506Y-13854071D01*
X13020506Y-13854071D02*
X13030030Y-13844548D01*
X13030030Y-13844548D02*
X13020506Y-13835024D01*
X13020506Y-13835024D02*
X13020506Y-13854071D01*
X13144316Y-14035024D02*
X13125268Y-14025500D01*
X13125268Y-14025500D02*
X13115744Y-14006452D01*
X13115744Y-14006452D02*
X13115744Y-13835024D01*
X13249078Y-14035024D02*
X13230030Y-14025500D01*
X13230030Y-14025500D02*
X13220506Y-14006452D01*
X13220506Y-14006452D02*
X13220506Y-13835024D01*
X13477649Y-14035024D02*
X13477649Y-13835024D01*
X13477649Y-13835024D02*
X13544316Y-13977881D01*
X13544316Y-13977881D02*
X13610982Y-13835024D01*
X13610982Y-13835024D02*
X13610982Y-14035024D01*
X13791935Y-14035024D02*
X13791935Y-13930262D01*
X13791935Y-13930262D02*
X13782411Y-13911214D01*
X13782411Y-13911214D02*
X13763363Y-13901690D01*
X13763363Y-13901690D02*
X13725268Y-13901690D01*
X13725268Y-13901690D02*
X13706221Y-13911214D01*
X13791935Y-14025500D02*
X13772887Y-14035024D01*
X13772887Y-14035024D02*
X13725268Y-14035024D01*
X13725268Y-14035024D02*
X13706221Y-14025500D01*
X13706221Y-14025500D02*
X13696697Y-14006452D01*
X13696697Y-14006452D02*
X13696697Y-13987405D01*
X13696697Y-13987405D02*
X13706221Y-13968357D01*
X13706221Y-13968357D02*
X13725268Y-13958833D01*
X13725268Y-13958833D02*
X13772887Y-13958833D01*
X13772887Y-13958833D02*
X13791935Y-13949309D01*
X13887173Y-13901690D02*
X13887173Y-14101690D01*
X13887173Y-13911214D02*
X13906221Y-13901690D01*
X13906221Y-13901690D02*
X13944316Y-13901690D01*
X13944316Y-13901690D02*
X13963363Y-13911214D01*
X13963363Y-13911214D02*
X13972887Y-13920738D01*
X13972887Y-13920738D02*
X13982411Y-13939786D01*
X13982411Y-13939786D02*
X13982411Y-13996928D01*
X13982411Y-13996928D02*
X13972887Y-14015976D01*
X13972887Y-14015976D02*
X13963363Y-14025500D01*
X13963363Y-14025500D02*
X13944316Y-14035024D01*
X13944316Y-14035024D02*
X13906221Y-14035024D01*
X13906221Y-14035024D02*
X13887173Y-14025500D01*
X14068125Y-14015976D02*
X14077649Y-14025500D01*
X14077649Y-14025500D02*
X14068125Y-14035024D01*
X14068125Y-14035024D02*
X14058602Y-14025500D01*
X14058602Y-14025500D02*
X14068125Y-14015976D01*
X14068125Y-14015976D02*
X14068125Y-14035024D01*
X14068125Y-13911214D02*
X14077649Y-13920738D01*
X14077649Y-13920738D02*
X14068125Y-13930262D01*
X14068125Y-13930262D02*
X14058602Y-13920738D01*
X14058602Y-13920738D02*
X14068125Y-13911214D01*
X14068125Y-13911214D02*
X14068125Y-13930262D01*
D12*
X12400920Y-14346040D02*
X12435920Y-14381040D01*
X12435920Y-14346040D02*
X12400920Y-14381040D01*
D11*
X12734792Y-14255024D02*
X12753840Y-14255024D01*
X12753840Y-14255024D02*
X12772887Y-14264548D01*
X12772887Y-14264548D02*
X12782411Y-14274071D01*
X12782411Y-14274071D02*
X12791935Y-14293119D01*
X12791935Y-14293119D02*
X12801459Y-14331214D01*
X12801459Y-14331214D02*
X12801459Y-14378833D01*
X12801459Y-14378833D02*
X12791935Y-14416928D01*
X12791935Y-14416928D02*
X12782411Y-14435976D01*
X12782411Y-14435976D02*
X12772887Y-14445500D01*
X12772887Y-14445500D02*
X12753840Y-14455024D01*
X12753840Y-14455024D02*
X12734792Y-14455024D01*
X12734792Y-14455024D02*
X12715744Y-14445500D01*
X12715744Y-14445500D02*
X12706221Y-14435976D01*
X12706221Y-14435976D02*
X12696697Y-14416928D01*
X12696697Y-14416928D02*
X12687173Y-14378833D01*
X12687173Y-14378833D02*
X12687173Y-14331214D01*
X12687173Y-14331214D02*
X12696697Y-14293119D01*
X12696697Y-14293119D02*
X12706221Y-14274071D01*
X12706221Y-14274071D02*
X12715744Y-14264548D01*
X12715744Y-14264548D02*
X12734792Y-14255024D01*
X12887173Y-14435976D02*
X12896697Y-14445500D01*
X12896697Y-14445500D02*
X12887173Y-14455024D01*
X12887173Y-14455024D02*
X12877649Y-14445500D01*
X12877649Y-14445500D02*
X12887173Y-14435976D01*
X12887173Y-14435976D02*
X12887173Y-14455024D01*
X12963363Y-14255024D02*
X13087173Y-14255024D01*
X13087173Y-14255024D02*
X13020506Y-14331214D01*
X13020506Y-14331214D02*
X13049078Y-14331214D01*
X13049078Y-14331214D02*
X13068125Y-14340738D01*
X13068125Y-14340738D02*
X13077649Y-14350262D01*
X13077649Y-14350262D02*
X13087173Y-14369309D01*
X13087173Y-14369309D02*
X13087173Y-14416928D01*
X13087173Y-14416928D02*
X13077649Y-14435976D01*
X13077649Y-14435976D02*
X13068125Y-14445500D01*
X13068125Y-14445500D02*
X13049078Y-14455024D01*
X13049078Y-14455024D02*
X12991935Y-14455024D01*
X12991935Y-14455024D02*
X12972887Y-14445500D01*
X12972887Y-14445500D02*
X12963363Y-14435976D01*
X13268125Y-14255024D02*
X13172887Y-14255024D01*
X13172887Y-14255024D02*
X13163363Y-14350262D01*
X13163363Y-14350262D02*
X13172887Y-14340738D01*
X13172887Y-14340738D02*
X13191935Y-14331214D01*
X13191935Y-14331214D02*
X13239554Y-14331214D01*
X13239554Y-14331214D02*
X13258602Y-14340738D01*
X13258602Y-14340738D02*
X13268125Y-14350262D01*
X13268125Y-14350262D02*
X13277649Y-14369309D01*
X13277649Y-14369309D02*
X13277649Y-14416928D01*
X13277649Y-14416928D02*
X13268125Y-14435976D01*
X13268125Y-14435976D02*
X13258602Y-14445500D01*
X13258602Y-14445500D02*
X13239554Y-14455024D01*
X13239554Y-14455024D02*
X13191935Y-14455024D01*
X13191935Y-14455024D02*
X13172887Y-14445500D01*
X13172887Y-14445500D02*
X13163363Y-14435976D01*
X13401459Y-14255024D02*
X13420506Y-14255024D01*
X13420506Y-14255024D02*
X13439554Y-14264548D01*
X13439554Y-14264548D02*
X13449078Y-14274071D01*
X13449078Y-14274071D02*
X13458602Y-14293119D01*
X13458602Y-14293119D02*
X13468125Y-14331214D01*
X13468125Y-14331214D02*
X13468125Y-14378833D01*
X13468125Y-14378833D02*
X13458602Y-14416928D01*
X13458602Y-14416928D02*
X13449078Y-14435976D01*
X13449078Y-14435976D02*
X13439554Y-14445500D01*
X13439554Y-14445500D02*
X13420506Y-14455024D01*
X13420506Y-14455024D02*
X13401459Y-14455024D01*
X13401459Y-14455024D02*
X13382411Y-14445500D01*
X13382411Y-14445500D02*
X13372887Y-14435976D01*
X13372887Y-14435976D02*
X13363363Y-14416928D01*
X13363363Y-14416928D02*
X13353840Y-14378833D01*
X13353840Y-14378833D02*
X13353840Y-14331214D01*
X13353840Y-14331214D02*
X13363363Y-14293119D01*
X13363363Y-14293119D02*
X13372887Y-14274071D01*
X13372887Y-14274071D02*
X13382411Y-14264548D01*
X13382411Y-14264548D02*
X13401459Y-14255024D01*
X13553840Y-14455024D02*
X13553840Y-14321690D01*
X13553840Y-14340738D02*
X13563363Y-14331214D01*
X13563363Y-14331214D02*
X13582411Y-14321690D01*
X13582411Y-14321690D02*
X13610983Y-14321690D01*
X13610983Y-14321690D02*
X13630030Y-14331214D01*
X13630030Y-14331214D02*
X13639554Y-14350262D01*
X13639554Y-14350262D02*
X13639554Y-14455024D01*
X13639554Y-14350262D02*
X13649078Y-14331214D01*
X13649078Y-14331214D02*
X13668125Y-14321690D01*
X13668125Y-14321690D02*
X13696697Y-14321690D01*
X13696697Y-14321690D02*
X13715744Y-14331214D01*
X13715744Y-14331214D02*
X13725268Y-14350262D01*
X13725268Y-14350262D02*
X13725268Y-14455024D01*
X13820506Y-14455024D02*
X13820506Y-14321690D01*
X13820506Y-14340738D02*
X13830030Y-14331214D01*
X13830030Y-14331214D02*
X13849078Y-14321690D01*
X13849078Y-14321690D02*
X13877649Y-14321690D01*
X13877649Y-14321690D02*
X13896697Y-14331214D01*
X13896697Y-14331214D02*
X13906221Y-14350262D01*
X13906221Y-14350262D02*
X13906221Y-14455024D01*
X13906221Y-14350262D02*
X13915744Y-14331214D01*
X13915744Y-14331214D02*
X13934792Y-14321690D01*
X13934792Y-14321690D02*
X13963363Y-14321690D01*
X13963363Y-14321690D02*
X13982411Y-14331214D01*
X13982411Y-14331214D02*
X13991935Y-14350262D01*
X13991935Y-14350262D02*
X13991935Y-14455024D01*
X14382411Y-14245500D02*
X14210983Y-14502643D01*
X14639554Y-14255024D02*
X14658602Y-14255024D01*
X14658602Y-14255024D02*
X14677649Y-14264548D01*
X14677649Y-14264548D02*
X14687173Y-14274071D01*
X14687173Y-14274071D02*
X14696697Y-14293119D01*
X14696697Y-14293119D02*
X14706221Y-14331214D01*
X14706221Y-14331214D02*
X14706221Y-14378833D01*
X14706221Y-14378833D02*
X14696697Y-14416928D01*
X14696697Y-14416928D02*
X14687173Y-14435976D01*
X14687173Y-14435976D02*
X14677649Y-14445500D01*
X14677649Y-14445500D02*
X14658602Y-14455024D01*
X14658602Y-14455024D02*
X14639554Y-14455024D01*
X14639554Y-14455024D02*
X14620506Y-14445500D01*
X14620506Y-14445500D02*
X14610983Y-14435976D01*
X14610983Y-14435976D02*
X14601459Y-14416928D01*
X14601459Y-14416928D02*
X14591935Y-14378833D01*
X14591935Y-14378833D02*
X14591935Y-14331214D01*
X14591935Y-14331214D02*
X14601459Y-14293119D01*
X14601459Y-14293119D02*
X14610983Y-14274071D01*
X14610983Y-14274071D02*
X14620506Y-14264548D01*
X14620506Y-14264548D02*
X14639554Y-14255024D01*
X14791935Y-14435976D02*
X14801459Y-14445500D01*
X14801459Y-14445500D02*
X14791935Y-14455024D01*
X14791935Y-14455024D02*
X14782411Y-14445500D01*
X14782411Y-14445500D02*
X14791935Y-14435976D01*
X14791935Y-14435976D02*
X14791935Y-14455024D01*
X14925268Y-14255024D02*
X14944316Y-14255024D01*
X14944316Y-14255024D02*
X14963364Y-14264548D01*
X14963364Y-14264548D02*
X14972887Y-14274071D01*
X14972887Y-14274071D02*
X14982411Y-14293119D01*
X14982411Y-14293119D02*
X14991935Y-14331214D01*
X14991935Y-14331214D02*
X14991935Y-14378833D01*
X14991935Y-14378833D02*
X14982411Y-14416928D01*
X14982411Y-14416928D02*
X14972887Y-14435976D01*
X14972887Y-14435976D02*
X14963364Y-14445500D01*
X14963364Y-14445500D02*
X14944316Y-14455024D01*
X14944316Y-14455024D02*
X14925268Y-14455024D01*
X14925268Y-14455024D02*
X14906221Y-14445500D01*
X14906221Y-14445500D02*
X14896697Y-14435976D01*
X14896697Y-14435976D02*
X14887173Y-14416928D01*
X14887173Y-14416928D02*
X14877649Y-14378833D01*
X14877649Y-14378833D02*
X14877649Y-14331214D01*
X14877649Y-14331214D02*
X14887173Y-14293119D01*
X14887173Y-14293119D02*
X14896697Y-14274071D01*
X14896697Y-14274071D02*
X14906221Y-14264548D01*
X14906221Y-14264548D02*
X14925268Y-14255024D01*
X15182411Y-14455024D02*
X15068126Y-14455024D01*
X15125268Y-14455024D02*
X15125268Y-14255024D01*
X15125268Y-14255024D02*
X15106221Y-14283595D01*
X15106221Y-14283595D02*
X15087173Y-14302643D01*
X15087173Y-14302643D02*
X15068126Y-14312167D01*
X15249078Y-14255024D02*
X15372887Y-14255024D01*
X15372887Y-14255024D02*
X15306221Y-14331214D01*
X15306221Y-14331214D02*
X15334792Y-14331214D01*
X15334792Y-14331214D02*
X15353840Y-14340738D01*
X15353840Y-14340738D02*
X15363364Y-14350262D01*
X15363364Y-14350262D02*
X15372887Y-14369309D01*
X15372887Y-14369309D02*
X15372887Y-14416928D01*
X15372887Y-14416928D02*
X15363364Y-14435976D01*
X15363364Y-14435976D02*
X15353840Y-14445500D01*
X15353840Y-14445500D02*
X15334792Y-14455024D01*
X15334792Y-14455024D02*
X15277649Y-14455024D01*
X15277649Y-14455024D02*
X15258602Y-14445500D01*
X15258602Y-14445500D02*
X15249078Y-14435976D01*
X15487173Y-14340738D02*
X15468126Y-14331214D01*
X15468126Y-14331214D02*
X15458602Y-14321690D01*
X15458602Y-14321690D02*
X15449078Y-14302643D01*
X15449078Y-14302643D02*
X15449078Y-14293119D01*
X15449078Y-14293119D02*
X15458602Y-14274071D01*
X15458602Y-14274071D02*
X15468126Y-14264548D01*
X15468126Y-14264548D02*
X15487173Y-14255024D01*
X15487173Y-14255024D02*
X15525268Y-14255024D01*
X15525268Y-14255024D02*
X15544316Y-14264548D01*
X15544316Y-14264548D02*
X15553840Y-14274071D01*
X15553840Y-14274071D02*
X15563364Y-14293119D01*
X15563364Y-14293119D02*
X15563364Y-14302643D01*
X15563364Y-14302643D02*
X15553840Y-14321690D01*
X15553840Y-14321690D02*
X15544316Y-14331214D01*
X15544316Y-14331214D02*
X15525268Y-14340738D01*
X15525268Y-14340738D02*
X15487173Y-14340738D01*
X15487173Y-14340738D02*
X15468126Y-14350262D01*
X15468126Y-14350262D02*
X15458602Y-14359786D01*
X15458602Y-14359786D02*
X15449078Y-14378833D01*
X15449078Y-14378833D02*
X15449078Y-14416928D01*
X15449078Y-14416928D02*
X15458602Y-14435976D01*
X15458602Y-14435976D02*
X15468126Y-14445500D01*
X15468126Y-14445500D02*
X15487173Y-14455024D01*
X15487173Y-14455024D02*
X15525268Y-14455024D01*
X15525268Y-14455024D02*
X15544316Y-14445500D01*
X15544316Y-14445500D02*
X15553840Y-14435976D01*
X15553840Y-14435976D02*
X15563364Y-14416928D01*
X15563364Y-14416928D02*
X15563364Y-14378833D01*
X15563364Y-14378833D02*
X15553840Y-14359786D01*
X15553840Y-14359786D02*
X15544316Y-14350262D01*
X15544316Y-14350262D02*
X15525268Y-14340738D01*
X15639554Y-14255024D02*
X15639554Y-14293119D01*
X15715745Y-14255024D02*
X15715745Y-14293119D01*
X16010983Y-14531214D02*
X16001459Y-14521690D01*
X16001459Y-14521690D02*
X15982411Y-14493119D01*
X15982411Y-14493119D02*
X15972888Y-14474071D01*
X15972888Y-14474071D02*
X15963364Y-14445500D01*
X15963364Y-14445500D02*
X15953840Y-14397881D01*
X15953840Y-14397881D02*
X15953840Y-14359786D01*
X15953840Y-14359786D02*
X15963364Y-14312167D01*
X15963364Y-14312167D02*
X15972888Y-14283595D01*
X15972888Y-14283595D02*
X15982411Y-14264548D01*
X15982411Y-14264548D02*
X16001459Y-14235976D01*
X16001459Y-14235976D02*
X16010983Y-14226452D01*
X16182411Y-14255024D02*
X16087173Y-14255024D01*
X16087173Y-14255024D02*
X16077649Y-14350262D01*
X16077649Y-14350262D02*
X16087173Y-14340738D01*
X16087173Y-14340738D02*
X16106221Y-14331214D01*
X16106221Y-14331214D02*
X16153840Y-14331214D01*
X16153840Y-14331214D02*
X16172888Y-14340738D01*
X16172888Y-14340738D02*
X16182411Y-14350262D01*
X16182411Y-14350262D02*
X16191935Y-14369309D01*
X16191935Y-14369309D02*
X16191935Y-14416928D01*
X16191935Y-14416928D02*
X16182411Y-14435976D01*
X16182411Y-14435976D02*
X16172888Y-14445500D01*
X16172888Y-14445500D02*
X16153840Y-14455024D01*
X16153840Y-14455024D02*
X16106221Y-14455024D01*
X16106221Y-14455024D02*
X16087173Y-14445500D01*
X16087173Y-14445500D02*
X16077649Y-14435976D01*
X16363364Y-14321690D02*
X16363364Y-14455024D01*
X16315745Y-14245500D02*
X16268126Y-14388357D01*
X16268126Y-14388357D02*
X16391935Y-14388357D01*
X16620507Y-14455024D02*
X16620507Y-14255024D01*
X16706221Y-14455024D02*
X16706221Y-14350262D01*
X16706221Y-14350262D02*
X16696697Y-14331214D01*
X16696697Y-14331214D02*
X16677650Y-14321690D01*
X16677650Y-14321690D02*
X16649078Y-14321690D01*
X16649078Y-14321690D02*
X16630030Y-14331214D01*
X16630030Y-14331214D02*
X16620507Y-14340738D01*
X16830031Y-14455024D02*
X16810983Y-14445500D01*
X16810983Y-14445500D02*
X16801459Y-14435976D01*
X16801459Y-14435976D02*
X16791935Y-14416928D01*
X16791935Y-14416928D02*
X16791935Y-14359786D01*
X16791935Y-14359786D02*
X16801459Y-14340738D01*
X16801459Y-14340738D02*
X16810983Y-14331214D01*
X16810983Y-14331214D02*
X16830031Y-14321690D01*
X16830031Y-14321690D02*
X16858602Y-14321690D01*
X16858602Y-14321690D02*
X16877650Y-14331214D01*
X16877650Y-14331214D02*
X16887173Y-14340738D01*
X16887173Y-14340738D02*
X16896697Y-14359786D01*
X16896697Y-14359786D02*
X16896697Y-14416928D01*
X16896697Y-14416928D02*
X16887173Y-14435976D01*
X16887173Y-14435976D02*
X16877650Y-14445500D01*
X16877650Y-14445500D02*
X16858602Y-14455024D01*
X16858602Y-14455024D02*
X16830031Y-14455024D01*
X17010983Y-14455024D02*
X16991935Y-14445500D01*
X16991935Y-14445500D02*
X16982412Y-14426452D01*
X16982412Y-14426452D02*
X16982412Y-14255024D01*
X17163364Y-14445500D02*
X17144316Y-14455024D01*
X17144316Y-14455024D02*
X17106221Y-14455024D01*
X17106221Y-14455024D02*
X17087173Y-14445500D01*
X17087173Y-14445500D02*
X17077650Y-14426452D01*
X17077650Y-14426452D02*
X17077650Y-14350262D01*
X17077650Y-14350262D02*
X17087173Y-14331214D01*
X17087173Y-14331214D02*
X17106221Y-14321690D01*
X17106221Y-14321690D02*
X17144316Y-14321690D01*
X17144316Y-14321690D02*
X17163364Y-14331214D01*
X17163364Y-14331214D02*
X17172888Y-14350262D01*
X17172888Y-14350262D02*
X17172888Y-14369309D01*
X17172888Y-14369309D02*
X17077650Y-14388357D01*
X17249078Y-14445500D02*
X17268126Y-14455024D01*
X17268126Y-14455024D02*
X17306221Y-14455024D01*
X17306221Y-14455024D02*
X17325269Y-14445500D01*
X17325269Y-14445500D02*
X17334793Y-14426452D01*
X17334793Y-14426452D02*
X17334793Y-14416928D01*
X17334793Y-14416928D02*
X17325269Y-14397881D01*
X17325269Y-14397881D02*
X17306221Y-14388357D01*
X17306221Y-14388357D02*
X17277650Y-14388357D01*
X17277650Y-14388357D02*
X17258602Y-14378833D01*
X17258602Y-14378833D02*
X17249078Y-14359786D01*
X17249078Y-14359786D02*
X17249078Y-14350262D01*
X17249078Y-14350262D02*
X17258602Y-14331214D01*
X17258602Y-14331214D02*
X17277650Y-14321690D01*
X17277650Y-14321690D02*
X17306221Y-14321690D01*
X17306221Y-14321690D02*
X17325269Y-14331214D01*
X17401459Y-14531214D02*
X17410983Y-14521690D01*
X17410983Y-14521690D02*
X17430031Y-14493119D01*
X17430031Y-14493119D02*
X17439554Y-14474071D01*
X17439554Y-14474071D02*
X17449078Y-14445500D01*
X17449078Y-14445500D02*
X17458602Y-14397881D01*
X17458602Y-14397881D02*
X17458602Y-14359786D01*
X17458602Y-14359786D02*
X17449078Y-14312167D01*
X17449078Y-14312167D02*
X17439554Y-14283595D01*
X17439554Y-14283595D02*
X17430031Y-14264548D01*
X17430031Y-14264548D02*
X17410983Y-14235976D01*
X17410983Y-14235976D02*
X17401459Y-14226452D01*
D13*
X12435920Y-14627540D02*
G75*
G03*
X12435920Y-14627540I-25000J0D01*
G01*
D11*
X12734792Y-14519024D02*
X12753840Y-14519024D01*
X12753840Y-14519024D02*
X12772887Y-14528548D01*
X12772887Y-14528548D02*
X12782411Y-14538071D01*
X12782411Y-14538071D02*
X12791935Y-14557119D01*
X12791935Y-14557119D02*
X12801459Y-14595214D01*
X12801459Y-14595214D02*
X12801459Y-14642833D01*
X12801459Y-14642833D02*
X12791935Y-14680928D01*
X12791935Y-14680928D02*
X12782411Y-14699976D01*
X12782411Y-14699976D02*
X12772887Y-14709500D01*
X12772887Y-14709500D02*
X12753840Y-14719024D01*
X12753840Y-14719024D02*
X12734792Y-14719024D01*
X12734792Y-14719024D02*
X12715744Y-14709500D01*
X12715744Y-14709500D02*
X12706221Y-14699976D01*
X12706221Y-14699976D02*
X12696697Y-14680928D01*
X12696697Y-14680928D02*
X12687173Y-14642833D01*
X12687173Y-14642833D02*
X12687173Y-14595214D01*
X12687173Y-14595214D02*
X12696697Y-14557119D01*
X12696697Y-14557119D02*
X12706221Y-14538071D01*
X12706221Y-14538071D02*
X12715744Y-14528548D01*
X12715744Y-14528548D02*
X12734792Y-14519024D01*
X12887173Y-14699976D02*
X12896697Y-14709500D01*
X12896697Y-14709500D02*
X12887173Y-14719024D01*
X12887173Y-14719024D02*
X12877649Y-14709500D01*
X12877649Y-14709500D02*
X12887173Y-14699976D01*
X12887173Y-14699976D02*
X12887173Y-14719024D01*
X13077649Y-14519024D02*
X12982411Y-14519024D01*
X12982411Y-14519024D02*
X12972887Y-14614262D01*
X12972887Y-14614262D02*
X12982411Y-14604738D01*
X12982411Y-14604738D02*
X13001459Y-14595214D01*
X13001459Y-14595214D02*
X13049078Y-14595214D01*
X13049078Y-14595214D02*
X13068125Y-14604738D01*
X13068125Y-14604738D02*
X13077649Y-14614262D01*
X13077649Y-14614262D02*
X13087173Y-14633309D01*
X13087173Y-14633309D02*
X13087173Y-14680928D01*
X13087173Y-14680928D02*
X13077649Y-14699976D01*
X13077649Y-14699976D02*
X13068125Y-14709500D01*
X13068125Y-14709500D02*
X13049078Y-14719024D01*
X13049078Y-14719024D02*
X13001459Y-14719024D01*
X13001459Y-14719024D02*
X12982411Y-14709500D01*
X12982411Y-14709500D02*
X12972887Y-14699976D01*
X13210982Y-14519024D02*
X13230030Y-14519024D01*
X13230030Y-14519024D02*
X13249078Y-14528548D01*
X13249078Y-14528548D02*
X13258602Y-14538071D01*
X13258602Y-14538071D02*
X13268125Y-14557119D01*
X13268125Y-14557119D02*
X13277649Y-14595214D01*
X13277649Y-14595214D02*
X13277649Y-14642833D01*
X13277649Y-14642833D02*
X13268125Y-14680928D01*
X13268125Y-14680928D02*
X13258602Y-14699976D01*
X13258602Y-14699976D02*
X13249078Y-14709500D01*
X13249078Y-14709500D02*
X13230030Y-14719024D01*
X13230030Y-14719024D02*
X13210982Y-14719024D01*
X13210982Y-14719024D02*
X13191935Y-14709500D01*
X13191935Y-14709500D02*
X13182411Y-14699976D01*
X13182411Y-14699976D02*
X13172887Y-14680928D01*
X13172887Y-14680928D02*
X13163363Y-14642833D01*
X13163363Y-14642833D02*
X13163363Y-14595214D01*
X13163363Y-14595214D02*
X13172887Y-14557119D01*
X13172887Y-14557119D02*
X13182411Y-14538071D01*
X13182411Y-14538071D02*
X13191935Y-14528548D01*
X13191935Y-14528548D02*
X13210982Y-14519024D01*
X13401459Y-14519024D02*
X13420506Y-14519024D01*
X13420506Y-14519024D02*
X13439554Y-14528548D01*
X13439554Y-14528548D02*
X13449078Y-14538071D01*
X13449078Y-14538071D02*
X13458602Y-14557119D01*
X13458602Y-14557119D02*
X13468125Y-14595214D01*
X13468125Y-14595214D02*
X13468125Y-14642833D01*
X13468125Y-14642833D02*
X13458602Y-14680928D01*
X13458602Y-14680928D02*
X13449078Y-14699976D01*
X13449078Y-14699976D02*
X13439554Y-14709500D01*
X13439554Y-14709500D02*
X13420506Y-14719024D01*
X13420506Y-14719024D02*
X13401459Y-14719024D01*
X13401459Y-14719024D02*
X13382411Y-14709500D01*
X13382411Y-14709500D02*
X13372887Y-14699976D01*
X13372887Y-14699976D02*
X13363363Y-14680928D01*
X13363363Y-14680928D02*
X13353840Y-14642833D01*
X13353840Y-14642833D02*
X13353840Y-14595214D01*
X13353840Y-14595214D02*
X13363363Y-14557119D01*
X13363363Y-14557119D02*
X13372887Y-14538071D01*
X13372887Y-14538071D02*
X13382411Y-14528548D01*
X13382411Y-14528548D02*
X13401459Y-14519024D01*
X13553840Y-14719024D02*
X13553840Y-14585690D01*
X13553840Y-14604738D02*
X13563363Y-14595214D01*
X13563363Y-14595214D02*
X13582411Y-14585690D01*
X13582411Y-14585690D02*
X13610983Y-14585690D01*
X13610983Y-14585690D02*
X13630030Y-14595214D01*
X13630030Y-14595214D02*
X13639554Y-14614262D01*
X13639554Y-14614262D02*
X13639554Y-14719024D01*
X13639554Y-14614262D02*
X13649078Y-14595214D01*
X13649078Y-14595214D02*
X13668125Y-14585690D01*
X13668125Y-14585690D02*
X13696697Y-14585690D01*
X13696697Y-14585690D02*
X13715744Y-14595214D01*
X13715744Y-14595214D02*
X13725268Y-14614262D01*
X13725268Y-14614262D02*
X13725268Y-14719024D01*
X13820506Y-14719024D02*
X13820506Y-14585690D01*
X13820506Y-14604738D02*
X13830030Y-14595214D01*
X13830030Y-14595214D02*
X13849078Y-14585690D01*
X13849078Y-14585690D02*
X13877649Y-14585690D01*
X13877649Y-14585690D02*
X13896697Y-14595214D01*
X13896697Y-14595214D02*
X13906221Y-14614262D01*
X13906221Y-14614262D02*
X13906221Y-14719024D01*
X13906221Y-14614262D02*
X13915744Y-14595214D01*
X13915744Y-14595214D02*
X13934792Y-14585690D01*
X13934792Y-14585690D02*
X13963363Y-14585690D01*
X13963363Y-14585690D02*
X13982411Y-14595214D01*
X13982411Y-14595214D02*
X13991935Y-14614262D01*
X13991935Y-14614262D02*
X13991935Y-14719024D01*
X14382411Y-14509500D02*
X14210983Y-14766643D01*
X14639554Y-14519024D02*
X14658602Y-14519024D01*
X14658602Y-14519024D02*
X14677649Y-14528548D01*
X14677649Y-14528548D02*
X14687173Y-14538071D01*
X14687173Y-14538071D02*
X14696697Y-14557119D01*
X14696697Y-14557119D02*
X14706221Y-14595214D01*
X14706221Y-14595214D02*
X14706221Y-14642833D01*
X14706221Y-14642833D02*
X14696697Y-14680928D01*
X14696697Y-14680928D02*
X14687173Y-14699976D01*
X14687173Y-14699976D02*
X14677649Y-14709500D01*
X14677649Y-14709500D02*
X14658602Y-14719024D01*
X14658602Y-14719024D02*
X14639554Y-14719024D01*
X14639554Y-14719024D02*
X14620506Y-14709500D01*
X14620506Y-14709500D02*
X14610983Y-14699976D01*
X14610983Y-14699976D02*
X14601459Y-14680928D01*
X14601459Y-14680928D02*
X14591935Y-14642833D01*
X14591935Y-14642833D02*
X14591935Y-14595214D01*
X14591935Y-14595214D02*
X14601459Y-14557119D01*
X14601459Y-14557119D02*
X14610983Y-14538071D01*
X14610983Y-14538071D02*
X14620506Y-14528548D01*
X14620506Y-14528548D02*
X14639554Y-14519024D01*
X14791935Y-14699976D02*
X14801459Y-14709500D01*
X14801459Y-14709500D02*
X14791935Y-14719024D01*
X14791935Y-14719024D02*
X14782411Y-14709500D01*
X14782411Y-14709500D02*
X14791935Y-14699976D01*
X14791935Y-14699976D02*
X14791935Y-14719024D01*
X14925268Y-14519024D02*
X14944316Y-14519024D01*
X14944316Y-14519024D02*
X14963364Y-14528548D01*
X14963364Y-14528548D02*
X14972887Y-14538071D01*
X14972887Y-14538071D02*
X14982411Y-14557119D01*
X14982411Y-14557119D02*
X14991935Y-14595214D01*
X14991935Y-14595214D02*
X14991935Y-14642833D01*
X14991935Y-14642833D02*
X14982411Y-14680928D01*
X14982411Y-14680928D02*
X14972887Y-14699976D01*
X14972887Y-14699976D02*
X14963364Y-14709500D01*
X14963364Y-14709500D02*
X14944316Y-14719024D01*
X14944316Y-14719024D02*
X14925268Y-14719024D01*
X14925268Y-14719024D02*
X14906221Y-14709500D01*
X14906221Y-14709500D02*
X14896697Y-14699976D01*
X14896697Y-14699976D02*
X14887173Y-14680928D01*
X14887173Y-14680928D02*
X14877649Y-14642833D01*
X14877649Y-14642833D02*
X14877649Y-14595214D01*
X14877649Y-14595214D02*
X14887173Y-14557119D01*
X14887173Y-14557119D02*
X14896697Y-14538071D01*
X14896697Y-14538071D02*
X14906221Y-14528548D01*
X14906221Y-14528548D02*
X14925268Y-14519024D01*
X15182411Y-14719024D02*
X15068126Y-14719024D01*
X15125268Y-14719024D02*
X15125268Y-14519024D01*
X15125268Y-14519024D02*
X15106221Y-14547595D01*
X15106221Y-14547595D02*
X15087173Y-14566643D01*
X15087173Y-14566643D02*
X15068126Y-14576167D01*
X15277649Y-14719024D02*
X15315745Y-14719024D01*
X15315745Y-14719024D02*
X15334792Y-14709500D01*
X15334792Y-14709500D02*
X15344316Y-14699976D01*
X15344316Y-14699976D02*
X15363364Y-14671405D01*
X15363364Y-14671405D02*
X15372887Y-14633309D01*
X15372887Y-14633309D02*
X15372887Y-14557119D01*
X15372887Y-14557119D02*
X15363364Y-14538071D01*
X15363364Y-14538071D02*
X15353840Y-14528548D01*
X15353840Y-14528548D02*
X15334792Y-14519024D01*
X15334792Y-14519024D02*
X15296697Y-14519024D01*
X15296697Y-14519024D02*
X15277649Y-14528548D01*
X15277649Y-14528548D02*
X15268126Y-14538071D01*
X15268126Y-14538071D02*
X15258602Y-14557119D01*
X15258602Y-14557119D02*
X15258602Y-14604738D01*
X15258602Y-14604738D02*
X15268126Y-14623786D01*
X15268126Y-14623786D02*
X15277649Y-14633309D01*
X15277649Y-14633309D02*
X15296697Y-14642833D01*
X15296697Y-14642833D02*
X15334792Y-14642833D01*
X15334792Y-14642833D02*
X15353840Y-14633309D01*
X15353840Y-14633309D02*
X15363364Y-14623786D01*
X15363364Y-14623786D02*
X15372887Y-14604738D01*
X15439554Y-14519024D02*
X15572887Y-14519024D01*
X15572887Y-14519024D02*
X15487173Y-14719024D01*
X15639554Y-14519024D02*
X15639554Y-14557119D01*
X15715745Y-14519024D02*
X15715745Y-14557119D01*
X16010983Y-14795214D02*
X16001459Y-14785690D01*
X16001459Y-14785690D02*
X15982411Y-14757119D01*
X15982411Y-14757119D02*
X15972888Y-14738071D01*
X15972888Y-14738071D02*
X15963364Y-14709500D01*
X15963364Y-14709500D02*
X15953840Y-14661881D01*
X15953840Y-14661881D02*
X15953840Y-14623786D01*
X15953840Y-14623786D02*
X15963364Y-14576167D01*
X15963364Y-14576167D02*
X15972888Y-14547595D01*
X15972888Y-14547595D02*
X15982411Y-14528548D01*
X15982411Y-14528548D02*
X16001459Y-14499976D01*
X16001459Y-14499976D02*
X16010983Y-14490452D01*
X16068126Y-14519024D02*
X16191935Y-14519024D01*
X16191935Y-14519024D02*
X16125268Y-14595214D01*
X16125268Y-14595214D02*
X16153840Y-14595214D01*
X16153840Y-14595214D02*
X16172888Y-14604738D01*
X16172888Y-14604738D02*
X16182411Y-14614262D01*
X16182411Y-14614262D02*
X16191935Y-14633309D01*
X16191935Y-14633309D02*
X16191935Y-14680928D01*
X16191935Y-14680928D02*
X16182411Y-14699976D01*
X16182411Y-14699976D02*
X16172888Y-14709500D01*
X16172888Y-14709500D02*
X16153840Y-14719024D01*
X16153840Y-14719024D02*
X16096697Y-14719024D01*
X16096697Y-14719024D02*
X16077649Y-14709500D01*
X16077649Y-14709500D02*
X16068126Y-14699976D01*
X16363364Y-14585690D02*
X16363364Y-14719024D01*
X16315745Y-14509500D02*
X16268126Y-14652357D01*
X16268126Y-14652357D02*
X16391935Y-14652357D01*
X16620507Y-14719024D02*
X16620507Y-14519024D01*
X16706221Y-14719024D02*
X16706221Y-14614262D01*
X16706221Y-14614262D02*
X16696697Y-14595214D01*
X16696697Y-14595214D02*
X16677650Y-14585690D01*
X16677650Y-14585690D02*
X16649078Y-14585690D01*
X16649078Y-14585690D02*
X16630030Y-14595214D01*
X16630030Y-14595214D02*
X16620507Y-14604738D01*
X16830031Y-14719024D02*
X16810983Y-14709500D01*
X16810983Y-14709500D02*
X16801459Y-14699976D01*
X16801459Y-14699976D02*
X16791935Y-14680928D01*
X16791935Y-14680928D02*
X16791935Y-14623786D01*
X16791935Y-14623786D02*
X16801459Y-14604738D01*
X16801459Y-14604738D02*
X16810983Y-14595214D01*
X16810983Y-14595214D02*
X16830031Y-14585690D01*
X16830031Y-14585690D02*
X16858602Y-14585690D01*
X16858602Y-14585690D02*
X16877650Y-14595214D01*
X16877650Y-14595214D02*
X16887173Y-14604738D01*
X16887173Y-14604738D02*
X16896697Y-14623786D01*
X16896697Y-14623786D02*
X16896697Y-14680928D01*
X16896697Y-14680928D02*
X16887173Y-14699976D01*
X16887173Y-14699976D02*
X16877650Y-14709500D01*
X16877650Y-14709500D02*
X16858602Y-14719024D01*
X16858602Y-14719024D02*
X16830031Y-14719024D01*
X17010983Y-14719024D02*
X16991935Y-14709500D01*
X16991935Y-14709500D02*
X16982412Y-14690452D01*
X16982412Y-14690452D02*
X16982412Y-14519024D01*
X17163364Y-14709500D02*
X17144316Y-14719024D01*
X17144316Y-14719024D02*
X17106221Y-14719024D01*
X17106221Y-14719024D02*
X17087173Y-14709500D01*
X17087173Y-14709500D02*
X17077650Y-14690452D01*
X17077650Y-14690452D02*
X17077650Y-14614262D01*
X17077650Y-14614262D02*
X17087173Y-14595214D01*
X17087173Y-14595214D02*
X17106221Y-14585690D01*
X17106221Y-14585690D02*
X17144316Y-14585690D01*
X17144316Y-14585690D02*
X17163364Y-14595214D01*
X17163364Y-14595214D02*
X17172888Y-14614262D01*
X17172888Y-14614262D02*
X17172888Y-14633309D01*
X17172888Y-14633309D02*
X17077650Y-14652357D01*
X17249078Y-14709500D02*
X17268126Y-14719024D01*
X17268126Y-14719024D02*
X17306221Y-14719024D01*
X17306221Y-14719024D02*
X17325269Y-14709500D01*
X17325269Y-14709500D02*
X17334793Y-14690452D01*
X17334793Y-14690452D02*
X17334793Y-14680928D01*
X17334793Y-14680928D02*
X17325269Y-14661881D01*
X17325269Y-14661881D02*
X17306221Y-14652357D01*
X17306221Y-14652357D02*
X17277650Y-14652357D01*
X17277650Y-14652357D02*
X17258602Y-14642833D01*
X17258602Y-14642833D02*
X17249078Y-14623786D01*
X17249078Y-14623786D02*
X17249078Y-14614262D01*
X17249078Y-14614262D02*
X17258602Y-14595214D01*
X17258602Y-14595214D02*
X17277650Y-14585690D01*
X17277650Y-14585690D02*
X17306221Y-14585690D01*
X17306221Y-14585690D02*
X17325269Y-14595214D01*
X17401459Y-14795214D02*
X17410983Y-14785690D01*
X17410983Y-14785690D02*
X17430031Y-14757119D01*
X17430031Y-14757119D02*
X17439554Y-14738071D01*
X17439554Y-14738071D02*
X17449078Y-14709500D01*
X17449078Y-14709500D02*
X17458602Y-14661881D01*
X17458602Y-14661881D02*
X17458602Y-14623786D01*
X17458602Y-14623786D02*
X17449078Y-14576167D01*
X17449078Y-14576167D02*
X17439554Y-14547595D01*
X17439554Y-14547595D02*
X17430031Y-14528548D01*
X17430031Y-14528548D02*
X17410983Y-14499976D01*
X17410983Y-14499976D02*
X17401459Y-14490452D01*
D14*
X12405920Y-14861540D02*
X12405920Y-14921540D01*
X12375920Y-14891540D02*
X12435920Y-14891540D01*
D11*
X12734792Y-14783024D02*
X12753840Y-14783024D01*
X12753840Y-14783024D02*
X12772887Y-14792548D01*
X12772887Y-14792548D02*
X12782411Y-14802071D01*
X12782411Y-14802071D02*
X12791935Y-14821119D01*
X12791935Y-14821119D02*
X12801459Y-14859214D01*
X12801459Y-14859214D02*
X12801459Y-14906833D01*
X12801459Y-14906833D02*
X12791935Y-14944928D01*
X12791935Y-14944928D02*
X12782411Y-14963976D01*
X12782411Y-14963976D02*
X12772887Y-14973500D01*
X12772887Y-14973500D02*
X12753840Y-14983024D01*
X12753840Y-14983024D02*
X12734792Y-14983024D01*
X12734792Y-14983024D02*
X12715744Y-14973500D01*
X12715744Y-14973500D02*
X12706221Y-14963976D01*
X12706221Y-14963976D02*
X12696697Y-14944928D01*
X12696697Y-14944928D02*
X12687173Y-14906833D01*
X12687173Y-14906833D02*
X12687173Y-14859214D01*
X12687173Y-14859214D02*
X12696697Y-14821119D01*
X12696697Y-14821119D02*
X12706221Y-14802071D01*
X12706221Y-14802071D02*
X12715744Y-14792548D01*
X12715744Y-14792548D02*
X12734792Y-14783024D01*
X12887173Y-14963976D02*
X12896697Y-14973500D01*
X12896697Y-14973500D02*
X12887173Y-14983024D01*
X12887173Y-14983024D02*
X12877649Y-14973500D01*
X12877649Y-14973500D02*
X12887173Y-14963976D01*
X12887173Y-14963976D02*
X12887173Y-14983024D01*
X13068125Y-14783024D02*
X13030030Y-14783024D01*
X13030030Y-14783024D02*
X13010982Y-14792548D01*
X13010982Y-14792548D02*
X13001459Y-14802071D01*
X13001459Y-14802071D02*
X12982411Y-14830643D01*
X12982411Y-14830643D02*
X12972887Y-14868738D01*
X12972887Y-14868738D02*
X12972887Y-14944928D01*
X12972887Y-14944928D02*
X12982411Y-14963976D01*
X12982411Y-14963976D02*
X12991935Y-14973500D01*
X12991935Y-14973500D02*
X13010982Y-14983024D01*
X13010982Y-14983024D02*
X13049078Y-14983024D01*
X13049078Y-14983024D02*
X13068125Y-14973500D01*
X13068125Y-14973500D02*
X13077649Y-14963976D01*
X13077649Y-14963976D02*
X13087173Y-14944928D01*
X13087173Y-14944928D02*
X13087173Y-14897309D01*
X13087173Y-14897309D02*
X13077649Y-14878262D01*
X13077649Y-14878262D02*
X13068125Y-14868738D01*
X13068125Y-14868738D02*
X13049078Y-14859214D01*
X13049078Y-14859214D02*
X13010982Y-14859214D01*
X13010982Y-14859214D02*
X12991935Y-14868738D01*
X12991935Y-14868738D02*
X12982411Y-14878262D01*
X12982411Y-14878262D02*
X12972887Y-14897309D01*
X13210982Y-14783024D02*
X13230030Y-14783024D01*
X13230030Y-14783024D02*
X13249078Y-14792548D01*
X13249078Y-14792548D02*
X13258602Y-14802071D01*
X13258602Y-14802071D02*
X13268125Y-14821119D01*
X13268125Y-14821119D02*
X13277649Y-14859214D01*
X13277649Y-14859214D02*
X13277649Y-14906833D01*
X13277649Y-14906833D02*
X13268125Y-14944928D01*
X13268125Y-14944928D02*
X13258602Y-14963976D01*
X13258602Y-14963976D02*
X13249078Y-14973500D01*
X13249078Y-14973500D02*
X13230030Y-14983024D01*
X13230030Y-14983024D02*
X13210982Y-14983024D01*
X13210982Y-14983024D02*
X13191935Y-14973500D01*
X13191935Y-14973500D02*
X13182411Y-14963976D01*
X13182411Y-14963976D02*
X13172887Y-14944928D01*
X13172887Y-14944928D02*
X13163363Y-14906833D01*
X13163363Y-14906833D02*
X13163363Y-14859214D01*
X13163363Y-14859214D02*
X13172887Y-14821119D01*
X13172887Y-14821119D02*
X13182411Y-14802071D01*
X13182411Y-14802071D02*
X13191935Y-14792548D01*
X13191935Y-14792548D02*
X13210982Y-14783024D01*
X13401459Y-14783024D02*
X13420506Y-14783024D01*
X13420506Y-14783024D02*
X13439554Y-14792548D01*
X13439554Y-14792548D02*
X13449078Y-14802071D01*
X13449078Y-14802071D02*
X13458602Y-14821119D01*
X13458602Y-14821119D02*
X13468125Y-14859214D01*
X13468125Y-14859214D02*
X13468125Y-14906833D01*
X13468125Y-14906833D02*
X13458602Y-14944928D01*
X13458602Y-14944928D02*
X13449078Y-14963976D01*
X13449078Y-14963976D02*
X13439554Y-14973500D01*
X13439554Y-14973500D02*
X13420506Y-14983024D01*
X13420506Y-14983024D02*
X13401459Y-14983024D01*
X13401459Y-14983024D02*
X13382411Y-14973500D01*
X13382411Y-14973500D02*
X13372887Y-14963976D01*
X13372887Y-14963976D02*
X13363363Y-14944928D01*
X13363363Y-14944928D02*
X13353840Y-14906833D01*
X13353840Y-14906833D02*
X13353840Y-14859214D01*
X13353840Y-14859214D02*
X13363363Y-14821119D01*
X13363363Y-14821119D02*
X13372887Y-14802071D01*
X13372887Y-14802071D02*
X13382411Y-14792548D01*
X13382411Y-14792548D02*
X13401459Y-14783024D01*
X13553840Y-14983024D02*
X13553840Y-14849690D01*
X13553840Y-14868738D02*
X13563363Y-14859214D01*
X13563363Y-14859214D02*
X13582411Y-14849690D01*
X13582411Y-14849690D02*
X13610983Y-14849690D01*
X13610983Y-14849690D02*
X13630030Y-14859214D01*
X13630030Y-14859214D02*
X13639554Y-14878262D01*
X13639554Y-14878262D02*
X13639554Y-14983024D01*
X13639554Y-14878262D02*
X13649078Y-14859214D01*
X13649078Y-14859214D02*
X13668125Y-14849690D01*
X13668125Y-14849690D02*
X13696697Y-14849690D01*
X13696697Y-14849690D02*
X13715744Y-14859214D01*
X13715744Y-14859214D02*
X13725268Y-14878262D01*
X13725268Y-14878262D02*
X13725268Y-14983024D01*
X13820506Y-14983024D02*
X13820506Y-14849690D01*
X13820506Y-14868738D02*
X13830030Y-14859214D01*
X13830030Y-14859214D02*
X13849078Y-14849690D01*
X13849078Y-14849690D02*
X13877649Y-14849690D01*
X13877649Y-14849690D02*
X13896697Y-14859214D01*
X13896697Y-14859214D02*
X13906221Y-14878262D01*
X13906221Y-14878262D02*
X13906221Y-14983024D01*
X13906221Y-14878262D02*
X13915744Y-14859214D01*
X13915744Y-14859214D02*
X13934792Y-14849690D01*
X13934792Y-14849690D02*
X13963363Y-14849690D01*
X13963363Y-14849690D02*
X13982411Y-14859214D01*
X13982411Y-14859214D02*
X13991935Y-14878262D01*
X13991935Y-14878262D02*
X13991935Y-14983024D01*
X14382411Y-14773500D02*
X14210983Y-15030643D01*
X14639554Y-14783024D02*
X14658602Y-14783024D01*
X14658602Y-14783024D02*
X14677649Y-14792548D01*
X14677649Y-14792548D02*
X14687173Y-14802071D01*
X14687173Y-14802071D02*
X14696697Y-14821119D01*
X14696697Y-14821119D02*
X14706221Y-14859214D01*
X14706221Y-14859214D02*
X14706221Y-14906833D01*
X14706221Y-14906833D02*
X14696697Y-14944928D01*
X14696697Y-14944928D02*
X14687173Y-14963976D01*
X14687173Y-14963976D02*
X14677649Y-14973500D01*
X14677649Y-14973500D02*
X14658602Y-14983024D01*
X14658602Y-14983024D02*
X14639554Y-14983024D01*
X14639554Y-14983024D02*
X14620506Y-14973500D01*
X14620506Y-14973500D02*
X14610983Y-14963976D01*
X14610983Y-14963976D02*
X14601459Y-14944928D01*
X14601459Y-14944928D02*
X14591935Y-14906833D01*
X14591935Y-14906833D02*
X14591935Y-14859214D01*
X14591935Y-14859214D02*
X14601459Y-14821119D01*
X14601459Y-14821119D02*
X14610983Y-14802071D01*
X14610983Y-14802071D02*
X14620506Y-14792548D01*
X14620506Y-14792548D02*
X14639554Y-14783024D01*
X14791935Y-14963976D02*
X14801459Y-14973500D01*
X14801459Y-14973500D02*
X14791935Y-14983024D01*
X14791935Y-14983024D02*
X14782411Y-14973500D01*
X14782411Y-14973500D02*
X14791935Y-14963976D01*
X14791935Y-14963976D02*
X14791935Y-14983024D01*
X14925268Y-14783024D02*
X14944316Y-14783024D01*
X14944316Y-14783024D02*
X14963364Y-14792548D01*
X14963364Y-14792548D02*
X14972887Y-14802071D01*
X14972887Y-14802071D02*
X14982411Y-14821119D01*
X14982411Y-14821119D02*
X14991935Y-14859214D01*
X14991935Y-14859214D02*
X14991935Y-14906833D01*
X14991935Y-14906833D02*
X14982411Y-14944928D01*
X14982411Y-14944928D02*
X14972887Y-14963976D01*
X14972887Y-14963976D02*
X14963364Y-14973500D01*
X14963364Y-14973500D02*
X14944316Y-14983024D01*
X14944316Y-14983024D02*
X14925268Y-14983024D01*
X14925268Y-14983024D02*
X14906221Y-14973500D01*
X14906221Y-14973500D02*
X14896697Y-14963976D01*
X14896697Y-14963976D02*
X14887173Y-14944928D01*
X14887173Y-14944928D02*
X14877649Y-14906833D01*
X14877649Y-14906833D02*
X14877649Y-14859214D01*
X14877649Y-14859214D02*
X14887173Y-14821119D01*
X14887173Y-14821119D02*
X14896697Y-14802071D01*
X14896697Y-14802071D02*
X14906221Y-14792548D01*
X14906221Y-14792548D02*
X14925268Y-14783024D01*
X15068126Y-14802071D02*
X15077649Y-14792548D01*
X15077649Y-14792548D02*
X15096697Y-14783024D01*
X15096697Y-14783024D02*
X15144316Y-14783024D01*
X15144316Y-14783024D02*
X15163364Y-14792548D01*
X15163364Y-14792548D02*
X15172887Y-14802071D01*
X15172887Y-14802071D02*
X15182411Y-14821119D01*
X15182411Y-14821119D02*
X15182411Y-14840167D01*
X15182411Y-14840167D02*
X15172887Y-14868738D01*
X15172887Y-14868738D02*
X15058602Y-14983024D01*
X15058602Y-14983024D02*
X15182411Y-14983024D01*
X15249078Y-14783024D02*
X15372887Y-14783024D01*
X15372887Y-14783024D02*
X15306221Y-14859214D01*
X15306221Y-14859214D02*
X15334792Y-14859214D01*
X15334792Y-14859214D02*
X15353840Y-14868738D01*
X15353840Y-14868738D02*
X15363364Y-14878262D01*
X15363364Y-14878262D02*
X15372887Y-14897309D01*
X15372887Y-14897309D02*
X15372887Y-14944928D01*
X15372887Y-14944928D02*
X15363364Y-14963976D01*
X15363364Y-14963976D02*
X15353840Y-14973500D01*
X15353840Y-14973500D02*
X15334792Y-14983024D01*
X15334792Y-14983024D02*
X15277649Y-14983024D01*
X15277649Y-14983024D02*
X15258602Y-14973500D01*
X15258602Y-14973500D02*
X15249078Y-14963976D01*
X15544316Y-14783024D02*
X15506221Y-14783024D01*
X15506221Y-14783024D02*
X15487173Y-14792548D01*
X15487173Y-14792548D02*
X15477649Y-14802071D01*
X15477649Y-14802071D02*
X15458602Y-14830643D01*
X15458602Y-14830643D02*
X15449078Y-14868738D01*
X15449078Y-14868738D02*
X15449078Y-14944928D01*
X15449078Y-14944928D02*
X15458602Y-14963976D01*
X15458602Y-14963976D02*
X15468126Y-14973500D01*
X15468126Y-14973500D02*
X15487173Y-14983024D01*
X15487173Y-14983024D02*
X15525268Y-14983024D01*
X15525268Y-14983024D02*
X15544316Y-14973500D01*
X15544316Y-14973500D02*
X15553840Y-14963976D01*
X15553840Y-14963976D02*
X15563364Y-14944928D01*
X15563364Y-14944928D02*
X15563364Y-14897309D01*
X15563364Y-14897309D02*
X15553840Y-14878262D01*
X15553840Y-14878262D02*
X15544316Y-14868738D01*
X15544316Y-14868738D02*
X15525268Y-14859214D01*
X15525268Y-14859214D02*
X15487173Y-14859214D01*
X15487173Y-14859214D02*
X15468126Y-14868738D01*
X15468126Y-14868738D02*
X15458602Y-14878262D01*
X15458602Y-14878262D02*
X15449078Y-14897309D01*
X15639554Y-14783024D02*
X15639554Y-14821119D01*
X15715745Y-14783024D02*
X15715745Y-14821119D01*
X16010983Y-15059214D02*
X16001459Y-15049690D01*
X16001459Y-15049690D02*
X15982411Y-15021119D01*
X15982411Y-15021119D02*
X15972888Y-15002071D01*
X15972888Y-15002071D02*
X15963364Y-14973500D01*
X15963364Y-14973500D02*
X15953840Y-14925881D01*
X15953840Y-14925881D02*
X15953840Y-14887786D01*
X15953840Y-14887786D02*
X15963364Y-14840167D01*
X15963364Y-14840167D02*
X15972888Y-14811595D01*
X15972888Y-14811595D02*
X15982411Y-14792548D01*
X15982411Y-14792548D02*
X16001459Y-14763976D01*
X16001459Y-14763976D02*
X16010983Y-14754452D01*
X16125268Y-14783024D02*
X16144316Y-14783024D01*
X16144316Y-14783024D02*
X16163364Y-14792548D01*
X16163364Y-14792548D02*
X16172888Y-14802071D01*
X16172888Y-14802071D02*
X16182411Y-14821119D01*
X16182411Y-14821119D02*
X16191935Y-14859214D01*
X16191935Y-14859214D02*
X16191935Y-14906833D01*
X16191935Y-14906833D02*
X16182411Y-14944928D01*
X16182411Y-14944928D02*
X16172888Y-14963976D01*
X16172888Y-14963976D02*
X16163364Y-14973500D01*
X16163364Y-14973500D02*
X16144316Y-14983024D01*
X16144316Y-14983024D02*
X16125268Y-14983024D01*
X16125268Y-14983024D02*
X16106221Y-14973500D01*
X16106221Y-14973500D02*
X16096697Y-14963976D01*
X16096697Y-14963976D02*
X16087173Y-14944928D01*
X16087173Y-14944928D02*
X16077649Y-14906833D01*
X16077649Y-14906833D02*
X16077649Y-14859214D01*
X16077649Y-14859214D02*
X16087173Y-14821119D01*
X16087173Y-14821119D02*
X16096697Y-14802071D01*
X16096697Y-14802071D02*
X16106221Y-14792548D01*
X16106221Y-14792548D02*
X16125268Y-14783024D01*
X16430030Y-14983024D02*
X16430030Y-14783024D01*
X16515745Y-14983024D02*
X16515745Y-14878262D01*
X16515745Y-14878262D02*
X16506221Y-14859214D01*
X16506221Y-14859214D02*
X16487173Y-14849690D01*
X16487173Y-14849690D02*
X16458602Y-14849690D01*
X16458602Y-14849690D02*
X16439554Y-14859214D01*
X16439554Y-14859214D02*
X16430030Y-14868738D01*
X16639554Y-14983024D02*
X16620507Y-14973500D01*
X16620507Y-14973500D02*
X16610983Y-14963976D01*
X16610983Y-14963976D02*
X16601459Y-14944928D01*
X16601459Y-14944928D02*
X16601459Y-14887786D01*
X16601459Y-14887786D02*
X16610983Y-14868738D01*
X16610983Y-14868738D02*
X16620507Y-14859214D01*
X16620507Y-14859214D02*
X16639554Y-14849690D01*
X16639554Y-14849690D02*
X16668126Y-14849690D01*
X16668126Y-14849690D02*
X16687173Y-14859214D01*
X16687173Y-14859214D02*
X16696697Y-14868738D01*
X16696697Y-14868738D02*
X16706221Y-14887786D01*
X16706221Y-14887786D02*
X16706221Y-14944928D01*
X16706221Y-14944928D02*
X16696697Y-14963976D01*
X16696697Y-14963976D02*
X16687173Y-14973500D01*
X16687173Y-14973500D02*
X16668126Y-14983024D01*
X16668126Y-14983024D02*
X16639554Y-14983024D01*
X16820507Y-14983024D02*
X16801459Y-14973500D01*
X16801459Y-14973500D02*
X16791935Y-14954452D01*
X16791935Y-14954452D02*
X16791935Y-14783024D01*
X16972888Y-14973500D02*
X16953840Y-14983024D01*
X16953840Y-14983024D02*
X16915745Y-14983024D01*
X16915745Y-14983024D02*
X16896697Y-14973500D01*
X16896697Y-14973500D02*
X16887173Y-14954452D01*
X16887173Y-14954452D02*
X16887173Y-14878262D01*
X16887173Y-14878262D02*
X16896697Y-14859214D01*
X16896697Y-14859214D02*
X16915745Y-14849690D01*
X16915745Y-14849690D02*
X16953840Y-14849690D01*
X16953840Y-14849690D02*
X16972888Y-14859214D01*
X16972888Y-14859214D02*
X16982412Y-14878262D01*
X16982412Y-14878262D02*
X16982412Y-14897309D01*
X16982412Y-14897309D02*
X16887173Y-14916357D01*
X17058602Y-14973500D02*
X17077650Y-14983024D01*
X17077650Y-14983024D02*
X17115745Y-14983024D01*
X17115745Y-14983024D02*
X17134793Y-14973500D01*
X17134793Y-14973500D02*
X17144316Y-14954452D01*
X17144316Y-14954452D02*
X17144316Y-14944928D01*
X17144316Y-14944928D02*
X17134793Y-14925881D01*
X17134793Y-14925881D02*
X17115745Y-14916357D01*
X17115745Y-14916357D02*
X17087173Y-14916357D01*
X17087173Y-14916357D02*
X17068126Y-14906833D01*
X17068126Y-14906833D02*
X17058602Y-14887786D01*
X17058602Y-14887786D02*
X17058602Y-14878262D01*
X17058602Y-14878262D02*
X17068126Y-14859214D01*
X17068126Y-14859214D02*
X17087173Y-14849690D01*
X17087173Y-14849690D02*
X17115745Y-14849690D01*
X17115745Y-14849690D02*
X17134793Y-14859214D01*
X17382412Y-14906833D02*
X17534793Y-14906833D01*
X17458602Y-14983024D02*
X17458602Y-14830643D01*
X17772888Y-14802071D02*
X17782412Y-14792548D01*
X17782412Y-14792548D02*
X17801459Y-14783024D01*
X17801459Y-14783024D02*
X17849078Y-14783024D01*
X17849078Y-14783024D02*
X17868126Y-14792548D01*
X17868126Y-14792548D02*
X17877650Y-14802071D01*
X17877650Y-14802071D02*
X17887174Y-14821119D01*
X17887174Y-14821119D02*
X17887174Y-14840167D01*
X17887174Y-14840167D02*
X17877650Y-14868738D01*
X17877650Y-14868738D02*
X17763364Y-14983024D01*
X17763364Y-14983024D02*
X17887174Y-14983024D01*
X18115745Y-14973500D02*
X18134793Y-14983024D01*
X18134793Y-14983024D02*
X18172888Y-14983024D01*
X18172888Y-14983024D02*
X18191936Y-14973500D01*
X18191936Y-14973500D02*
X18201459Y-14954452D01*
X18201459Y-14954452D02*
X18201459Y-14944928D01*
X18201459Y-14944928D02*
X18191936Y-14925881D01*
X18191936Y-14925881D02*
X18172888Y-14916357D01*
X18172888Y-14916357D02*
X18144316Y-14916357D01*
X18144316Y-14916357D02*
X18125269Y-14906833D01*
X18125269Y-14906833D02*
X18115745Y-14887786D01*
X18115745Y-14887786D02*
X18115745Y-14878262D01*
X18115745Y-14878262D02*
X18125269Y-14859214D01*
X18125269Y-14859214D02*
X18144316Y-14849690D01*
X18144316Y-14849690D02*
X18172888Y-14849690D01*
X18172888Y-14849690D02*
X18191936Y-14859214D01*
X18315745Y-14983024D02*
X18296697Y-14973500D01*
X18296697Y-14973500D02*
X18287174Y-14954452D01*
X18287174Y-14954452D02*
X18287174Y-14783024D01*
X18420507Y-14983024D02*
X18401459Y-14973500D01*
X18401459Y-14973500D02*
X18391936Y-14963976D01*
X18391936Y-14963976D02*
X18382412Y-14944928D01*
X18382412Y-14944928D02*
X18382412Y-14887786D01*
X18382412Y-14887786D02*
X18391936Y-14868738D01*
X18391936Y-14868738D02*
X18401459Y-14859214D01*
X18401459Y-14859214D02*
X18420507Y-14849690D01*
X18420507Y-14849690D02*
X18449078Y-14849690D01*
X18449078Y-14849690D02*
X18468126Y-14859214D01*
X18468126Y-14859214D02*
X18477650Y-14868738D01*
X18477650Y-14868738D02*
X18487174Y-14887786D01*
X18487174Y-14887786D02*
X18487174Y-14944928D01*
X18487174Y-14944928D02*
X18477650Y-14963976D01*
X18477650Y-14963976D02*
X18468126Y-14973500D01*
X18468126Y-14973500D02*
X18449078Y-14983024D01*
X18449078Y-14983024D02*
X18420507Y-14983024D01*
X18544317Y-14849690D02*
X18620507Y-14849690D01*
X18572888Y-14783024D02*
X18572888Y-14954452D01*
X18572888Y-14954452D02*
X18582412Y-14973500D01*
X18582412Y-14973500D02*
X18601459Y-14983024D01*
X18601459Y-14983024D02*
X18620507Y-14983024D01*
X18677650Y-14973500D02*
X18696697Y-14983024D01*
X18696697Y-14983024D02*
X18734793Y-14983024D01*
X18734793Y-14983024D02*
X18753840Y-14973500D01*
X18753840Y-14973500D02*
X18763364Y-14954452D01*
X18763364Y-14954452D02*
X18763364Y-14944928D01*
X18763364Y-14944928D02*
X18753840Y-14925881D01*
X18753840Y-14925881D02*
X18734793Y-14916357D01*
X18734793Y-14916357D02*
X18706221Y-14916357D01*
X18706221Y-14916357D02*
X18687174Y-14906833D01*
X18687174Y-14906833D02*
X18677650Y-14887786D01*
X18677650Y-14887786D02*
X18677650Y-14878262D01*
X18677650Y-14878262D02*
X18687174Y-14859214D01*
X18687174Y-14859214D02*
X18706221Y-14849690D01*
X18706221Y-14849690D02*
X18734793Y-14849690D01*
X18734793Y-14849690D02*
X18753840Y-14859214D01*
X18830031Y-15059214D02*
X18839555Y-15049690D01*
X18839555Y-15049690D02*
X18858602Y-15021119D01*
X18858602Y-15021119D02*
X18868126Y-15002071D01*
X18868126Y-15002071D02*
X18877650Y-14973500D01*
X18877650Y-14973500D02*
X18887174Y-14925881D01*
X18887174Y-14925881D02*
X18887174Y-14887786D01*
X18887174Y-14887786D02*
X18877650Y-14840167D01*
X18877650Y-14840167D02*
X18868126Y-14811595D01*
X18868126Y-14811595D02*
X18858602Y-14792548D01*
X18858602Y-14792548D02*
X18839555Y-14763976D01*
X18839555Y-14763976D02*
X18830031Y-14754452D01*
D15*
X12422008Y-15189128D02*
X12422008Y-15121952D01*
X12354832Y-15121952D01*
X12354832Y-15189128D01*
X12422008Y-15189128D01*
D11*
X12734792Y-15047024D02*
X12753840Y-15047024D01*
X12753840Y-15047024D02*
X12772887Y-15056548D01*
X12772887Y-15056548D02*
X12782411Y-15066071D01*
X12782411Y-15066071D02*
X12791935Y-15085119D01*
X12791935Y-15085119D02*
X12801459Y-15123214D01*
X12801459Y-15123214D02*
X12801459Y-15170833D01*
X12801459Y-15170833D02*
X12791935Y-15208928D01*
X12791935Y-15208928D02*
X12782411Y-15227976D01*
X12782411Y-15227976D02*
X12772887Y-15237500D01*
X12772887Y-15237500D02*
X12753840Y-15247024D01*
X12753840Y-15247024D02*
X12734792Y-15247024D01*
X12734792Y-15247024D02*
X12715744Y-15237500D01*
X12715744Y-15237500D02*
X12706221Y-15227976D01*
X12706221Y-15227976D02*
X12696697Y-15208928D01*
X12696697Y-15208928D02*
X12687173Y-15170833D01*
X12687173Y-15170833D02*
X12687173Y-15123214D01*
X12687173Y-15123214D02*
X12696697Y-15085119D01*
X12696697Y-15085119D02*
X12706221Y-15066071D01*
X12706221Y-15066071D02*
X12715744Y-15056548D01*
X12715744Y-15056548D02*
X12734792Y-15047024D01*
X12887173Y-15227976D02*
X12896697Y-15237500D01*
X12896697Y-15237500D02*
X12887173Y-15247024D01*
X12887173Y-15247024D02*
X12877649Y-15237500D01*
X12877649Y-15237500D02*
X12887173Y-15227976D01*
X12887173Y-15227976D02*
X12887173Y-15247024D01*
X12991935Y-15247024D02*
X13030030Y-15247024D01*
X13030030Y-15247024D02*
X13049078Y-15237500D01*
X13049078Y-15237500D02*
X13058602Y-15227976D01*
X13058602Y-15227976D02*
X13077649Y-15199405D01*
X13077649Y-15199405D02*
X13087173Y-15161309D01*
X13087173Y-15161309D02*
X13087173Y-15085119D01*
X13087173Y-15085119D02*
X13077649Y-15066071D01*
X13077649Y-15066071D02*
X13068125Y-15056548D01*
X13068125Y-15056548D02*
X13049078Y-15047024D01*
X13049078Y-15047024D02*
X13010982Y-15047024D01*
X13010982Y-15047024D02*
X12991935Y-15056548D01*
X12991935Y-15056548D02*
X12982411Y-15066071D01*
X12982411Y-15066071D02*
X12972887Y-15085119D01*
X12972887Y-15085119D02*
X12972887Y-15132738D01*
X12972887Y-15132738D02*
X12982411Y-15151786D01*
X12982411Y-15151786D02*
X12991935Y-15161309D01*
X12991935Y-15161309D02*
X13010982Y-15170833D01*
X13010982Y-15170833D02*
X13049078Y-15170833D01*
X13049078Y-15170833D02*
X13068125Y-15161309D01*
X13068125Y-15161309D02*
X13077649Y-15151786D01*
X13077649Y-15151786D02*
X13087173Y-15132738D01*
X13268125Y-15047024D02*
X13172887Y-15047024D01*
X13172887Y-15047024D02*
X13163363Y-15142262D01*
X13163363Y-15142262D02*
X13172887Y-15132738D01*
X13172887Y-15132738D02*
X13191935Y-15123214D01*
X13191935Y-15123214D02*
X13239554Y-15123214D01*
X13239554Y-15123214D02*
X13258602Y-15132738D01*
X13258602Y-15132738D02*
X13268125Y-15142262D01*
X13268125Y-15142262D02*
X13277649Y-15161309D01*
X13277649Y-15161309D02*
X13277649Y-15208928D01*
X13277649Y-15208928D02*
X13268125Y-15227976D01*
X13268125Y-15227976D02*
X13258602Y-15237500D01*
X13258602Y-15237500D02*
X13239554Y-15247024D01*
X13239554Y-15247024D02*
X13191935Y-15247024D01*
X13191935Y-15247024D02*
X13172887Y-15237500D01*
X13172887Y-15237500D02*
X13163363Y-15227976D01*
X13401459Y-15047024D02*
X13420506Y-15047024D01*
X13420506Y-15047024D02*
X13439554Y-15056548D01*
X13439554Y-15056548D02*
X13449078Y-15066071D01*
X13449078Y-15066071D02*
X13458602Y-15085119D01*
X13458602Y-15085119D02*
X13468125Y-15123214D01*
X13468125Y-15123214D02*
X13468125Y-15170833D01*
X13468125Y-15170833D02*
X13458602Y-15208928D01*
X13458602Y-15208928D02*
X13449078Y-15227976D01*
X13449078Y-15227976D02*
X13439554Y-15237500D01*
X13439554Y-15237500D02*
X13420506Y-15247024D01*
X13420506Y-15247024D02*
X13401459Y-15247024D01*
X13401459Y-15247024D02*
X13382411Y-15237500D01*
X13382411Y-15237500D02*
X13372887Y-15227976D01*
X13372887Y-15227976D02*
X13363363Y-15208928D01*
X13363363Y-15208928D02*
X13353840Y-15170833D01*
X13353840Y-15170833D02*
X13353840Y-15123214D01*
X13353840Y-15123214D02*
X13363363Y-15085119D01*
X13363363Y-15085119D02*
X13372887Y-15066071D01*
X13372887Y-15066071D02*
X13382411Y-15056548D01*
X13382411Y-15056548D02*
X13401459Y-15047024D01*
X13553840Y-15247024D02*
X13553840Y-15113690D01*
X13553840Y-15132738D02*
X13563363Y-15123214D01*
X13563363Y-15123214D02*
X13582411Y-15113690D01*
X13582411Y-15113690D02*
X13610983Y-15113690D01*
X13610983Y-15113690D02*
X13630030Y-15123214D01*
X13630030Y-15123214D02*
X13639554Y-15142262D01*
X13639554Y-15142262D02*
X13639554Y-15247024D01*
X13639554Y-15142262D02*
X13649078Y-15123214D01*
X13649078Y-15123214D02*
X13668125Y-15113690D01*
X13668125Y-15113690D02*
X13696697Y-15113690D01*
X13696697Y-15113690D02*
X13715744Y-15123214D01*
X13715744Y-15123214D02*
X13725268Y-15142262D01*
X13725268Y-15142262D02*
X13725268Y-15247024D01*
X13820506Y-15247024D02*
X13820506Y-15113690D01*
X13820506Y-15132738D02*
X13830030Y-15123214D01*
X13830030Y-15123214D02*
X13849078Y-15113690D01*
X13849078Y-15113690D02*
X13877649Y-15113690D01*
X13877649Y-15113690D02*
X13896697Y-15123214D01*
X13896697Y-15123214D02*
X13906221Y-15142262D01*
X13906221Y-15142262D02*
X13906221Y-15247024D01*
X13906221Y-15142262D02*
X13915744Y-15123214D01*
X13915744Y-15123214D02*
X13934792Y-15113690D01*
X13934792Y-15113690D02*
X13963363Y-15113690D01*
X13963363Y-15113690D02*
X13982411Y-15123214D01*
X13982411Y-15123214D02*
X13991935Y-15142262D01*
X13991935Y-15142262D02*
X13991935Y-15247024D01*
X14382411Y-15037500D02*
X14210983Y-15294643D01*
X14639554Y-15047024D02*
X14658602Y-15047024D01*
X14658602Y-15047024D02*
X14677649Y-15056548D01*
X14677649Y-15056548D02*
X14687173Y-15066071D01*
X14687173Y-15066071D02*
X14696697Y-15085119D01*
X14696697Y-15085119D02*
X14706221Y-15123214D01*
X14706221Y-15123214D02*
X14706221Y-15170833D01*
X14706221Y-15170833D02*
X14696697Y-15208928D01*
X14696697Y-15208928D02*
X14687173Y-15227976D01*
X14687173Y-15227976D02*
X14677649Y-15237500D01*
X14677649Y-15237500D02*
X14658602Y-15247024D01*
X14658602Y-15247024D02*
X14639554Y-15247024D01*
X14639554Y-15247024D02*
X14620506Y-15237500D01*
X14620506Y-15237500D02*
X14610983Y-15227976D01*
X14610983Y-15227976D02*
X14601459Y-15208928D01*
X14601459Y-15208928D02*
X14591935Y-15170833D01*
X14591935Y-15170833D02*
X14591935Y-15123214D01*
X14591935Y-15123214D02*
X14601459Y-15085119D01*
X14601459Y-15085119D02*
X14610983Y-15066071D01*
X14610983Y-15066071D02*
X14620506Y-15056548D01*
X14620506Y-15056548D02*
X14639554Y-15047024D01*
X14791935Y-15227976D02*
X14801459Y-15237500D01*
X14801459Y-15237500D02*
X14791935Y-15247024D01*
X14791935Y-15247024D02*
X14782411Y-15237500D01*
X14782411Y-15237500D02*
X14791935Y-15227976D01*
X14791935Y-15227976D02*
X14791935Y-15247024D01*
X14925268Y-15047024D02*
X14944316Y-15047024D01*
X14944316Y-15047024D02*
X14963364Y-15056548D01*
X14963364Y-15056548D02*
X14972887Y-15066071D01*
X14972887Y-15066071D02*
X14982411Y-15085119D01*
X14982411Y-15085119D02*
X14991935Y-15123214D01*
X14991935Y-15123214D02*
X14991935Y-15170833D01*
X14991935Y-15170833D02*
X14982411Y-15208928D01*
X14982411Y-15208928D02*
X14972887Y-15227976D01*
X14972887Y-15227976D02*
X14963364Y-15237500D01*
X14963364Y-15237500D02*
X14944316Y-15247024D01*
X14944316Y-15247024D02*
X14925268Y-15247024D01*
X14925268Y-15247024D02*
X14906221Y-15237500D01*
X14906221Y-15237500D02*
X14896697Y-15227976D01*
X14896697Y-15227976D02*
X14887173Y-15208928D01*
X14887173Y-15208928D02*
X14877649Y-15170833D01*
X14877649Y-15170833D02*
X14877649Y-15123214D01*
X14877649Y-15123214D02*
X14887173Y-15085119D01*
X14887173Y-15085119D02*
X14896697Y-15066071D01*
X14896697Y-15066071D02*
X14906221Y-15056548D01*
X14906221Y-15056548D02*
X14925268Y-15047024D01*
X15058602Y-15047024D02*
X15182411Y-15047024D01*
X15182411Y-15047024D02*
X15115745Y-15123214D01*
X15115745Y-15123214D02*
X15144316Y-15123214D01*
X15144316Y-15123214D02*
X15163364Y-15132738D01*
X15163364Y-15132738D02*
X15172887Y-15142262D01*
X15172887Y-15142262D02*
X15182411Y-15161309D01*
X15182411Y-15161309D02*
X15182411Y-15208928D01*
X15182411Y-15208928D02*
X15172887Y-15227976D01*
X15172887Y-15227976D02*
X15163364Y-15237500D01*
X15163364Y-15237500D02*
X15144316Y-15247024D01*
X15144316Y-15247024D02*
X15087173Y-15247024D01*
X15087173Y-15247024D02*
X15068126Y-15237500D01*
X15068126Y-15237500D02*
X15058602Y-15227976D01*
X15249078Y-15047024D02*
X15382411Y-15047024D01*
X15382411Y-15047024D02*
X15296697Y-15247024D01*
X15544316Y-15113690D02*
X15544316Y-15247024D01*
X15496697Y-15037500D02*
X15449078Y-15180357D01*
X15449078Y-15180357D02*
X15572887Y-15180357D01*
X15639554Y-15047024D02*
X15639554Y-15085119D01*
X15715745Y-15047024D02*
X15715745Y-15085119D01*
X16010983Y-15323214D02*
X16001459Y-15313690D01*
X16001459Y-15313690D02*
X15982411Y-15285119D01*
X15982411Y-15285119D02*
X15972888Y-15266071D01*
X15972888Y-15266071D02*
X15963364Y-15237500D01*
X15963364Y-15237500D02*
X15953840Y-15189881D01*
X15953840Y-15189881D02*
X15953840Y-15151786D01*
X15953840Y-15151786D02*
X15963364Y-15104167D01*
X15963364Y-15104167D02*
X15972888Y-15075595D01*
X15972888Y-15075595D02*
X15982411Y-15056548D01*
X15982411Y-15056548D02*
X16001459Y-15027976D01*
X16001459Y-15027976D02*
X16010983Y-15018452D01*
X16191935Y-15247024D02*
X16077649Y-15247024D01*
X16134792Y-15247024D02*
X16134792Y-15047024D01*
X16134792Y-15047024D02*
X16115745Y-15075595D01*
X16115745Y-15075595D02*
X16096697Y-15094643D01*
X16096697Y-15094643D02*
X16077649Y-15104167D01*
X16268126Y-15066071D02*
X16277649Y-15056548D01*
X16277649Y-15056548D02*
X16296697Y-15047024D01*
X16296697Y-15047024D02*
X16344316Y-15047024D01*
X16344316Y-15047024D02*
X16363364Y-15056548D01*
X16363364Y-15056548D02*
X16372888Y-15066071D01*
X16372888Y-15066071D02*
X16382411Y-15085119D01*
X16382411Y-15085119D02*
X16382411Y-15104167D01*
X16382411Y-15104167D02*
X16372888Y-15132738D01*
X16372888Y-15132738D02*
X16258602Y-15247024D01*
X16258602Y-15247024D02*
X16382411Y-15247024D01*
X16620507Y-15247024D02*
X16620507Y-15047024D01*
X16706221Y-15247024D02*
X16706221Y-15142262D01*
X16706221Y-15142262D02*
X16696697Y-15123214D01*
X16696697Y-15123214D02*
X16677650Y-15113690D01*
X16677650Y-15113690D02*
X16649078Y-15113690D01*
X16649078Y-15113690D02*
X16630030Y-15123214D01*
X16630030Y-15123214D02*
X16620507Y-15132738D01*
X16830031Y-15247024D02*
X16810983Y-15237500D01*
X16810983Y-15237500D02*
X16801459Y-15227976D01*
X16801459Y-15227976D02*
X16791935Y-15208928D01*
X16791935Y-15208928D02*
X16791935Y-15151786D01*
X16791935Y-15151786D02*
X16801459Y-15132738D01*
X16801459Y-15132738D02*
X16810983Y-15123214D01*
X16810983Y-15123214D02*
X16830031Y-15113690D01*
X16830031Y-15113690D02*
X16858602Y-15113690D01*
X16858602Y-15113690D02*
X16877650Y-15123214D01*
X16877650Y-15123214D02*
X16887173Y-15132738D01*
X16887173Y-15132738D02*
X16896697Y-15151786D01*
X16896697Y-15151786D02*
X16896697Y-15208928D01*
X16896697Y-15208928D02*
X16887173Y-15227976D01*
X16887173Y-15227976D02*
X16877650Y-15237500D01*
X16877650Y-15237500D02*
X16858602Y-15247024D01*
X16858602Y-15247024D02*
X16830031Y-15247024D01*
X17010983Y-15247024D02*
X16991935Y-15237500D01*
X16991935Y-15237500D02*
X16982412Y-15218452D01*
X16982412Y-15218452D02*
X16982412Y-15047024D01*
X17163364Y-15237500D02*
X17144316Y-15247024D01*
X17144316Y-15247024D02*
X17106221Y-15247024D01*
X17106221Y-15247024D02*
X17087173Y-15237500D01*
X17087173Y-15237500D02*
X17077650Y-15218452D01*
X17077650Y-15218452D02*
X17077650Y-15142262D01*
X17077650Y-15142262D02*
X17087173Y-15123214D01*
X17087173Y-15123214D02*
X17106221Y-15113690D01*
X17106221Y-15113690D02*
X17144316Y-15113690D01*
X17144316Y-15113690D02*
X17163364Y-15123214D01*
X17163364Y-15123214D02*
X17172888Y-15142262D01*
X17172888Y-15142262D02*
X17172888Y-15161309D01*
X17172888Y-15161309D02*
X17077650Y-15180357D01*
X17249078Y-15237500D02*
X17268126Y-15247024D01*
X17268126Y-15247024D02*
X17306221Y-15247024D01*
X17306221Y-15247024D02*
X17325269Y-15237500D01*
X17325269Y-15237500D02*
X17334793Y-15218452D01*
X17334793Y-15218452D02*
X17334793Y-15208928D01*
X17334793Y-15208928D02*
X17325269Y-15189881D01*
X17325269Y-15189881D02*
X17306221Y-15180357D01*
X17306221Y-15180357D02*
X17277650Y-15180357D01*
X17277650Y-15180357D02*
X17258602Y-15170833D01*
X17258602Y-15170833D02*
X17249078Y-15151786D01*
X17249078Y-15151786D02*
X17249078Y-15142262D01*
X17249078Y-15142262D02*
X17258602Y-15123214D01*
X17258602Y-15123214D02*
X17277650Y-15113690D01*
X17277650Y-15113690D02*
X17306221Y-15113690D01*
X17306221Y-15113690D02*
X17325269Y-15123214D01*
X17401459Y-15323214D02*
X17410983Y-15313690D01*
X17410983Y-15313690D02*
X17430031Y-15285119D01*
X17430031Y-15285119D02*
X17439554Y-15266071D01*
X17439554Y-15266071D02*
X17449078Y-15237500D01*
X17449078Y-15237500D02*
X17458602Y-15189881D01*
X17458602Y-15189881D02*
X17458602Y-15151786D01*
X17458602Y-15151786D02*
X17449078Y-15104167D01*
X17449078Y-15104167D02*
X17439554Y-15075595D01*
X17439554Y-15075595D02*
X17430031Y-15056548D01*
X17430031Y-15056548D02*
X17410983Y-15027976D01*
X17410983Y-15027976D02*
X17401459Y-15018452D01*
D16*
X12385920Y-15469540D02*
X12435920Y-15419540D01*
X12385920Y-15369540D01*
X12335920Y-15419540D01*
X12385920Y-15469540D01*
D11*
X12801459Y-15511024D02*
X12687173Y-15511024D01*
X12744316Y-15511024D02*
X12744316Y-15311024D01*
X12744316Y-15311024D02*
X12725268Y-15339595D01*
X12725268Y-15339595D02*
X12706221Y-15358643D01*
X12706221Y-15358643D02*
X12687173Y-15368167D01*
X12887173Y-15491976D02*
X12896697Y-15501500D01*
X12896697Y-15501500D02*
X12887173Y-15511024D01*
X12887173Y-15511024D02*
X12877649Y-15501500D01*
X12877649Y-15501500D02*
X12887173Y-15491976D01*
X12887173Y-15491976D02*
X12887173Y-15511024D01*
X13020506Y-15311024D02*
X13039554Y-15311024D01*
X13039554Y-15311024D02*
X13058602Y-15320548D01*
X13058602Y-15320548D02*
X13068125Y-15330071D01*
X13068125Y-15330071D02*
X13077649Y-15349119D01*
X13077649Y-15349119D02*
X13087173Y-15387214D01*
X13087173Y-15387214D02*
X13087173Y-15434833D01*
X13087173Y-15434833D02*
X13077649Y-15472928D01*
X13077649Y-15472928D02*
X13068125Y-15491976D01*
X13068125Y-15491976D02*
X13058602Y-15501500D01*
X13058602Y-15501500D02*
X13039554Y-15511024D01*
X13039554Y-15511024D02*
X13020506Y-15511024D01*
X13020506Y-15511024D02*
X13001459Y-15501500D01*
X13001459Y-15501500D02*
X12991935Y-15491976D01*
X12991935Y-15491976D02*
X12982411Y-15472928D01*
X12982411Y-15472928D02*
X12972887Y-15434833D01*
X12972887Y-15434833D02*
X12972887Y-15387214D01*
X12972887Y-15387214D02*
X12982411Y-15349119D01*
X12982411Y-15349119D02*
X12991935Y-15330071D01*
X12991935Y-15330071D02*
X13001459Y-15320548D01*
X13001459Y-15320548D02*
X13020506Y-15311024D01*
X13210982Y-15311024D02*
X13230030Y-15311024D01*
X13230030Y-15311024D02*
X13249078Y-15320548D01*
X13249078Y-15320548D02*
X13258602Y-15330071D01*
X13258602Y-15330071D02*
X13268125Y-15349119D01*
X13268125Y-15349119D02*
X13277649Y-15387214D01*
X13277649Y-15387214D02*
X13277649Y-15434833D01*
X13277649Y-15434833D02*
X13268125Y-15472928D01*
X13268125Y-15472928D02*
X13258602Y-15491976D01*
X13258602Y-15491976D02*
X13249078Y-15501500D01*
X13249078Y-15501500D02*
X13230030Y-15511024D01*
X13230030Y-15511024D02*
X13210982Y-15511024D01*
X13210982Y-15511024D02*
X13191935Y-15501500D01*
X13191935Y-15501500D02*
X13182411Y-15491976D01*
X13182411Y-15491976D02*
X13172887Y-15472928D01*
X13172887Y-15472928D02*
X13163363Y-15434833D01*
X13163363Y-15434833D02*
X13163363Y-15387214D01*
X13163363Y-15387214D02*
X13172887Y-15349119D01*
X13172887Y-15349119D02*
X13182411Y-15330071D01*
X13182411Y-15330071D02*
X13191935Y-15320548D01*
X13191935Y-15320548D02*
X13210982Y-15311024D01*
X13401459Y-15311024D02*
X13420506Y-15311024D01*
X13420506Y-15311024D02*
X13439554Y-15320548D01*
X13439554Y-15320548D02*
X13449078Y-15330071D01*
X13449078Y-15330071D02*
X13458602Y-15349119D01*
X13458602Y-15349119D02*
X13468125Y-15387214D01*
X13468125Y-15387214D02*
X13468125Y-15434833D01*
X13468125Y-15434833D02*
X13458602Y-15472928D01*
X13458602Y-15472928D02*
X13449078Y-15491976D01*
X13449078Y-15491976D02*
X13439554Y-15501500D01*
X13439554Y-15501500D02*
X13420506Y-15511024D01*
X13420506Y-15511024D02*
X13401459Y-15511024D01*
X13401459Y-15511024D02*
X13382411Y-15501500D01*
X13382411Y-15501500D02*
X13372887Y-15491976D01*
X13372887Y-15491976D02*
X13363363Y-15472928D01*
X13363363Y-15472928D02*
X13353840Y-15434833D01*
X13353840Y-15434833D02*
X13353840Y-15387214D01*
X13353840Y-15387214D02*
X13363363Y-15349119D01*
X13363363Y-15349119D02*
X13372887Y-15330071D01*
X13372887Y-15330071D02*
X13382411Y-15320548D01*
X13382411Y-15320548D02*
X13401459Y-15311024D01*
X13553840Y-15511024D02*
X13553840Y-15377690D01*
X13553840Y-15396738D02*
X13563363Y-15387214D01*
X13563363Y-15387214D02*
X13582411Y-15377690D01*
X13582411Y-15377690D02*
X13610983Y-15377690D01*
X13610983Y-15377690D02*
X13630030Y-15387214D01*
X13630030Y-15387214D02*
X13639554Y-15406262D01*
X13639554Y-15406262D02*
X13639554Y-15511024D01*
X13639554Y-15406262D02*
X13649078Y-15387214D01*
X13649078Y-15387214D02*
X13668125Y-15377690D01*
X13668125Y-15377690D02*
X13696697Y-15377690D01*
X13696697Y-15377690D02*
X13715744Y-15387214D01*
X13715744Y-15387214D02*
X13725268Y-15406262D01*
X13725268Y-15406262D02*
X13725268Y-15511024D01*
X13820506Y-15511024D02*
X13820506Y-15377690D01*
X13820506Y-15396738D02*
X13830030Y-15387214D01*
X13830030Y-15387214D02*
X13849078Y-15377690D01*
X13849078Y-15377690D02*
X13877649Y-15377690D01*
X13877649Y-15377690D02*
X13896697Y-15387214D01*
X13896697Y-15387214D02*
X13906221Y-15406262D01*
X13906221Y-15406262D02*
X13906221Y-15511024D01*
X13906221Y-15406262D02*
X13915744Y-15387214D01*
X13915744Y-15387214D02*
X13934792Y-15377690D01*
X13934792Y-15377690D02*
X13963363Y-15377690D01*
X13963363Y-15377690D02*
X13982411Y-15387214D01*
X13982411Y-15387214D02*
X13991935Y-15406262D01*
X13991935Y-15406262D02*
X13991935Y-15511024D01*
X14382411Y-15301500D02*
X14210983Y-15558643D01*
X14639554Y-15311024D02*
X14658602Y-15311024D01*
X14658602Y-15311024D02*
X14677649Y-15320548D01*
X14677649Y-15320548D02*
X14687173Y-15330071D01*
X14687173Y-15330071D02*
X14696697Y-15349119D01*
X14696697Y-15349119D02*
X14706221Y-15387214D01*
X14706221Y-15387214D02*
X14706221Y-15434833D01*
X14706221Y-15434833D02*
X14696697Y-15472928D01*
X14696697Y-15472928D02*
X14687173Y-15491976D01*
X14687173Y-15491976D02*
X14677649Y-15501500D01*
X14677649Y-15501500D02*
X14658602Y-15511024D01*
X14658602Y-15511024D02*
X14639554Y-15511024D01*
X14639554Y-15511024D02*
X14620506Y-15501500D01*
X14620506Y-15501500D02*
X14610983Y-15491976D01*
X14610983Y-15491976D02*
X14601459Y-15472928D01*
X14601459Y-15472928D02*
X14591935Y-15434833D01*
X14591935Y-15434833D02*
X14591935Y-15387214D01*
X14591935Y-15387214D02*
X14601459Y-15349119D01*
X14601459Y-15349119D02*
X14610983Y-15330071D01*
X14610983Y-15330071D02*
X14620506Y-15320548D01*
X14620506Y-15320548D02*
X14639554Y-15311024D01*
X14791935Y-15491976D02*
X14801459Y-15501500D01*
X14801459Y-15501500D02*
X14791935Y-15511024D01*
X14791935Y-15511024D02*
X14782411Y-15501500D01*
X14782411Y-15501500D02*
X14791935Y-15491976D01*
X14791935Y-15491976D02*
X14791935Y-15511024D01*
X14925268Y-15311024D02*
X14944316Y-15311024D01*
X14944316Y-15311024D02*
X14963364Y-15320548D01*
X14963364Y-15320548D02*
X14972887Y-15330071D01*
X14972887Y-15330071D02*
X14982411Y-15349119D01*
X14982411Y-15349119D02*
X14991935Y-15387214D01*
X14991935Y-15387214D02*
X14991935Y-15434833D01*
X14991935Y-15434833D02*
X14982411Y-15472928D01*
X14982411Y-15472928D02*
X14972887Y-15491976D01*
X14972887Y-15491976D02*
X14963364Y-15501500D01*
X14963364Y-15501500D02*
X14944316Y-15511024D01*
X14944316Y-15511024D02*
X14925268Y-15511024D01*
X14925268Y-15511024D02*
X14906221Y-15501500D01*
X14906221Y-15501500D02*
X14896697Y-15491976D01*
X14896697Y-15491976D02*
X14887173Y-15472928D01*
X14887173Y-15472928D02*
X14877649Y-15434833D01*
X14877649Y-15434833D02*
X14877649Y-15387214D01*
X14877649Y-15387214D02*
X14887173Y-15349119D01*
X14887173Y-15349119D02*
X14896697Y-15330071D01*
X14896697Y-15330071D02*
X14906221Y-15320548D01*
X14906221Y-15320548D02*
X14925268Y-15311024D01*
X15058602Y-15311024D02*
X15182411Y-15311024D01*
X15182411Y-15311024D02*
X15115745Y-15387214D01*
X15115745Y-15387214D02*
X15144316Y-15387214D01*
X15144316Y-15387214D02*
X15163364Y-15396738D01*
X15163364Y-15396738D02*
X15172887Y-15406262D01*
X15172887Y-15406262D02*
X15182411Y-15425309D01*
X15182411Y-15425309D02*
X15182411Y-15472928D01*
X15182411Y-15472928D02*
X15172887Y-15491976D01*
X15172887Y-15491976D02*
X15163364Y-15501500D01*
X15163364Y-15501500D02*
X15144316Y-15511024D01*
X15144316Y-15511024D02*
X15087173Y-15511024D01*
X15087173Y-15511024D02*
X15068126Y-15501500D01*
X15068126Y-15501500D02*
X15058602Y-15491976D01*
X15277649Y-15511024D02*
X15315745Y-15511024D01*
X15315745Y-15511024D02*
X15334792Y-15501500D01*
X15334792Y-15501500D02*
X15344316Y-15491976D01*
X15344316Y-15491976D02*
X15363364Y-15463405D01*
X15363364Y-15463405D02*
X15372887Y-15425309D01*
X15372887Y-15425309D02*
X15372887Y-15349119D01*
X15372887Y-15349119D02*
X15363364Y-15330071D01*
X15363364Y-15330071D02*
X15353840Y-15320548D01*
X15353840Y-15320548D02*
X15334792Y-15311024D01*
X15334792Y-15311024D02*
X15296697Y-15311024D01*
X15296697Y-15311024D02*
X15277649Y-15320548D01*
X15277649Y-15320548D02*
X15268126Y-15330071D01*
X15268126Y-15330071D02*
X15258602Y-15349119D01*
X15258602Y-15349119D02*
X15258602Y-15396738D01*
X15258602Y-15396738D02*
X15268126Y-15415786D01*
X15268126Y-15415786D02*
X15277649Y-15425309D01*
X15277649Y-15425309D02*
X15296697Y-15434833D01*
X15296697Y-15434833D02*
X15334792Y-15434833D01*
X15334792Y-15434833D02*
X15353840Y-15425309D01*
X15353840Y-15425309D02*
X15363364Y-15415786D01*
X15363364Y-15415786D02*
X15372887Y-15396738D01*
X15544316Y-15377690D02*
X15544316Y-15511024D01*
X15496697Y-15301500D02*
X15449078Y-15444357D01*
X15449078Y-15444357D02*
X15572887Y-15444357D01*
X15639554Y-15311024D02*
X15639554Y-15349119D01*
X15715745Y-15311024D02*
X15715745Y-15349119D01*
X16010983Y-15587214D02*
X16001459Y-15577690D01*
X16001459Y-15577690D02*
X15982411Y-15549119D01*
X15982411Y-15549119D02*
X15972888Y-15530071D01*
X15972888Y-15530071D02*
X15963364Y-15501500D01*
X15963364Y-15501500D02*
X15953840Y-15453881D01*
X15953840Y-15453881D02*
X15953840Y-15415786D01*
X15953840Y-15415786D02*
X15963364Y-15368167D01*
X15963364Y-15368167D02*
X15972888Y-15339595D01*
X15972888Y-15339595D02*
X15982411Y-15320548D01*
X15982411Y-15320548D02*
X16001459Y-15291976D01*
X16001459Y-15291976D02*
X16010983Y-15282452D01*
X16077649Y-15330071D02*
X16087173Y-15320548D01*
X16087173Y-15320548D02*
X16106221Y-15311024D01*
X16106221Y-15311024D02*
X16153840Y-15311024D01*
X16153840Y-15311024D02*
X16172888Y-15320548D01*
X16172888Y-15320548D02*
X16182411Y-15330071D01*
X16182411Y-15330071D02*
X16191935Y-15349119D01*
X16191935Y-15349119D02*
X16191935Y-15368167D01*
X16191935Y-15368167D02*
X16182411Y-15396738D01*
X16182411Y-15396738D02*
X16068126Y-15511024D01*
X16068126Y-15511024D02*
X16191935Y-15511024D01*
X16430030Y-15511024D02*
X16430030Y-15311024D01*
X16515745Y-15511024D02*
X16515745Y-15406262D01*
X16515745Y-15406262D02*
X16506221Y-15387214D01*
X16506221Y-15387214D02*
X16487173Y-15377690D01*
X16487173Y-15377690D02*
X16458602Y-15377690D01*
X16458602Y-15377690D02*
X16439554Y-15387214D01*
X16439554Y-15387214D02*
X16430030Y-15396738D01*
X16639554Y-15511024D02*
X16620507Y-15501500D01*
X16620507Y-15501500D02*
X16610983Y-15491976D01*
X16610983Y-15491976D02*
X16601459Y-15472928D01*
X16601459Y-15472928D02*
X16601459Y-15415786D01*
X16601459Y-15415786D02*
X16610983Y-15396738D01*
X16610983Y-15396738D02*
X16620507Y-15387214D01*
X16620507Y-15387214D02*
X16639554Y-15377690D01*
X16639554Y-15377690D02*
X16668126Y-15377690D01*
X16668126Y-15377690D02*
X16687173Y-15387214D01*
X16687173Y-15387214D02*
X16696697Y-15396738D01*
X16696697Y-15396738D02*
X16706221Y-15415786D01*
X16706221Y-15415786D02*
X16706221Y-15472928D01*
X16706221Y-15472928D02*
X16696697Y-15491976D01*
X16696697Y-15491976D02*
X16687173Y-15501500D01*
X16687173Y-15501500D02*
X16668126Y-15511024D01*
X16668126Y-15511024D02*
X16639554Y-15511024D01*
X16820507Y-15511024D02*
X16801459Y-15501500D01*
X16801459Y-15501500D02*
X16791935Y-15482452D01*
X16791935Y-15482452D02*
X16791935Y-15311024D01*
X16972888Y-15501500D02*
X16953840Y-15511024D01*
X16953840Y-15511024D02*
X16915745Y-15511024D01*
X16915745Y-15511024D02*
X16896697Y-15501500D01*
X16896697Y-15501500D02*
X16887173Y-15482452D01*
X16887173Y-15482452D02*
X16887173Y-15406262D01*
X16887173Y-15406262D02*
X16896697Y-15387214D01*
X16896697Y-15387214D02*
X16915745Y-15377690D01*
X16915745Y-15377690D02*
X16953840Y-15377690D01*
X16953840Y-15377690D02*
X16972888Y-15387214D01*
X16972888Y-15387214D02*
X16982412Y-15406262D01*
X16982412Y-15406262D02*
X16982412Y-15425309D01*
X16982412Y-15425309D02*
X16887173Y-15444357D01*
X17058602Y-15501500D02*
X17077650Y-15511024D01*
X17077650Y-15511024D02*
X17115745Y-15511024D01*
X17115745Y-15511024D02*
X17134793Y-15501500D01*
X17134793Y-15501500D02*
X17144316Y-15482452D01*
X17144316Y-15482452D02*
X17144316Y-15472928D01*
X17144316Y-15472928D02*
X17134793Y-15453881D01*
X17134793Y-15453881D02*
X17115745Y-15444357D01*
X17115745Y-15444357D02*
X17087173Y-15444357D01*
X17087173Y-15444357D02*
X17068126Y-15434833D01*
X17068126Y-15434833D02*
X17058602Y-15415786D01*
X17058602Y-15415786D02*
X17058602Y-15406262D01*
X17058602Y-15406262D02*
X17068126Y-15387214D01*
X17068126Y-15387214D02*
X17087173Y-15377690D01*
X17087173Y-15377690D02*
X17115745Y-15377690D01*
X17115745Y-15377690D02*
X17134793Y-15387214D01*
X17210983Y-15587214D02*
X17220507Y-15577690D01*
X17220507Y-15577690D02*
X17239554Y-15549119D01*
X17239554Y-15549119D02*
X17249078Y-15530071D01*
X17249078Y-15530071D02*
X17258602Y-15501500D01*
X17258602Y-15501500D02*
X17268126Y-15453881D01*
X17268126Y-15453881D02*
X17268126Y-15415786D01*
X17268126Y-15415786D02*
X17258602Y-15368167D01*
X17258602Y-15368167D02*
X17249078Y-15339595D01*
X17249078Y-15339595D02*
X17239554Y-15320548D01*
X17239554Y-15320548D02*
X17220507Y-15291976D01*
X17220507Y-15291976D02*
X17210983Y-15282452D01*
D10*
X12335920Y-15633540D02*
X12435920Y-15733540D01*
X12435920Y-15633540D02*
X12335920Y-15733540D01*
X12435920Y-15683540D02*
G75*
G03*
X12435920Y-15683540I-50000J0D01*
G01*
D11*
X12801459Y-15775024D02*
X12687173Y-15775024D01*
X12744316Y-15775024D02*
X12744316Y-15575024D01*
X12744316Y-15575024D02*
X12725268Y-15603595D01*
X12725268Y-15603595D02*
X12706221Y-15622643D01*
X12706221Y-15622643D02*
X12687173Y-15632167D01*
X12887173Y-15755976D02*
X12896697Y-15765500D01*
X12896697Y-15765500D02*
X12887173Y-15775024D01*
X12887173Y-15775024D02*
X12877649Y-15765500D01*
X12877649Y-15765500D02*
X12887173Y-15755976D01*
X12887173Y-15755976D02*
X12887173Y-15775024D01*
X13020506Y-15575024D02*
X13039554Y-15575024D01*
X13039554Y-15575024D02*
X13058602Y-15584548D01*
X13058602Y-15584548D02*
X13068125Y-15594071D01*
X13068125Y-15594071D02*
X13077649Y-15613119D01*
X13077649Y-15613119D02*
X13087173Y-15651214D01*
X13087173Y-15651214D02*
X13087173Y-15698833D01*
X13087173Y-15698833D02*
X13077649Y-15736928D01*
X13077649Y-15736928D02*
X13068125Y-15755976D01*
X13068125Y-15755976D02*
X13058602Y-15765500D01*
X13058602Y-15765500D02*
X13039554Y-15775024D01*
X13039554Y-15775024D02*
X13020506Y-15775024D01*
X13020506Y-15775024D02*
X13001459Y-15765500D01*
X13001459Y-15765500D02*
X12991935Y-15755976D01*
X12991935Y-15755976D02*
X12982411Y-15736928D01*
X12982411Y-15736928D02*
X12972887Y-15698833D01*
X12972887Y-15698833D02*
X12972887Y-15651214D01*
X12972887Y-15651214D02*
X12982411Y-15613119D01*
X12982411Y-15613119D02*
X12991935Y-15594071D01*
X12991935Y-15594071D02*
X13001459Y-15584548D01*
X13001459Y-15584548D02*
X13020506Y-15575024D01*
X13210982Y-15575024D02*
X13230030Y-15575024D01*
X13230030Y-15575024D02*
X13249078Y-15584548D01*
X13249078Y-15584548D02*
X13258602Y-15594071D01*
X13258602Y-15594071D02*
X13268125Y-15613119D01*
X13268125Y-15613119D02*
X13277649Y-15651214D01*
X13277649Y-15651214D02*
X13277649Y-15698833D01*
X13277649Y-15698833D02*
X13268125Y-15736928D01*
X13268125Y-15736928D02*
X13258602Y-15755976D01*
X13258602Y-15755976D02*
X13249078Y-15765500D01*
X13249078Y-15765500D02*
X13230030Y-15775024D01*
X13230030Y-15775024D02*
X13210982Y-15775024D01*
X13210982Y-15775024D02*
X13191935Y-15765500D01*
X13191935Y-15765500D02*
X13182411Y-15755976D01*
X13182411Y-15755976D02*
X13172887Y-15736928D01*
X13172887Y-15736928D02*
X13163363Y-15698833D01*
X13163363Y-15698833D02*
X13163363Y-15651214D01*
X13163363Y-15651214D02*
X13172887Y-15613119D01*
X13172887Y-15613119D02*
X13182411Y-15594071D01*
X13182411Y-15594071D02*
X13191935Y-15584548D01*
X13191935Y-15584548D02*
X13210982Y-15575024D01*
X13401459Y-15575024D02*
X13420506Y-15575024D01*
X13420506Y-15575024D02*
X13439554Y-15584548D01*
X13439554Y-15584548D02*
X13449078Y-15594071D01*
X13449078Y-15594071D02*
X13458602Y-15613119D01*
X13458602Y-15613119D02*
X13468125Y-15651214D01*
X13468125Y-15651214D02*
X13468125Y-15698833D01*
X13468125Y-15698833D02*
X13458602Y-15736928D01*
X13458602Y-15736928D02*
X13449078Y-15755976D01*
X13449078Y-15755976D02*
X13439554Y-15765500D01*
X13439554Y-15765500D02*
X13420506Y-15775024D01*
X13420506Y-15775024D02*
X13401459Y-15775024D01*
X13401459Y-15775024D02*
X13382411Y-15765500D01*
X13382411Y-15765500D02*
X13372887Y-15755976D01*
X13372887Y-15755976D02*
X13363363Y-15736928D01*
X13363363Y-15736928D02*
X13353840Y-15698833D01*
X13353840Y-15698833D02*
X13353840Y-15651214D01*
X13353840Y-15651214D02*
X13363363Y-15613119D01*
X13363363Y-15613119D02*
X13372887Y-15594071D01*
X13372887Y-15594071D02*
X13382411Y-15584548D01*
X13382411Y-15584548D02*
X13401459Y-15575024D01*
X13553840Y-15775024D02*
X13553840Y-15641690D01*
X13553840Y-15660738D02*
X13563363Y-15651214D01*
X13563363Y-15651214D02*
X13582411Y-15641690D01*
X13582411Y-15641690D02*
X13610983Y-15641690D01*
X13610983Y-15641690D02*
X13630030Y-15651214D01*
X13630030Y-15651214D02*
X13639554Y-15670262D01*
X13639554Y-15670262D02*
X13639554Y-15775024D01*
X13639554Y-15670262D02*
X13649078Y-15651214D01*
X13649078Y-15651214D02*
X13668125Y-15641690D01*
X13668125Y-15641690D02*
X13696697Y-15641690D01*
X13696697Y-15641690D02*
X13715744Y-15651214D01*
X13715744Y-15651214D02*
X13725268Y-15670262D01*
X13725268Y-15670262D02*
X13725268Y-15775024D01*
X13820506Y-15775024D02*
X13820506Y-15641690D01*
X13820506Y-15660738D02*
X13830030Y-15651214D01*
X13830030Y-15651214D02*
X13849078Y-15641690D01*
X13849078Y-15641690D02*
X13877649Y-15641690D01*
X13877649Y-15641690D02*
X13896697Y-15651214D01*
X13896697Y-15651214D02*
X13906221Y-15670262D01*
X13906221Y-15670262D02*
X13906221Y-15775024D01*
X13906221Y-15670262D02*
X13915744Y-15651214D01*
X13915744Y-15651214D02*
X13934792Y-15641690D01*
X13934792Y-15641690D02*
X13963363Y-15641690D01*
X13963363Y-15641690D02*
X13982411Y-15651214D01*
X13982411Y-15651214D02*
X13991935Y-15670262D01*
X13991935Y-15670262D02*
X13991935Y-15775024D01*
X14382411Y-15565500D02*
X14210983Y-15822643D01*
X14639554Y-15575024D02*
X14658602Y-15575024D01*
X14658602Y-15575024D02*
X14677649Y-15584548D01*
X14677649Y-15584548D02*
X14687173Y-15594071D01*
X14687173Y-15594071D02*
X14696697Y-15613119D01*
X14696697Y-15613119D02*
X14706221Y-15651214D01*
X14706221Y-15651214D02*
X14706221Y-15698833D01*
X14706221Y-15698833D02*
X14696697Y-15736928D01*
X14696697Y-15736928D02*
X14687173Y-15755976D01*
X14687173Y-15755976D02*
X14677649Y-15765500D01*
X14677649Y-15765500D02*
X14658602Y-15775024D01*
X14658602Y-15775024D02*
X14639554Y-15775024D01*
X14639554Y-15775024D02*
X14620506Y-15765500D01*
X14620506Y-15765500D02*
X14610983Y-15755976D01*
X14610983Y-15755976D02*
X14601459Y-15736928D01*
X14601459Y-15736928D02*
X14591935Y-15698833D01*
X14591935Y-15698833D02*
X14591935Y-15651214D01*
X14591935Y-15651214D02*
X14601459Y-15613119D01*
X14601459Y-15613119D02*
X14610983Y-15594071D01*
X14610983Y-15594071D02*
X14620506Y-15584548D01*
X14620506Y-15584548D02*
X14639554Y-15575024D01*
X14791935Y-15755976D02*
X14801459Y-15765500D01*
X14801459Y-15765500D02*
X14791935Y-15775024D01*
X14791935Y-15775024D02*
X14782411Y-15765500D01*
X14782411Y-15765500D02*
X14791935Y-15755976D01*
X14791935Y-15755976D02*
X14791935Y-15775024D01*
X14925268Y-15575024D02*
X14944316Y-15575024D01*
X14944316Y-15575024D02*
X14963364Y-15584548D01*
X14963364Y-15584548D02*
X14972887Y-15594071D01*
X14972887Y-15594071D02*
X14982411Y-15613119D01*
X14982411Y-15613119D02*
X14991935Y-15651214D01*
X14991935Y-15651214D02*
X14991935Y-15698833D01*
X14991935Y-15698833D02*
X14982411Y-15736928D01*
X14982411Y-15736928D02*
X14972887Y-15755976D01*
X14972887Y-15755976D02*
X14963364Y-15765500D01*
X14963364Y-15765500D02*
X14944316Y-15775024D01*
X14944316Y-15775024D02*
X14925268Y-15775024D01*
X14925268Y-15775024D02*
X14906221Y-15765500D01*
X14906221Y-15765500D02*
X14896697Y-15755976D01*
X14896697Y-15755976D02*
X14887173Y-15736928D01*
X14887173Y-15736928D02*
X14877649Y-15698833D01*
X14877649Y-15698833D02*
X14877649Y-15651214D01*
X14877649Y-15651214D02*
X14887173Y-15613119D01*
X14887173Y-15613119D02*
X14896697Y-15594071D01*
X14896697Y-15594071D02*
X14906221Y-15584548D01*
X14906221Y-15584548D02*
X14925268Y-15575024D01*
X15058602Y-15575024D02*
X15182411Y-15575024D01*
X15182411Y-15575024D02*
X15115745Y-15651214D01*
X15115745Y-15651214D02*
X15144316Y-15651214D01*
X15144316Y-15651214D02*
X15163364Y-15660738D01*
X15163364Y-15660738D02*
X15172887Y-15670262D01*
X15172887Y-15670262D02*
X15182411Y-15689309D01*
X15182411Y-15689309D02*
X15182411Y-15736928D01*
X15182411Y-15736928D02*
X15172887Y-15755976D01*
X15172887Y-15755976D02*
X15163364Y-15765500D01*
X15163364Y-15765500D02*
X15144316Y-15775024D01*
X15144316Y-15775024D02*
X15087173Y-15775024D01*
X15087173Y-15775024D02*
X15068126Y-15765500D01*
X15068126Y-15765500D02*
X15058602Y-15755976D01*
X15277649Y-15775024D02*
X15315745Y-15775024D01*
X15315745Y-15775024D02*
X15334792Y-15765500D01*
X15334792Y-15765500D02*
X15344316Y-15755976D01*
X15344316Y-15755976D02*
X15363364Y-15727405D01*
X15363364Y-15727405D02*
X15372887Y-15689309D01*
X15372887Y-15689309D02*
X15372887Y-15613119D01*
X15372887Y-15613119D02*
X15363364Y-15594071D01*
X15363364Y-15594071D02*
X15353840Y-15584548D01*
X15353840Y-15584548D02*
X15334792Y-15575024D01*
X15334792Y-15575024D02*
X15296697Y-15575024D01*
X15296697Y-15575024D02*
X15277649Y-15584548D01*
X15277649Y-15584548D02*
X15268126Y-15594071D01*
X15268126Y-15594071D02*
X15258602Y-15613119D01*
X15258602Y-15613119D02*
X15258602Y-15660738D01*
X15258602Y-15660738D02*
X15268126Y-15679786D01*
X15268126Y-15679786D02*
X15277649Y-15689309D01*
X15277649Y-15689309D02*
X15296697Y-15698833D01*
X15296697Y-15698833D02*
X15334792Y-15698833D01*
X15334792Y-15698833D02*
X15353840Y-15689309D01*
X15353840Y-15689309D02*
X15363364Y-15679786D01*
X15363364Y-15679786D02*
X15372887Y-15660738D01*
X15544316Y-15641690D02*
X15544316Y-15775024D01*
X15496697Y-15565500D02*
X15449078Y-15708357D01*
X15449078Y-15708357D02*
X15572887Y-15708357D01*
X15639554Y-15575024D02*
X15639554Y-15613119D01*
X15715745Y-15575024D02*
X15715745Y-15613119D01*
X16010983Y-15851214D02*
X16001459Y-15841690D01*
X16001459Y-15841690D02*
X15982411Y-15813119D01*
X15982411Y-15813119D02*
X15972888Y-15794071D01*
X15972888Y-15794071D02*
X15963364Y-15765500D01*
X15963364Y-15765500D02*
X15953840Y-15717881D01*
X15953840Y-15717881D02*
X15953840Y-15679786D01*
X15953840Y-15679786D02*
X15963364Y-15632167D01*
X15963364Y-15632167D02*
X15972888Y-15603595D01*
X15972888Y-15603595D02*
X15982411Y-15584548D01*
X15982411Y-15584548D02*
X16001459Y-15555976D01*
X16001459Y-15555976D02*
X16010983Y-15546452D01*
X16172888Y-15641690D02*
X16172888Y-15775024D01*
X16125268Y-15565500D02*
X16077649Y-15708357D01*
X16077649Y-15708357D02*
X16201459Y-15708357D01*
X16430030Y-15775024D02*
X16430030Y-15575024D01*
X16515745Y-15775024D02*
X16515745Y-15670262D01*
X16515745Y-15670262D02*
X16506221Y-15651214D01*
X16506221Y-15651214D02*
X16487173Y-15641690D01*
X16487173Y-15641690D02*
X16458602Y-15641690D01*
X16458602Y-15641690D02*
X16439554Y-15651214D01*
X16439554Y-15651214D02*
X16430030Y-15660738D01*
X16639554Y-15775024D02*
X16620507Y-15765500D01*
X16620507Y-15765500D02*
X16610983Y-15755976D01*
X16610983Y-15755976D02*
X16601459Y-15736928D01*
X16601459Y-15736928D02*
X16601459Y-15679786D01*
X16601459Y-15679786D02*
X16610983Y-15660738D01*
X16610983Y-15660738D02*
X16620507Y-15651214D01*
X16620507Y-15651214D02*
X16639554Y-15641690D01*
X16639554Y-15641690D02*
X16668126Y-15641690D01*
X16668126Y-15641690D02*
X16687173Y-15651214D01*
X16687173Y-15651214D02*
X16696697Y-15660738D01*
X16696697Y-15660738D02*
X16706221Y-15679786D01*
X16706221Y-15679786D02*
X16706221Y-15736928D01*
X16706221Y-15736928D02*
X16696697Y-15755976D01*
X16696697Y-15755976D02*
X16687173Y-15765500D01*
X16687173Y-15765500D02*
X16668126Y-15775024D01*
X16668126Y-15775024D02*
X16639554Y-15775024D01*
X16820507Y-15775024D02*
X16801459Y-15765500D01*
X16801459Y-15765500D02*
X16791935Y-15746452D01*
X16791935Y-15746452D02*
X16791935Y-15575024D01*
X16972888Y-15765500D02*
X16953840Y-15775024D01*
X16953840Y-15775024D02*
X16915745Y-15775024D01*
X16915745Y-15775024D02*
X16896697Y-15765500D01*
X16896697Y-15765500D02*
X16887173Y-15746452D01*
X16887173Y-15746452D02*
X16887173Y-15670262D01*
X16887173Y-15670262D02*
X16896697Y-15651214D01*
X16896697Y-15651214D02*
X16915745Y-15641690D01*
X16915745Y-15641690D02*
X16953840Y-15641690D01*
X16953840Y-15641690D02*
X16972888Y-15651214D01*
X16972888Y-15651214D02*
X16982412Y-15670262D01*
X16982412Y-15670262D02*
X16982412Y-15689309D01*
X16982412Y-15689309D02*
X16887173Y-15708357D01*
X17058602Y-15765500D02*
X17077650Y-15775024D01*
X17077650Y-15775024D02*
X17115745Y-15775024D01*
X17115745Y-15775024D02*
X17134793Y-15765500D01*
X17134793Y-15765500D02*
X17144316Y-15746452D01*
X17144316Y-15746452D02*
X17144316Y-15736928D01*
X17144316Y-15736928D02*
X17134793Y-15717881D01*
X17134793Y-15717881D02*
X17115745Y-15708357D01*
X17115745Y-15708357D02*
X17087173Y-15708357D01*
X17087173Y-15708357D02*
X17068126Y-15698833D01*
X17068126Y-15698833D02*
X17058602Y-15679786D01*
X17058602Y-15679786D02*
X17058602Y-15670262D01*
X17058602Y-15670262D02*
X17068126Y-15651214D01*
X17068126Y-15651214D02*
X17087173Y-15641690D01*
X17087173Y-15641690D02*
X17115745Y-15641690D01*
X17115745Y-15641690D02*
X17134793Y-15651214D01*
X17210983Y-15851214D02*
X17220507Y-15841690D01*
X17220507Y-15841690D02*
X17239554Y-15813119D01*
X17239554Y-15813119D02*
X17249078Y-15794071D01*
X17249078Y-15794071D02*
X17258602Y-15765500D01*
X17258602Y-15765500D02*
X17268126Y-15717881D01*
X17268126Y-15717881D02*
X17268126Y-15679786D01*
X17268126Y-15679786D02*
X17258602Y-15632167D01*
X17258602Y-15632167D02*
X17249078Y-15603595D01*
X17249078Y-15603595D02*
X17239554Y-15584548D01*
X17239554Y-15584548D02*
X17220507Y-15555976D01*
X17220507Y-15555976D02*
X17210983Y-15546452D01*
D17*
X12333920Y-15896540D02*
X12435920Y-15998540D01*
X12435920Y-15896540D02*
X12333920Y-15998540D01*
X12384920Y-15896540D02*
X12384920Y-15998540D01*
X12333920Y-15947540D02*
X12435920Y-15947540D01*
D11*
X12801459Y-16039024D02*
X12687173Y-16039024D01*
X12744316Y-16039024D02*
X12744316Y-15839024D01*
X12744316Y-15839024D02*
X12725268Y-15867595D01*
X12725268Y-15867595D02*
X12706221Y-15886643D01*
X12706221Y-15886643D02*
X12687173Y-15896167D01*
X12887173Y-16019976D02*
X12896697Y-16029500D01*
X12896697Y-16029500D02*
X12887173Y-16039024D01*
X12887173Y-16039024D02*
X12877649Y-16029500D01*
X12877649Y-16029500D02*
X12887173Y-16019976D01*
X12887173Y-16019976D02*
X12887173Y-16039024D01*
X13020506Y-15839024D02*
X13039554Y-15839024D01*
X13039554Y-15839024D02*
X13058602Y-15848548D01*
X13058602Y-15848548D02*
X13068125Y-15858071D01*
X13068125Y-15858071D02*
X13077649Y-15877119D01*
X13077649Y-15877119D02*
X13087173Y-15915214D01*
X13087173Y-15915214D02*
X13087173Y-15962833D01*
X13087173Y-15962833D02*
X13077649Y-16000928D01*
X13077649Y-16000928D02*
X13068125Y-16019976D01*
X13068125Y-16019976D02*
X13058602Y-16029500D01*
X13058602Y-16029500D02*
X13039554Y-16039024D01*
X13039554Y-16039024D02*
X13020506Y-16039024D01*
X13020506Y-16039024D02*
X13001459Y-16029500D01*
X13001459Y-16029500D02*
X12991935Y-16019976D01*
X12991935Y-16019976D02*
X12982411Y-16000928D01*
X12982411Y-16000928D02*
X12972887Y-15962833D01*
X12972887Y-15962833D02*
X12972887Y-15915214D01*
X12972887Y-15915214D02*
X12982411Y-15877119D01*
X12982411Y-15877119D02*
X12991935Y-15858071D01*
X12991935Y-15858071D02*
X13001459Y-15848548D01*
X13001459Y-15848548D02*
X13020506Y-15839024D01*
X13163363Y-15858071D02*
X13172887Y-15848548D01*
X13172887Y-15848548D02*
X13191935Y-15839024D01*
X13191935Y-15839024D02*
X13239554Y-15839024D01*
X13239554Y-15839024D02*
X13258602Y-15848548D01*
X13258602Y-15848548D02*
X13268125Y-15858071D01*
X13268125Y-15858071D02*
X13277649Y-15877119D01*
X13277649Y-15877119D02*
X13277649Y-15896167D01*
X13277649Y-15896167D02*
X13268125Y-15924738D01*
X13268125Y-15924738D02*
X13153840Y-16039024D01*
X13153840Y-16039024D02*
X13277649Y-16039024D01*
X13401459Y-15839024D02*
X13420506Y-15839024D01*
X13420506Y-15839024D02*
X13439554Y-15848548D01*
X13439554Y-15848548D02*
X13449078Y-15858071D01*
X13449078Y-15858071D02*
X13458602Y-15877119D01*
X13458602Y-15877119D02*
X13468125Y-15915214D01*
X13468125Y-15915214D02*
X13468125Y-15962833D01*
X13468125Y-15962833D02*
X13458602Y-16000928D01*
X13458602Y-16000928D02*
X13449078Y-16019976D01*
X13449078Y-16019976D02*
X13439554Y-16029500D01*
X13439554Y-16029500D02*
X13420506Y-16039024D01*
X13420506Y-16039024D02*
X13401459Y-16039024D01*
X13401459Y-16039024D02*
X13382411Y-16029500D01*
X13382411Y-16029500D02*
X13372887Y-16019976D01*
X13372887Y-16019976D02*
X13363363Y-16000928D01*
X13363363Y-16000928D02*
X13353840Y-15962833D01*
X13353840Y-15962833D02*
X13353840Y-15915214D01*
X13353840Y-15915214D02*
X13363363Y-15877119D01*
X13363363Y-15877119D02*
X13372887Y-15858071D01*
X13372887Y-15858071D02*
X13382411Y-15848548D01*
X13382411Y-15848548D02*
X13401459Y-15839024D01*
X13553840Y-16039024D02*
X13553840Y-15905690D01*
X13553840Y-15924738D02*
X13563363Y-15915214D01*
X13563363Y-15915214D02*
X13582411Y-15905690D01*
X13582411Y-15905690D02*
X13610983Y-15905690D01*
X13610983Y-15905690D02*
X13630030Y-15915214D01*
X13630030Y-15915214D02*
X13639554Y-15934262D01*
X13639554Y-15934262D02*
X13639554Y-16039024D01*
X13639554Y-15934262D02*
X13649078Y-15915214D01*
X13649078Y-15915214D02*
X13668125Y-15905690D01*
X13668125Y-15905690D02*
X13696697Y-15905690D01*
X13696697Y-15905690D02*
X13715744Y-15915214D01*
X13715744Y-15915214D02*
X13725268Y-15934262D01*
X13725268Y-15934262D02*
X13725268Y-16039024D01*
X13820506Y-16039024D02*
X13820506Y-15905690D01*
X13820506Y-15924738D02*
X13830030Y-15915214D01*
X13830030Y-15915214D02*
X13849078Y-15905690D01*
X13849078Y-15905690D02*
X13877649Y-15905690D01*
X13877649Y-15905690D02*
X13896697Y-15915214D01*
X13896697Y-15915214D02*
X13906221Y-15934262D01*
X13906221Y-15934262D02*
X13906221Y-16039024D01*
X13906221Y-15934262D02*
X13915744Y-15915214D01*
X13915744Y-15915214D02*
X13934792Y-15905690D01*
X13934792Y-15905690D02*
X13963363Y-15905690D01*
X13963363Y-15905690D02*
X13982411Y-15915214D01*
X13982411Y-15915214D02*
X13991935Y-15934262D01*
X13991935Y-15934262D02*
X13991935Y-16039024D01*
X14382411Y-15829500D02*
X14210983Y-16086643D01*
X14639554Y-15839024D02*
X14658602Y-15839024D01*
X14658602Y-15839024D02*
X14677649Y-15848548D01*
X14677649Y-15848548D02*
X14687173Y-15858071D01*
X14687173Y-15858071D02*
X14696697Y-15877119D01*
X14696697Y-15877119D02*
X14706221Y-15915214D01*
X14706221Y-15915214D02*
X14706221Y-15962833D01*
X14706221Y-15962833D02*
X14696697Y-16000928D01*
X14696697Y-16000928D02*
X14687173Y-16019976D01*
X14687173Y-16019976D02*
X14677649Y-16029500D01*
X14677649Y-16029500D02*
X14658602Y-16039024D01*
X14658602Y-16039024D02*
X14639554Y-16039024D01*
X14639554Y-16039024D02*
X14620506Y-16029500D01*
X14620506Y-16029500D02*
X14610983Y-16019976D01*
X14610983Y-16019976D02*
X14601459Y-16000928D01*
X14601459Y-16000928D02*
X14591935Y-15962833D01*
X14591935Y-15962833D02*
X14591935Y-15915214D01*
X14591935Y-15915214D02*
X14601459Y-15877119D01*
X14601459Y-15877119D02*
X14610983Y-15858071D01*
X14610983Y-15858071D02*
X14620506Y-15848548D01*
X14620506Y-15848548D02*
X14639554Y-15839024D01*
X14791935Y-16019976D02*
X14801459Y-16029500D01*
X14801459Y-16029500D02*
X14791935Y-16039024D01*
X14791935Y-16039024D02*
X14782411Y-16029500D01*
X14782411Y-16029500D02*
X14791935Y-16019976D01*
X14791935Y-16019976D02*
X14791935Y-16039024D01*
X14925268Y-15839024D02*
X14944316Y-15839024D01*
X14944316Y-15839024D02*
X14963364Y-15848548D01*
X14963364Y-15848548D02*
X14972887Y-15858071D01*
X14972887Y-15858071D02*
X14982411Y-15877119D01*
X14982411Y-15877119D02*
X14991935Y-15915214D01*
X14991935Y-15915214D02*
X14991935Y-15962833D01*
X14991935Y-15962833D02*
X14982411Y-16000928D01*
X14982411Y-16000928D02*
X14972887Y-16019976D01*
X14972887Y-16019976D02*
X14963364Y-16029500D01*
X14963364Y-16029500D02*
X14944316Y-16039024D01*
X14944316Y-16039024D02*
X14925268Y-16039024D01*
X14925268Y-16039024D02*
X14906221Y-16029500D01*
X14906221Y-16029500D02*
X14896697Y-16019976D01*
X14896697Y-16019976D02*
X14887173Y-16000928D01*
X14887173Y-16000928D02*
X14877649Y-15962833D01*
X14877649Y-15962833D02*
X14877649Y-15915214D01*
X14877649Y-15915214D02*
X14887173Y-15877119D01*
X14887173Y-15877119D02*
X14896697Y-15858071D01*
X14896697Y-15858071D02*
X14906221Y-15848548D01*
X14906221Y-15848548D02*
X14925268Y-15839024D01*
X15163364Y-15905690D02*
X15163364Y-16039024D01*
X15115745Y-15829500D02*
X15068126Y-15972357D01*
X15068126Y-15972357D02*
X15191935Y-15972357D01*
X15306221Y-15839024D02*
X15325268Y-15839024D01*
X15325268Y-15839024D02*
X15344316Y-15848548D01*
X15344316Y-15848548D02*
X15353840Y-15858071D01*
X15353840Y-15858071D02*
X15363364Y-15877119D01*
X15363364Y-15877119D02*
X15372887Y-15915214D01*
X15372887Y-15915214D02*
X15372887Y-15962833D01*
X15372887Y-15962833D02*
X15363364Y-16000928D01*
X15363364Y-16000928D02*
X15353840Y-16019976D01*
X15353840Y-16019976D02*
X15344316Y-16029500D01*
X15344316Y-16029500D02*
X15325268Y-16039024D01*
X15325268Y-16039024D02*
X15306221Y-16039024D01*
X15306221Y-16039024D02*
X15287173Y-16029500D01*
X15287173Y-16029500D02*
X15277649Y-16019976D01*
X15277649Y-16019976D02*
X15268126Y-16000928D01*
X15268126Y-16000928D02*
X15258602Y-15962833D01*
X15258602Y-15962833D02*
X15258602Y-15915214D01*
X15258602Y-15915214D02*
X15268126Y-15877119D01*
X15268126Y-15877119D02*
X15277649Y-15858071D01*
X15277649Y-15858071D02*
X15287173Y-15848548D01*
X15287173Y-15848548D02*
X15306221Y-15839024D01*
X15449078Y-15858071D02*
X15458602Y-15848548D01*
X15458602Y-15848548D02*
X15477649Y-15839024D01*
X15477649Y-15839024D02*
X15525268Y-15839024D01*
X15525268Y-15839024D02*
X15544316Y-15848548D01*
X15544316Y-15848548D02*
X15553840Y-15858071D01*
X15553840Y-15858071D02*
X15563364Y-15877119D01*
X15563364Y-15877119D02*
X15563364Y-15896167D01*
X15563364Y-15896167D02*
X15553840Y-15924738D01*
X15553840Y-15924738D02*
X15439554Y-16039024D01*
X15439554Y-16039024D02*
X15563364Y-16039024D01*
X15639554Y-15839024D02*
X15639554Y-15877119D01*
X15715745Y-15839024D02*
X15715745Y-15877119D01*
X16010983Y-16115214D02*
X16001459Y-16105690D01*
X16001459Y-16105690D02*
X15982411Y-16077119D01*
X15982411Y-16077119D02*
X15972888Y-16058071D01*
X15972888Y-16058071D02*
X15963364Y-16029500D01*
X15963364Y-16029500D02*
X15953840Y-15981881D01*
X15953840Y-15981881D02*
X15953840Y-15943786D01*
X15953840Y-15943786D02*
X15963364Y-15896167D01*
X15963364Y-15896167D02*
X15972888Y-15867595D01*
X15972888Y-15867595D02*
X15982411Y-15848548D01*
X15982411Y-15848548D02*
X16001459Y-15819976D01*
X16001459Y-15819976D02*
X16010983Y-15810452D01*
X16068126Y-15839024D02*
X16191935Y-15839024D01*
X16191935Y-15839024D02*
X16125268Y-15915214D01*
X16125268Y-15915214D02*
X16153840Y-15915214D01*
X16153840Y-15915214D02*
X16172888Y-15924738D01*
X16172888Y-15924738D02*
X16182411Y-15934262D01*
X16182411Y-15934262D02*
X16191935Y-15953309D01*
X16191935Y-15953309D02*
X16191935Y-16000928D01*
X16191935Y-16000928D02*
X16182411Y-16019976D01*
X16182411Y-16019976D02*
X16172888Y-16029500D01*
X16172888Y-16029500D02*
X16153840Y-16039024D01*
X16153840Y-16039024D02*
X16096697Y-16039024D01*
X16096697Y-16039024D02*
X16077649Y-16029500D01*
X16077649Y-16029500D02*
X16068126Y-16019976D01*
X16315745Y-15839024D02*
X16334792Y-15839024D01*
X16334792Y-15839024D02*
X16353840Y-15848548D01*
X16353840Y-15848548D02*
X16363364Y-15858071D01*
X16363364Y-15858071D02*
X16372888Y-15877119D01*
X16372888Y-15877119D02*
X16382411Y-15915214D01*
X16382411Y-15915214D02*
X16382411Y-15962833D01*
X16382411Y-15962833D02*
X16372888Y-16000928D01*
X16372888Y-16000928D02*
X16363364Y-16019976D01*
X16363364Y-16019976D02*
X16353840Y-16029500D01*
X16353840Y-16029500D02*
X16334792Y-16039024D01*
X16334792Y-16039024D02*
X16315745Y-16039024D01*
X16315745Y-16039024D02*
X16296697Y-16029500D01*
X16296697Y-16029500D02*
X16287173Y-16019976D01*
X16287173Y-16019976D02*
X16277649Y-16000928D01*
X16277649Y-16000928D02*
X16268126Y-15962833D01*
X16268126Y-15962833D02*
X16268126Y-15915214D01*
X16268126Y-15915214D02*
X16277649Y-15877119D01*
X16277649Y-15877119D02*
X16287173Y-15858071D01*
X16287173Y-15858071D02*
X16296697Y-15848548D01*
X16296697Y-15848548D02*
X16315745Y-15839024D01*
X16620507Y-16039024D02*
X16620507Y-15839024D01*
X16706221Y-16039024D02*
X16706221Y-15934262D01*
X16706221Y-15934262D02*
X16696697Y-15915214D01*
X16696697Y-15915214D02*
X16677650Y-15905690D01*
X16677650Y-15905690D02*
X16649078Y-15905690D01*
X16649078Y-15905690D02*
X16630030Y-15915214D01*
X16630030Y-15915214D02*
X16620507Y-15924738D01*
X16830031Y-16039024D02*
X16810983Y-16029500D01*
X16810983Y-16029500D02*
X16801459Y-16019976D01*
X16801459Y-16019976D02*
X16791935Y-16000928D01*
X16791935Y-16000928D02*
X16791935Y-15943786D01*
X16791935Y-15943786D02*
X16801459Y-15924738D01*
X16801459Y-15924738D02*
X16810983Y-15915214D01*
X16810983Y-15915214D02*
X16830031Y-15905690D01*
X16830031Y-15905690D02*
X16858602Y-15905690D01*
X16858602Y-15905690D02*
X16877650Y-15915214D01*
X16877650Y-15915214D02*
X16887173Y-15924738D01*
X16887173Y-15924738D02*
X16896697Y-15943786D01*
X16896697Y-15943786D02*
X16896697Y-16000928D01*
X16896697Y-16000928D02*
X16887173Y-16019976D01*
X16887173Y-16019976D02*
X16877650Y-16029500D01*
X16877650Y-16029500D02*
X16858602Y-16039024D01*
X16858602Y-16039024D02*
X16830031Y-16039024D01*
X17010983Y-16039024D02*
X16991935Y-16029500D01*
X16991935Y-16029500D02*
X16982412Y-16010452D01*
X16982412Y-16010452D02*
X16982412Y-15839024D01*
X17163364Y-16029500D02*
X17144316Y-16039024D01*
X17144316Y-16039024D02*
X17106221Y-16039024D01*
X17106221Y-16039024D02*
X17087173Y-16029500D01*
X17087173Y-16029500D02*
X17077650Y-16010452D01*
X17077650Y-16010452D02*
X17077650Y-15934262D01*
X17077650Y-15934262D02*
X17087173Y-15915214D01*
X17087173Y-15915214D02*
X17106221Y-15905690D01*
X17106221Y-15905690D02*
X17144316Y-15905690D01*
X17144316Y-15905690D02*
X17163364Y-15915214D01*
X17163364Y-15915214D02*
X17172888Y-15934262D01*
X17172888Y-15934262D02*
X17172888Y-15953309D01*
X17172888Y-15953309D02*
X17077650Y-15972357D01*
X17249078Y-16029500D02*
X17268126Y-16039024D01*
X17268126Y-16039024D02*
X17306221Y-16039024D01*
X17306221Y-16039024D02*
X17325269Y-16029500D01*
X17325269Y-16029500D02*
X17334793Y-16010452D01*
X17334793Y-16010452D02*
X17334793Y-16000928D01*
X17334793Y-16000928D02*
X17325269Y-15981881D01*
X17325269Y-15981881D02*
X17306221Y-15972357D01*
X17306221Y-15972357D02*
X17277650Y-15972357D01*
X17277650Y-15972357D02*
X17258602Y-15962833D01*
X17258602Y-15962833D02*
X17249078Y-15943786D01*
X17249078Y-15943786D02*
X17249078Y-15934262D01*
X17249078Y-15934262D02*
X17258602Y-15915214D01*
X17258602Y-15915214D02*
X17277650Y-15905690D01*
X17277650Y-15905690D02*
X17306221Y-15905690D01*
X17306221Y-15905690D02*
X17325269Y-15915214D01*
X17401459Y-16115214D02*
X17410983Y-16105690D01*
X17410983Y-16105690D02*
X17430031Y-16077119D01*
X17430031Y-16077119D02*
X17439554Y-16058071D01*
X17439554Y-16058071D02*
X17449078Y-16029500D01*
X17449078Y-16029500D02*
X17458602Y-15981881D01*
X17458602Y-15981881D02*
X17458602Y-15943786D01*
X17458602Y-15943786D02*
X17449078Y-15896167D01*
X17449078Y-15896167D02*
X17439554Y-15867595D01*
X17439554Y-15867595D02*
X17430031Y-15848548D01*
X17430031Y-15848548D02*
X17410983Y-15819976D01*
X17410983Y-15819976D02*
X17401459Y-15810452D01*
D18*
X12315920Y-16151540D02*
X12435920Y-16271540D01*
X12435920Y-16151540D02*
X12315920Y-16271540D01*
X12418347Y-16253967D02*
X12418347Y-16169113D01*
X12333493Y-16169113D01*
X12333493Y-16253967D01*
X12418347Y-16253967D01*
D11*
X12801459Y-16303024D02*
X12687173Y-16303024D01*
X12744316Y-16303024D02*
X12744316Y-16103024D01*
X12744316Y-16103024D02*
X12725268Y-16131595D01*
X12725268Y-16131595D02*
X12706221Y-16150643D01*
X12706221Y-16150643D02*
X12687173Y-16160167D01*
X12887173Y-16283976D02*
X12896697Y-16293500D01*
X12896697Y-16293500D02*
X12887173Y-16303024D01*
X12887173Y-16303024D02*
X12877649Y-16293500D01*
X12877649Y-16293500D02*
X12887173Y-16283976D01*
X12887173Y-16283976D02*
X12887173Y-16303024D01*
X12972887Y-16122071D02*
X12982411Y-16112548D01*
X12982411Y-16112548D02*
X13001459Y-16103024D01*
X13001459Y-16103024D02*
X13049078Y-16103024D01*
X13049078Y-16103024D02*
X13068125Y-16112548D01*
X13068125Y-16112548D02*
X13077649Y-16122071D01*
X13077649Y-16122071D02*
X13087173Y-16141119D01*
X13087173Y-16141119D02*
X13087173Y-16160167D01*
X13087173Y-16160167D02*
X13077649Y-16188738D01*
X13077649Y-16188738D02*
X12963363Y-16303024D01*
X12963363Y-16303024D02*
X13087173Y-16303024D01*
X13210982Y-16103024D02*
X13230030Y-16103024D01*
X13230030Y-16103024D02*
X13249078Y-16112548D01*
X13249078Y-16112548D02*
X13258602Y-16122071D01*
X13258602Y-16122071D02*
X13268125Y-16141119D01*
X13268125Y-16141119D02*
X13277649Y-16179214D01*
X13277649Y-16179214D02*
X13277649Y-16226833D01*
X13277649Y-16226833D02*
X13268125Y-16264928D01*
X13268125Y-16264928D02*
X13258602Y-16283976D01*
X13258602Y-16283976D02*
X13249078Y-16293500D01*
X13249078Y-16293500D02*
X13230030Y-16303024D01*
X13230030Y-16303024D02*
X13210982Y-16303024D01*
X13210982Y-16303024D02*
X13191935Y-16293500D01*
X13191935Y-16293500D02*
X13182411Y-16283976D01*
X13182411Y-16283976D02*
X13172887Y-16264928D01*
X13172887Y-16264928D02*
X13163363Y-16226833D01*
X13163363Y-16226833D02*
X13163363Y-16179214D01*
X13163363Y-16179214D02*
X13172887Y-16141119D01*
X13172887Y-16141119D02*
X13182411Y-16122071D01*
X13182411Y-16122071D02*
X13191935Y-16112548D01*
X13191935Y-16112548D02*
X13210982Y-16103024D01*
X13401459Y-16103024D02*
X13420506Y-16103024D01*
X13420506Y-16103024D02*
X13439554Y-16112548D01*
X13439554Y-16112548D02*
X13449078Y-16122071D01*
X13449078Y-16122071D02*
X13458602Y-16141119D01*
X13458602Y-16141119D02*
X13468125Y-16179214D01*
X13468125Y-16179214D02*
X13468125Y-16226833D01*
X13468125Y-16226833D02*
X13458602Y-16264928D01*
X13458602Y-16264928D02*
X13449078Y-16283976D01*
X13449078Y-16283976D02*
X13439554Y-16293500D01*
X13439554Y-16293500D02*
X13420506Y-16303024D01*
X13420506Y-16303024D02*
X13401459Y-16303024D01*
X13401459Y-16303024D02*
X13382411Y-16293500D01*
X13382411Y-16293500D02*
X13372887Y-16283976D01*
X13372887Y-16283976D02*
X13363363Y-16264928D01*
X13363363Y-16264928D02*
X13353840Y-16226833D01*
X13353840Y-16226833D02*
X13353840Y-16179214D01*
X13353840Y-16179214D02*
X13363363Y-16141119D01*
X13363363Y-16141119D02*
X13372887Y-16122071D01*
X13372887Y-16122071D02*
X13382411Y-16112548D01*
X13382411Y-16112548D02*
X13401459Y-16103024D01*
X13553840Y-16303024D02*
X13553840Y-16169690D01*
X13553840Y-16188738D02*
X13563363Y-16179214D01*
X13563363Y-16179214D02*
X13582411Y-16169690D01*
X13582411Y-16169690D02*
X13610983Y-16169690D01*
X13610983Y-16169690D02*
X13630030Y-16179214D01*
X13630030Y-16179214D02*
X13639554Y-16198262D01*
X13639554Y-16198262D02*
X13639554Y-16303024D01*
X13639554Y-16198262D02*
X13649078Y-16179214D01*
X13649078Y-16179214D02*
X13668125Y-16169690D01*
X13668125Y-16169690D02*
X13696697Y-16169690D01*
X13696697Y-16169690D02*
X13715744Y-16179214D01*
X13715744Y-16179214D02*
X13725268Y-16198262D01*
X13725268Y-16198262D02*
X13725268Y-16303024D01*
X13820506Y-16303024D02*
X13820506Y-16169690D01*
X13820506Y-16188738D02*
X13830030Y-16179214D01*
X13830030Y-16179214D02*
X13849078Y-16169690D01*
X13849078Y-16169690D02*
X13877649Y-16169690D01*
X13877649Y-16169690D02*
X13896697Y-16179214D01*
X13896697Y-16179214D02*
X13906221Y-16198262D01*
X13906221Y-16198262D02*
X13906221Y-16303024D01*
X13906221Y-16198262D02*
X13915744Y-16179214D01*
X13915744Y-16179214D02*
X13934792Y-16169690D01*
X13934792Y-16169690D02*
X13963363Y-16169690D01*
X13963363Y-16169690D02*
X13982411Y-16179214D01*
X13982411Y-16179214D02*
X13991935Y-16198262D01*
X13991935Y-16198262D02*
X13991935Y-16303024D01*
X14382411Y-16093500D02*
X14210983Y-16350643D01*
X14639554Y-16103024D02*
X14658602Y-16103024D01*
X14658602Y-16103024D02*
X14677649Y-16112548D01*
X14677649Y-16112548D02*
X14687173Y-16122071D01*
X14687173Y-16122071D02*
X14696697Y-16141119D01*
X14696697Y-16141119D02*
X14706221Y-16179214D01*
X14706221Y-16179214D02*
X14706221Y-16226833D01*
X14706221Y-16226833D02*
X14696697Y-16264928D01*
X14696697Y-16264928D02*
X14687173Y-16283976D01*
X14687173Y-16283976D02*
X14677649Y-16293500D01*
X14677649Y-16293500D02*
X14658602Y-16303024D01*
X14658602Y-16303024D02*
X14639554Y-16303024D01*
X14639554Y-16303024D02*
X14620506Y-16293500D01*
X14620506Y-16293500D02*
X14610983Y-16283976D01*
X14610983Y-16283976D02*
X14601459Y-16264928D01*
X14601459Y-16264928D02*
X14591935Y-16226833D01*
X14591935Y-16226833D02*
X14591935Y-16179214D01*
X14591935Y-16179214D02*
X14601459Y-16141119D01*
X14601459Y-16141119D02*
X14610983Y-16122071D01*
X14610983Y-16122071D02*
X14620506Y-16112548D01*
X14620506Y-16112548D02*
X14639554Y-16103024D01*
X14791935Y-16283976D02*
X14801459Y-16293500D01*
X14801459Y-16293500D02*
X14791935Y-16303024D01*
X14791935Y-16303024D02*
X14782411Y-16293500D01*
X14782411Y-16293500D02*
X14791935Y-16283976D01*
X14791935Y-16283976D02*
X14791935Y-16303024D01*
X14925268Y-16103024D02*
X14944316Y-16103024D01*
X14944316Y-16103024D02*
X14963364Y-16112548D01*
X14963364Y-16112548D02*
X14972887Y-16122071D01*
X14972887Y-16122071D02*
X14982411Y-16141119D01*
X14982411Y-16141119D02*
X14991935Y-16179214D01*
X14991935Y-16179214D02*
X14991935Y-16226833D01*
X14991935Y-16226833D02*
X14982411Y-16264928D01*
X14982411Y-16264928D02*
X14972887Y-16283976D01*
X14972887Y-16283976D02*
X14963364Y-16293500D01*
X14963364Y-16293500D02*
X14944316Y-16303024D01*
X14944316Y-16303024D02*
X14925268Y-16303024D01*
X14925268Y-16303024D02*
X14906221Y-16293500D01*
X14906221Y-16293500D02*
X14896697Y-16283976D01*
X14896697Y-16283976D02*
X14887173Y-16264928D01*
X14887173Y-16264928D02*
X14877649Y-16226833D01*
X14877649Y-16226833D02*
X14877649Y-16179214D01*
X14877649Y-16179214D02*
X14887173Y-16141119D01*
X14887173Y-16141119D02*
X14896697Y-16122071D01*
X14896697Y-16122071D02*
X14906221Y-16112548D01*
X14906221Y-16112548D02*
X14925268Y-16103024D01*
X15163364Y-16169690D02*
X15163364Y-16303024D01*
X15115745Y-16093500D02*
X15068126Y-16236357D01*
X15068126Y-16236357D02*
X15191935Y-16236357D01*
X15249078Y-16103024D02*
X15382411Y-16103024D01*
X15382411Y-16103024D02*
X15296697Y-16303024D01*
X15449078Y-16122071D02*
X15458602Y-16112548D01*
X15458602Y-16112548D02*
X15477649Y-16103024D01*
X15477649Y-16103024D02*
X15525268Y-16103024D01*
X15525268Y-16103024D02*
X15544316Y-16112548D01*
X15544316Y-16112548D02*
X15553840Y-16122071D01*
X15553840Y-16122071D02*
X15563364Y-16141119D01*
X15563364Y-16141119D02*
X15563364Y-16160167D01*
X15563364Y-16160167D02*
X15553840Y-16188738D01*
X15553840Y-16188738D02*
X15439554Y-16303024D01*
X15439554Y-16303024D02*
X15563364Y-16303024D01*
X15639554Y-16103024D02*
X15639554Y-16141119D01*
X15715745Y-16103024D02*
X15715745Y-16141119D01*
X16010983Y-16379214D02*
X16001459Y-16369690D01*
X16001459Y-16369690D02*
X15982411Y-16341119D01*
X15982411Y-16341119D02*
X15972888Y-16322071D01*
X15972888Y-16322071D02*
X15963364Y-16293500D01*
X15963364Y-16293500D02*
X15953840Y-16245881D01*
X15953840Y-16245881D02*
X15953840Y-16207786D01*
X15953840Y-16207786D02*
X15963364Y-16160167D01*
X15963364Y-16160167D02*
X15972888Y-16131595D01*
X15972888Y-16131595D02*
X15982411Y-16112548D01*
X15982411Y-16112548D02*
X16001459Y-16083976D01*
X16001459Y-16083976D02*
X16010983Y-16074452D01*
X16077649Y-16122071D02*
X16087173Y-16112548D01*
X16087173Y-16112548D02*
X16106221Y-16103024D01*
X16106221Y-16103024D02*
X16153840Y-16103024D01*
X16153840Y-16103024D02*
X16172888Y-16112548D01*
X16172888Y-16112548D02*
X16182411Y-16122071D01*
X16182411Y-16122071D02*
X16191935Y-16141119D01*
X16191935Y-16141119D02*
X16191935Y-16160167D01*
X16191935Y-16160167D02*
X16182411Y-16188738D01*
X16182411Y-16188738D02*
X16068126Y-16303024D01*
X16068126Y-16303024D02*
X16191935Y-16303024D01*
X16430030Y-16303024D02*
X16430030Y-16103024D01*
X16515745Y-16303024D02*
X16515745Y-16198262D01*
X16515745Y-16198262D02*
X16506221Y-16179214D01*
X16506221Y-16179214D02*
X16487173Y-16169690D01*
X16487173Y-16169690D02*
X16458602Y-16169690D01*
X16458602Y-16169690D02*
X16439554Y-16179214D01*
X16439554Y-16179214D02*
X16430030Y-16188738D01*
X16639554Y-16303024D02*
X16620507Y-16293500D01*
X16620507Y-16293500D02*
X16610983Y-16283976D01*
X16610983Y-16283976D02*
X16601459Y-16264928D01*
X16601459Y-16264928D02*
X16601459Y-16207786D01*
X16601459Y-16207786D02*
X16610983Y-16188738D01*
X16610983Y-16188738D02*
X16620507Y-16179214D01*
X16620507Y-16179214D02*
X16639554Y-16169690D01*
X16639554Y-16169690D02*
X16668126Y-16169690D01*
X16668126Y-16169690D02*
X16687173Y-16179214D01*
X16687173Y-16179214D02*
X16696697Y-16188738D01*
X16696697Y-16188738D02*
X16706221Y-16207786D01*
X16706221Y-16207786D02*
X16706221Y-16264928D01*
X16706221Y-16264928D02*
X16696697Y-16283976D01*
X16696697Y-16283976D02*
X16687173Y-16293500D01*
X16687173Y-16293500D02*
X16668126Y-16303024D01*
X16668126Y-16303024D02*
X16639554Y-16303024D01*
X16820507Y-16303024D02*
X16801459Y-16293500D01*
X16801459Y-16293500D02*
X16791935Y-16274452D01*
X16791935Y-16274452D02*
X16791935Y-16103024D01*
X16972888Y-16293500D02*
X16953840Y-16303024D01*
X16953840Y-16303024D02*
X16915745Y-16303024D01*
X16915745Y-16303024D02*
X16896697Y-16293500D01*
X16896697Y-16293500D02*
X16887173Y-16274452D01*
X16887173Y-16274452D02*
X16887173Y-16198262D01*
X16887173Y-16198262D02*
X16896697Y-16179214D01*
X16896697Y-16179214D02*
X16915745Y-16169690D01*
X16915745Y-16169690D02*
X16953840Y-16169690D01*
X16953840Y-16169690D02*
X16972888Y-16179214D01*
X16972888Y-16179214D02*
X16982412Y-16198262D01*
X16982412Y-16198262D02*
X16982412Y-16217309D01*
X16982412Y-16217309D02*
X16887173Y-16236357D01*
X17058602Y-16293500D02*
X17077650Y-16303024D01*
X17077650Y-16303024D02*
X17115745Y-16303024D01*
X17115745Y-16303024D02*
X17134793Y-16293500D01*
X17134793Y-16293500D02*
X17144316Y-16274452D01*
X17144316Y-16274452D02*
X17144316Y-16264928D01*
X17144316Y-16264928D02*
X17134793Y-16245881D01*
X17134793Y-16245881D02*
X17115745Y-16236357D01*
X17115745Y-16236357D02*
X17087173Y-16236357D01*
X17087173Y-16236357D02*
X17068126Y-16226833D01*
X17068126Y-16226833D02*
X17058602Y-16207786D01*
X17058602Y-16207786D02*
X17058602Y-16198262D01*
X17058602Y-16198262D02*
X17068126Y-16179214D01*
X17068126Y-16179214D02*
X17087173Y-16169690D01*
X17087173Y-16169690D02*
X17115745Y-16169690D01*
X17115745Y-16169690D02*
X17134793Y-16179214D01*
X17210983Y-16379214D02*
X17220507Y-16369690D01*
X17220507Y-16369690D02*
X17239554Y-16341119D01*
X17239554Y-16341119D02*
X17249078Y-16322071D01*
X17249078Y-16322071D02*
X17258602Y-16293500D01*
X17258602Y-16293500D02*
X17268126Y-16245881D01*
X17268126Y-16245881D02*
X17268126Y-16207786D01*
X17268126Y-16207786D02*
X17258602Y-16160167D01*
X17258602Y-16160167D02*
X17249078Y-16131595D01*
X17249078Y-16131595D02*
X17239554Y-16112548D01*
X17239554Y-16112548D02*
X17220507Y-16083976D01*
X17220507Y-16083976D02*
X17210983Y-16074452D01*
D19*
X12285920Y-16400540D02*
X12435920Y-16550540D01*
X12435920Y-16400540D02*
X12285920Y-16550540D01*
X12360920Y-16550540D02*
X12435920Y-16475540D01*
X12360920Y-16400540D01*
X12285920Y-16475540D01*
X12360920Y-16550540D01*
D11*
X12801459Y-16567024D02*
X12687173Y-16567024D01*
X12744316Y-16567024D02*
X12744316Y-16367024D01*
X12744316Y-16367024D02*
X12725268Y-16395595D01*
X12725268Y-16395595D02*
X12706221Y-16414643D01*
X12706221Y-16414643D02*
X12687173Y-16424167D01*
X12887173Y-16547976D02*
X12896697Y-16557500D01*
X12896697Y-16557500D02*
X12887173Y-16567024D01*
X12887173Y-16567024D02*
X12877649Y-16557500D01*
X12877649Y-16557500D02*
X12887173Y-16547976D01*
X12887173Y-16547976D02*
X12887173Y-16567024D01*
X13077649Y-16367024D02*
X12982411Y-16367024D01*
X12982411Y-16367024D02*
X12972887Y-16462262D01*
X12972887Y-16462262D02*
X12982411Y-16452738D01*
X12982411Y-16452738D02*
X13001459Y-16443214D01*
X13001459Y-16443214D02*
X13049078Y-16443214D01*
X13049078Y-16443214D02*
X13068125Y-16452738D01*
X13068125Y-16452738D02*
X13077649Y-16462262D01*
X13077649Y-16462262D02*
X13087173Y-16481309D01*
X13087173Y-16481309D02*
X13087173Y-16528928D01*
X13087173Y-16528928D02*
X13077649Y-16547976D01*
X13077649Y-16547976D02*
X13068125Y-16557500D01*
X13068125Y-16557500D02*
X13049078Y-16567024D01*
X13049078Y-16567024D02*
X13001459Y-16567024D01*
X13001459Y-16567024D02*
X12982411Y-16557500D01*
X12982411Y-16557500D02*
X12972887Y-16547976D01*
X13210982Y-16367024D02*
X13230030Y-16367024D01*
X13230030Y-16367024D02*
X13249078Y-16376548D01*
X13249078Y-16376548D02*
X13258602Y-16386071D01*
X13258602Y-16386071D02*
X13268125Y-16405119D01*
X13268125Y-16405119D02*
X13277649Y-16443214D01*
X13277649Y-16443214D02*
X13277649Y-16490833D01*
X13277649Y-16490833D02*
X13268125Y-16528928D01*
X13268125Y-16528928D02*
X13258602Y-16547976D01*
X13258602Y-16547976D02*
X13249078Y-16557500D01*
X13249078Y-16557500D02*
X13230030Y-16567024D01*
X13230030Y-16567024D02*
X13210982Y-16567024D01*
X13210982Y-16567024D02*
X13191935Y-16557500D01*
X13191935Y-16557500D02*
X13182411Y-16547976D01*
X13182411Y-16547976D02*
X13172887Y-16528928D01*
X13172887Y-16528928D02*
X13163363Y-16490833D01*
X13163363Y-16490833D02*
X13163363Y-16443214D01*
X13163363Y-16443214D02*
X13172887Y-16405119D01*
X13172887Y-16405119D02*
X13182411Y-16386071D01*
X13182411Y-16386071D02*
X13191935Y-16376548D01*
X13191935Y-16376548D02*
X13210982Y-16367024D01*
X13401459Y-16367024D02*
X13420506Y-16367024D01*
X13420506Y-16367024D02*
X13439554Y-16376548D01*
X13439554Y-16376548D02*
X13449078Y-16386071D01*
X13449078Y-16386071D02*
X13458602Y-16405119D01*
X13458602Y-16405119D02*
X13468125Y-16443214D01*
X13468125Y-16443214D02*
X13468125Y-16490833D01*
X13468125Y-16490833D02*
X13458602Y-16528928D01*
X13458602Y-16528928D02*
X13449078Y-16547976D01*
X13449078Y-16547976D02*
X13439554Y-16557500D01*
X13439554Y-16557500D02*
X13420506Y-16567024D01*
X13420506Y-16567024D02*
X13401459Y-16567024D01*
X13401459Y-16567024D02*
X13382411Y-16557500D01*
X13382411Y-16557500D02*
X13372887Y-16547976D01*
X13372887Y-16547976D02*
X13363363Y-16528928D01*
X13363363Y-16528928D02*
X13353840Y-16490833D01*
X13353840Y-16490833D02*
X13353840Y-16443214D01*
X13353840Y-16443214D02*
X13363363Y-16405119D01*
X13363363Y-16405119D02*
X13372887Y-16386071D01*
X13372887Y-16386071D02*
X13382411Y-16376548D01*
X13382411Y-16376548D02*
X13401459Y-16367024D01*
X13553840Y-16567024D02*
X13553840Y-16433690D01*
X13553840Y-16452738D02*
X13563363Y-16443214D01*
X13563363Y-16443214D02*
X13582411Y-16433690D01*
X13582411Y-16433690D02*
X13610983Y-16433690D01*
X13610983Y-16433690D02*
X13630030Y-16443214D01*
X13630030Y-16443214D02*
X13639554Y-16462262D01*
X13639554Y-16462262D02*
X13639554Y-16567024D01*
X13639554Y-16462262D02*
X13649078Y-16443214D01*
X13649078Y-16443214D02*
X13668125Y-16433690D01*
X13668125Y-16433690D02*
X13696697Y-16433690D01*
X13696697Y-16433690D02*
X13715744Y-16443214D01*
X13715744Y-16443214D02*
X13725268Y-16462262D01*
X13725268Y-16462262D02*
X13725268Y-16567024D01*
X13820506Y-16567024D02*
X13820506Y-16433690D01*
X13820506Y-16452738D02*
X13830030Y-16443214D01*
X13830030Y-16443214D02*
X13849078Y-16433690D01*
X13849078Y-16433690D02*
X13877649Y-16433690D01*
X13877649Y-16433690D02*
X13896697Y-16443214D01*
X13896697Y-16443214D02*
X13906221Y-16462262D01*
X13906221Y-16462262D02*
X13906221Y-16567024D01*
X13906221Y-16462262D02*
X13915744Y-16443214D01*
X13915744Y-16443214D02*
X13934792Y-16433690D01*
X13934792Y-16433690D02*
X13963363Y-16433690D01*
X13963363Y-16433690D02*
X13982411Y-16443214D01*
X13982411Y-16443214D02*
X13991935Y-16462262D01*
X13991935Y-16462262D02*
X13991935Y-16567024D01*
X14382411Y-16357500D02*
X14210983Y-16614643D01*
X14639554Y-16367024D02*
X14658602Y-16367024D01*
X14658602Y-16367024D02*
X14677649Y-16376548D01*
X14677649Y-16376548D02*
X14687173Y-16386071D01*
X14687173Y-16386071D02*
X14696697Y-16405119D01*
X14696697Y-16405119D02*
X14706221Y-16443214D01*
X14706221Y-16443214D02*
X14706221Y-16490833D01*
X14706221Y-16490833D02*
X14696697Y-16528928D01*
X14696697Y-16528928D02*
X14687173Y-16547976D01*
X14687173Y-16547976D02*
X14677649Y-16557500D01*
X14677649Y-16557500D02*
X14658602Y-16567024D01*
X14658602Y-16567024D02*
X14639554Y-16567024D01*
X14639554Y-16567024D02*
X14620506Y-16557500D01*
X14620506Y-16557500D02*
X14610983Y-16547976D01*
X14610983Y-16547976D02*
X14601459Y-16528928D01*
X14601459Y-16528928D02*
X14591935Y-16490833D01*
X14591935Y-16490833D02*
X14591935Y-16443214D01*
X14591935Y-16443214D02*
X14601459Y-16405119D01*
X14601459Y-16405119D02*
X14610983Y-16386071D01*
X14610983Y-16386071D02*
X14620506Y-16376548D01*
X14620506Y-16376548D02*
X14639554Y-16367024D01*
X14791935Y-16547976D02*
X14801459Y-16557500D01*
X14801459Y-16557500D02*
X14791935Y-16567024D01*
X14791935Y-16567024D02*
X14782411Y-16557500D01*
X14782411Y-16557500D02*
X14791935Y-16547976D01*
X14791935Y-16547976D02*
X14791935Y-16567024D01*
X14925268Y-16367024D02*
X14944316Y-16367024D01*
X14944316Y-16367024D02*
X14963364Y-16376548D01*
X14963364Y-16376548D02*
X14972887Y-16386071D01*
X14972887Y-16386071D02*
X14982411Y-16405119D01*
X14982411Y-16405119D02*
X14991935Y-16443214D01*
X14991935Y-16443214D02*
X14991935Y-16490833D01*
X14991935Y-16490833D02*
X14982411Y-16528928D01*
X14982411Y-16528928D02*
X14972887Y-16547976D01*
X14972887Y-16547976D02*
X14963364Y-16557500D01*
X14963364Y-16557500D02*
X14944316Y-16567024D01*
X14944316Y-16567024D02*
X14925268Y-16567024D01*
X14925268Y-16567024D02*
X14906221Y-16557500D01*
X14906221Y-16557500D02*
X14896697Y-16547976D01*
X14896697Y-16547976D02*
X14887173Y-16528928D01*
X14887173Y-16528928D02*
X14877649Y-16490833D01*
X14877649Y-16490833D02*
X14877649Y-16443214D01*
X14877649Y-16443214D02*
X14887173Y-16405119D01*
X14887173Y-16405119D02*
X14896697Y-16386071D01*
X14896697Y-16386071D02*
X14906221Y-16376548D01*
X14906221Y-16376548D02*
X14925268Y-16367024D01*
X15172887Y-16367024D02*
X15077649Y-16367024D01*
X15077649Y-16367024D02*
X15068126Y-16462262D01*
X15068126Y-16462262D02*
X15077649Y-16452738D01*
X15077649Y-16452738D02*
X15096697Y-16443214D01*
X15096697Y-16443214D02*
X15144316Y-16443214D01*
X15144316Y-16443214D02*
X15163364Y-16452738D01*
X15163364Y-16452738D02*
X15172887Y-16462262D01*
X15172887Y-16462262D02*
X15182411Y-16481309D01*
X15182411Y-16481309D02*
X15182411Y-16528928D01*
X15182411Y-16528928D02*
X15172887Y-16547976D01*
X15172887Y-16547976D02*
X15163364Y-16557500D01*
X15163364Y-16557500D02*
X15144316Y-16567024D01*
X15144316Y-16567024D02*
X15096697Y-16567024D01*
X15096697Y-16567024D02*
X15077649Y-16557500D01*
X15077649Y-16557500D02*
X15068126Y-16547976D01*
X15277649Y-16567024D02*
X15315745Y-16567024D01*
X15315745Y-16567024D02*
X15334792Y-16557500D01*
X15334792Y-16557500D02*
X15344316Y-16547976D01*
X15344316Y-16547976D02*
X15363364Y-16519405D01*
X15363364Y-16519405D02*
X15372887Y-16481309D01*
X15372887Y-16481309D02*
X15372887Y-16405119D01*
X15372887Y-16405119D02*
X15363364Y-16386071D01*
X15363364Y-16386071D02*
X15353840Y-16376548D01*
X15353840Y-16376548D02*
X15334792Y-16367024D01*
X15334792Y-16367024D02*
X15296697Y-16367024D01*
X15296697Y-16367024D02*
X15277649Y-16376548D01*
X15277649Y-16376548D02*
X15268126Y-16386071D01*
X15268126Y-16386071D02*
X15258602Y-16405119D01*
X15258602Y-16405119D02*
X15258602Y-16452738D01*
X15258602Y-16452738D02*
X15268126Y-16471786D01*
X15268126Y-16471786D02*
X15277649Y-16481309D01*
X15277649Y-16481309D02*
X15296697Y-16490833D01*
X15296697Y-16490833D02*
X15334792Y-16490833D01*
X15334792Y-16490833D02*
X15353840Y-16481309D01*
X15353840Y-16481309D02*
X15363364Y-16471786D01*
X15363364Y-16471786D02*
X15372887Y-16452738D01*
X15563364Y-16567024D02*
X15449078Y-16567024D01*
X15506221Y-16567024D02*
X15506221Y-16367024D01*
X15506221Y-16367024D02*
X15487173Y-16395595D01*
X15487173Y-16395595D02*
X15468126Y-16414643D01*
X15468126Y-16414643D02*
X15449078Y-16424167D01*
X15639554Y-16367024D02*
X15639554Y-16405119D01*
X15715745Y-16367024D02*
X15715745Y-16405119D01*
X16010983Y-16643214D02*
X16001459Y-16633690D01*
X16001459Y-16633690D02*
X15982411Y-16605119D01*
X15982411Y-16605119D02*
X15972888Y-16586071D01*
X15972888Y-16586071D02*
X15963364Y-16557500D01*
X15963364Y-16557500D02*
X15953840Y-16509881D01*
X15953840Y-16509881D02*
X15953840Y-16471786D01*
X15953840Y-16471786D02*
X15963364Y-16424167D01*
X15963364Y-16424167D02*
X15972888Y-16395595D01*
X15972888Y-16395595D02*
X15982411Y-16376548D01*
X15982411Y-16376548D02*
X16001459Y-16347976D01*
X16001459Y-16347976D02*
X16010983Y-16338452D01*
X16077649Y-16386071D02*
X16087173Y-16376548D01*
X16087173Y-16376548D02*
X16106221Y-16367024D01*
X16106221Y-16367024D02*
X16153840Y-16367024D01*
X16153840Y-16367024D02*
X16172888Y-16376548D01*
X16172888Y-16376548D02*
X16182411Y-16386071D01*
X16182411Y-16386071D02*
X16191935Y-16405119D01*
X16191935Y-16405119D02*
X16191935Y-16424167D01*
X16191935Y-16424167D02*
X16182411Y-16452738D01*
X16182411Y-16452738D02*
X16068126Y-16567024D01*
X16068126Y-16567024D02*
X16191935Y-16567024D01*
X16430030Y-16567024D02*
X16430030Y-16367024D01*
X16515745Y-16567024D02*
X16515745Y-16462262D01*
X16515745Y-16462262D02*
X16506221Y-16443214D01*
X16506221Y-16443214D02*
X16487173Y-16433690D01*
X16487173Y-16433690D02*
X16458602Y-16433690D01*
X16458602Y-16433690D02*
X16439554Y-16443214D01*
X16439554Y-16443214D02*
X16430030Y-16452738D01*
X16639554Y-16567024D02*
X16620507Y-16557500D01*
X16620507Y-16557500D02*
X16610983Y-16547976D01*
X16610983Y-16547976D02*
X16601459Y-16528928D01*
X16601459Y-16528928D02*
X16601459Y-16471786D01*
X16601459Y-16471786D02*
X16610983Y-16452738D01*
X16610983Y-16452738D02*
X16620507Y-16443214D01*
X16620507Y-16443214D02*
X16639554Y-16433690D01*
X16639554Y-16433690D02*
X16668126Y-16433690D01*
X16668126Y-16433690D02*
X16687173Y-16443214D01*
X16687173Y-16443214D02*
X16696697Y-16452738D01*
X16696697Y-16452738D02*
X16706221Y-16471786D01*
X16706221Y-16471786D02*
X16706221Y-16528928D01*
X16706221Y-16528928D02*
X16696697Y-16547976D01*
X16696697Y-16547976D02*
X16687173Y-16557500D01*
X16687173Y-16557500D02*
X16668126Y-16567024D01*
X16668126Y-16567024D02*
X16639554Y-16567024D01*
X16820507Y-16567024D02*
X16801459Y-16557500D01*
X16801459Y-16557500D02*
X16791935Y-16538452D01*
X16791935Y-16538452D02*
X16791935Y-16367024D01*
X16972888Y-16557500D02*
X16953840Y-16567024D01*
X16953840Y-16567024D02*
X16915745Y-16567024D01*
X16915745Y-16567024D02*
X16896697Y-16557500D01*
X16896697Y-16557500D02*
X16887173Y-16538452D01*
X16887173Y-16538452D02*
X16887173Y-16462262D01*
X16887173Y-16462262D02*
X16896697Y-16443214D01*
X16896697Y-16443214D02*
X16915745Y-16433690D01*
X16915745Y-16433690D02*
X16953840Y-16433690D01*
X16953840Y-16433690D02*
X16972888Y-16443214D01*
X16972888Y-16443214D02*
X16982412Y-16462262D01*
X16982412Y-16462262D02*
X16982412Y-16481309D01*
X16982412Y-16481309D02*
X16887173Y-16500357D01*
X17058602Y-16557500D02*
X17077650Y-16567024D01*
X17077650Y-16567024D02*
X17115745Y-16567024D01*
X17115745Y-16567024D02*
X17134793Y-16557500D01*
X17134793Y-16557500D02*
X17144316Y-16538452D01*
X17144316Y-16538452D02*
X17144316Y-16528928D01*
X17144316Y-16528928D02*
X17134793Y-16509881D01*
X17134793Y-16509881D02*
X17115745Y-16500357D01*
X17115745Y-16500357D02*
X17087173Y-16500357D01*
X17087173Y-16500357D02*
X17068126Y-16490833D01*
X17068126Y-16490833D02*
X17058602Y-16471786D01*
X17058602Y-16471786D02*
X17058602Y-16462262D01*
X17058602Y-16462262D02*
X17068126Y-16443214D01*
X17068126Y-16443214D02*
X17087173Y-16433690D01*
X17087173Y-16433690D02*
X17115745Y-16433690D01*
X17115745Y-16433690D02*
X17134793Y-16443214D01*
X17210983Y-16643214D02*
X17220507Y-16633690D01*
X17220507Y-16633690D02*
X17239554Y-16605119D01*
X17239554Y-16605119D02*
X17249078Y-16586071D01*
X17249078Y-16586071D02*
X17258602Y-16557500D01*
X17258602Y-16557500D02*
X17268126Y-16509881D01*
X17268126Y-16509881D02*
X17268126Y-16471786D01*
X17268126Y-16471786D02*
X17258602Y-16424167D01*
X17258602Y-16424167D02*
X17249078Y-16395595D01*
X17249078Y-16395595D02*
X17239554Y-16376548D01*
X17239554Y-16376548D02*
X17220507Y-16347976D01*
X17220507Y-16347976D02*
X17210983Y-16338452D01*
X12335920Y-16645540D02*
X12335920Y-16845540D01*
X12235920Y-16745540D02*
X12435920Y-16745540D01*
X12435920Y-16745540D02*
G75*
G03*
X12435920Y-16745540I-100000J0D01*
G01*
X12677649Y-16637024D02*
X12801459Y-16637024D01*
X12801459Y-16637024D02*
X12734792Y-16713214D01*
X12734792Y-16713214D02*
X12763363Y-16713214D01*
X12763363Y-16713214D02*
X12782411Y-16722738D01*
X12782411Y-16722738D02*
X12791935Y-16732262D01*
X12791935Y-16732262D02*
X12801459Y-16751309D01*
X12801459Y-16751309D02*
X12801459Y-16798929D01*
X12801459Y-16798929D02*
X12791935Y-16817976D01*
X12791935Y-16817976D02*
X12782411Y-16827500D01*
X12782411Y-16827500D02*
X12763363Y-16837024D01*
X12763363Y-16837024D02*
X12706221Y-16837024D01*
X12706221Y-16837024D02*
X12687173Y-16827500D01*
X12687173Y-16827500D02*
X12677649Y-16817976D01*
X12887173Y-16817976D02*
X12896697Y-16827500D01*
X12896697Y-16827500D02*
X12887173Y-16837024D01*
X12887173Y-16837024D02*
X12877649Y-16827500D01*
X12877649Y-16827500D02*
X12887173Y-16817976D01*
X12887173Y-16817976D02*
X12887173Y-16837024D01*
X12972887Y-16656071D02*
X12982411Y-16646548D01*
X12982411Y-16646548D02*
X13001459Y-16637024D01*
X13001459Y-16637024D02*
X13049078Y-16637024D01*
X13049078Y-16637024D02*
X13068125Y-16646548D01*
X13068125Y-16646548D02*
X13077649Y-16656071D01*
X13077649Y-16656071D02*
X13087173Y-16675119D01*
X13087173Y-16675119D02*
X13087173Y-16694167D01*
X13087173Y-16694167D02*
X13077649Y-16722738D01*
X13077649Y-16722738D02*
X12963363Y-16837024D01*
X12963363Y-16837024D02*
X13087173Y-16837024D01*
X13210982Y-16637024D02*
X13230030Y-16637024D01*
X13230030Y-16637024D02*
X13249078Y-16646548D01*
X13249078Y-16646548D02*
X13258602Y-16656071D01*
X13258602Y-16656071D02*
X13268125Y-16675119D01*
X13268125Y-16675119D02*
X13277649Y-16713214D01*
X13277649Y-16713214D02*
X13277649Y-16760833D01*
X13277649Y-16760833D02*
X13268125Y-16798929D01*
X13268125Y-16798929D02*
X13258602Y-16817976D01*
X13258602Y-16817976D02*
X13249078Y-16827500D01*
X13249078Y-16827500D02*
X13230030Y-16837024D01*
X13230030Y-16837024D02*
X13210982Y-16837024D01*
X13210982Y-16837024D02*
X13191935Y-16827500D01*
X13191935Y-16827500D02*
X13182411Y-16817976D01*
X13182411Y-16817976D02*
X13172887Y-16798929D01*
X13172887Y-16798929D02*
X13163363Y-16760833D01*
X13163363Y-16760833D02*
X13163363Y-16713214D01*
X13163363Y-16713214D02*
X13172887Y-16675119D01*
X13172887Y-16675119D02*
X13182411Y-16656071D01*
X13182411Y-16656071D02*
X13191935Y-16646548D01*
X13191935Y-16646548D02*
X13210982Y-16637024D01*
X13401459Y-16637024D02*
X13420506Y-16637024D01*
X13420506Y-16637024D02*
X13439554Y-16646548D01*
X13439554Y-16646548D02*
X13449078Y-16656071D01*
X13449078Y-16656071D02*
X13458602Y-16675119D01*
X13458602Y-16675119D02*
X13468125Y-16713214D01*
X13468125Y-16713214D02*
X13468125Y-16760833D01*
X13468125Y-16760833D02*
X13458602Y-16798929D01*
X13458602Y-16798929D02*
X13449078Y-16817976D01*
X13449078Y-16817976D02*
X13439554Y-16827500D01*
X13439554Y-16827500D02*
X13420506Y-16837024D01*
X13420506Y-16837024D02*
X13401459Y-16837024D01*
X13401459Y-16837024D02*
X13382411Y-16827500D01*
X13382411Y-16827500D02*
X13372887Y-16817976D01*
X13372887Y-16817976D02*
X13363363Y-16798929D01*
X13363363Y-16798929D02*
X13353840Y-16760833D01*
X13353840Y-16760833D02*
X13353840Y-16713214D01*
X13353840Y-16713214D02*
X13363363Y-16675119D01*
X13363363Y-16675119D02*
X13372887Y-16656071D01*
X13372887Y-16656071D02*
X13382411Y-16646548D01*
X13382411Y-16646548D02*
X13401459Y-16637024D01*
X13553840Y-16837024D02*
X13553840Y-16703690D01*
X13553840Y-16722738D02*
X13563363Y-16713214D01*
X13563363Y-16713214D02*
X13582411Y-16703690D01*
X13582411Y-16703690D02*
X13610983Y-16703690D01*
X13610983Y-16703690D02*
X13630030Y-16713214D01*
X13630030Y-16713214D02*
X13639554Y-16732262D01*
X13639554Y-16732262D02*
X13639554Y-16837024D01*
X13639554Y-16732262D02*
X13649078Y-16713214D01*
X13649078Y-16713214D02*
X13668125Y-16703690D01*
X13668125Y-16703690D02*
X13696697Y-16703690D01*
X13696697Y-16703690D02*
X13715744Y-16713214D01*
X13715744Y-16713214D02*
X13725268Y-16732262D01*
X13725268Y-16732262D02*
X13725268Y-16837024D01*
X13820506Y-16837024D02*
X13820506Y-16703690D01*
X13820506Y-16722738D02*
X13830030Y-16713214D01*
X13830030Y-16713214D02*
X13849078Y-16703690D01*
X13849078Y-16703690D02*
X13877649Y-16703690D01*
X13877649Y-16703690D02*
X13896697Y-16713214D01*
X13896697Y-16713214D02*
X13906221Y-16732262D01*
X13906221Y-16732262D02*
X13906221Y-16837024D01*
X13906221Y-16732262D02*
X13915744Y-16713214D01*
X13915744Y-16713214D02*
X13934792Y-16703690D01*
X13934792Y-16703690D02*
X13963363Y-16703690D01*
X13963363Y-16703690D02*
X13982411Y-16713214D01*
X13982411Y-16713214D02*
X13991935Y-16732262D01*
X13991935Y-16732262D02*
X13991935Y-16837024D01*
X14382411Y-16627500D02*
X14210983Y-16884643D01*
X14639554Y-16637024D02*
X14658602Y-16637024D01*
X14658602Y-16637024D02*
X14677649Y-16646548D01*
X14677649Y-16646548D02*
X14687173Y-16656071D01*
X14687173Y-16656071D02*
X14696697Y-16675119D01*
X14696697Y-16675119D02*
X14706221Y-16713214D01*
X14706221Y-16713214D02*
X14706221Y-16760833D01*
X14706221Y-16760833D02*
X14696697Y-16798929D01*
X14696697Y-16798929D02*
X14687173Y-16817976D01*
X14687173Y-16817976D02*
X14677649Y-16827500D01*
X14677649Y-16827500D02*
X14658602Y-16837024D01*
X14658602Y-16837024D02*
X14639554Y-16837024D01*
X14639554Y-16837024D02*
X14620506Y-16827500D01*
X14620506Y-16827500D02*
X14610983Y-16817976D01*
X14610983Y-16817976D02*
X14601459Y-16798929D01*
X14601459Y-16798929D02*
X14591935Y-16760833D01*
X14591935Y-16760833D02*
X14591935Y-16713214D01*
X14591935Y-16713214D02*
X14601459Y-16675119D01*
X14601459Y-16675119D02*
X14610983Y-16656071D01*
X14610983Y-16656071D02*
X14620506Y-16646548D01*
X14620506Y-16646548D02*
X14639554Y-16637024D01*
X14791935Y-16817976D02*
X14801459Y-16827500D01*
X14801459Y-16827500D02*
X14791935Y-16837024D01*
X14791935Y-16837024D02*
X14782411Y-16827500D01*
X14782411Y-16827500D02*
X14791935Y-16817976D01*
X14791935Y-16817976D02*
X14791935Y-16837024D01*
X14991935Y-16837024D02*
X14877649Y-16837024D01*
X14934792Y-16837024D02*
X14934792Y-16637024D01*
X14934792Y-16637024D02*
X14915745Y-16665595D01*
X14915745Y-16665595D02*
X14896697Y-16684643D01*
X14896697Y-16684643D02*
X14877649Y-16694167D01*
X15068126Y-16656071D02*
X15077649Y-16646548D01*
X15077649Y-16646548D02*
X15096697Y-16637024D01*
X15096697Y-16637024D02*
X15144316Y-16637024D01*
X15144316Y-16637024D02*
X15163364Y-16646548D01*
X15163364Y-16646548D02*
X15172887Y-16656071D01*
X15172887Y-16656071D02*
X15182411Y-16675119D01*
X15182411Y-16675119D02*
X15182411Y-16694167D01*
X15182411Y-16694167D02*
X15172887Y-16722738D01*
X15172887Y-16722738D02*
X15058602Y-16837024D01*
X15058602Y-16837024D02*
X15182411Y-16837024D01*
X15353840Y-16637024D02*
X15315745Y-16637024D01*
X15315745Y-16637024D02*
X15296697Y-16646548D01*
X15296697Y-16646548D02*
X15287173Y-16656071D01*
X15287173Y-16656071D02*
X15268126Y-16684643D01*
X15268126Y-16684643D02*
X15258602Y-16722738D01*
X15258602Y-16722738D02*
X15258602Y-16798929D01*
X15258602Y-16798929D02*
X15268126Y-16817976D01*
X15268126Y-16817976D02*
X15277649Y-16827500D01*
X15277649Y-16827500D02*
X15296697Y-16837024D01*
X15296697Y-16837024D02*
X15334792Y-16837024D01*
X15334792Y-16837024D02*
X15353840Y-16827500D01*
X15353840Y-16827500D02*
X15363364Y-16817976D01*
X15363364Y-16817976D02*
X15372887Y-16798929D01*
X15372887Y-16798929D02*
X15372887Y-16751309D01*
X15372887Y-16751309D02*
X15363364Y-16732262D01*
X15363364Y-16732262D02*
X15353840Y-16722738D01*
X15353840Y-16722738D02*
X15334792Y-16713214D01*
X15334792Y-16713214D02*
X15296697Y-16713214D01*
X15296697Y-16713214D02*
X15277649Y-16722738D01*
X15277649Y-16722738D02*
X15268126Y-16732262D01*
X15268126Y-16732262D02*
X15258602Y-16751309D01*
X15496697Y-16637024D02*
X15515745Y-16637024D01*
X15515745Y-16637024D02*
X15534792Y-16646548D01*
X15534792Y-16646548D02*
X15544316Y-16656071D01*
X15544316Y-16656071D02*
X15553840Y-16675119D01*
X15553840Y-16675119D02*
X15563364Y-16713214D01*
X15563364Y-16713214D02*
X15563364Y-16760833D01*
X15563364Y-16760833D02*
X15553840Y-16798929D01*
X15553840Y-16798929D02*
X15544316Y-16817976D01*
X15544316Y-16817976D02*
X15534792Y-16827500D01*
X15534792Y-16827500D02*
X15515745Y-16837024D01*
X15515745Y-16837024D02*
X15496697Y-16837024D01*
X15496697Y-16837024D02*
X15477649Y-16827500D01*
X15477649Y-16827500D02*
X15468126Y-16817976D01*
X15468126Y-16817976D02*
X15458602Y-16798929D01*
X15458602Y-16798929D02*
X15449078Y-16760833D01*
X15449078Y-16760833D02*
X15449078Y-16713214D01*
X15449078Y-16713214D02*
X15458602Y-16675119D01*
X15458602Y-16675119D02*
X15468126Y-16656071D01*
X15468126Y-16656071D02*
X15477649Y-16646548D01*
X15477649Y-16646548D02*
X15496697Y-16637024D01*
X15639554Y-16637024D02*
X15639554Y-16675119D01*
X15715745Y-16637024D02*
X15715745Y-16675119D01*
X16010983Y-16913214D02*
X16001459Y-16903690D01*
X16001459Y-16903690D02*
X15982411Y-16875119D01*
X15982411Y-16875119D02*
X15972888Y-16856071D01*
X15972888Y-16856071D02*
X15963364Y-16827500D01*
X15963364Y-16827500D02*
X15953840Y-16779881D01*
X15953840Y-16779881D02*
X15953840Y-16741786D01*
X15953840Y-16741786D02*
X15963364Y-16694167D01*
X15963364Y-16694167D02*
X15972888Y-16665595D01*
X15972888Y-16665595D02*
X15982411Y-16646548D01*
X15982411Y-16646548D02*
X16001459Y-16617976D01*
X16001459Y-16617976D02*
X16010983Y-16608452D01*
X16172888Y-16703690D02*
X16172888Y-16837024D01*
X16125268Y-16627500D02*
X16077649Y-16770357D01*
X16077649Y-16770357D02*
X16201459Y-16770357D01*
X16430030Y-16837024D02*
X16430030Y-16637024D01*
X16515745Y-16837024D02*
X16515745Y-16732262D01*
X16515745Y-16732262D02*
X16506221Y-16713214D01*
X16506221Y-16713214D02*
X16487173Y-16703690D01*
X16487173Y-16703690D02*
X16458602Y-16703690D01*
X16458602Y-16703690D02*
X16439554Y-16713214D01*
X16439554Y-16713214D02*
X16430030Y-16722738D01*
X16639554Y-16837024D02*
X16620507Y-16827500D01*
X16620507Y-16827500D02*
X16610983Y-16817976D01*
X16610983Y-16817976D02*
X16601459Y-16798929D01*
X16601459Y-16798929D02*
X16601459Y-16741786D01*
X16601459Y-16741786D02*
X16610983Y-16722738D01*
X16610983Y-16722738D02*
X16620507Y-16713214D01*
X16620507Y-16713214D02*
X16639554Y-16703690D01*
X16639554Y-16703690D02*
X16668126Y-16703690D01*
X16668126Y-16703690D02*
X16687173Y-16713214D01*
X16687173Y-16713214D02*
X16696697Y-16722738D01*
X16696697Y-16722738D02*
X16706221Y-16741786D01*
X16706221Y-16741786D02*
X16706221Y-16798929D01*
X16706221Y-16798929D02*
X16696697Y-16817976D01*
X16696697Y-16817976D02*
X16687173Y-16827500D01*
X16687173Y-16827500D02*
X16668126Y-16837024D01*
X16668126Y-16837024D02*
X16639554Y-16837024D01*
X16820507Y-16837024D02*
X16801459Y-16827500D01*
X16801459Y-16827500D02*
X16791935Y-16808452D01*
X16791935Y-16808452D02*
X16791935Y-16637024D01*
X16972888Y-16827500D02*
X16953840Y-16837024D01*
X16953840Y-16837024D02*
X16915745Y-16837024D01*
X16915745Y-16837024D02*
X16896697Y-16827500D01*
X16896697Y-16827500D02*
X16887173Y-16808452D01*
X16887173Y-16808452D02*
X16887173Y-16732262D01*
X16887173Y-16732262D02*
X16896697Y-16713214D01*
X16896697Y-16713214D02*
X16915745Y-16703690D01*
X16915745Y-16703690D02*
X16953840Y-16703690D01*
X16953840Y-16703690D02*
X16972888Y-16713214D01*
X16972888Y-16713214D02*
X16982412Y-16732262D01*
X16982412Y-16732262D02*
X16982412Y-16751309D01*
X16982412Y-16751309D02*
X16887173Y-16770357D01*
X17058602Y-16827500D02*
X17077650Y-16837024D01*
X17077650Y-16837024D02*
X17115745Y-16837024D01*
X17115745Y-16837024D02*
X17134793Y-16827500D01*
X17134793Y-16827500D02*
X17144316Y-16808452D01*
X17144316Y-16808452D02*
X17144316Y-16798929D01*
X17144316Y-16798929D02*
X17134793Y-16779881D01*
X17134793Y-16779881D02*
X17115745Y-16770357D01*
X17115745Y-16770357D02*
X17087173Y-16770357D01*
X17087173Y-16770357D02*
X17068126Y-16760833D01*
X17068126Y-16760833D02*
X17058602Y-16741786D01*
X17058602Y-16741786D02*
X17058602Y-16732262D01*
X17058602Y-16732262D02*
X17068126Y-16713214D01*
X17068126Y-16713214D02*
X17087173Y-16703690D01*
X17087173Y-16703690D02*
X17115745Y-16703690D01*
X17115745Y-16703690D02*
X17134793Y-16713214D01*
X17210983Y-16913214D02*
X17220507Y-16903690D01*
X17220507Y-16903690D02*
X17239554Y-16875119D01*
X17239554Y-16875119D02*
X17249078Y-16856071D01*
X17249078Y-16856071D02*
X17258602Y-16827500D01*
X17258602Y-16827500D02*
X17268126Y-16779881D01*
X17268126Y-16779881D02*
X17268126Y-16741786D01*
X17268126Y-16741786D02*
X17258602Y-16694167D01*
X17258602Y-16694167D02*
X17249078Y-16665595D01*
X17249078Y-16665595D02*
X17239554Y-16646548D01*
X17239554Y-16646548D02*
X17220507Y-16617976D01*
X17220507Y-16617976D02*
X17210983Y-16608452D01*
M02*
