G04 #@! TF.GenerationSoftware,KiCad,Pcbnew,7.0.8*
G04 #@! TF.CreationDate,2023-10-27T20:47:02+03:00*
G04 #@! TF.ProjectId,door-lock-pcb,646f6f72-2d6c-46f6-936b-2d7063622e6b,rev?*
G04 #@! TF.SameCoordinates,Original*
G04 #@! TF.FileFunction,Copper,L2,Bot*
G04 #@! TF.FilePolarity,Positive*
%FSLAX46Y46*%
G04 Gerber Fmt 4.6, Leading zero omitted, Abs format (unit mm)*
G04 Created by KiCad (PCBNEW 7.0.8) date 2023-10-27 20:47:02*
%MOMM*%
%LPD*%
G01*
G04 APERTURE LIST*
G04 Aperture macros list*
%AMRoundRect*
0 Rectangle with rounded corners*
0 $1 Rounding radius*
0 $2 $3 $4 $5 $6 $7 $8 $9 X,Y pos of 4 corners*
0 Add a 4 corners polygon primitive as box body*
4,1,4,$2,$3,$4,$5,$6,$7,$8,$9,$2,$3,0*
0 Add four circle primitives for the rounded corners*
1,1,$1+$1,$2,$3*
1,1,$1+$1,$4,$5*
1,1,$1+$1,$6,$7*
1,1,$1+$1,$8,$9*
0 Add four rect primitives between the rounded corners*
20,1,$1+$1,$2,$3,$4,$5,0*
20,1,$1+$1,$4,$5,$6,$7,0*
20,1,$1+$1,$6,$7,$8,$9,0*
20,1,$1+$1,$8,$9,$2,$3,0*%
G04 Aperture macros list end*
G04 #@! TA.AperFunction,ComponentPad*
%ADD10R,2.000000X2.000000*%
G04 #@! TD*
G04 #@! TA.AperFunction,ComponentPad*
%ADD11C,2.000000*%
G04 #@! TD*
G04 #@! TA.AperFunction,ComponentPad*
%ADD12C,1.800000*%
G04 #@! TD*
G04 #@! TA.AperFunction,ComponentPad*
%ADD13C,0.800000*%
G04 #@! TD*
G04 #@! TA.AperFunction,ComponentPad*
%ADD14C,6.400000*%
G04 #@! TD*
G04 #@! TA.AperFunction,ComponentPad*
%ADD15RoundRect,0.250000X0.725000X-0.600000X0.725000X0.600000X-0.725000X0.600000X-0.725000X-0.600000X0*%
G04 #@! TD*
G04 #@! TA.AperFunction,ComponentPad*
%ADD16O,1.950000X1.700000*%
G04 #@! TD*
G04 #@! TA.AperFunction,ComponentPad*
%ADD17C,1.200000*%
G04 #@! TD*
G04 #@! TA.AperFunction,ComponentPad*
%ADD18RoundRect,0.250000X0.600000X0.750000X-0.600000X0.750000X-0.600000X-0.750000X0.600000X-0.750000X0*%
G04 #@! TD*
G04 #@! TA.AperFunction,ComponentPad*
%ADD19O,1.700000X2.000000*%
G04 #@! TD*
G04 #@! TA.AperFunction,ComponentPad*
%ADD20O,1.000000X2.400000*%
G04 #@! TD*
G04 #@! TA.AperFunction,ComponentPad*
%ADD21C,1.000000*%
G04 #@! TD*
G04 #@! TA.AperFunction,ComponentPad*
%ADD22C,1.500000*%
G04 #@! TD*
G04 #@! TA.AperFunction,SMDPad,CuDef*
%ADD23RoundRect,0.250000X0.350000X0.450000X-0.350000X0.450000X-0.350000X-0.450000X0.350000X-0.450000X0*%
G04 #@! TD*
G04 #@! TA.AperFunction,SMDPad,CuDef*
%ADD24RoundRect,0.250000X-0.350000X-0.450000X0.350000X-0.450000X0.350000X0.450000X-0.350000X0.450000X0*%
G04 #@! TD*
G04 #@! TA.AperFunction,SMDPad,CuDef*
%ADD25RoundRect,0.250000X-0.070711X0.565685X-0.565685X0.070711X0.070711X-0.565685X0.565685X-0.070711X0*%
G04 #@! TD*
G04 #@! TA.AperFunction,ViaPad*
%ADD26C,0.650000*%
G04 #@! TD*
G04 #@! TA.AperFunction,Conductor*
%ADD27C,0.250000*%
G04 #@! TD*
G04 #@! TA.AperFunction,Conductor*
%ADD28C,0.700000*%
G04 #@! TD*
G04 APERTURE END LIST*
D10*
X165481000Y-101621000D03*
D11*
X165481000Y-99081000D03*
X165481000Y-96541000D03*
X165481000Y-94001000D03*
X165481000Y-91461000D03*
X165481000Y-88921000D03*
X165481000Y-86381000D03*
X165481000Y-83841000D03*
X165481000Y-81301000D03*
X165481000Y-78761000D03*
X165481000Y-76221000D03*
X165481000Y-73681000D03*
X165481000Y-71141000D03*
X165481000Y-68601000D03*
X165481000Y-66061000D03*
X140081000Y-66061000D03*
X140081000Y-68601000D03*
X140081000Y-71141000D03*
X140081000Y-73681000D03*
X140081000Y-76221000D03*
X140081000Y-78761000D03*
X140081000Y-81301000D03*
X140081000Y-83841000D03*
X140081000Y-86381000D03*
X140081000Y-88921000D03*
X140081000Y-91461000D03*
X140081000Y-94001000D03*
X140081000Y-96541000D03*
X140081000Y-99081000D03*
X140081000Y-101621000D03*
D12*
X193929000Y-122672000D03*
X193929000Y-115072000D03*
D13*
X127694056Y-131525944D03*
X128397000Y-129828888D03*
X128397000Y-133223000D03*
X130094056Y-129125944D03*
D14*
X130094056Y-131525944D03*
D13*
X130094056Y-133925944D03*
X131791112Y-129828888D03*
X131791112Y-133223000D03*
X132494056Y-131525944D03*
D15*
X127889000Y-91567000D03*
D16*
X127889000Y-89067000D03*
X127889000Y-86567000D03*
X127889000Y-84067000D03*
X127889000Y-81567000D03*
X127889000Y-79067000D03*
X127889000Y-76567000D03*
X127889000Y-74067000D03*
D17*
X199263000Y-108328000D03*
X199263000Y-100328000D03*
D13*
X193514944Y-131525944D03*
X194217888Y-129828888D03*
X194217888Y-133223000D03*
X195914944Y-129125944D03*
D14*
X195914944Y-131525944D03*
D13*
X195914944Y-133925944D03*
X197612000Y-129828888D03*
X197612000Y-133223000D03*
X198314944Y-131525944D03*
D18*
X166751000Y-133985000D03*
D19*
X164251000Y-133985000D03*
D13*
X127694056Y-65705056D03*
X128397000Y-64008000D03*
X128397000Y-67402112D03*
X130094056Y-63305056D03*
D14*
X130094056Y-65705056D03*
D13*
X130094056Y-68105056D03*
X131791112Y-64008000D03*
X131791112Y-67402112D03*
X132494056Y-65705056D03*
D20*
X157861000Y-132080000D03*
X135255000Y-132080000D03*
D13*
X193514944Y-65705056D03*
X194217888Y-64008000D03*
X194217888Y-67402112D03*
X195914944Y-63305056D03*
D14*
X195914944Y-65705056D03*
D13*
X195914944Y-68105056D03*
X197612000Y-64008000D03*
X197612000Y-67402112D03*
X198314944Y-65705056D03*
D18*
X180721000Y-133985000D03*
D19*
X178221000Y-133985000D03*
D21*
X183576000Y-88435000D03*
X181676000Y-88435000D03*
D15*
X127883500Y-105163000D03*
D16*
X127883500Y-102663000D03*
X127883500Y-100163000D03*
X127883500Y-97663000D03*
D22*
X177583000Y-68453000D03*
X185083000Y-68453000D03*
D23*
X176514000Y-80899000D03*
X174514000Y-80899000D03*
D24*
X192310000Y-103759000D03*
X194310000Y-103759000D03*
X192310000Y-107823000D03*
X194310000Y-107823000D03*
D25*
X174443107Y-77397893D03*
X173028893Y-78812107D03*
D24*
X192310000Y-105791000D03*
X194310000Y-105791000D03*
X192310000Y-101727000D03*
X194310000Y-101727000D03*
D26*
X166370000Y-119634000D03*
X168148000Y-117864876D03*
X166370000Y-117856000D03*
X168148000Y-119634000D03*
X163322000Y-119634000D03*
X165100000Y-117864876D03*
X163322000Y-117856000D03*
X165100000Y-119634000D03*
X158242000Y-119634000D03*
X160020000Y-117864876D03*
X158242000Y-117856000D03*
X160020000Y-119634000D03*
X185293000Y-120015000D03*
X187325000Y-118110000D03*
X179197000Y-116713000D03*
X180213000Y-120015000D03*
X183388000Y-95885000D03*
X155194000Y-119634000D03*
X155194000Y-117856000D03*
X156972000Y-117864876D03*
X156972000Y-119634000D03*
X142628999Y-124160000D03*
X186055000Y-114808000D03*
X138176000Y-118364000D03*
X186055000Y-128524000D03*
X136525000Y-118999000D03*
X198120000Y-112268000D03*
X190754000Y-111252000D03*
X199263000Y-96774000D03*
X188468000Y-70358000D03*
X184785000Y-128524000D03*
X126746000Y-122301000D03*
X176784000Y-85344000D03*
X183642000Y-128524000D03*
X190627000Y-96647000D03*
X186563000Y-106680000D03*
X176784000Y-88392000D03*
X190119000Y-101854000D03*
X190246000Y-105791000D03*
X190246000Y-103632000D03*
X146812000Y-96266000D03*
X190119000Y-107823000D03*
X135763000Y-74422000D03*
X169799000Y-93853000D03*
X172212000Y-80264000D03*
X193929000Y-99822000D03*
X168402000Y-82677000D03*
X176784000Y-82296000D03*
X175387000Y-82804000D03*
X131953000Y-123698000D03*
X136144000Y-124333000D03*
X136138500Y-105497000D03*
X136138500Y-103465000D03*
X190119000Y-125095000D03*
D27*
X185166000Y-120142000D02*
X185293000Y-120015000D01*
X185166000Y-120142000D02*
X190119000Y-125095000D01*
X192183000Y-101854000D02*
X192310000Y-101727000D01*
X190119000Y-101854000D02*
X192183000Y-101854000D01*
X190246000Y-105791000D02*
X192310000Y-105791000D01*
X146812000Y-96266000D02*
X146537000Y-96541000D01*
X190246000Y-103632000D02*
X192183000Y-103632000D01*
X146537000Y-96541000D02*
X140081000Y-96541000D01*
X192183000Y-103632000D02*
X192310000Y-103759000D01*
X190119000Y-107823000D02*
X192310000Y-107823000D01*
X135763000Y-74422000D02*
X137922000Y-76581000D01*
X137922000Y-76581000D02*
X137922000Y-81682000D01*
X137922000Y-81682000D02*
X140081000Y-83841000D01*
D28*
X194310000Y-101727000D02*
X194310000Y-100203000D01*
X135636000Y-99822000D02*
X140716000Y-104902000D01*
X127889000Y-74067000D02*
X131471000Y-74067000D01*
X140716000Y-104902000D02*
X162200000Y-104902000D01*
X194310000Y-107823000D02*
X194310000Y-101727000D01*
D27*
X172901893Y-78939107D02*
X172901893Y-79032893D01*
X172901893Y-79032893D02*
X173680500Y-79811500D01*
D28*
X169799000Y-93853000D02*
X169799000Y-100711000D01*
X168889000Y-101621000D02*
X165481000Y-101621000D01*
X169799000Y-100711000D02*
X168889000Y-101621000D01*
X162200000Y-104902000D02*
X165481000Y-101621000D01*
D27*
X172212000Y-80264000D02*
X172212000Y-79629000D01*
D28*
X135636000Y-78232000D02*
X135636000Y-99822000D01*
D27*
X172212000Y-79629000D02*
X172901893Y-78939107D01*
D28*
X131471000Y-74067000D02*
X135636000Y-78232000D01*
D27*
X173680500Y-79811500D02*
X174514000Y-80645000D01*
D28*
X194310000Y-100203000D02*
X193929000Y-99822000D01*
D27*
X127508000Y-72263000D02*
X130556000Y-72263000D01*
X142875000Y-70993000D02*
X144653000Y-72771000D01*
X147377000Y-72096911D02*
X147677000Y-72396911D01*
X126365000Y-85471000D02*
X126365000Y-73406000D01*
X158771000Y-72771000D02*
X165481000Y-66061000D01*
X147677000Y-72471000D02*
X147977000Y-72771000D01*
X147077000Y-72396911D02*
X147377000Y-72096911D01*
X127889000Y-86567000D02*
X127461000Y-86567000D01*
X146477000Y-73071000D02*
X146477000Y-73145102D01*
X127461000Y-86567000D02*
X126365000Y-85471000D01*
X147077000Y-73145102D02*
X147077000Y-72396911D01*
X146477000Y-73145102D02*
X146777000Y-73445102D01*
X147977000Y-72771000D02*
X158771000Y-72771000D01*
X138176000Y-64643000D02*
X140843000Y-64643000D01*
X140843000Y-64643000D02*
X142875000Y-66675000D01*
X147677000Y-72396911D02*
X147677000Y-72471000D01*
X144653000Y-72771000D02*
X146177000Y-72771000D01*
X146177000Y-72771000D02*
X146477000Y-73071000D01*
X142875000Y-66675000D02*
X142875000Y-70993000D01*
X130556000Y-72263000D02*
X138176000Y-64643000D01*
X126365000Y-73406000D02*
X127508000Y-72263000D01*
X146777000Y-73445102D02*
X147077000Y-73145102D01*
X168275000Y-82550000D02*
X168275000Y-80264000D01*
X168402000Y-82677000D02*
X168275000Y-82550000D01*
X166772000Y-78761000D02*
X165481000Y-78761000D01*
X168275000Y-80264000D02*
X166772000Y-78761000D01*
X176276000Y-80137000D02*
X176276000Y-77597000D01*
X176784000Y-80645000D02*
X176276000Y-80137000D01*
X167280000Y-68601000D02*
X165481000Y-68601000D01*
X176784000Y-82296000D02*
X176784000Y-80645000D01*
X176276000Y-77597000D02*
X167280000Y-68601000D01*
X171658000Y-75662477D02*
X171358000Y-75362477D01*
X168658000Y-75921000D02*
X168358000Y-76221000D01*
X168658000Y-75662477D02*
X168658000Y-75921000D01*
X170158000Y-75362491D02*
X169858000Y-75662491D01*
X168958000Y-75362477D02*
X168658000Y-75662477D01*
X170458000Y-75662491D02*
X170158000Y-75362491D01*
X168358000Y-76221000D02*
X165481000Y-76221000D01*
X169858000Y-76779509D02*
X169558000Y-77079509D01*
X169558000Y-77079509D02*
X169258000Y-76779509D01*
X173376000Y-76221000D02*
X171958000Y-76221000D01*
X171058000Y-75662477D02*
X171058000Y-76779509D01*
X171958000Y-76221000D02*
X171658000Y-75921000D01*
X171058000Y-76779509D02*
X170758000Y-77079509D01*
X170758000Y-77079509D02*
X170458000Y-76779509D01*
X169258000Y-76779509D02*
X169258000Y-75662477D01*
X169858000Y-75662491D02*
X169858000Y-76779509D01*
X169258000Y-75662477D02*
X168958000Y-75362477D01*
X170458000Y-76779509D02*
X170458000Y-75662491D01*
X175387000Y-82804000D02*
X175387000Y-78232000D01*
X171658000Y-75921000D02*
X171658000Y-75662477D01*
X171358000Y-75362477D02*
X171058000Y-75662477D01*
X175387000Y-78232000D02*
X173376000Y-76221000D01*
X136144000Y-124333000D02*
X132588000Y-124333000D01*
X132588000Y-124333000D02*
X131953000Y-123698000D01*
X163068000Y-93091000D02*
X163978000Y-94001000D01*
X171831000Y-102870000D02*
X171831000Y-93091000D01*
X136138500Y-105497000D02*
X138083500Y-107442000D01*
X163068000Y-91186000D02*
X163068000Y-93091000D01*
X168926000Y-90186000D02*
X164068000Y-90186000D01*
X167259000Y-107442000D02*
X171831000Y-102870000D01*
X164068000Y-90186000D02*
X163068000Y-91186000D01*
X163978000Y-94001000D02*
X165481000Y-94001000D01*
X171831000Y-93091000D02*
X168926000Y-90186000D01*
X138083500Y-107442000D02*
X167259000Y-107442000D01*
X171069000Y-93345000D02*
X171069000Y-101981000D01*
X138972500Y-106299000D02*
X136138500Y-103465000D01*
X165481000Y-91461000D02*
X169185000Y-91461000D01*
X171069000Y-101981000D02*
X166751000Y-106299000D01*
X169185000Y-91461000D02*
X171069000Y-93345000D01*
X166751000Y-106299000D02*
X138972500Y-106299000D01*
G04 #@! TA.AperFunction,Conductor*
G36*
X140487977Y-60340385D02*
G01*
X140533732Y-60393189D01*
X140543676Y-60462347D01*
X140514651Y-60525903D01*
X140508619Y-60532381D01*
X139573000Y-61467999D01*
X139573000Y-63993500D01*
X139553315Y-64060539D01*
X139500511Y-64106294D01*
X139449000Y-64117500D01*
X138184984Y-64117500D01*
X138121755Y-64115340D01*
X138121754Y-64115340D01*
X138121751Y-64115340D01*
X138080846Y-64125308D01*
X138074608Y-64126493D01*
X138032890Y-64132228D01*
X138017610Y-64138865D01*
X137997576Y-64145602D01*
X137981406Y-64149542D01*
X137944702Y-64170178D01*
X137939016Y-64173002D01*
X137900394Y-64189778D01*
X137900393Y-64189779D01*
X137887467Y-64200294D01*
X137870002Y-64212180D01*
X137855491Y-64220340D01*
X137825716Y-64250114D01*
X137821002Y-64254368D01*
X137788336Y-64280944D01*
X137788335Y-64280944D01*
X137778728Y-64294554D01*
X137765109Y-64310720D01*
X130374650Y-71701181D01*
X130313327Y-71734666D01*
X130286969Y-71737500D01*
X127516984Y-71737500D01*
X127453755Y-71735340D01*
X127453754Y-71735340D01*
X127453752Y-71735340D01*
X127412848Y-71745308D01*
X127406610Y-71746493D01*
X127364887Y-71752229D01*
X127349611Y-71758864D01*
X127329585Y-71765599D01*
X127313407Y-71769542D01*
X127313404Y-71769544D01*
X127276710Y-71790175D01*
X127271023Y-71792999D01*
X127232395Y-71809778D01*
X127232391Y-71809780D01*
X127219471Y-71820292D01*
X127201991Y-71832188D01*
X127187490Y-71840341D01*
X127187485Y-71840344D01*
X127157715Y-71870113D01*
X127153002Y-71874367D01*
X127120335Y-71900945D01*
X127110728Y-71914554D01*
X127097109Y-71930720D01*
X125999771Y-73028059D01*
X125953531Y-73071243D01*
X125931653Y-73107221D01*
X125928080Y-73112470D01*
X125902638Y-73146020D01*
X125902633Y-73146029D01*
X125896525Y-73161517D01*
X125887125Y-73180442D01*
X125878477Y-73194664D01*
X125878474Y-73194670D01*
X125867114Y-73235211D01*
X125865091Y-73241228D01*
X125849641Y-73280409D01*
X125849640Y-73280411D01*
X125847937Y-73296976D01*
X125843991Y-73317739D01*
X125839500Y-73333767D01*
X125839500Y-73375879D01*
X125839175Y-73382223D01*
X125834869Y-73424107D01*
X125834869Y-73424111D01*
X125837697Y-73440511D01*
X125839500Y-73461580D01*
X125839500Y-85462016D01*
X125838643Y-85487119D01*
X125837340Y-85525250D01*
X125847308Y-85566153D01*
X125848494Y-85572394D01*
X125854228Y-85614109D01*
X125860864Y-85629387D01*
X125867602Y-85649424D01*
X125871542Y-85665593D01*
X125871543Y-85665594D01*
X125892175Y-85702289D01*
X125895000Y-85707977D01*
X125911782Y-85746611D01*
X125922283Y-85759518D01*
X125934183Y-85777001D01*
X125942342Y-85791512D01*
X125972115Y-85821285D01*
X125976372Y-85826002D01*
X126002946Y-85858665D01*
X126016547Y-85868265D01*
X126032709Y-85881879D01*
X126300522Y-86149691D01*
X126482430Y-86331599D01*
X126515915Y-86392922D01*
X126518624Y-86424843D01*
X126510205Y-86612305D01*
X126509710Y-86623330D01*
X126539925Y-86846387D01*
X126539926Y-86846390D01*
X126609483Y-87060465D01*
X126716146Y-87258678D01*
X126716148Y-87258681D01*
X126856489Y-87434663D01*
X126856491Y-87434664D01*
X126856492Y-87434666D01*
X127026004Y-87582765D01*
X127219236Y-87698215D01*
X127231420Y-87702787D01*
X127287267Y-87744771D01*
X127311551Y-87810285D01*
X127296560Y-87878528D01*
X127247055Y-87927833D01*
X127241651Y-87930600D01*
X127120029Y-87989169D01*
X127120025Y-87989171D01*
X126937927Y-88121473D01*
X126937925Y-88121474D01*
X126782366Y-88284176D01*
X126658363Y-88472033D01*
X126569899Y-88679004D01*
X126569895Y-88679017D01*
X126519810Y-88898457D01*
X126519808Y-88898468D01*
X126509710Y-89123325D01*
X126509710Y-89123330D01*
X126539925Y-89346387D01*
X126539926Y-89346390D01*
X126609483Y-89560465D01*
X126716146Y-89758678D01*
X126716148Y-89758681D01*
X126856489Y-89934663D01*
X126856491Y-89934664D01*
X126856492Y-89934666D01*
X126879669Y-89954915D01*
X127026000Y-90082762D01*
X127026001Y-90082763D01*
X127026004Y-90082765D01*
X127059600Y-90102838D01*
X127107052Y-90154119D01*
X127119247Y-90222916D01*
X127092312Y-90287385D01*
X127034798Y-90327058D01*
X127030595Y-90328360D01*
X126903604Y-90365254D01*
X126903603Y-90365255D01*
X126762137Y-90448917D01*
X126762129Y-90448923D01*
X126645923Y-90565129D01*
X126645917Y-90565137D01*
X126562255Y-90706603D01*
X126562254Y-90706606D01*
X126516402Y-90864426D01*
X126516401Y-90864432D01*
X126513500Y-90901304D01*
X126513500Y-92232696D01*
X126516401Y-92269567D01*
X126516402Y-92269573D01*
X126562254Y-92427393D01*
X126562255Y-92427396D01*
X126645917Y-92568862D01*
X126645923Y-92568870D01*
X126762129Y-92685076D01*
X126762133Y-92685079D01*
X126762135Y-92685081D01*
X126903602Y-92768744D01*
X126945224Y-92780836D01*
X127061426Y-92814597D01*
X127061429Y-92814597D01*
X127061431Y-92814598D01*
X127073722Y-92815565D01*
X127098304Y-92817500D01*
X127098306Y-92817500D01*
X128679696Y-92817500D01*
X128698131Y-92816049D01*
X128716569Y-92814598D01*
X128716571Y-92814597D01*
X128716573Y-92814597D01*
X128758313Y-92802470D01*
X128874398Y-92768744D01*
X129015865Y-92685081D01*
X129132081Y-92568865D01*
X129215744Y-92427398D01*
X129261598Y-92269569D01*
X129264500Y-92232694D01*
X129264500Y-90901306D01*
X129263605Y-90889939D01*
X129261598Y-90864432D01*
X129261597Y-90864426D01*
X129215745Y-90706606D01*
X129215744Y-90706603D01*
X129215744Y-90706602D01*
X129132081Y-90565135D01*
X129132079Y-90565133D01*
X129132076Y-90565129D01*
X129015870Y-90448923D01*
X129015862Y-90448917D01*
X128874396Y-90365255D01*
X128874393Y-90365253D01*
X128746132Y-90327990D01*
X128687246Y-90290384D01*
X128658040Y-90226911D01*
X128667786Y-90157724D01*
X128707840Y-90108598D01*
X128840078Y-90012522D01*
X128995632Y-89849825D01*
X129119635Y-89661968D01*
X129120263Y-89660500D01*
X129208100Y-89454995D01*
X129208099Y-89454995D01*
X129208103Y-89454988D01*
X129258191Y-89235537D01*
X129268290Y-89010670D01*
X129238075Y-88787613D01*
X129168517Y-88573536D01*
X129061852Y-88375319D01*
X128989167Y-88284175D01*
X128921510Y-88199336D01*
X128921508Y-88199334D01*
X128751996Y-88051235D01*
X128558764Y-87935785D01*
X128558763Y-87935784D01*
X128558762Y-87935784D01*
X128546577Y-87931211D01*
X128490730Y-87889225D01*
X128466448Y-87823710D01*
X128481441Y-87755468D01*
X128530948Y-87706165D01*
X128536314Y-87703416D01*
X128657973Y-87644829D01*
X128840078Y-87512522D01*
X128995632Y-87349825D01*
X129119635Y-87161968D01*
X129208103Y-86954988D01*
X129258191Y-86735537D01*
X129268290Y-86510670D01*
X129238075Y-86287613D01*
X129168517Y-86073536D01*
X129061852Y-85875319D01*
X128976071Y-85767753D01*
X128921510Y-85699336D01*
X128921508Y-85699334D01*
X128751996Y-85551235D01*
X128558764Y-85435785D01*
X128558763Y-85435784D01*
X128558762Y-85435784D01*
X128546577Y-85431211D01*
X128490730Y-85389225D01*
X128466448Y-85323710D01*
X128481441Y-85255468D01*
X128530948Y-85206165D01*
X128536314Y-85203416D01*
X128657973Y-85144829D01*
X128840078Y-85012522D01*
X128995632Y-84849825D01*
X129119635Y-84661968D01*
X129208103Y-84454988D01*
X129258191Y-84235537D01*
X129268290Y-84010670D01*
X129238075Y-83787613D01*
X129168517Y-83573536D01*
X129061852Y-83375319D01*
X128960164Y-83247807D01*
X128921510Y-83199336D01*
X128921508Y-83199334D01*
X128751996Y-83051235D01*
X128558764Y-82935785D01*
X128558763Y-82935784D01*
X128558762Y-82935784D01*
X128546577Y-82931211D01*
X128490730Y-82889225D01*
X128466448Y-82823710D01*
X128481441Y-82755468D01*
X128530948Y-82706165D01*
X128536314Y-82703416D01*
X128657973Y-82644829D01*
X128840078Y-82512522D01*
X128995632Y-82349825D01*
X129119635Y-82161968D01*
X129175065Y-82032285D01*
X129208100Y-81954995D01*
X129208099Y-81954995D01*
X129208103Y-81954988D01*
X129258191Y-81735537D01*
X129268290Y-81510670D01*
X129238075Y-81287613D01*
X129168517Y-81073536D01*
X129061852Y-80875319D01*
X128921508Y-80699334D01*
X128751996Y-80551235D01*
X128558764Y-80435785D01*
X128440775Y-80391503D01*
X128348023Y-80356692D01*
X128126550Y-80316500D01*
X128126547Y-80316500D01*
X127707845Y-80316500D01*
X127669399Y-80319960D01*
X127539813Y-80331622D01*
X127539807Y-80331623D01*
X127322839Y-80391503D01*
X127322826Y-80391508D01*
X127120033Y-80489167D01*
X127120027Y-80489170D01*
X127087384Y-80512887D01*
X127021577Y-80536366D01*
X126953523Y-80520540D01*
X126904829Y-80470433D01*
X126890500Y-80412568D01*
X126890500Y-77720337D01*
X126910185Y-77653298D01*
X126962989Y-77607543D01*
X127032147Y-77597599D01*
X127078097Y-77613888D01*
X127144057Y-77653298D01*
X127219228Y-77698211D01*
X127219230Y-77698211D01*
X127219236Y-77698215D01*
X127392764Y-77763341D01*
X127429976Y-77777307D01*
X127651450Y-77817500D01*
X127651453Y-77817500D01*
X128070148Y-77817500D01*
X128070155Y-77817500D01*
X128238188Y-77802377D01*
X128238192Y-77802376D01*
X128455160Y-77742496D01*
X128455162Y-77742495D01*
X128455170Y-77742493D01*
X128657973Y-77644829D01*
X128840078Y-77512522D01*
X128995632Y-77349825D01*
X129119635Y-77161968D01*
X129152898Y-77084147D01*
X129208100Y-76954995D01*
X129208099Y-76954995D01*
X129208103Y-76954988D01*
X129258191Y-76735537D01*
X129268290Y-76510670D01*
X129238075Y-76287613D01*
X129168517Y-76073536D01*
X129061852Y-75875319D01*
X128968800Y-75758636D01*
X128921510Y-75699336D01*
X128921508Y-75699334D01*
X128751996Y-75551235D01*
X128558764Y-75435785D01*
X128558763Y-75435784D01*
X128558762Y-75435784D01*
X128546577Y-75431211D01*
X128490730Y-75389225D01*
X128466448Y-75323710D01*
X128481441Y-75255468D01*
X128530948Y-75206165D01*
X128536314Y-75203416D01*
X128657973Y-75144829D01*
X128840078Y-75012522D01*
X128989911Y-74855808D01*
X129050466Y-74820956D01*
X129079537Y-74817500D01*
X131108770Y-74817500D01*
X131175809Y-74837185D01*
X131196451Y-74853819D01*
X134849181Y-78506548D01*
X134882666Y-78567871D01*
X134885500Y-78594229D01*
X134885500Y-99758294D01*
X134884191Y-99776263D01*
X134880710Y-99800025D01*
X134885264Y-99852064D01*
X134885500Y-99857470D01*
X134885500Y-99865709D01*
X134887592Y-99883613D01*
X134889306Y-99898274D01*
X134896000Y-99974791D01*
X134897461Y-99981867D01*
X134897403Y-99981878D01*
X134899034Y-99989237D01*
X134899092Y-99989224D01*
X134900757Y-99996250D01*
X134927025Y-100068424D01*
X134951185Y-100141331D01*
X134954236Y-100147874D01*
X134954182Y-100147898D01*
X134957470Y-100154688D01*
X134957521Y-100154663D01*
X134960761Y-100161113D01*
X134960762Y-100161114D01*
X134960763Y-100161117D01*
X134987299Y-100201464D01*
X135002965Y-100225283D01*
X135043287Y-100290655D01*
X135047766Y-100296319D01*
X135047719Y-100296356D01*
X135052482Y-100302202D01*
X135052528Y-100302164D01*
X135057173Y-100307700D01*
X135113017Y-100360385D01*
X140140270Y-105387638D01*
X140152051Y-105401270D01*
X140166388Y-105420528D01*
X140166389Y-105420529D01*
X140166390Y-105420530D01*
X140175472Y-105428150D01*
X140206409Y-105454111D01*
X140210397Y-105457766D01*
X140216216Y-105463585D01*
X140216220Y-105463588D01*
X140216223Y-105463591D01*
X140241959Y-105483940D01*
X140300786Y-105533302D01*
X140300787Y-105533302D01*
X140300789Y-105533304D01*
X140306818Y-105537270D01*
X140306785Y-105537319D01*
X140313143Y-105541369D01*
X140313175Y-105541319D01*
X140317457Y-105543960D01*
X140317789Y-105544329D01*
X140320602Y-105546121D01*
X140324994Y-105549594D01*
X140323838Y-105551054D01*
X140364183Y-105595906D01*
X140375407Y-105664868D01*
X140347565Y-105728951D01*
X140289498Y-105767809D01*
X140252363Y-105773500D01*
X139241531Y-105773500D01*
X139174492Y-105753815D01*
X139153850Y-105737181D01*
X136897611Y-103480942D01*
X136864126Y-103419619D01*
X136862072Y-103407144D01*
X136850287Y-103302546D01*
X136850286Y-103302541D01*
X136850286Y-103302539D01*
X136796289Y-103148225D01*
X136709308Y-103009796D01*
X136593704Y-102894192D01*
X136500276Y-102835487D01*
X136455274Y-102807210D01*
X136300955Y-102753212D01*
X136138504Y-102734909D01*
X136138496Y-102734909D01*
X135976044Y-102753212D01*
X135821725Y-102807210D01*
X135683295Y-102894192D01*
X135567692Y-103009795D01*
X135480710Y-103148225D01*
X135426712Y-103302544D01*
X135408409Y-103464996D01*
X135408409Y-103465003D01*
X135426712Y-103627455D01*
X135480710Y-103781774D01*
X135544557Y-103883385D01*
X135567692Y-103920204D01*
X135683296Y-104035808D01*
X135821725Y-104122789D01*
X135976039Y-104176786D01*
X135976043Y-104176786D01*
X135976046Y-104176787D01*
X136080643Y-104188572D01*
X136145057Y-104215638D01*
X136154441Y-104224111D01*
X136554541Y-104624211D01*
X136588026Y-104685534D01*
X136583042Y-104755226D01*
X136541170Y-104811159D01*
X136475706Y-104835576D01*
X136425906Y-104828934D01*
X136300955Y-104785212D01*
X136138504Y-104766909D01*
X136138496Y-104766909D01*
X135976044Y-104785212D01*
X135821725Y-104839210D01*
X135683295Y-104926192D01*
X135567692Y-105041795D01*
X135480710Y-105180225D01*
X135426712Y-105334544D01*
X135408409Y-105496996D01*
X135408409Y-105497003D01*
X135426712Y-105659455D01*
X135480710Y-105813774D01*
X135513254Y-105865567D01*
X135567692Y-105952204D01*
X135683296Y-106067808D01*
X135821725Y-106154789D01*
X135976039Y-106208786D01*
X135976043Y-106208786D01*
X135976046Y-106208787D01*
X136080643Y-106220572D01*
X136145057Y-106247638D01*
X136154441Y-106256111D01*
X137705559Y-107807228D01*
X137748745Y-107853469D01*
X137784722Y-107875346D01*
X137789966Y-107878915D01*
X137823525Y-107904364D01*
X137839012Y-107910471D01*
X137857952Y-107919878D01*
X137872169Y-107928524D01*
X137872172Y-107928526D01*
X137896909Y-107935457D01*
X137912718Y-107939887D01*
X137918735Y-107941910D01*
X137957910Y-107957359D01*
X137974477Y-107959061D01*
X137995241Y-107963008D01*
X138011272Y-107967500D01*
X138053379Y-107967500D01*
X138059720Y-107967824D01*
X138101609Y-107972131D01*
X138118013Y-107969302D01*
X138139079Y-107967500D01*
X167250016Y-107967500D01*
X167313245Y-107969660D01*
X167354169Y-107959686D01*
X167360368Y-107958507D01*
X167402111Y-107952771D01*
X167417386Y-107946135D01*
X167437421Y-107939397D01*
X167453594Y-107935457D01*
X167490316Y-107914808D01*
X167495955Y-107912007D01*
X167534609Y-107895219D01*
X167547528Y-107884707D01*
X167564997Y-107872818D01*
X167579512Y-107864658D01*
X167609298Y-107834870D01*
X167613999Y-107830628D01*
X167623372Y-107823003D01*
X189388909Y-107823003D01*
X189407212Y-107985455D01*
X189461210Y-108139774D01*
X189531804Y-108252123D01*
X189548192Y-108278204D01*
X189663796Y-108393808D01*
X189802225Y-108480789D01*
X189956539Y-108534786D01*
X189956542Y-108534786D01*
X189956544Y-108534787D01*
X190118996Y-108553091D01*
X190119000Y-108553091D01*
X190119004Y-108553091D01*
X190281455Y-108534787D01*
X190281456Y-108534786D01*
X190281461Y-108534786D01*
X190435775Y-108480789D01*
X190574204Y-108393808D01*
X190583193Y-108384819D01*
X190644516Y-108351334D01*
X190670874Y-108348500D01*
X191211436Y-108348500D01*
X191278475Y-108368185D01*
X191324230Y-108420989D01*
X191330512Y-108437905D01*
X191358254Y-108533393D01*
X191358255Y-108533396D01*
X191358256Y-108533398D01*
X191363122Y-108541626D01*
X191441917Y-108674862D01*
X191441923Y-108674870D01*
X191558129Y-108791076D01*
X191558133Y-108791079D01*
X191558135Y-108791081D01*
X191699602Y-108874744D01*
X191728253Y-108883068D01*
X191857426Y-108920597D01*
X191857429Y-108920597D01*
X191857431Y-108920598D01*
X191869722Y-108921565D01*
X191894304Y-108923500D01*
X191894306Y-108923500D01*
X192725696Y-108923500D01*
X192744131Y-108922049D01*
X192762569Y-108920598D01*
X192762571Y-108920597D01*
X192762573Y-108920597D01*
X192804191Y-108908505D01*
X192920398Y-108874744D01*
X193061865Y-108791081D01*
X193178081Y-108674865D01*
X193203268Y-108632276D01*
X193254337Y-108584593D01*
X193323078Y-108572089D01*
X193387668Y-108598734D01*
X193416732Y-108632276D01*
X193441917Y-108674862D01*
X193441923Y-108674870D01*
X193558129Y-108791076D01*
X193558133Y-108791079D01*
X193558135Y-108791081D01*
X193699602Y-108874744D01*
X193728253Y-108883068D01*
X193857426Y-108920597D01*
X193857429Y-108920597D01*
X193857431Y-108920598D01*
X193869722Y-108921565D01*
X193894304Y-108923500D01*
X193894306Y-108923500D01*
X194725696Y-108923500D01*
X194744131Y-108922049D01*
X194762569Y-108920598D01*
X194762571Y-108920597D01*
X194762573Y-108920597D01*
X194804191Y-108908505D01*
X194920398Y-108874744D01*
X195061865Y-108791081D01*
X195178081Y-108674865D01*
X195261744Y-108533398D01*
X195307598Y-108375569D01*
X195309049Y-108357131D01*
X195310500Y-108338696D01*
X195310500Y-108328003D01*
X198257659Y-108328003D01*
X198259099Y-108342630D01*
X198259537Y-108361053D01*
X198258801Y-108375573D01*
X198258631Y-108378936D01*
X198265073Y-108420989D01*
X198269703Y-108451214D01*
X198270119Y-108454524D01*
X198276975Y-108524131D01*
X198282282Y-108541626D01*
X198286189Y-108558831D01*
X198289443Y-108580068D01*
X198289445Y-108580075D01*
X198313670Y-108645483D01*
X198314860Y-108649019D01*
X198334186Y-108712728D01*
X198346478Y-108735724D01*
X198349943Y-108743426D01*
X198354832Y-108756627D01*
X198360114Y-108770887D01*
X198360115Y-108770888D01*
X198360116Y-108770892D01*
X198372701Y-108791082D01*
X198395243Y-108827247D01*
X198397299Y-108830806D01*
X198427090Y-108886538D01*
X198445776Y-108909308D01*
X198450469Y-108915850D01*
X198453428Y-108920598D01*
X198467748Y-108943571D01*
X198511194Y-108989276D01*
X198514172Y-108992647D01*
X198552117Y-109038883D01*
X198577502Y-109059717D01*
X198583093Y-109064914D01*
X198607941Y-109091053D01*
X198656918Y-109125143D01*
X198660810Y-109128086D01*
X198704462Y-109163910D01*
X198736399Y-109180980D01*
X198742585Y-109184767D01*
X198762563Y-109198673D01*
X198774950Y-109207295D01*
X198774952Y-109207296D01*
X198826683Y-109229495D01*
X198831446Y-109231784D01*
X198878273Y-109256814D01*
X198916166Y-109268308D01*
X198922599Y-109270656D01*
X198961942Y-109287540D01*
X199013776Y-109298192D01*
X199019296Y-109299593D01*
X199066868Y-109314024D01*
X199109644Y-109318236D01*
X199116026Y-109319204D01*
X199130700Y-109322219D01*
X199161256Y-109328500D01*
X199161259Y-109328500D01*
X199210800Y-109328500D01*
X199216881Y-109328799D01*
X199226930Y-109329788D01*
X199263000Y-109333341D01*
X199294510Y-109330237D01*
X199308999Y-109328811D01*
X199311941Y-109328591D01*
X199313723Y-109328500D01*
X199313742Y-109328500D01*
X199362663Y-109323525D01*
X199459132Y-109314024D01*
X199459150Y-109314018D01*
X199459391Y-109313971D01*
X199465230Y-109313095D01*
X199465438Y-109313074D01*
X199557992Y-109284034D01*
X199647727Y-109256814D01*
X199647729Y-109256812D01*
X199654463Y-109254023D01*
X199659533Y-109252181D01*
X199659576Y-109252162D01*
X199659588Y-109252159D01*
X199741648Y-109206612D01*
X199821538Y-109163910D01*
X199821544Y-109163904D01*
X199826604Y-109160525D01*
X199826740Y-109160729D01*
X199837215Y-109153608D01*
X199837494Y-109153412D01*
X199837502Y-109153409D01*
X199906304Y-109094343D01*
X199973883Y-109038883D01*
X199974103Y-109038614D01*
X199989198Y-109023180D01*
X199991895Y-109020866D01*
X200045454Y-108951673D01*
X200098910Y-108886538D01*
X200100766Y-108883063D01*
X200112076Y-108865605D01*
X200116448Y-108859958D01*
X200130747Y-108830806D01*
X200153588Y-108784242D01*
X200191811Y-108712732D01*
X200191814Y-108712727D01*
X200194000Y-108705517D01*
X200201330Y-108686912D01*
X200206060Y-108677271D01*
X200226400Y-108598712D01*
X200249024Y-108524132D01*
X200250113Y-108513065D01*
X200253473Y-108494148D01*
X200257063Y-108480285D01*
X200260938Y-108403861D01*
X200261154Y-108400967D01*
X200268341Y-108328000D01*
X200266899Y-108313369D01*
X200266462Y-108294937D01*
X200267369Y-108277064D01*
X200256291Y-108204754D01*
X200255878Y-108201464D01*
X200253342Y-108175715D01*
X200249024Y-108131868D01*
X200243713Y-108114361D01*
X200239809Y-108097167D01*
X200236556Y-108075929D01*
X200212320Y-108010494D01*
X200211135Y-108006969D01*
X200204609Y-107985455D01*
X200191814Y-107943273D01*
X200179518Y-107920270D01*
X200176055Y-107912572D01*
X200165887Y-107885116D01*
X200165886Y-107885113D01*
X200130756Y-107828751D01*
X200128702Y-107825199D01*
X200110088Y-107790374D01*
X200098911Y-107769463D01*
X200098909Y-107769460D01*
X200080225Y-107746694D01*
X200075534Y-107740156D01*
X200058252Y-107712429D01*
X200014802Y-107666720D01*
X200011840Y-107663368D01*
X199973883Y-107617117D01*
X199973881Y-107617115D01*
X199973880Y-107617114D01*
X199948500Y-107596285D01*
X199942894Y-107591073D01*
X199918059Y-107564947D01*
X199869088Y-107530861D01*
X199865184Y-107527909D01*
X199821538Y-107492090D01*
X199821535Y-107492088D01*
X199821531Y-107492085D01*
X199789602Y-107475019D01*
X199783406Y-107471225D01*
X199751051Y-107448706D01*
X199699328Y-107426509D01*
X199694552Y-107424213D01*
X199647727Y-107399186D01*
X199647721Y-107399183D01*
X199609841Y-107387692D01*
X199603388Y-107385337D01*
X199564061Y-107368461D01*
X199564059Y-107368460D01*
X199564058Y-107368460D01*
X199512218Y-107357806D01*
X199506708Y-107356407D01*
X199459139Y-107341977D01*
X199459128Y-107341975D01*
X199416368Y-107337763D01*
X199409962Y-107336792D01*
X199364743Y-107327500D01*
X199364741Y-107327500D01*
X199315200Y-107327500D01*
X199309119Y-107327201D01*
X199263000Y-107322659D01*
X199217001Y-107327189D01*
X199214062Y-107327408D01*
X199212260Y-107327499D01*
X199163336Y-107332474D01*
X199066860Y-107341976D01*
X199066558Y-107342037D01*
X199060767Y-107342904D01*
X199060576Y-107342923D01*
X199060551Y-107342928D01*
X198968007Y-107371965D01*
X198878271Y-107399185D01*
X198871515Y-107401984D01*
X198866460Y-107403820D01*
X198866413Y-107403840D01*
X198784351Y-107449387D01*
X198704461Y-107492090D01*
X198699402Y-107495471D01*
X198699268Y-107495270D01*
X198688566Y-107502542D01*
X198688504Y-107502586D01*
X198619694Y-107561656D01*
X198552118Y-107617114D01*
X198552109Y-107617123D01*
X198551864Y-107617423D01*
X198536821Y-107632801D01*
X198534111Y-107635128D01*
X198534106Y-107635132D01*
X198480545Y-107704326D01*
X198427094Y-107769455D01*
X198427085Y-107769469D01*
X198425224Y-107772951D01*
X198413937Y-107790374D01*
X198409555Y-107796035D01*
X198409554Y-107796037D01*
X198372412Y-107871757D01*
X198334184Y-107943275D01*
X198331998Y-107950483D01*
X198324672Y-107969079D01*
X198319943Y-107978721D01*
X198319939Y-107978731D01*
X198299599Y-108057288D01*
X198276976Y-108131866D01*
X198275885Y-108142938D01*
X198272527Y-108161848D01*
X198268937Y-108175715D01*
X198265060Y-108252123D01*
X198264841Y-108255057D01*
X198257659Y-108327995D01*
X198257659Y-108328003D01*
X195310500Y-108328003D01*
X195310500Y-107307304D01*
X195307598Y-107270432D01*
X195307597Y-107270426D01*
X195261745Y-107112606D01*
X195261744Y-107112603D01*
X195261744Y-107112602D01*
X195178081Y-106971135D01*
X195178079Y-106971133D01*
X195178076Y-106971129D01*
X195101628Y-106894681D01*
X195068143Y-106833358D01*
X195073127Y-106763666D01*
X195101628Y-106719319D01*
X195178076Y-106642870D01*
X195178081Y-106642865D01*
X195261744Y-106501398D01*
X195307598Y-106343569D01*
X195310500Y-106306694D01*
X195310500Y-105275306D01*
X195307598Y-105238431D01*
X195290687Y-105180225D01*
X195261745Y-105080606D01*
X195261744Y-105080603D01*
X195261744Y-105080602D01*
X195178081Y-104939135D01*
X195178079Y-104939133D01*
X195178076Y-104939129D01*
X195101628Y-104862681D01*
X195068143Y-104801358D01*
X195073127Y-104731666D01*
X195101628Y-104687319D01*
X195178076Y-104610870D01*
X195178081Y-104610865D01*
X195261744Y-104469398D01*
X195307598Y-104311569D01*
X195310500Y-104274694D01*
X195310500Y-103243306D01*
X195307598Y-103206431D01*
X195307111Y-103204756D01*
X195265402Y-103061192D01*
X195261744Y-103048602D01*
X195178081Y-102907135D01*
X195178079Y-102907133D01*
X195178076Y-102907129D01*
X195101628Y-102830681D01*
X195068143Y-102769358D01*
X195073127Y-102699666D01*
X195101628Y-102655319D01*
X195178076Y-102578870D01*
X195178081Y-102578865D01*
X195261744Y-102437398D01*
X195301814Y-102299478D01*
X195307597Y-102279573D01*
X195307598Y-102279567D01*
X195310500Y-102242696D01*
X195310500Y-101211304D01*
X195307598Y-101174432D01*
X195307597Y-101174426D01*
X195261745Y-101016606D01*
X195261744Y-101016603D01*
X195261744Y-101016602D01*
X195178081Y-100875135D01*
X195178079Y-100875133D01*
X195178076Y-100875129D01*
X195096819Y-100793872D01*
X195063334Y-100732549D01*
X195060500Y-100706191D01*
X195060500Y-100328003D01*
X198257659Y-100328003D01*
X198259099Y-100342630D01*
X198259537Y-100361053D01*
X198258631Y-100378936D01*
X198264280Y-100415809D01*
X198269703Y-100451214D01*
X198270119Y-100454524D01*
X198276975Y-100524131D01*
X198282282Y-100541626D01*
X198286189Y-100558831D01*
X198289443Y-100580068D01*
X198289445Y-100580075D01*
X198313670Y-100645483D01*
X198314860Y-100649019D01*
X198334186Y-100712728D01*
X198346478Y-100735724D01*
X198349943Y-100743426D01*
X198351082Y-100746500D01*
X198360114Y-100770887D01*
X198360115Y-100770888D01*
X198360116Y-100770892D01*
X198374440Y-100793872D01*
X198395243Y-100827247D01*
X198397299Y-100830806D01*
X198427090Y-100886538D01*
X198445776Y-100909308D01*
X198450469Y-100915850D01*
X198467748Y-100943571D01*
X198511194Y-100989276D01*
X198514172Y-100992647D01*
X198552117Y-101038883D01*
X198577502Y-101059717D01*
X198583093Y-101064914D01*
X198607941Y-101091053D01*
X198656918Y-101125143D01*
X198660810Y-101128086D01*
X198704462Y-101163910D01*
X198736399Y-101180980D01*
X198742585Y-101184767D01*
X198762563Y-101198673D01*
X198774950Y-101207295D01*
X198774952Y-101207296D01*
X198826683Y-101229495D01*
X198831446Y-101231784D01*
X198878273Y-101256814D01*
X198916166Y-101268308D01*
X198922599Y-101270656D01*
X198961942Y-101287540D01*
X199013776Y-101298192D01*
X199019296Y-101299593D01*
X199066868Y-101314024D01*
X199109644Y-101318236D01*
X199116026Y-101319204D01*
X199130700Y-101322219D01*
X199161256Y-101328500D01*
X199161259Y-101328500D01*
X199210800Y-101328500D01*
X199216881Y-101328799D01*
X199226930Y-101329788D01*
X199263000Y-101333341D01*
X199294510Y-101330237D01*
X199308999Y-101328811D01*
X199311941Y-101328591D01*
X199313723Y-101328500D01*
X199313742Y-101328500D01*
X199362663Y-101323525D01*
X199459132Y-101314024D01*
X199459150Y-101314018D01*
X199459391Y-101313971D01*
X199465230Y-101313095D01*
X199465438Y-101313074D01*
X199557992Y-101284034D01*
X199647727Y-101256814D01*
X199647729Y-101256812D01*
X199654463Y-101254023D01*
X199659533Y-101252181D01*
X199659576Y-101252162D01*
X199659588Y-101252159D01*
X199741648Y-101206612D01*
X199821538Y-101163910D01*
X199821544Y-101163904D01*
X199826604Y-101160525D01*
X199826740Y-101160729D01*
X199837215Y-101153608D01*
X199837494Y-101153412D01*
X199837502Y-101153409D01*
X199906304Y-101094343D01*
X199973883Y-101038883D01*
X199974103Y-101038614D01*
X199989198Y-101023180D01*
X199991895Y-101020866D01*
X200045454Y-100951673D01*
X200098910Y-100886538D01*
X200100766Y-100883063D01*
X200112076Y-100865605D01*
X200116448Y-100859958D01*
X200130747Y-100830806D01*
X200153588Y-100784242D01*
X200191811Y-100712732D01*
X200191814Y-100712727D01*
X200194000Y-100705517D01*
X200201330Y-100686912D01*
X200206060Y-100677271D01*
X200226400Y-100598712D01*
X200249024Y-100524132D01*
X200250113Y-100513065D01*
X200253473Y-100494148D01*
X200257063Y-100480285D01*
X200260938Y-100403861D01*
X200261154Y-100400967D01*
X200268341Y-100328000D01*
X200266899Y-100313369D01*
X200266462Y-100294937D01*
X200266563Y-100292950D01*
X200267369Y-100277064D01*
X200256291Y-100204754D01*
X200255878Y-100201464D01*
X200252536Y-100167532D01*
X200249024Y-100131868D01*
X200243713Y-100114361D01*
X200239809Y-100097167D01*
X200236556Y-100075929D01*
X200212320Y-100010494D01*
X200211135Y-100006969D01*
X200207885Y-99996255D01*
X200191814Y-99943273D01*
X200179518Y-99920270D01*
X200176055Y-99912572D01*
X200165887Y-99885116D01*
X200165886Y-99885113D01*
X200130756Y-99828751D01*
X200128702Y-99825199D01*
X200110088Y-99790374D01*
X200098911Y-99769463D01*
X200098909Y-99769460D01*
X200080225Y-99746694D01*
X200075534Y-99740156D01*
X200058252Y-99712429D01*
X200014802Y-99666720D01*
X200011840Y-99663368D01*
X199973883Y-99617117D01*
X199973881Y-99617115D01*
X199973880Y-99617114D01*
X199948500Y-99596285D01*
X199942894Y-99591073D01*
X199918059Y-99564947D01*
X199869088Y-99530861D01*
X199865184Y-99527909D01*
X199821538Y-99492090D01*
X199821535Y-99492088D01*
X199821531Y-99492085D01*
X199789602Y-99475019D01*
X199783406Y-99471225D01*
X199751051Y-99448706D01*
X199699328Y-99426509D01*
X199694552Y-99424213D01*
X199647727Y-99399186D01*
X199647721Y-99399183D01*
X199609841Y-99387692D01*
X199603388Y-99385337D01*
X199564061Y-99368461D01*
X199564059Y-99368460D01*
X199564058Y-99368460D01*
X199512218Y-99357806D01*
X199506708Y-99356407D01*
X199459139Y-99341977D01*
X199459128Y-99341975D01*
X199416368Y-99337763D01*
X199409962Y-99336792D01*
X199364743Y-99327500D01*
X199364741Y-99327500D01*
X199315200Y-99327500D01*
X199309119Y-99327201D01*
X199263000Y-99322659D01*
X199217001Y-99327189D01*
X199214062Y-99327408D01*
X199212260Y-99327499D01*
X199163336Y-99332474D01*
X199066860Y-99341976D01*
X199066558Y-99342037D01*
X199060767Y-99342904D01*
X199060576Y-99342923D01*
X199060551Y-99342928D01*
X198968007Y-99371965D01*
X198878271Y-99399185D01*
X198871515Y-99401984D01*
X198866460Y-99403820D01*
X198866413Y-99403840D01*
X198784351Y-99449387D01*
X198704461Y-99492090D01*
X198699402Y-99495471D01*
X198699268Y-99495270D01*
X198688566Y-99502542D01*
X198688504Y-99502586D01*
X198619694Y-99561656D01*
X198552118Y-99617114D01*
X198552109Y-99617123D01*
X198551864Y-99617423D01*
X198536821Y-99632801D01*
X198534111Y-99635128D01*
X198534106Y-99635132D01*
X198480545Y-99704326D01*
X198427094Y-99769455D01*
X198427085Y-99769469D01*
X198425224Y-99772951D01*
X198413937Y-99790374D01*
X198409555Y-99796035D01*
X198409554Y-99796037D01*
X198372412Y-99871757D01*
X198334184Y-99943275D01*
X198331998Y-99950483D01*
X198324672Y-99969079D01*
X198319943Y-99978721D01*
X198319939Y-99978731D01*
X198299599Y-100057288D01*
X198276976Y-100131866D01*
X198275885Y-100142938D01*
X198272527Y-100161848D01*
X198268937Y-100175715D01*
X198265060Y-100252123D01*
X198264841Y-100255057D01*
X198257659Y-100327995D01*
X198257659Y-100328003D01*
X195060500Y-100328003D01*
X195060500Y-100266705D01*
X195061809Y-100248735D01*
X195065289Y-100224974D01*
X195060736Y-100172939D01*
X195060500Y-100167532D01*
X195060500Y-100159297D01*
X195060500Y-100159291D01*
X195056691Y-100126707D01*
X195049998Y-100050202D01*
X195049996Y-100050197D01*
X195048538Y-100043133D01*
X195048597Y-100043120D01*
X195046967Y-100035764D01*
X195046908Y-100035779D01*
X195045242Y-100028753D01*
X195045241Y-100028745D01*
X195018973Y-99956573D01*
X195004393Y-99912572D01*
X194994815Y-99883666D01*
X194991763Y-99877121D01*
X194991817Y-99877095D01*
X194988533Y-99870312D01*
X194988480Y-99870340D01*
X194985238Y-99863885D01*
X194979239Y-99854764D01*
X194943029Y-99799709D01*
X194902711Y-99734344D01*
X194902710Y-99734343D01*
X194902709Y-99734341D01*
X194898233Y-99728681D01*
X194898280Y-99728643D01*
X194893519Y-99722799D01*
X194893474Y-99722838D01*
X194888834Y-99717309D01*
X194888832Y-99717307D01*
X194888830Y-99717304D01*
X194858061Y-99688275D01*
X194832966Y-99664598D01*
X194428783Y-99260414D01*
X194374475Y-99217473D01*
X194325677Y-99178889D01*
X194325675Y-99178888D01*
X194325674Y-99178887D01*
X194166671Y-99104742D01*
X193994858Y-99069266D01*
X193994856Y-99069266D01*
X193819488Y-99074369D01*
X193819484Y-99074369D01*
X193819483Y-99074370D01*
X193650024Y-99119776D01*
X193495599Y-99203041D01*
X193364541Y-99319673D01*
X193364539Y-99319676D01*
X193263913Y-99463386D01*
X193263908Y-99463395D01*
X193199138Y-99626429D01*
X193173710Y-99800027D01*
X193189000Y-99974795D01*
X193244185Y-100141331D01*
X193244187Y-100141336D01*
X193256386Y-100161113D01*
X193336288Y-100290656D01*
X193446575Y-100400943D01*
X193523181Y-100477548D01*
X193556666Y-100538871D01*
X193559500Y-100565229D01*
X193559500Y-100706191D01*
X193539815Y-100773230D01*
X193523181Y-100793872D01*
X193441923Y-100875129D01*
X193441919Y-100875135D01*
X193416732Y-100917724D01*
X193365662Y-100965407D01*
X193296921Y-100977910D01*
X193232331Y-100951264D01*
X193203268Y-100917724D01*
X193184826Y-100886541D01*
X193178081Y-100875135D01*
X193178078Y-100875132D01*
X193178076Y-100875129D01*
X193061870Y-100758923D01*
X193061862Y-100758917D01*
X192955337Y-100695919D01*
X192920398Y-100675256D01*
X192920397Y-100675255D01*
X192920396Y-100675255D01*
X192920393Y-100675254D01*
X192762573Y-100629402D01*
X192762567Y-100629401D01*
X192725696Y-100626500D01*
X192725694Y-100626500D01*
X191894306Y-100626500D01*
X191894304Y-100626500D01*
X191857432Y-100629401D01*
X191857426Y-100629402D01*
X191699606Y-100675254D01*
X191699603Y-100675255D01*
X191558137Y-100758917D01*
X191558129Y-100758923D01*
X191441923Y-100875129D01*
X191441917Y-100875137D01*
X191358255Y-101016603D01*
X191358254Y-101016606D01*
X191312402Y-101174426D01*
X191312401Y-101174433D01*
X191309504Y-101211250D01*
X191309581Y-101209256D01*
X191287339Y-101275491D01*
X191232819Y-101319187D01*
X191185672Y-101328500D01*
X190670874Y-101328500D01*
X190603835Y-101308815D01*
X190583193Y-101292181D01*
X190574204Y-101283192D01*
X190435774Y-101196210D01*
X190281455Y-101142212D01*
X190119004Y-101123909D01*
X190118996Y-101123909D01*
X189956544Y-101142212D01*
X189802225Y-101196210D01*
X189663795Y-101283192D01*
X189548192Y-101398795D01*
X189461210Y-101537225D01*
X189407212Y-101691544D01*
X189388909Y-101853996D01*
X189388909Y-101854003D01*
X189407212Y-102016455D01*
X189461210Y-102170774D01*
X189536030Y-102289848D01*
X189548192Y-102309204D01*
X189663796Y-102424808D01*
X189802225Y-102511789D01*
X189956539Y-102565786D01*
X189956542Y-102565786D01*
X189956544Y-102565787D01*
X190118996Y-102584091D01*
X190119000Y-102584091D01*
X190119004Y-102584091D01*
X190281455Y-102565787D01*
X190281456Y-102565786D01*
X190281461Y-102565786D01*
X190435775Y-102511789D01*
X190574204Y-102424808D01*
X190583193Y-102415819D01*
X190644516Y-102382334D01*
X190670874Y-102379500D01*
X191253287Y-102379500D01*
X191320326Y-102399185D01*
X191360019Y-102440379D01*
X191441917Y-102578862D01*
X191441923Y-102578870D01*
X191518372Y-102655319D01*
X191551857Y-102716642D01*
X191546873Y-102786334D01*
X191518372Y-102830681D01*
X191441923Y-102907129D01*
X191441917Y-102907137D01*
X191360019Y-103045621D01*
X191308950Y-103093304D01*
X191253287Y-103106500D01*
X190797874Y-103106500D01*
X190730835Y-103086815D01*
X190710193Y-103070181D01*
X190701204Y-103061192D01*
X190562774Y-102974210D01*
X190408455Y-102920212D01*
X190246004Y-102901909D01*
X190245996Y-102901909D01*
X190083544Y-102920212D01*
X189929225Y-102974210D01*
X189790795Y-103061192D01*
X189675192Y-103176795D01*
X189588210Y-103315225D01*
X189534212Y-103469544D01*
X189515909Y-103631996D01*
X189515909Y-103632003D01*
X189534212Y-103794455D01*
X189588210Y-103948774D01*
X189596053Y-103961256D01*
X189675192Y-104087204D01*
X189790796Y-104202808D01*
X189929225Y-104289789D01*
X190083539Y-104343786D01*
X190083542Y-104343786D01*
X190083544Y-104343787D01*
X190245996Y-104362091D01*
X190246000Y-104362091D01*
X190246004Y-104362091D01*
X190408455Y-104343787D01*
X190408456Y-104343786D01*
X190408461Y-104343786D01*
X190562775Y-104289789D01*
X190701204Y-104202808D01*
X190710193Y-104193819D01*
X190771516Y-104160334D01*
X190797874Y-104157500D01*
X191185672Y-104157500D01*
X191252711Y-104177185D01*
X191298466Y-104229989D01*
X191309581Y-104276744D01*
X191309504Y-104274750D01*
X191312401Y-104311566D01*
X191312402Y-104311573D01*
X191358254Y-104469393D01*
X191358255Y-104469396D01*
X191358256Y-104469398D01*
X191374761Y-104497306D01*
X191441917Y-104610862D01*
X191441923Y-104610870D01*
X191518372Y-104687319D01*
X191551857Y-104748642D01*
X191546873Y-104818334D01*
X191518372Y-104862681D01*
X191441923Y-104939129D01*
X191441917Y-104939137D01*
X191358255Y-105080603D01*
X191358254Y-105080606D01*
X191330512Y-105176095D01*
X191292906Y-105234981D01*
X191229433Y-105264187D01*
X191211436Y-105265500D01*
X190797874Y-105265500D01*
X190730835Y-105245815D01*
X190710193Y-105229181D01*
X190701204Y-105220192D01*
X190562774Y-105133210D01*
X190412439Y-105080606D01*
X190408461Y-105079214D01*
X190408460Y-105079213D01*
X190408455Y-105079212D01*
X190246004Y-105060909D01*
X190245996Y-105060909D01*
X190083544Y-105079212D01*
X189929225Y-105133210D01*
X189790795Y-105220192D01*
X189675192Y-105335795D01*
X189588210Y-105474225D01*
X189534212Y-105628544D01*
X189515909Y-105790996D01*
X189515909Y-105791003D01*
X189534212Y-105953455D01*
X189588210Y-106107774D01*
X189588211Y-106107775D01*
X189675192Y-106246204D01*
X189790796Y-106361808D01*
X189929225Y-106448789D01*
X190083539Y-106502786D01*
X190083542Y-106502786D01*
X190083544Y-106502787D01*
X190245996Y-106521091D01*
X190246000Y-106521091D01*
X190246004Y-106521091D01*
X190408455Y-106502787D01*
X190408456Y-106502786D01*
X190408461Y-106502786D01*
X190562775Y-106448789D01*
X190701204Y-106361808D01*
X190710193Y-106352819D01*
X190771516Y-106319334D01*
X190797874Y-106316500D01*
X191211436Y-106316500D01*
X191278475Y-106336185D01*
X191324230Y-106388989D01*
X191330512Y-106405905D01*
X191358254Y-106501393D01*
X191358255Y-106501396D01*
X191358256Y-106501398D01*
X191369902Y-106521091D01*
X191441917Y-106642862D01*
X191441923Y-106642870D01*
X191518372Y-106719319D01*
X191551857Y-106780642D01*
X191546873Y-106850334D01*
X191518372Y-106894681D01*
X191441923Y-106971129D01*
X191441917Y-106971137D01*
X191358255Y-107112603D01*
X191358254Y-107112606D01*
X191330512Y-107208095D01*
X191292906Y-107266981D01*
X191229433Y-107296187D01*
X191211436Y-107297500D01*
X190670874Y-107297500D01*
X190603835Y-107277815D01*
X190583193Y-107261181D01*
X190574204Y-107252192D01*
X190435774Y-107165210D01*
X190285439Y-107112606D01*
X190281461Y-107111214D01*
X190281460Y-107111213D01*
X190281455Y-107111212D01*
X190119004Y-107092909D01*
X190118996Y-107092909D01*
X189956544Y-107111212D01*
X189802225Y-107165210D01*
X189663795Y-107252192D01*
X189548192Y-107367795D01*
X189461210Y-107506225D01*
X189407212Y-107660544D01*
X189388909Y-107822996D01*
X189388909Y-107823003D01*
X167623372Y-107823003D01*
X167646665Y-107804054D01*
X167656264Y-107790453D01*
X167669881Y-107774287D01*
X172196228Y-103247940D01*
X172242469Y-103204755D01*
X172264356Y-103168761D01*
X172267914Y-103163534D01*
X172293364Y-103129975D01*
X172299474Y-103114479D01*
X172308880Y-103095544D01*
X172317526Y-103081328D01*
X172328890Y-103040766D01*
X172330903Y-103034780D01*
X172346359Y-102995590D01*
X172348061Y-102979023D01*
X172352007Y-102958260D01*
X172356500Y-102942228D01*
X172356500Y-102900120D01*
X172356825Y-102893776D01*
X172361131Y-102851891D01*
X172358303Y-102835487D01*
X172356500Y-102814420D01*
X172356500Y-93099983D01*
X172357344Y-93075263D01*
X172358660Y-93036755D01*
X172348690Y-92995843D01*
X172347507Y-92989624D01*
X172341771Y-92947889D01*
X172335138Y-92932620D01*
X172328396Y-92912571D01*
X172324457Y-92896405D01*
X172303819Y-92859700D01*
X172300996Y-92854018D01*
X172284219Y-92815391D01*
X172273706Y-92802469D01*
X172261811Y-92784990D01*
X172253657Y-92770488D01*
X172223887Y-92740718D01*
X172219637Y-92736010D01*
X172193054Y-92703335D01*
X172179450Y-92693732D01*
X172163278Y-92680109D01*
X169303941Y-89820772D01*
X169302680Y-89819422D01*
X169260755Y-89774531D01*
X169224775Y-89752651D01*
X169219529Y-89749081D01*
X169198035Y-89732781D01*
X169185976Y-89723636D01*
X169177406Y-89720256D01*
X169170485Y-89717527D01*
X169151553Y-89708124D01*
X169137329Y-89699474D01*
X169096785Y-89688113D01*
X169090766Y-89686089D01*
X169057025Y-89672784D01*
X169051589Y-89670641D01*
X169051585Y-89670640D01*
X169051583Y-89670640D01*
X169035022Y-89668937D01*
X169014255Y-89664990D01*
X168998231Y-89660500D01*
X168998228Y-89660500D01*
X168956120Y-89660500D01*
X168949778Y-89660175D01*
X168931853Y-89658332D01*
X168907892Y-89655869D01*
X168907888Y-89655869D01*
X168898576Y-89657474D01*
X168891485Y-89658697D01*
X168870420Y-89660500D01*
X166875730Y-89660500D01*
X166808691Y-89640815D01*
X166762936Y-89588011D01*
X166752992Y-89518853D01*
X166762174Y-89486690D01*
X166810157Y-89377300D01*
X166846055Y-89235542D01*
X166867134Y-89152305D01*
X166869535Y-89123330D01*
X166886300Y-88921006D01*
X166886300Y-88920993D01*
X166867135Y-88689702D01*
X166867133Y-88689691D01*
X166810157Y-88464699D01*
X166797130Y-88435000D01*
X180770540Y-88435000D01*
X180790326Y-88623256D01*
X180790327Y-88623259D01*
X180848818Y-88803277D01*
X180848821Y-88803284D01*
X180943467Y-88967216D01*
X180982597Y-89010674D01*
X181070129Y-89107888D01*
X181223265Y-89219148D01*
X181223270Y-89219151D01*
X181396192Y-89296142D01*
X181396197Y-89296144D01*
X181581354Y-89335500D01*
X181581355Y-89335500D01*
X181770644Y-89335500D01*
X181770646Y-89335500D01*
X181955803Y-89296144D01*
X182128730Y-89219151D01*
X182281871Y-89107888D01*
X182408533Y-88967216D01*
X182503179Y-88803284D01*
X182508069Y-88788235D01*
X182547506Y-88730560D01*
X182611865Y-88703361D01*
X182680711Y-88715275D01*
X182732187Y-88762520D01*
X182743931Y-88788235D01*
X182748818Y-88803278D01*
X182748821Y-88803284D01*
X182843467Y-88967216D01*
X182882597Y-89010674D01*
X182970129Y-89107888D01*
X183123265Y-89219148D01*
X183123270Y-89219151D01*
X183296192Y-89296142D01*
X183296197Y-89296144D01*
X183481354Y-89335500D01*
X183481355Y-89335500D01*
X183670644Y-89335500D01*
X183670646Y-89335500D01*
X183855803Y-89296144D01*
X184028730Y-89219151D01*
X184181871Y-89107888D01*
X184308533Y-88967216D01*
X184403179Y-88803284D01*
X184461674Y-88623256D01*
X184481460Y-88435000D01*
X184461674Y-88246744D01*
X184403179Y-88066716D01*
X184308533Y-87902784D01*
X184181871Y-87762112D01*
X184181870Y-87762111D01*
X184028734Y-87650851D01*
X184028729Y-87650848D01*
X183855807Y-87573857D01*
X183855802Y-87573855D01*
X183710001Y-87542865D01*
X183670646Y-87534500D01*
X183481354Y-87534500D01*
X183448897Y-87541398D01*
X183296197Y-87573855D01*
X183296192Y-87573857D01*
X183123270Y-87650848D01*
X183123265Y-87650851D01*
X182970129Y-87762111D01*
X182843466Y-87902785D01*
X182748821Y-88066715D01*
X182748820Y-88066717D01*
X182743931Y-88081766D01*
X182704492Y-88139440D01*
X182640133Y-88166638D01*
X182571287Y-88154723D01*
X182519812Y-88107478D01*
X182508069Y-88081766D01*
X182503179Y-88066717D01*
X182503178Y-88066715D01*
X182498058Y-88057847D01*
X182408533Y-87902784D01*
X182281871Y-87762112D01*
X182281870Y-87762111D01*
X182128734Y-87650851D01*
X182128729Y-87650848D01*
X181955807Y-87573857D01*
X181955802Y-87573855D01*
X181810001Y-87542865D01*
X181770646Y-87534500D01*
X181581354Y-87534500D01*
X181548897Y-87541398D01*
X181396197Y-87573855D01*
X181396192Y-87573857D01*
X181223270Y-87650848D01*
X181223265Y-87650851D01*
X181070129Y-87762111D01*
X180943466Y-87902785D01*
X180848821Y-88066715D01*
X180848818Y-88066722D01*
X180790327Y-88246740D01*
X180790326Y-88246744D01*
X180770540Y-88435000D01*
X166797130Y-88435000D01*
X166716924Y-88252151D01*
X166589983Y-88057852D01*
X166589980Y-88057849D01*
X166589979Y-88057847D01*
X166432784Y-87887087D01*
X166255180Y-87748853D01*
X166214368Y-87692143D01*
X166210693Y-87622370D01*
X166245324Y-87561687D01*
X166255181Y-87553146D01*
X166432784Y-87414913D01*
X166589979Y-87244153D01*
X166716924Y-87049849D01*
X166810157Y-86837300D01*
X166867134Y-86612305D01*
X166867135Y-86612297D01*
X166886300Y-86381006D01*
X166886300Y-86380993D01*
X166867135Y-86149702D01*
X166867133Y-86149691D01*
X166810157Y-85924699D01*
X166716924Y-85712151D01*
X166589983Y-85517852D01*
X166589980Y-85517849D01*
X166589979Y-85517847D01*
X166432784Y-85347087D01*
X166255180Y-85208853D01*
X166214368Y-85152143D01*
X166210693Y-85082370D01*
X166245324Y-85021687D01*
X166255181Y-85013146D01*
X166432784Y-84874913D01*
X166589979Y-84704153D01*
X166716924Y-84509849D01*
X166810157Y-84297300D01*
X166867134Y-84072305D01*
X166886300Y-83841000D01*
X166886300Y-83840993D01*
X166867135Y-83609702D01*
X166867133Y-83609691D01*
X166810157Y-83384699D01*
X166716924Y-83172151D01*
X166589983Y-82977852D01*
X166589980Y-82977849D01*
X166589979Y-82977847D01*
X166432784Y-82807087D01*
X166255180Y-82668853D01*
X166214368Y-82612143D01*
X166210693Y-82542370D01*
X166245324Y-82481687D01*
X166255181Y-82473146D01*
X166432784Y-82334913D01*
X166589979Y-82164153D01*
X166716924Y-81969849D01*
X166810157Y-81757300D01*
X166867134Y-81532305D01*
X166867135Y-81532297D01*
X166886300Y-81301006D01*
X166886300Y-81300993D01*
X166867135Y-81069702D01*
X166867133Y-81069691D01*
X166810157Y-80844699D01*
X166716924Y-80632151D01*
X166589983Y-80437852D01*
X166589980Y-80437849D01*
X166589979Y-80437847D01*
X166432784Y-80267087D01*
X166255180Y-80128853D01*
X166214368Y-80072143D01*
X166210693Y-80002370D01*
X166245324Y-79941687D01*
X166255181Y-79933146D01*
X166432784Y-79794913D01*
X166589979Y-79624153D01*
X166625802Y-79569322D01*
X166678947Y-79523964D01*
X166748179Y-79514540D01*
X166811515Y-79544041D01*
X166817292Y-79549461D01*
X167713181Y-80445350D01*
X167746666Y-80506673D01*
X167749500Y-80533031D01*
X167749500Y-82324040D01*
X167742542Y-82364994D01*
X167690212Y-82514544D01*
X167671909Y-82676996D01*
X167671909Y-82677003D01*
X167690212Y-82839455D01*
X167744210Y-82993774D01*
X167780316Y-83051236D01*
X167831192Y-83132204D01*
X167946796Y-83247808D01*
X168085225Y-83334789D01*
X168239539Y-83388786D01*
X168239542Y-83388786D01*
X168239544Y-83388787D01*
X168401996Y-83407091D01*
X168402000Y-83407091D01*
X168402004Y-83407091D01*
X168564455Y-83388787D01*
X168564456Y-83388786D01*
X168564461Y-83388786D01*
X168718775Y-83334789D01*
X168857204Y-83247808D01*
X168972808Y-83132204D01*
X169059789Y-82993775D01*
X169113786Y-82839461D01*
X169115561Y-82823710D01*
X169132091Y-82677003D01*
X169132091Y-82676996D01*
X169113787Y-82514544D01*
X169113786Y-82514542D01*
X169113786Y-82514539D01*
X169059789Y-82360225D01*
X168972808Y-82221796D01*
X168857204Y-82106192D01*
X168857202Y-82106190D01*
X168851754Y-82101845D01*
X168852792Y-82100542D01*
X168812232Y-82054678D01*
X168800500Y-82002029D01*
X168800500Y-80272983D01*
X168800701Y-80267086D01*
X168802660Y-80209755D01*
X168792691Y-80168848D01*
X168791506Y-80162618D01*
X168785771Y-80120889D01*
X168779137Y-80105616D01*
X168772397Y-80085574D01*
X168768457Y-80069407D01*
X168768455Y-80069403D01*
X168747822Y-80032706D01*
X168744996Y-80027017D01*
X168728219Y-79988391D01*
X168728217Y-79988388D01*
X168717713Y-79975477D01*
X168705812Y-79957990D01*
X168697660Y-79943491D01*
X168697658Y-79943488D01*
X168667882Y-79913712D01*
X168663626Y-79908996D01*
X168659609Y-79904059D01*
X168637054Y-79876335D01*
X168637050Y-79876332D01*
X168637045Y-79876328D01*
X168623453Y-79866733D01*
X168607281Y-79853111D01*
X167149941Y-78395772D01*
X167148680Y-78394422D01*
X167106755Y-78349531D01*
X167070775Y-78327651D01*
X167065529Y-78324081D01*
X167039972Y-78304700D01*
X167031976Y-78298636D01*
X167023406Y-78295256D01*
X167016485Y-78292527D01*
X166997553Y-78283124D01*
X166983329Y-78274474D01*
X166942785Y-78263113D01*
X166936766Y-78261089D01*
X166903025Y-78247784D01*
X166897589Y-78245641D01*
X166897585Y-78245640D01*
X166897583Y-78245640D01*
X166881022Y-78243937D01*
X166860255Y-78239990D01*
X166836062Y-78233212D01*
X166836422Y-78231926D01*
X166780706Y-78206891D01*
X166747780Y-78162495D01*
X166716924Y-78092151D01*
X166589983Y-77897852D01*
X166589980Y-77897849D01*
X166589979Y-77897847D01*
X166432784Y-77727087D01*
X166255180Y-77588853D01*
X166214368Y-77532143D01*
X166210693Y-77462370D01*
X166245324Y-77401687D01*
X166255181Y-77393146D01*
X166432784Y-77254913D01*
X166589979Y-77084153D01*
X166716924Y-76889849D01*
X166747260Y-76820689D01*
X166792216Y-76767204D01*
X166858952Y-76746514D01*
X166860816Y-76746500D01*
X168349016Y-76746500D01*
X168412245Y-76748660D01*
X168453169Y-76738686D01*
X168459368Y-76737507D01*
X168501111Y-76731771D01*
X168516386Y-76725135D01*
X168536421Y-76718397D01*
X168552594Y-76714457D01*
X168552597Y-76714454D01*
X168560485Y-76711345D01*
X168561783Y-76714638D01*
X168613634Y-76702597D01*
X168679434Y-76726096D01*
X168722083Y-76781439D01*
X168730447Y-76830622D01*
X168730339Y-76833757D01*
X168740308Y-76874662D01*
X168741494Y-76880903D01*
X168747228Y-76922618D01*
X168753864Y-76937896D01*
X168760602Y-76957933D01*
X168764542Y-76974102D01*
X168764543Y-76974103D01*
X168785175Y-77010798D01*
X168788000Y-77016486D01*
X168804782Y-77055120D01*
X168815283Y-77068027D01*
X168827183Y-77085510D01*
X168835342Y-77100021D01*
X168865111Y-77129790D01*
X168869367Y-77134506D01*
X168895941Y-77167169D01*
X168895944Y-77167171D01*
X168895946Y-77167174D01*
X168909546Y-77176774D01*
X168925718Y-77190397D01*
X169172220Y-77436899D01*
X169175110Y-77439993D01*
X169194636Y-77462385D01*
X169209393Y-77479309D01*
X169253016Y-77507921D01*
X169256462Y-77510354D01*
X169259326Y-77512526D01*
X169298023Y-77541872D01*
X169298024Y-77541872D01*
X169298025Y-77541873D01*
X169303098Y-77543873D01*
X169325613Y-77555540D01*
X169330175Y-77558532D01*
X169330180Y-77558534D01*
X169330184Y-77558537D01*
X169379932Y-77574325D01*
X169383868Y-77575724D01*
X169432411Y-77594868D01*
X169437838Y-77595425D01*
X169462664Y-77600583D01*
X169467873Y-77602237D01*
X169509318Y-77603652D01*
X169520007Y-77604018D01*
X169524232Y-77604307D01*
X169533277Y-77605236D01*
X169576110Y-77609640D01*
X169577693Y-77609366D01*
X169581482Y-77608714D01*
X169606783Y-77606982D01*
X169612245Y-77607169D01*
X169662938Y-77594814D01*
X169667025Y-77593964D01*
X169718467Y-77585096D01*
X169723395Y-77582752D01*
X169747300Y-77574255D01*
X169752594Y-77572966D01*
X169798075Y-77547393D01*
X169801812Y-77545458D01*
X169805147Y-77543872D01*
X169848921Y-77523054D01*
X169853033Y-77519467D01*
X169873755Y-77504841D01*
X169878512Y-77502167D01*
X169915428Y-77465249D01*
X169918469Y-77462409D01*
X169957800Y-77428116D01*
X169960791Y-77423555D01*
X169976794Y-77403883D01*
X170070319Y-77310358D01*
X170131641Y-77276874D01*
X170201333Y-77281858D01*
X170245680Y-77310359D01*
X170372220Y-77436899D01*
X170375110Y-77439993D01*
X170394636Y-77462385D01*
X170409393Y-77479309D01*
X170453016Y-77507921D01*
X170456462Y-77510354D01*
X170459326Y-77512526D01*
X170498023Y-77541872D01*
X170498024Y-77541872D01*
X170498025Y-77541873D01*
X170503098Y-77543873D01*
X170525613Y-77555540D01*
X170530175Y-77558532D01*
X170530180Y-77558534D01*
X170530184Y-77558537D01*
X170579932Y-77574325D01*
X170583868Y-77575724D01*
X170632411Y-77594868D01*
X170637838Y-77595425D01*
X170662664Y-77600583D01*
X170667873Y-77602237D01*
X170709318Y-77603652D01*
X170720007Y-77604018D01*
X170724232Y-77604307D01*
X170733277Y-77605236D01*
X170776110Y-77609640D01*
X170777693Y-77609366D01*
X170781482Y-77608714D01*
X170806783Y-77606982D01*
X170812245Y-77607169D01*
X170862938Y-77594814D01*
X170867025Y-77593964D01*
X170918467Y-77585096D01*
X170923395Y-77582752D01*
X170947300Y-77574255D01*
X170952594Y-77572966D01*
X170998075Y-77547393D01*
X171001812Y-77545458D01*
X171005147Y-77543872D01*
X171048921Y-77523054D01*
X171053033Y-77519467D01*
X171073755Y-77504841D01*
X171078512Y-77502167D01*
X171115428Y-77465249D01*
X171118469Y-77462409D01*
X171157800Y-77428116D01*
X171160791Y-77423555D01*
X171176794Y-77403883D01*
X171423229Y-77157448D01*
X171469469Y-77114264D01*
X171491353Y-77078275D01*
X171494914Y-77073043D01*
X171520364Y-77039484D01*
X171526473Y-77023991D01*
X171535876Y-77005060D01*
X171544526Y-76990837D01*
X171555888Y-76950279D01*
X171557903Y-76944288D01*
X171573359Y-76905098D01*
X171575061Y-76888531D01*
X171579006Y-76867773D01*
X171583500Y-76851737D01*
X171583500Y-76825326D01*
X171603185Y-76758287D01*
X171655989Y-76712532D01*
X171725147Y-76702588D01*
X171740952Y-76705923D01*
X171746670Y-76707525D01*
X171746672Y-76707526D01*
X171787216Y-76718885D01*
X171793220Y-76720903D01*
X171832411Y-76736359D01*
X171838067Y-76736940D01*
X171848968Y-76738061D01*
X171869746Y-76742009D01*
X171885772Y-76746500D01*
X171927880Y-76746500D01*
X171934221Y-76746824D01*
X171976110Y-76751131D01*
X171992514Y-76748302D01*
X172013580Y-76746500D01*
X173106968Y-76746500D01*
X173174007Y-76766185D01*
X173194649Y-76782819D01*
X173283497Y-76871667D01*
X173316982Y-76932990D01*
X173311998Y-77002682D01*
X173304478Y-77019085D01*
X173267795Y-77085811D01*
X173226922Y-77245001D01*
X173226922Y-77245005D01*
X173226922Y-77409359D01*
X173239228Y-77457287D01*
X173236833Y-77527115D01*
X173197066Y-77584564D01*
X173132553Y-77611394D01*
X173088288Y-77608228D01*
X173040359Y-77595922D01*
X172876005Y-77595922D01*
X172876001Y-77595922D01*
X172716811Y-77636795D01*
X172572791Y-77715970D01*
X172544664Y-77739994D01*
X171956780Y-78327878D01*
X171932756Y-78356005D01*
X171853581Y-78500025D01*
X171812708Y-78659215D01*
X171812708Y-78823576D01*
X171853581Y-78982766D01*
X171901486Y-79069906D01*
X171916533Y-79138137D01*
X171892302Y-79203670D01*
X171880507Y-79217323D01*
X171846771Y-79251059D01*
X171832052Y-79264805D01*
X171800531Y-79294243D01*
X171778653Y-79330221D01*
X171775080Y-79335470D01*
X171749638Y-79369020D01*
X171749633Y-79369029D01*
X171743525Y-79384517D01*
X171734125Y-79403442D01*
X171725477Y-79417664D01*
X171725474Y-79417670D01*
X171714114Y-79458211D01*
X171712091Y-79464228D01*
X171696641Y-79503409D01*
X171696640Y-79503411D01*
X171694937Y-79519976D01*
X171690991Y-79540739D01*
X171686500Y-79556767D01*
X171686500Y-79598879D01*
X171686175Y-79605223D01*
X171681869Y-79647107D01*
X171681869Y-79647111D01*
X171684697Y-79663511D01*
X171686500Y-79684580D01*
X171686500Y-79712126D01*
X171666815Y-79779165D01*
X171650181Y-79799807D01*
X171641192Y-79808795D01*
X171554210Y-79947225D01*
X171500212Y-80101544D01*
X171481909Y-80263996D01*
X171481909Y-80264003D01*
X171500212Y-80426455D01*
X171554210Y-80580774D01*
X171554211Y-80580775D01*
X171641192Y-80719204D01*
X171756796Y-80834808D01*
X171895225Y-80921789D01*
X172049539Y-80975786D01*
X172049542Y-80975786D01*
X172049544Y-80975787D01*
X172211996Y-80994091D01*
X172212000Y-80994091D01*
X172212004Y-80994091D01*
X172374455Y-80975787D01*
X172374456Y-80975786D01*
X172374461Y-80975786D01*
X172528775Y-80921789D01*
X172667204Y-80834808D01*
X172782808Y-80719204D01*
X172869789Y-80580775D01*
X172923786Y-80426461D01*
X172925340Y-80412673D01*
X172942091Y-80264003D01*
X172942091Y-80263997D01*
X172931069Y-80166176D01*
X172943123Y-80097354D01*
X172990472Y-80045974D01*
X173054289Y-80028292D01*
X173102760Y-80028292D01*
X173169799Y-80047977D01*
X173190441Y-80064611D01*
X173257842Y-80132012D01*
X173477181Y-80351350D01*
X173510666Y-80412673D01*
X173513500Y-80439031D01*
X173513500Y-81414696D01*
X173516401Y-81451567D01*
X173516402Y-81451573D01*
X173562254Y-81609393D01*
X173562255Y-81609396D01*
X173645917Y-81750862D01*
X173645923Y-81750870D01*
X173762129Y-81867076D01*
X173762133Y-81867079D01*
X173762135Y-81867081D01*
X173903602Y-81950744D01*
X173927238Y-81957611D01*
X174061426Y-81996597D01*
X174061429Y-81996597D01*
X174061431Y-81996598D01*
X174073722Y-81997565D01*
X174098304Y-81999500D01*
X174098306Y-81999500D01*
X174737500Y-81999500D01*
X174804539Y-82019185D01*
X174850294Y-82071989D01*
X174861500Y-82123500D01*
X174861500Y-82252126D01*
X174841815Y-82319165D01*
X174825181Y-82339807D01*
X174816192Y-82348795D01*
X174729210Y-82487225D01*
X174675212Y-82641544D01*
X174656909Y-82803996D01*
X174656909Y-82804003D01*
X174675212Y-82966455D01*
X174729210Y-83120774D01*
X174736392Y-83132204D01*
X174816192Y-83259204D01*
X174931796Y-83374808D01*
X175070225Y-83461789D01*
X175224539Y-83515786D01*
X175224542Y-83515786D01*
X175224544Y-83515787D01*
X175386996Y-83534091D01*
X175387000Y-83534091D01*
X175387004Y-83534091D01*
X175549455Y-83515787D01*
X175549456Y-83515786D01*
X175549461Y-83515786D01*
X175703775Y-83461789D01*
X175842204Y-83374808D01*
X175957808Y-83259204D01*
X176044789Y-83120775D01*
X176098786Y-82966461D01*
X176103339Y-82926048D01*
X176130404Y-82861638D01*
X176187998Y-82822081D01*
X176257835Y-82819942D01*
X176314240Y-82852252D01*
X176328796Y-82866808D01*
X176467225Y-82953789D01*
X176621539Y-83007786D01*
X176621542Y-83007786D01*
X176621544Y-83007787D01*
X176783996Y-83026091D01*
X176784000Y-83026091D01*
X176784004Y-83026091D01*
X176946455Y-83007787D01*
X176946456Y-83007786D01*
X176946461Y-83007786D01*
X177100775Y-82953789D01*
X177239204Y-82866808D01*
X177354808Y-82751204D01*
X177441789Y-82612775D01*
X177495786Y-82458461D01*
X177495787Y-82458455D01*
X177514091Y-82296003D01*
X177514091Y-82295996D01*
X177495787Y-82133544D01*
X177495786Y-82133542D01*
X177495786Y-82133539D01*
X177441789Y-81979225D01*
X177441492Y-81978753D01*
X177381684Y-81883569D01*
X177362683Y-81816332D01*
X177379945Y-81754475D01*
X177382078Y-81750867D01*
X177382081Y-81750865D01*
X177465744Y-81609398D01*
X177511598Y-81451569D01*
X177514500Y-81414694D01*
X177514500Y-80383306D01*
X177511598Y-80346431D01*
X177488544Y-80267081D01*
X177477836Y-80230224D01*
X177465744Y-80188602D01*
X177382081Y-80047135D01*
X177382079Y-80047133D01*
X177382076Y-80047129D01*
X177265870Y-79930923D01*
X177265862Y-79930917D01*
X177124396Y-79847255D01*
X177124393Y-79847254D01*
X176966573Y-79801402D01*
X176966567Y-79801401D01*
X176929696Y-79798500D01*
X176929694Y-79798500D01*
X176925500Y-79798500D01*
X176858461Y-79778815D01*
X176812706Y-79726011D01*
X176801500Y-79674500D01*
X176801500Y-77605983D01*
X176801881Y-77594818D01*
X176803660Y-77542755D01*
X176793690Y-77501843D01*
X176792507Y-77495624D01*
X176786771Y-77453889D01*
X176780138Y-77438620D01*
X176773396Y-77418571D01*
X176769457Y-77402405D01*
X176748819Y-77365700D01*
X176745996Y-77360018D01*
X176729219Y-77321391D01*
X176718706Y-77308469D01*
X176706811Y-77290990D01*
X176701676Y-77281858D01*
X176698657Y-77276488D01*
X176668887Y-77246718D01*
X176664637Y-77242010D01*
X176638054Y-77209335D01*
X176624450Y-77199732D01*
X176608278Y-77186109D01*
X167875170Y-68453001D01*
X176427571Y-68453001D01*
X176432235Y-68503336D01*
X176432500Y-68509060D01*
X176432500Y-68559612D01*
X176441786Y-68609294D01*
X176442578Y-68614966D01*
X176447243Y-68665307D01*
X176461077Y-68713930D01*
X176462389Y-68719506D01*
X176471679Y-68769198D01*
X176489940Y-68816337D01*
X176491761Y-68821769D01*
X176505594Y-68870387D01*
X176505595Y-68870388D01*
X176505597Y-68870393D01*
X176528129Y-68915645D01*
X176530438Y-68920875D01*
X176548701Y-68968016D01*
X176548702Y-68968019D01*
X176575317Y-69011004D01*
X176578104Y-69016009D01*
X176600632Y-69061253D01*
X176631096Y-69101594D01*
X176634333Y-69106319D01*
X176646829Y-69126500D01*
X176660948Y-69149302D01*
X176695007Y-69186663D01*
X176698664Y-69191067D01*
X176729128Y-69231407D01*
X176766483Y-69265461D01*
X176766485Y-69265463D01*
X176770535Y-69269513D01*
X176804594Y-69306873D01*
X176844933Y-69337336D01*
X176849340Y-69340996D01*
X176886696Y-69375051D01*
X176929678Y-69401665D01*
X176934405Y-69404903D01*
X176974741Y-69435363D01*
X176974745Y-69435366D01*
X177007864Y-69451857D01*
X177019996Y-69457898D01*
X177024990Y-69460678D01*
X177067981Y-69487298D01*
X177115130Y-69505563D01*
X177120347Y-69507866D01*
X177152569Y-69523911D01*
X177165604Y-69530402D01*
X177165608Y-69530403D01*
X177165611Y-69530405D01*
X177165613Y-69530405D01*
X177165622Y-69530409D01*
X177214237Y-69544241D01*
X177219664Y-69546059D01*
X177266802Y-69564321D01*
X177266811Y-69564322D01*
X177266812Y-69564323D01*
X177276883Y-69566205D01*
X177316494Y-69573609D01*
X177322064Y-69574920D01*
X177338895Y-69579708D01*
X177370690Y-69588756D01*
X177421043Y-69593421D01*
X177426695Y-69594210D01*
X177476390Y-69603500D01*
X177476393Y-69603500D01*
X177689607Y-69603500D01*
X177689610Y-69603500D01*
X177739300Y-69594210D01*
X177744958Y-69593421D01*
X177795310Y-69588756D01*
X177843941Y-69574917D01*
X177849498Y-69573610D01*
X177899198Y-69564321D01*
X177946341Y-69546056D01*
X177951755Y-69544241D01*
X178000389Y-69530405D01*
X178045650Y-69507867D01*
X178050851Y-69505569D01*
X178098019Y-69487298D01*
X178141000Y-69460684D01*
X178145988Y-69457904D01*
X178191255Y-69435366D01*
X178231610Y-69404889D01*
X178236308Y-69401672D01*
X178279302Y-69375052D01*
X178316678Y-69340977D01*
X178321047Y-69337349D01*
X178361407Y-69306872D01*
X178395476Y-69269499D01*
X178399499Y-69265476D01*
X178436872Y-69231407D01*
X178467349Y-69191047D01*
X178470977Y-69186678D01*
X178505052Y-69149302D01*
X178531672Y-69106308D01*
X178534889Y-69101610D01*
X178565366Y-69061255D01*
X178587904Y-69015988D01*
X178590686Y-69010997D01*
X178617298Y-68968019D01*
X178635569Y-68920851D01*
X178637867Y-68915650D01*
X178660405Y-68870389D01*
X178674241Y-68821755D01*
X178676056Y-68816341D01*
X178694321Y-68769198D01*
X178703610Y-68719498D01*
X178704919Y-68713937D01*
X178704921Y-68713930D01*
X178718756Y-68665310D01*
X178723421Y-68614958D01*
X178724211Y-68609300D01*
X178724212Y-68609294D01*
X178733500Y-68559610D01*
X178733500Y-68509060D01*
X178733765Y-68503336D01*
X178738429Y-68453001D01*
X183927571Y-68453001D01*
X183932235Y-68503336D01*
X183932500Y-68509060D01*
X183932500Y-68559612D01*
X183941786Y-68609294D01*
X183942578Y-68614966D01*
X183947243Y-68665307D01*
X183961077Y-68713930D01*
X183962389Y-68719506D01*
X183971679Y-68769198D01*
X183989940Y-68816337D01*
X183991761Y-68821769D01*
X184005594Y-68870387D01*
X184005595Y-68870388D01*
X184005597Y-68870393D01*
X184028129Y-68915645D01*
X184030438Y-68920875D01*
X184048701Y-68968016D01*
X184048702Y-68968019D01*
X184075317Y-69011004D01*
X184078104Y-69016009D01*
X184100632Y-69061253D01*
X184131096Y-69101594D01*
X184134333Y-69106319D01*
X184146829Y-69126500D01*
X184160948Y-69149302D01*
X184195007Y-69186663D01*
X184198664Y-69191067D01*
X184229128Y-69231407D01*
X184266483Y-69265461D01*
X184266485Y-69265463D01*
X184270535Y-69269513D01*
X184304594Y-69306873D01*
X184344933Y-69337336D01*
X184349340Y-69340996D01*
X184386696Y-69375051D01*
X184429678Y-69401665D01*
X184434405Y-69404903D01*
X184474741Y-69435363D01*
X184474745Y-69435366D01*
X184507864Y-69451857D01*
X184519996Y-69457898D01*
X184524990Y-69460678D01*
X184567981Y-69487298D01*
X184615130Y-69505563D01*
X184620347Y-69507866D01*
X184652569Y-69523911D01*
X184665604Y-69530402D01*
X184665608Y-69530403D01*
X184665611Y-69530405D01*
X184665613Y-69530405D01*
X184665622Y-69530409D01*
X184714237Y-69544241D01*
X184719664Y-69546059D01*
X184766802Y-69564321D01*
X184766811Y-69564322D01*
X184766812Y-69564323D01*
X184776883Y-69566205D01*
X184816494Y-69573609D01*
X184822064Y-69574920D01*
X184838895Y-69579708D01*
X184870690Y-69588756D01*
X184921043Y-69593421D01*
X184926695Y-69594210D01*
X184976390Y-69603500D01*
X184976393Y-69603500D01*
X185189607Y-69603500D01*
X185189610Y-69603500D01*
X185239300Y-69594210D01*
X185244958Y-69593421D01*
X185295310Y-69588756D01*
X185343941Y-69574917D01*
X185349498Y-69573610D01*
X185399198Y-69564321D01*
X185446341Y-69546056D01*
X185451755Y-69544241D01*
X185500389Y-69530405D01*
X185545650Y-69507867D01*
X185550851Y-69505569D01*
X185598019Y-69487298D01*
X185641000Y-69460684D01*
X185645988Y-69457904D01*
X185691255Y-69435366D01*
X185731610Y-69404889D01*
X185736308Y-69401672D01*
X185779302Y-69375052D01*
X185816678Y-69340977D01*
X185821047Y-69337349D01*
X185861407Y-69306872D01*
X185895476Y-69269499D01*
X185899499Y-69265476D01*
X185936872Y-69231407D01*
X185967349Y-69191047D01*
X185970977Y-69186678D01*
X186005052Y-69149302D01*
X186031672Y-69106308D01*
X186034889Y-69101610D01*
X186065366Y-69061255D01*
X186087904Y-69015988D01*
X186090686Y-69010997D01*
X186117298Y-68968019D01*
X186135569Y-68920851D01*
X186137867Y-68915650D01*
X186160405Y-68870389D01*
X186174241Y-68821755D01*
X186176056Y-68816341D01*
X186194321Y-68769198D01*
X186203610Y-68719498D01*
X186204919Y-68713937D01*
X186204921Y-68713930D01*
X186218756Y-68665310D01*
X186223421Y-68614958D01*
X186224211Y-68609300D01*
X186224212Y-68609294D01*
X186233500Y-68559610D01*
X186233500Y-68509060D01*
X186233765Y-68503336D01*
X186238429Y-68453001D01*
X186238429Y-68452998D01*
X186233765Y-68402661D01*
X186233500Y-68396938D01*
X186233500Y-68346392D01*
X186224211Y-68296700D01*
X186223421Y-68291043D01*
X186218756Y-68240690D01*
X186209708Y-68208895D01*
X186204920Y-68192064D01*
X186203609Y-68186494D01*
X186194321Y-68136802D01*
X186176058Y-68089661D01*
X186174241Y-68084237D01*
X186160409Y-68035622D01*
X186160402Y-68035604D01*
X186153911Y-68022569D01*
X186137866Y-67990347D01*
X186135561Y-67985125D01*
X186135559Y-67985121D01*
X186117298Y-67937981D01*
X186090678Y-67894990D01*
X186087898Y-67889996D01*
X186065372Y-67844758D01*
X186065366Y-67844745D01*
X186065364Y-67844742D01*
X186034903Y-67804405D01*
X186031665Y-67799678D01*
X186005051Y-67756696D01*
X185970996Y-67719340D01*
X185967336Y-67714933D01*
X185936873Y-67674594D01*
X185899513Y-67640535D01*
X185895463Y-67636485D01*
X185861407Y-67599128D01*
X185821067Y-67568664D01*
X185816663Y-67565007D01*
X185779302Y-67530948D01*
X185779301Y-67530947D01*
X185736319Y-67504333D01*
X185731594Y-67501096D01*
X185691253Y-67470632D01*
X185646009Y-67448104D01*
X185641004Y-67445317D01*
X185598019Y-67418702D01*
X185550875Y-67400438D01*
X185545645Y-67398129D01*
X185500393Y-67375597D01*
X185500389Y-67375595D01*
X185451769Y-67361761D01*
X185446337Y-67359940D01*
X185399198Y-67341679D01*
X185349506Y-67332389D01*
X185343930Y-67331077D01*
X185295307Y-67317243D01*
X185244966Y-67312578D01*
X185239294Y-67311786D01*
X185189612Y-67302500D01*
X185189610Y-67302500D01*
X184976390Y-67302500D01*
X184976384Y-67302500D01*
X184926703Y-67311786D01*
X184921032Y-67312577D01*
X184870690Y-67317243D01*
X184822073Y-67331076D01*
X184816498Y-67332388D01*
X184766804Y-67341678D01*
X184766798Y-67341680D01*
X184719661Y-67359940D01*
X184714232Y-67361760D01*
X184665615Y-67375593D01*
X184665606Y-67375597D01*
X184620361Y-67398126D01*
X184615121Y-67400439D01*
X184567978Y-67418703D01*
X184567977Y-67418704D01*
X184524993Y-67445317D01*
X184519990Y-67448103D01*
X184474758Y-67470626D01*
X184474742Y-67470636D01*
X184434398Y-67501100D01*
X184429675Y-67504336D01*
X184386698Y-67530947D01*
X184349341Y-67565001D01*
X184344937Y-67568658D01*
X184304594Y-67599126D01*
X184270535Y-67636486D01*
X184266486Y-67640535D01*
X184229126Y-67674594D01*
X184198658Y-67714937D01*
X184195001Y-67719341D01*
X184160947Y-67756698D01*
X184134336Y-67799675D01*
X184131100Y-67804398D01*
X184100636Y-67844742D01*
X184100626Y-67844758D01*
X184078103Y-67889990D01*
X184075317Y-67894993D01*
X184048704Y-67937977D01*
X184048703Y-67937978D01*
X184030439Y-67985121D01*
X184028126Y-67990361D01*
X184005597Y-68035606D01*
X184005593Y-68035615D01*
X183991760Y-68084232D01*
X183989940Y-68089661D01*
X183971680Y-68136798D01*
X183971678Y-68136804D01*
X183962388Y-68186498D01*
X183961076Y-68192073D01*
X183947243Y-68240690D01*
X183942577Y-68291032D01*
X183941786Y-68296703D01*
X183932500Y-68346384D01*
X183932500Y-68396938D01*
X183932235Y-68402661D01*
X183927571Y-68452998D01*
X183927571Y-68453001D01*
X178738429Y-68453001D01*
X178738429Y-68452998D01*
X178733765Y-68402661D01*
X178733500Y-68396938D01*
X178733500Y-68346392D01*
X178724211Y-68296700D01*
X178723421Y-68291043D01*
X178718756Y-68240690D01*
X178709708Y-68208895D01*
X178704920Y-68192064D01*
X178703609Y-68186494D01*
X178694321Y-68136802D01*
X178676058Y-68089661D01*
X178674241Y-68084237D01*
X178660409Y-68035622D01*
X178660402Y-68035604D01*
X178653911Y-68022569D01*
X178637866Y-67990347D01*
X178635561Y-67985125D01*
X178635559Y-67985121D01*
X178617298Y-67937981D01*
X178590678Y-67894990D01*
X178587898Y-67889996D01*
X178565372Y-67844758D01*
X178565366Y-67844745D01*
X178565364Y-67844742D01*
X178534903Y-67804405D01*
X178531665Y-67799678D01*
X178505051Y-67756696D01*
X178470996Y-67719340D01*
X178467336Y-67714933D01*
X178436873Y-67674594D01*
X178399513Y-67640535D01*
X178395463Y-67636485D01*
X178361407Y-67599128D01*
X178321067Y-67568664D01*
X178316663Y-67565007D01*
X178279302Y-67530948D01*
X178279301Y-67530947D01*
X178236319Y-67504333D01*
X178231594Y-67501096D01*
X178191253Y-67470632D01*
X178146009Y-67448104D01*
X178141004Y-67445317D01*
X178098019Y-67418702D01*
X178050875Y-67400438D01*
X178045645Y-67398129D01*
X178000393Y-67375597D01*
X178000389Y-67375595D01*
X177951769Y-67361761D01*
X177946337Y-67359940D01*
X177899198Y-67341679D01*
X177849506Y-67332389D01*
X177843930Y-67331077D01*
X177795307Y-67317243D01*
X177744966Y-67312578D01*
X177739294Y-67311786D01*
X177689612Y-67302500D01*
X177689610Y-67302500D01*
X177476390Y-67302500D01*
X177476384Y-67302500D01*
X177426703Y-67311786D01*
X177421032Y-67312577D01*
X177370690Y-67317243D01*
X177322073Y-67331076D01*
X177316498Y-67332388D01*
X177266804Y-67341678D01*
X177266798Y-67341680D01*
X177219661Y-67359940D01*
X177214232Y-67361760D01*
X177165615Y-67375593D01*
X177165606Y-67375597D01*
X177120361Y-67398126D01*
X177115121Y-67400439D01*
X177067978Y-67418703D01*
X177067977Y-67418704D01*
X177024993Y-67445317D01*
X177019990Y-67448103D01*
X176974758Y-67470626D01*
X176974742Y-67470636D01*
X176934398Y-67501100D01*
X176929675Y-67504336D01*
X176886698Y-67530947D01*
X176849341Y-67565001D01*
X176844937Y-67568658D01*
X176804594Y-67599126D01*
X176770535Y-67636486D01*
X176766486Y-67640535D01*
X176729126Y-67674594D01*
X176698658Y-67714937D01*
X176695001Y-67719341D01*
X176660947Y-67756698D01*
X176634336Y-67799675D01*
X176631100Y-67804398D01*
X176600636Y-67844742D01*
X176600626Y-67844758D01*
X176578103Y-67889990D01*
X176575317Y-67894993D01*
X176548704Y-67937977D01*
X176548703Y-67937978D01*
X176530439Y-67985121D01*
X176528126Y-67990361D01*
X176505597Y-68035606D01*
X176505593Y-68035615D01*
X176491760Y-68084232D01*
X176489940Y-68089661D01*
X176471680Y-68136798D01*
X176471678Y-68136804D01*
X176462388Y-68186498D01*
X176461076Y-68192073D01*
X176447243Y-68240690D01*
X176442577Y-68291032D01*
X176441786Y-68296703D01*
X176432500Y-68346384D01*
X176432500Y-68396938D01*
X176432235Y-68402661D01*
X176427571Y-68452998D01*
X176427571Y-68453001D01*
X167875170Y-68453001D01*
X167657941Y-68235772D01*
X167656680Y-68234422D01*
X167614755Y-68189531D01*
X167578775Y-68167651D01*
X167573529Y-68164081D01*
X167547972Y-68144700D01*
X167539976Y-68138636D01*
X167531406Y-68135256D01*
X167524485Y-68132527D01*
X167505553Y-68123124D01*
X167491329Y-68114474D01*
X167450785Y-68103113D01*
X167444766Y-68101089D01*
X167409007Y-68086989D01*
X167405589Y-68085641D01*
X167405585Y-68085640D01*
X167405583Y-68085640D01*
X167389022Y-68083937D01*
X167368255Y-68079990D01*
X167352231Y-68075500D01*
X167352228Y-68075500D01*
X167310120Y-68075500D01*
X167303778Y-68075175D01*
X167285853Y-68073332D01*
X167261892Y-68070869D01*
X167261888Y-68070869D01*
X167252576Y-68072474D01*
X167245485Y-68073697D01*
X167224420Y-68075500D01*
X166860816Y-68075500D01*
X166793777Y-68055815D01*
X166748022Y-68003011D01*
X166747260Y-68001310D01*
X166716924Y-67932151D01*
X166589983Y-67737852D01*
X166589980Y-67737849D01*
X166589979Y-67737847D01*
X166432784Y-67567087D01*
X166255180Y-67428853D01*
X166214368Y-67372143D01*
X166210693Y-67302370D01*
X166245324Y-67241687D01*
X166255181Y-67233146D01*
X166432784Y-67094913D01*
X166589979Y-66924153D01*
X166716924Y-66729849D01*
X166810157Y-66517300D01*
X166867134Y-66292305D01*
X166886300Y-66061000D01*
X166886300Y-66060993D01*
X166867135Y-65829702D01*
X166867133Y-65829691D01*
X166810157Y-65604699D01*
X166716924Y-65392151D01*
X166589983Y-65197852D01*
X166589980Y-65197849D01*
X166589979Y-65197847D01*
X166432784Y-65027087D01*
X166432779Y-65027083D01*
X166432777Y-65027081D01*
X166249634Y-64884535D01*
X166249628Y-64884531D01*
X166045504Y-64774064D01*
X166045495Y-64774061D01*
X165825984Y-64698702D01*
X165654282Y-64670050D01*
X165597049Y-64660500D01*
X165364951Y-64660500D01*
X165364946Y-64660500D01*
X165361239Y-64660808D01*
X165292803Y-64646726D01*
X165242844Y-64597880D01*
X165227000Y-64537231D01*
X165227000Y-61595000D01*
X164164381Y-60532381D01*
X164130896Y-60471058D01*
X164135880Y-60401366D01*
X164177752Y-60345433D01*
X164243216Y-60321016D01*
X164252062Y-60320700D01*
X197526805Y-60320700D01*
X197572871Y-60320700D01*
X197575913Y-60320775D01*
X197933971Y-60338365D01*
X197940024Y-60338960D01*
X198293124Y-60391338D01*
X198299076Y-60392521D01*
X198577837Y-60462347D01*
X198645353Y-60479259D01*
X198651174Y-60481024D01*
X198987267Y-60601281D01*
X198992886Y-60603609D01*
X199315581Y-60756231D01*
X199320939Y-60759094D01*
X199627113Y-60942608D01*
X199632175Y-60945990D01*
X199918894Y-61158636D01*
X199923598Y-61162496D01*
X200188099Y-61402225D01*
X200192374Y-61406500D01*
X200356182Y-61587235D01*
X200432101Y-61670999D01*
X200435963Y-61675705D01*
X200648609Y-61962424D01*
X200651991Y-61967486D01*
X200835498Y-62273648D01*
X200838368Y-62279018D01*
X200990990Y-62601713D01*
X200993320Y-62607337D01*
X201113573Y-62943420D01*
X201115340Y-62949246D01*
X201202074Y-63295504D01*
X201203261Y-63301475D01*
X201255638Y-63654570D01*
X201256234Y-63660628D01*
X201273825Y-64018686D01*
X201273900Y-64021729D01*
X201273900Y-133183870D01*
X201273825Y-133186913D01*
X201256234Y-133544971D01*
X201255638Y-133551029D01*
X201203261Y-133904124D01*
X201202074Y-133910095D01*
X201115340Y-134256353D01*
X201113573Y-134262179D01*
X200993320Y-134598262D01*
X200990990Y-134603886D01*
X200838368Y-134926581D01*
X200835498Y-134931951D01*
X200651991Y-135238113D01*
X200648609Y-135243175D01*
X200435963Y-135529894D01*
X200432101Y-135534600D01*
X200192389Y-135799084D01*
X200188089Y-135803383D01*
X200093151Y-135889429D01*
X199923600Y-136043101D01*
X199918894Y-136046963D01*
X199632175Y-136259609D01*
X199627113Y-136262991D01*
X199320951Y-136446498D01*
X199315581Y-136449368D01*
X198992886Y-136601990D01*
X198987262Y-136604320D01*
X198651179Y-136724573D01*
X198645353Y-136726340D01*
X198299095Y-136813074D01*
X198293124Y-136814261D01*
X197940029Y-136866638D01*
X197933971Y-136867234D01*
X197575914Y-136884825D01*
X197572871Y-136884900D01*
X128410729Y-136884900D01*
X128407686Y-136884825D01*
X128049628Y-136867234D01*
X128043570Y-136866638D01*
X127690475Y-136814261D01*
X127684507Y-136813074D01*
X127626388Y-136798516D01*
X127338246Y-136726340D01*
X127332420Y-136724573D01*
X126996337Y-136604320D01*
X126990713Y-136601990D01*
X126668018Y-136449368D01*
X126662653Y-136446501D01*
X126356486Y-136262991D01*
X126351424Y-136259609D01*
X126064705Y-136046963D01*
X126059999Y-136043101D01*
X125941495Y-135935696D01*
X125795500Y-135803374D01*
X125791225Y-135799099D01*
X125551496Y-135534598D01*
X125547636Y-135529894D01*
X125334990Y-135243175D01*
X125331608Y-135238113D01*
X125148094Y-134931939D01*
X125145231Y-134926581D01*
X124992609Y-134603886D01*
X124990279Y-134598262D01*
X124982375Y-134576173D01*
X124870024Y-134262174D01*
X124868259Y-134256353D01*
X124851927Y-134191151D01*
X163000500Y-134191151D01*
X163015622Y-134359186D01*
X163015623Y-134359192D01*
X163075503Y-134576160D01*
X163075508Y-134576173D01*
X163173167Y-134778966D01*
X163173171Y-134778974D01*
X163305473Y-134961072D01*
X163305474Y-134961074D01*
X163468176Y-135116633D01*
X163656033Y-135240636D01*
X163863004Y-135329100D01*
X163863007Y-135329101D01*
X163863012Y-135329103D01*
X164082463Y-135379191D01*
X164307330Y-135389290D01*
X164530387Y-135359075D01*
X164744464Y-135289517D01*
X164942681Y-135182852D01*
X165118666Y-135042508D01*
X165266765Y-134872996D01*
X165382215Y-134679764D01*
X165461307Y-134469024D01*
X165501500Y-134247547D01*
X165501500Y-134191151D01*
X176970500Y-134191151D01*
X176985622Y-134359186D01*
X176985623Y-134359192D01*
X177045503Y-134576160D01*
X177045508Y-134576173D01*
X177143167Y-134778966D01*
X177143171Y-134778974D01*
X177275473Y-134961072D01*
X177275474Y-134961074D01*
X177438176Y-135116633D01*
X177626033Y-135240636D01*
X177833004Y-135329100D01*
X177833007Y-135329101D01*
X177833012Y-135329103D01*
X178052463Y-135379191D01*
X178277330Y-135389290D01*
X178500387Y-135359075D01*
X178714464Y-135289517D01*
X178912681Y-135182852D01*
X179088666Y-135042508D01*
X179236765Y-134872996D01*
X179256836Y-134839401D01*
X179308118Y-134791947D01*
X179376915Y-134779751D01*
X179441384Y-134806686D01*
X179481057Y-134864200D01*
X179482360Y-134868405D01*
X179519253Y-134995393D01*
X179519255Y-134995396D01*
X179602917Y-135136862D01*
X179602923Y-135136870D01*
X179719129Y-135253076D01*
X179719133Y-135253079D01*
X179719135Y-135253081D01*
X179860602Y-135336744D01*
X179902224Y-135348836D01*
X180018426Y-135382597D01*
X180018429Y-135382597D01*
X180018431Y-135382598D01*
X180030722Y-135383565D01*
X180055304Y-135385500D01*
X180055306Y-135385500D01*
X181386696Y-135385500D01*
X181405131Y-135384049D01*
X181423569Y-135382598D01*
X181423571Y-135382597D01*
X181423573Y-135382597D01*
X181465191Y-135370505D01*
X181581398Y-135336744D01*
X181722865Y-135253081D01*
X181839081Y-135136865D01*
X181922744Y-134995398D01*
X181960861Y-134864200D01*
X181968597Y-134837573D01*
X181968598Y-134837567D01*
X181971500Y-134800696D01*
X181971500Y-133169304D01*
X181968598Y-133132432D01*
X181968597Y-133132426D01*
X181922745Y-132974606D01*
X181922744Y-132974602D01*
X181839081Y-132833135D01*
X181839079Y-132833133D01*
X181839076Y-132833129D01*
X181722870Y-132716923D01*
X181722862Y-132716917D01*
X181644681Y-132670681D01*
X181581398Y-132633256D01*
X181581397Y-132633255D01*
X181581396Y-132633255D01*
X181581393Y-132633254D01*
X181423573Y-132587402D01*
X181423567Y-132587401D01*
X181386696Y-132584500D01*
X181386694Y-132584500D01*
X180055306Y-132584500D01*
X180055304Y-132584500D01*
X180018432Y-132587401D01*
X180018426Y-132587402D01*
X179860606Y-132633254D01*
X179860603Y-132633255D01*
X179719137Y-132716917D01*
X179719129Y-132716923D01*
X179602923Y-132833129D01*
X179602917Y-132833137D01*
X179519255Y-132974603D01*
X179519254Y-132974604D01*
X179481990Y-133102868D01*
X179444383Y-133161753D01*
X179380911Y-133190959D01*
X179311724Y-133181213D01*
X179262598Y-133141159D01*
X179166522Y-133008922D01*
X179003825Y-132853368D01*
X179003823Y-132853366D01*
X178815966Y-132729363D01*
X178608995Y-132640899D01*
X178608982Y-132640895D01*
X178389542Y-132590810D01*
X178389538Y-132590809D01*
X178389537Y-132590809D01*
X178389536Y-132590808D01*
X178389531Y-132590808D01*
X178164674Y-132580710D01*
X178164673Y-132580710D01*
X178164670Y-132580710D01*
X177941613Y-132610925D01*
X177941610Y-132610925D01*
X177941609Y-132610926D01*
X177727534Y-132680483D01*
X177529321Y-132787146D01*
X177529318Y-132787148D01*
X177353336Y-132927489D01*
X177282186Y-133008927D01*
X177205235Y-133097004D01*
X177184068Y-133132432D01*
X177089787Y-133290232D01*
X177089786Y-133290234D01*
X177010692Y-133500976D01*
X176970500Y-133722450D01*
X176970500Y-134191151D01*
X165501500Y-134191151D01*
X165501500Y-133778845D01*
X165486377Y-133610812D01*
X165486376Y-133610807D01*
X165426496Y-133393839D01*
X165426491Y-133393826D01*
X165328832Y-133191033D01*
X165328828Y-133191025D01*
X165196526Y-133008927D01*
X165196525Y-133008925D01*
X165033823Y-132853366D01*
X164845966Y-132729363D01*
X164638995Y-132640899D01*
X164638982Y-132640895D01*
X164419542Y-132590810D01*
X164419538Y-132590809D01*
X164419537Y-132590809D01*
X164419536Y-132590808D01*
X164419531Y-132590808D01*
X164194674Y-132580710D01*
X164194673Y-132580710D01*
X164194670Y-132580710D01*
X163971613Y-132610925D01*
X163971610Y-132610925D01*
X163971609Y-132610926D01*
X163757534Y-132680483D01*
X163559321Y-132787146D01*
X163559318Y-132787148D01*
X163383336Y-132927489D01*
X163312186Y-133008927D01*
X163235235Y-133097004D01*
X163214068Y-133132432D01*
X163119787Y-133290232D01*
X163119786Y-133290234D01*
X163040692Y-133500976D01*
X163000500Y-133722450D01*
X163000500Y-134191151D01*
X124851927Y-134191151D01*
X124781521Y-133910076D01*
X124780338Y-133904124D01*
X124760106Y-133767733D01*
X124727960Y-133551024D01*
X124727365Y-133544971D01*
X124709775Y-133186912D01*
X124709700Y-133183870D01*
X124709700Y-132827192D01*
X134354500Y-132827192D01*
X134369326Y-132968256D01*
X134369327Y-132968259D01*
X134427818Y-133148277D01*
X134427821Y-133148284D01*
X134522467Y-133312216D01*
X134595953Y-133393830D01*
X134649129Y-133452888D01*
X134802265Y-133564148D01*
X134802270Y-133564151D01*
X134975192Y-133641142D01*
X134975197Y-133641144D01*
X135160354Y-133680500D01*
X135160355Y-133680500D01*
X135349644Y-133680500D01*
X135349646Y-133680500D01*
X135534803Y-133641144D01*
X135707730Y-133564151D01*
X135860871Y-133452888D01*
X135987533Y-133312216D01*
X136082179Y-133148284D01*
X136140674Y-132968256D01*
X136155500Y-132827192D01*
X156960500Y-132827192D01*
X156975326Y-132968256D01*
X156975327Y-132968259D01*
X157033818Y-133148277D01*
X157033821Y-133148284D01*
X157128467Y-133312216D01*
X157201953Y-133393830D01*
X157255129Y-133452888D01*
X157408265Y-133564148D01*
X157408270Y-133564151D01*
X157581192Y-133641142D01*
X157581197Y-133641144D01*
X157766354Y-133680500D01*
X157766355Y-133680500D01*
X157955644Y-133680500D01*
X157955646Y-133680500D01*
X158140803Y-133641144D01*
X158313730Y-133564151D01*
X158466871Y-133452888D01*
X158593533Y-133312216D01*
X158688179Y-133148284D01*
X158746674Y-132968256D01*
X158761500Y-132827192D01*
X158761500Y-131332808D01*
X158746674Y-131191744D01*
X158688179Y-131011716D01*
X158593533Y-130847784D01*
X158466871Y-130707112D01*
X158466870Y-130707111D01*
X158313734Y-130595851D01*
X158313729Y-130595848D01*
X158140807Y-130518857D01*
X158140802Y-130518855D01*
X157995001Y-130487865D01*
X157955646Y-130479500D01*
X157766354Y-130479500D01*
X157733897Y-130486398D01*
X157581197Y-130518855D01*
X157581192Y-130518857D01*
X157408270Y-130595848D01*
X157408265Y-130595851D01*
X157255129Y-130707111D01*
X157128466Y-130847785D01*
X157033821Y-131011715D01*
X157033818Y-131011722D01*
X156975327Y-131191740D01*
X156975326Y-131191744D01*
X156960500Y-131332808D01*
X156960500Y-132827192D01*
X136155500Y-132827192D01*
X136155500Y-131332808D01*
X136140674Y-131191744D01*
X136082179Y-131011716D01*
X135987533Y-130847784D01*
X135860871Y-130707112D01*
X135860870Y-130707111D01*
X135707734Y-130595851D01*
X135707729Y-130595848D01*
X135534807Y-130518857D01*
X135534802Y-130518855D01*
X135389001Y-130487865D01*
X135349646Y-130479500D01*
X135160354Y-130479500D01*
X135127897Y-130486398D01*
X134975197Y-130518855D01*
X134975192Y-130518857D01*
X134802270Y-130595848D01*
X134802265Y-130595851D01*
X134649129Y-130707111D01*
X134522466Y-130847785D01*
X134427821Y-131011715D01*
X134427818Y-131011722D01*
X134369327Y-131191740D01*
X134369326Y-131191744D01*
X134354500Y-131332808D01*
X134354500Y-132827192D01*
X124709700Y-132827192D01*
X124709700Y-123698003D01*
X131222909Y-123698003D01*
X131241212Y-123860455D01*
X131295210Y-124014774D01*
X131295211Y-124014775D01*
X131382192Y-124153204D01*
X131497796Y-124268808D01*
X131636225Y-124355789D01*
X131790539Y-124409786D01*
X131790543Y-124409786D01*
X131790546Y-124409787D01*
X131895143Y-124421572D01*
X131959557Y-124448638D01*
X131968941Y-124457111D01*
X132210073Y-124698243D01*
X132253245Y-124744469D01*
X132289220Y-124766346D01*
X132294454Y-124769907D01*
X132328025Y-124795365D01*
X132328028Y-124795366D01*
X132328028Y-124795367D01*
X132343509Y-124801471D01*
X132362451Y-124810878D01*
X132376672Y-124819526D01*
X132417225Y-124830887D01*
X132423223Y-124832905D01*
X132462411Y-124848359D01*
X132478977Y-124850061D01*
X132499741Y-124854008D01*
X132515772Y-124858500D01*
X132557872Y-124858500D01*
X132564213Y-124858824D01*
X132606110Y-124863132D01*
X132622518Y-124860303D01*
X132643586Y-124858500D01*
X135592126Y-124858500D01*
X135659165Y-124878185D01*
X135679807Y-124894819D01*
X135688796Y-124903808D01*
X135827225Y-124990789D01*
X135981539Y-125044786D01*
X135981542Y-125044786D01*
X135981544Y-125044787D01*
X136143996Y-125063091D01*
X136144000Y-125063091D01*
X136144004Y-125063091D01*
X136306455Y-125044787D01*
X136306456Y-125044786D01*
X136306461Y-125044786D01*
X136460775Y-124990789D01*
X136599204Y-124903808D01*
X136714808Y-124788204D01*
X136801789Y-124649775D01*
X136855786Y-124495461D01*
X136861062Y-124448638D01*
X136874091Y-124333003D01*
X136874091Y-124332996D01*
X136855787Y-124170544D01*
X136855786Y-124170542D01*
X136855786Y-124170539D01*
X136801789Y-124016225D01*
X136714808Y-123877796D01*
X136599204Y-123762192D01*
X136522415Y-123713942D01*
X136460774Y-123675210D01*
X136306455Y-123621212D01*
X136144004Y-123602909D01*
X136143996Y-123602909D01*
X135981544Y-123621212D01*
X135827225Y-123675210D01*
X135688795Y-123762192D01*
X135679807Y-123771181D01*
X135618484Y-123804666D01*
X135592126Y-123807500D01*
X132857031Y-123807500D01*
X132789992Y-123787815D01*
X132769350Y-123771181D01*
X132712111Y-123713942D01*
X132678626Y-123652619D01*
X132676572Y-123640144D01*
X132664787Y-123535546D01*
X132664786Y-123535541D01*
X132664786Y-123535539D01*
X132610789Y-123381225D01*
X132523808Y-123242796D01*
X132408204Y-123127192D01*
X132394366Y-123118497D01*
X132269774Y-123040210D01*
X132115455Y-122986212D01*
X131953004Y-122967909D01*
X131952996Y-122967909D01*
X131790544Y-122986212D01*
X131636225Y-123040210D01*
X131497795Y-123127192D01*
X131382192Y-123242795D01*
X131295210Y-123381225D01*
X131241212Y-123535544D01*
X131222909Y-123697996D01*
X131222909Y-123698003D01*
X124709700Y-123698003D01*
X124709700Y-120015003D01*
X184562909Y-120015003D01*
X184581212Y-120177455D01*
X184635210Y-120331774D01*
X184635211Y-120331775D01*
X184722192Y-120470204D01*
X184837796Y-120585808D01*
X184903572Y-120627137D01*
X184925279Y-120644449D01*
X189359888Y-125079058D01*
X189393373Y-125140381D01*
X189395427Y-125152855D01*
X189407212Y-125257455D01*
X189461210Y-125411774D01*
X189461211Y-125411775D01*
X189548192Y-125550204D01*
X189663796Y-125665808D01*
X189802225Y-125752789D01*
X189956539Y-125806786D01*
X189956542Y-125806786D01*
X189956544Y-125806787D01*
X190118996Y-125825091D01*
X190119000Y-125825091D01*
X190119004Y-125825091D01*
X190281455Y-125806787D01*
X190281456Y-125806786D01*
X190281461Y-125806786D01*
X190435775Y-125752789D01*
X190574204Y-125665808D01*
X190689808Y-125550204D01*
X190776789Y-125411775D01*
X190830786Y-125257461D01*
X190830787Y-125257455D01*
X190849091Y-125095003D01*
X190849091Y-125094996D01*
X190830787Y-124932544D01*
X190830786Y-124932542D01*
X190830786Y-124932539D01*
X190776789Y-124778225D01*
X190689808Y-124639796D01*
X190574204Y-124524192D01*
X190528479Y-124495461D01*
X190435774Y-124437210D01*
X190281455Y-124383212D01*
X190176855Y-124371427D01*
X190112441Y-124344360D01*
X190103058Y-124335888D01*
X188439171Y-122672001D01*
X192623532Y-122672001D01*
X192643364Y-122898686D01*
X192643366Y-122898697D01*
X192702258Y-123118488D01*
X192702261Y-123118497D01*
X192798431Y-123324732D01*
X192798432Y-123324734D01*
X192928954Y-123511141D01*
X193089858Y-123672045D01*
X193089861Y-123672047D01*
X193276266Y-123802568D01*
X193482504Y-123898739D01*
X193702308Y-123957635D01*
X193864230Y-123971801D01*
X193928998Y-123977468D01*
X193929000Y-123977468D01*
X193929002Y-123977468D01*
X193985673Y-123972509D01*
X194155692Y-123957635D01*
X194375496Y-123898739D01*
X194581734Y-123802568D01*
X194768139Y-123672047D01*
X194929047Y-123511139D01*
X195059568Y-123324734D01*
X195155739Y-123118496D01*
X195214635Y-122898692D01*
X195234468Y-122672000D01*
X195214635Y-122445308D01*
X195155739Y-122225504D01*
X195059568Y-122019266D01*
X194929047Y-121832861D01*
X194929045Y-121832858D01*
X194768141Y-121671954D01*
X194581734Y-121541432D01*
X194581732Y-121541431D01*
X194375497Y-121445261D01*
X194375488Y-121445258D01*
X194155697Y-121386366D01*
X194155693Y-121386365D01*
X194155692Y-121386365D01*
X194155691Y-121386364D01*
X194155686Y-121386364D01*
X193929002Y-121366532D01*
X193928998Y-121366532D01*
X193702313Y-121386364D01*
X193702302Y-121386366D01*
X193482511Y-121445258D01*
X193482502Y-121445261D01*
X193276267Y-121541431D01*
X193276265Y-121541432D01*
X193089858Y-121671954D01*
X192928954Y-121832858D01*
X192798432Y-122019265D01*
X192798431Y-122019267D01*
X192702261Y-122225502D01*
X192702258Y-122225511D01*
X192643366Y-122445302D01*
X192643364Y-122445313D01*
X192623532Y-122671998D01*
X192623532Y-122672001D01*
X188439171Y-122672001D01*
X186040920Y-120273751D01*
X186007435Y-120212428D01*
X186005381Y-120172187D01*
X186023091Y-120015003D01*
X186023091Y-120014996D01*
X186004787Y-119852544D01*
X186004786Y-119852542D01*
X186004786Y-119852539D01*
X185950789Y-119698225D01*
X185863808Y-119559796D01*
X185748204Y-119444192D01*
X185609774Y-119357210D01*
X185455455Y-119303212D01*
X185293004Y-119284909D01*
X185292996Y-119284909D01*
X185130544Y-119303212D01*
X184976225Y-119357210D01*
X184837795Y-119444192D01*
X184722192Y-119559795D01*
X184635210Y-119698225D01*
X184581212Y-119852544D01*
X184562909Y-120014996D01*
X184562909Y-120015003D01*
X124709700Y-120015003D01*
X124709700Y-115072001D01*
X192623532Y-115072001D01*
X192643364Y-115298686D01*
X192643366Y-115298697D01*
X192702258Y-115518488D01*
X192702261Y-115518497D01*
X192798431Y-115724732D01*
X192798432Y-115724734D01*
X192928954Y-115911141D01*
X193089858Y-116072045D01*
X193089861Y-116072047D01*
X193276266Y-116202568D01*
X193482504Y-116298739D01*
X193702308Y-116357635D01*
X193864230Y-116371801D01*
X193928998Y-116377468D01*
X193929000Y-116377468D01*
X193929002Y-116377468D01*
X193985673Y-116372509D01*
X194155692Y-116357635D01*
X194375496Y-116298739D01*
X194581734Y-116202568D01*
X194768139Y-116072047D01*
X194929047Y-115911139D01*
X195059568Y-115724734D01*
X195155739Y-115518496D01*
X195214635Y-115298692D01*
X195234468Y-115072000D01*
X195214635Y-114845308D01*
X195155739Y-114625504D01*
X195059568Y-114419266D01*
X194929047Y-114232861D01*
X194929045Y-114232858D01*
X194768141Y-114071954D01*
X194581734Y-113941432D01*
X194581732Y-113941431D01*
X194375497Y-113845261D01*
X194375488Y-113845258D01*
X194155697Y-113786366D01*
X194155693Y-113786365D01*
X194155692Y-113786365D01*
X194155691Y-113786364D01*
X194155686Y-113786364D01*
X193929002Y-113766532D01*
X193928998Y-113766532D01*
X193702313Y-113786364D01*
X193702302Y-113786366D01*
X193482511Y-113845258D01*
X193482502Y-113845261D01*
X193276267Y-113941431D01*
X193276265Y-113941432D01*
X193089858Y-114071954D01*
X192928954Y-114232858D01*
X192798432Y-114419265D01*
X192798431Y-114419267D01*
X192702261Y-114625502D01*
X192702258Y-114625511D01*
X192643366Y-114845302D01*
X192643364Y-114845313D01*
X192623532Y-115071998D01*
X192623532Y-115072001D01*
X124709700Y-115072001D01*
X124709700Y-102719330D01*
X126504210Y-102719330D01*
X126534425Y-102942387D01*
X126534426Y-102942390D01*
X126603983Y-103156465D01*
X126710646Y-103354678D01*
X126710648Y-103354681D01*
X126850989Y-103530663D01*
X127020500Y-103678762D01*
X127020501Y-103678763D01*
X127020504Y-103678765D01*
X127054100Y-103698838D01*
X127101552Y-103750119D01*
X127113747Y-103818916D01*
X127086812Y-103883385D01*
X127029298Y-103923058D01*
X127025095Y-103924360D01*
X126898104Y-103961254D01*
X126898103Y-103961255D01*
X126756637Y-104044917D01*
X126756629Y-104044923D01*
X126640423Y-104161129D01*
X126640417Y-104161137D01*
X126556755Y-104302603D01*
X126556754Y-104302606D01*
X126510902Y-104460426D01*
X126510901Y-104460432D01*
X126508000Y-104497304D01*
X126508000Y-105828696D01*
X126510901Y-105865567D01*
X126510902Y-105865573D01*
X126556754Y-106023393D01*
X126556755Y-106023396D01*
X126640417Y-106164862D01*
X126640423Y-106164870D01*
X126756629Y-106281076D01*
X126756633Y-106281079D01*
X126756635Y-106281081D01*
X126898102Y-106364744D01*
X126939724Y-106376836D01*
X127055926Y-106410597D01*
X127055929Y-106410597D01*
X127055931Y-106410598D01*
X127068222Y-106411565D01*
X127092804Y-106413500D01*
X127092806Y-106413500D01*
X128674196Y-106413500D01*
X128692631Y-106412049D01*
X128711069Y-106410598D01*
X128711071Y-106410597D01*
X128711073Y-106410597D01*
X128785447Y-106388989D01*
X128868898Y-106364744D01*
X129010365Y-106281081D01*
X129126581Y-106164865D01*
X129210244Y-106023398D01*
X129256098Y-105865569D01*
X129259000Y-105828694D01*
X129259000Y-104497306D01*
X129256098Y-104460431D01*
X129210244Y-104302602D01*
X129126581Y-104161135D01*
X129126579Y-104161133D01*
X129126576Y-104161129D01*
X129010370Y-104044923D01*
X129010362Y-104044917D01*
X128868896Y-103961255D01*
X128868893Y-103961253D01*
X128740632Y-103923990D01*
X128681746Y-103886384D01*
X128652540Y-103822911D01*
X128662286Y-103753724D01*
X128702340Y-103704598D01*
X128834578Y-103608522D01*
X128990132Y-103445825D01*
X129114135Y-103257968D01*
X129136880Y-103204755D01*
X129202600Y-103050995D01*
X129202599Y-103050995D01*
X129202603Y-103050988D01*
X129252691Y-102831537D01*
X129262790Y-102606670D01*
X129232575Y-102383613D01*
X129163017Y-102169536D01*
X129056352Y-101971319D01*
X128962790Y-101853996D01*
X128916010Y-101795336D01*
X128897321Y-101779008D01*
X128746496Y-101647235D01*
X128553264Y-101531785D01*
X128553263Y-101531784D01*
X128553262Y-101531784D01*
X128541077Y-101527211D01*
X128485230Y-101485225D01*
X128460948Y-101419710D01*
X128475941Y-101351468D01*
X128525448Y-101302165D01*
X128530814Y-101299416D01*
X128652473Y-101240829D01*
X128834578Y-101108522D01*
X128990132Y-100945825D01*
X129114135Y-100757968D01*
X129149489Y-100675255D01*
X129202600Y-100550995D01*
X129202599Y-100550995D01*
X129202603Y-100550988D01*
X129252691Y-100331537D01*
X129262790Y-100106670D01*
X129232575Y-99883613D01*
X129163017Y-99669536D01*
X129056352Y-99471319D01*
X128983667Y-99380175D01*
X128916010Y-99295336D01*
X128876033Y-99260409D01*
X128746496Y-99147235D01*
X128553264Y-99031785D01*
X128435275Y-98987503D01*
X128342523Y-98952692D01*
X128121050Y-98912500D01*
X128121047Y-98912500D01*
X127702345Y-98912500D01*
X127663899Y-98915960D01*
X127534313Y-98927622D01*
X127534307Y-98927623D01*
X127317339Y-98987503D01*
X127317326Y-98987508D01*
X127114533Y-99085167D01*
X127114525Y-99085171D01*
X126932427Y-99217473D01*
X126932425Y-99217474D01*
X126776866Y-99380176D01*
X126652863Y-99568033D01*
X126564399Y-99775004D01*
X126564395Y-99775017D01*
X126514310Y-99994457D01*
X126514308Y-99994468D01*
X126504210Y-100219325D01*
X126504210Y-100219330D01*
X126534425Y-100442387D01*
X126534426Y-100442390D01*
X126603983Y-100656465D01*
X126710646Y-100854678D01*
X126710648Y-100854681D01*
X126850989Y-101030663D01*
X126850991Y-101030664D01*
X126850992Y-101030666D01*
X127020504Y-101178765D01*
X127213736Y-101294215D01*
X127225920Y-101298787D01*
X127281767Y-101340771D01*
X127306051Y-101406285D01*
X127291060Y-101474528D01*
X127241555Y-101523833D01*
X127236151Y-101526600D01*
X127114529Y-101585169D01*
X127114525Y-101585171D01*
X126932427Y-101717473D01*
X126932425Y-101717474D01*
X126776866Y-101880176D01*
X126652863Y-102068033D01*
X126564399Y-102275004D01*
X126564395Y-102275017D01*
X126514310Y-102494457D01*
X126514308Y-102494468D01*
X126504210Y-102719325D01*
X126504210Y-102719330D01*
X124709700Y-102719330D01*
X124709700Y-64021729D01*
X124709775Y-64018687D01*
X124727365Y-63660628D01*
X124727961Y-63654570D01*
X124780338Y-63301475D01*
X124781520Y-63295526D01*
X124868259Y-62949244D01*
X124870022Y-62943431D01*
X124990283Y-62607325D01*
X124992609Y-62601713D01*
X125068920Y-62440365D01*
X125145234Y-62279012D01*
X125148089Y-62273669D01*
X125331616Y-61967473D01*
X125334984Y-61962432D01*
X125547637Y-61675703D01*
X125551487Y-61671011D01*
X125791235Y-61406489D01*
X125795489Y-61402235D01*
X126060011Y-61162487D01*
X126064705Y-61158636D01*
X126310908Y-60976039D01*
X126351432Y-60945984D01*
X126356473Y-60942616D01*
X126662669Y-60759089D01*
X126668012Y-60756234D01*
X126829365Y-60679920D01*
X126990713Y-60603609D01*
X126996325Y-60601283D01*
X127332431Y-60481022D01*
X127338246Y-60479259D01*
X127684526Y-60392520D01*
X127690470Y-60391338D01*
X128043577Y-60338960D01*
X128049628Y-60338365D01*
X128407687Y-60320775D01*
X128410729Y-60320700D01*
X128456795Y-60320700D01*
X140420938Y-60320700D01*
X140487977Y-60340385D01*
G37*
G04 #@! TD.AperFunction*
G04 #@! TA.AperFunction,Conductor*
G36*
X138829101Y-65188185D02*
G01*
X138874856Y-65240989D01*
X138884800Y-65310147D01*
X138865871Y-65360321D01*
X138845075Y-65392151D01*
X138751842Y-65604699D01*
X138694866Y-65829691D01*
X138694864Y-65829702D01*
X138675700Y-66060993D01*
X138675700Y-66061006D01*
X138694864Y-66292297D01*
X138694866Y-66292308D01*
X138751842Y-66517300D01*
X138845075Y-66729848D01*
X138972016Y-66924147D01*
X138972019Y-66924151D01*
X138972021Y-66924153D01*
X139129216Y-67094913D01*
X139129219Y-67094915D01*
X139129222Y-67094918D01*
X139306818Y-67233147D01*
X139347631Y-67289857D01*
X139351306Y-67359630D01*
X139316674Y-67420313D01*
X139306818Y-67428853D01*
X139129222Y-67567081D01*
X139129219Y-67567084D01*
X139129216Y-67567086D01*
X139129216Y-67567087D01*
X139099723Y-67599125D01*
X138972016Y-67737852D01*
X138845075Y-67932151D01*
X138751842Y-68144699D01*
X138694866Y-68369691D01*
X138694864Y-68369702D01*
X138675700Y-68600993D01*
X138675700Y-68601006D01*
X138694864Y-68832297D01*
X138694866Y-68832308D01*
X138751842Y-69057300D01*
X138845075Y-69269848D01*
X138972016Y-69464147D01*
X138972019Y-69464151D01*
X138972021Y-69464153D01*
X139129216Y-69634913D01*
X139129219Y-69634915D01*
X139129222Y-69634918D01*
X139306818Y-69773147D01*
X139347631Y-69829857D01*
X139351306Y-69899630D01*
X139316674Y-69960313D01*
X139306818Y-69968853D01*
X139129222Y-70107081D01*
X139129219Y-70107084D01*
X138972016Y-70277852D01*
X138845075Y-70472151D01*
X138751842Y-70684699D01*
X138694866Y-70909691D01*
X138694864Y-70909702D01*
X138675700Y-71140993D01*
X138675700Y-71141006D01*
X138694864Y-71372297D01*
X138694866Y-71372308D01*
X138751842Y-71597300D01*
X138845075Y-71809848D01*
X138972016Y-72004147D01*
X138972019Y-72004151D01*
X138972021Y-72004153D01*
X139129216Y-72174913D01*
X139129219Y-72174915D01*
X139129222Y-72174918D01*
X139306818Y-72313147D01*
X139347631Y-72369857D01*
X139351306Y-72439630D01*
X139316674Y-72500313D01*
X139306818Y-72508853D01*
X139129222Y-72647081D01*
X139129219Y-72647084D01*
X138972016Y-72817852D01*
X138845075Y-73012151D01*
X138751842Y-73224699D01*
X138694866Y-73449691D01*
X138694864Y-73449702D01*
X138675700Y-73680993D01*
X138675700Y-73681006D01*
X138694864Y-73912297D01*
X138694866Y-73912308D01*
X138751842Y-74137300D01*
X138845075Y-74349848D01*
X138972016Y-74544147D01*
X138972019Y-74544151D01*
X138972021Y-74544153D01*
X139129216Y-74714913D01*
X139129219Y-74714915D01*
X139129222Y-74714918D01*
X139306818Y-74853147D01*
X139347631Y-74909857D01*
X139351306Y-74979630D01*
X139316674Y-75040313D01*
X139306818Y-75048853D01*
X139129222Y-75187081D01*
X139129219Y-75187084D01*
X138972016Y-75357852D01*
X138845075Y-75552151D01*
X138751842Y-75764699D01*
X138694866Y-75989691D01*
X138694864Y-75989702D01*
X138675700Y-76220993D01*
X138675700Y-76221006D01*
X138694864Y-76452297D01*
X138694866Y-76452308D01*
X138751842Y-76677300D01*
X138845075Y-76889848D01*
X138972016Y-77084147D01*
X138972019Y-77084151D01*
X138972021Y-77084153D01*
X139129216Y-77254913D01*
X139129219Y-77254915D01*
X139129222Y-77254918D01*
X139306818Y-77393147D01*
X139347631Y-77449857D01*
X139351306Y-77519630D01*
X139316674Y-77580313D01*
X139306818Y-77588853D01*
X139129222Y-77727081D01*
X139129219Y-77727084D01*
X139129216Y-77727086D01*
X139129216Y-77727087D01*
X139115036Y-77742491D01*
X138972016Y-77897852D01*
X138845075Y-78092151D01*
X138751842Y-78304699D01*
X138694866Y-78529691D01*
X138694023Y-78534749D01*
X138692259Y-78534454D01*
X138669922Y-78592340D01*
X138613519Y-78633578D01*
X138543776Y-78637775D01*
X138482834Y-78603600D01*
X138450044Y-78541902D01*
X138447500Y-78516914D01*
X138447500Y-76589983D01*
X138447502Y-76589912D01*
X138449660Y-76526755D01*
X138439691Y-76485848D01*
X138438506Y-76479618D01*
X138432771Y-76437889D01*
X138426137Y-76422616D01*
X138419397Y-76402574D01*
X138418599Y-76399301D01*
X138415457Y-76386406D01*
X138415456Y-76386404D01*
X138415456Y-76386403D01*
X138394825Y-76349712D01*
X138391998Y-76344021D01*
X138375219Y-76305391D01*
X138375218Y-76305390D01*
X138364708Y-76292472D01*
X138352813Y-76274994D01*
X138344657Y-76260488D01*
X138314887Y-76230718D01*
X138310636Y-76226009D01*
X138284054Y-76193335D01*
X138270450Y-76183732D01*
X138254278Y-76170109D01*
X136522111Y-74437942D01*
X136488626Y-74376619D01*
X136486572Y-74364144D01*
X136474787Y-74259546D01*
X136474786Y-74259541D01*
X136474786Y-74259539D01*
X136420789Y-74105225D01*
X136333808Y-73966796D01*
X136218204Y-73851192D01*
X136079774Y-73764210D01*
X135925455Y-73710212D01*
X135763004Y-73691909D01*
X135762996Y-73691909D01*
X135600544Y-73710212D01*
X135446225Y-73764210D01*
X135307795Y-73851192D01*
X135192192Y-73966795D01*
X135105210Y-74105225D01*
X135051212Y-74259544D01*
X135032909Y-74421996D01*
X135032909Y-74422003D01*
X135051212Y-74584455D01*
X135105210Y-74738774D01*
X135173287Y-74847117D01*
X135192192Y-74877204D01*
X135307796Y-74992808D01*
X135446225Y-75079789D01*
X135600539Y-75133786D01*
X135600543Y-75133786D01*
X135600546Y-75133787D01*
X135705143Y-75145572D01*
X135769557Y-75172638D01*
X135778941Y-75181111D01*
X137360181Y-76762350D01*
X137393666Y-76823673D01*
X137396500Y-76850031D01*
X137396500Y-81673016D01*
X137394365Y-81735531D01*
X137394340Y-81736250D01*
X137404308Y-81777153D01*
X137405494Y-81783394D01*
X137411228Y-81825109D01*
X137417864Y-81840387D01*
X137424602Y-81860424D01*
X137428542Y-81876593D01*
X137428543Y-81876594D01*
X137449175Y-81913289D01*
X137452000Y-81918977D01*
X137468782Y-81957611D01*
X137479283Y-81970518D01*
X137491183Y-81988001D01*
X137499342Y-82002512D01*
X137529115Y-82032285D01*
X137533372Y-82037002D01*
X137559946Y-82069665D01*
X137573544Y-82079264D01*
X137589715Y-82092885D01*
X138731477Y-83234647D01*
X138764962Y-83295970D01*
X138759978Y-83365662D01*
X138757356Y-83372130D01*
X138751842Y-83384702D01*
X138694866Y-83609691D01*
X138694864Y-83609702D01*
X138675700Y-83840993D01*
X138675700Y-83841006D01*
X138694864Y-84072297D01*
X138694866Y-84072308D01*
X138751842Y-84297300D01*
X138845075Y-84509848D01*
X138972016Y-84704147D01*
X138972019Y-84704151D01*
X138972021Y-84704153D01*
X139129216Y-84874913D01*
X139129219Y-84874915D01*
X139129222Y-84874918D01*
X139306818Y-85013147D01*
X139347631Y-85069857D01*
X139351306Y-85139630D01*
X139316674Y-85200313D01*
X139306818Y-85208853D01*
X139129222Y-85347081D01*
X139129219Y-85347084D01*
X138972016Y-85517852D01*
X138845075Y-85712151D01*
X138751842Y-85924699D01*
X138694866Y-86149691D01*
X138694864Y-86149702D01*
X138675700Y-86380993D01*
X138675700Y-86381006D01*
X138694864Y-86612297D01*
X138694866Y-86612308D01*
X138751842Y-86837300D01*
X138845075Y-87049848D01*
X138972016Y-87244147D01*
X138972019Y-87244151D01*
X138972021Y-87244153D01*
X139129216Y-87414913D01*
X139129219Y-87414915D01*
X139129222Y-87414918D01*
X139306818Y-87553147D01*
X139347631Y-87609857D01*
X139351306Y-87679630D01*
X139316674Y-87740313D01*
X139306818Y-87748853D01*
X139129222Y-87887081D01*
X139129219Y-87887084D01*
X138972016Y-88057852D01*
X138845075Y-88252151D01*
X138751842Y-88464699D01*
X138694866Y-88689691D01*
X138694864Y-88689702D01*
X138675700Y-88920993D01*
X138675700Y-88921006D01*
X138694864Y-89152297D01*
X138694866Y-89152308D01*
X138751842Y-89377300D01*
X138845075Y-89589848D01*
X138972016Y-89784147D01*
X138972019Y-89784151D01*
X138972021Y-89784153D01*
X139129216Y-89954913D01*
X139129219Y-89954915D01*
X139129222Y-89954918D01*
X139306818Y-90093147D01*
X139347631Y-90149857D01*
X139351306Y-90219630D01*
X139316674Y-90280313D01*
X139306818Y-90288853D01*
X139129222Y-90427081D01*
X139129219Y-90427084D01*
X138972016Y-90597852D01*
X138845075Y-90792151D01*
X138751842Y-91004699D01*
X138694866Y-91229691D01*
X138694864Y-91229702D01*
X138675700Y-91460993D01*
X138675700Y-91461006D01*
X138694864Y-91692297D01*
X138694866Y-91692308D01*
X138751842Y-91917300D01*
X138845075Y-92129848D01*
X138972016Y-92324147D01*
X138972019Y-92324151D01*
X138972021Y-92324153D01*
X139129216Y-92494913D01*
X139129219Y-92494915D01*
X139129222Y-92494918D01*
X139306818Y-92633147D01*
X139347631Y-92689857D01*
X139351306Y-92759630D01*
X139316674Y-92820313D01*
X139306818Y-92828853D01*
X139129222Y-92967081D01*
X139129219Y-92967084D01*
X138972016Y-93137852D01*
X138845075Y-93332151D01*
X138751842Y-93544699D01*
X138694866Y-93769691D01*
X138694864Y-93769702D01*
X138675700Y-94000993D01*
X138675700Y-94001006D01*
X138694864Y-94232297D01*
X138694866Y-94232308D01*
X138751842Y-94457300D01*
X138845075Y-94669848D01*
X138972016Y-94864147D01*
X138972019Y-94864151D01*
X138972021Y-94864153D01*
X139129216Y-95034913D01*
X139129219Y-95034915D01*
X139129222Y-95034918D01*
X139306818Y-95173147D01*
X139347631Y-95229857D01*
X139351306Y-95299630D01*
X139316674Y-95360313D01*
X139306818Y-95368853D01*
X139129222Y-95507081D01*
X139129219Y-95507084D01*
X138972016Y-95677852D01*
X138845075Y-95872151D01*
X138751842Y-96084699D01*
X138694866Y-96309691D01*
X138694864Y-96309702D01*
X138675700Y-96540993D01*
X138675700Y-96541006D01*
X138694864Y-96772297D01*
X138694866Y-96772308D01*
X138751842Y-96997300D01*
X138845075Y-97209848D01*
X138972016Y-97404147D01*
X138972019Y-97404151D01*
X138972021Y-97404153D01*
X139129216Y-97574913D01*
X139129219Y-97574915D01*
X139129222Y-97574918D01*
X139312365Y-97717464D01*
X139312371Y-97717468D01*
X139312374Y-97717470D01*
X139516497Y-97827936D01*
X139630487Y-97867068D01*
X139736015Y-97903297D01*
X139736017Y-97903297D01*
X139736019Y-97903298D01*
X139964951Y-97941500D01*
X139964952Y-97941500D01*
X140197048Y-97941500D01*
X140197049Y-97941500D01*
X140425981Y-97903298D01*
X140645503Y-97827936D01*
X140849626Y-97717470D01*
X141032784Y-97574913D01*
X141189979Y-97404153D01*
X141316924Y-97209849D01*
X141347260Y-97140689D01*
X141392216Y-97087204D01*
X141458952Y-97066514D01*
X141460816Y-97066500D01*
X146528016Y-97066500D01*
X146591245Y-97068660D01*
X146632169Y-97058686D01*
X146638368Y-97057507D01*
X146680111Y-97051771D01*
X146695386Y-97045135D01*
X146715421Y-97038397D01*
X146731594Y-97034457D01*
X146768300Y-97013817D01*
X146773975Y-97010999D01*
X146789950Y-97004060D01*
X146825466Y-96994573D01*
X146908219Y-96985249D01*
X146974455Y-96977787D01*
X146974456Y-96977786D01*
X146974461Y-96977786D01*
X147128775Y-96923789D01*
X147267204Y-96836808D01*
X147382808Y-96721204D01*
X147469789Y-96582775D01*
X147523786Y-96428461D01*
X147537168Y-96309695D01*
X147542091Y-96266003D01*
X147542091Y-96265996D01*
X147523787Y-96103544D01*
X147523786Y-96103542D01*
X147523786Y-96103539D01*
X147469789Y-95949225D01*
X147382808Y-95810796D01*
X147267204Y-95695192D01*
X147239600Y-95677847D01*
X147128774Y-95608210D01*
X146974455Y-95554212D01*
X146812004Y-95535909D01*
X146811996Y-95535909D01*
X146649544Y-95554212D01*
X146495225Y-95608210D01*
X146356795Y-95695192D01*
X146241192Y-95810795D01*
X146150506Y-95955121D01*
X146148417Y-95953808D01*
X146109284Y-95997157D01*
X146044380Y-96015500D01*
X141460816Y-96015500D01*
X141393777Y-95995815D01*
X141348022Y-95943011D01*
X141347260Y-95941310D01*
X141316924Y-95872151D01*
X141189983Y-95677852D01*
X141189980Y-95677849D01*
X141189979Y-95677847D01*
X141032784Y-95507087D01*
X140855180Y-95368853D01*
X140814368Y-95312143D01*
X140810693Y-95242370D01*
X140845324Y-95181687D01*
X140855181Y-95173146D01*
X141032784Y-95034913D01*
X141189979Y-94864153D01*
X141316924Y-94669849D01*
X141410157Y-94457300D01*
X141467134Y-94232305D01*
X141486300Y-94001000D01*
X141486300Y-94000993D01*
X141467135Y-93769702D01*
X141467133Y-93769691D01*
X141410157Y-93544699D01*
X141316924Y-93332151D01*
X141189983Y-93137852D01*
X141189980Y-93137849D01*
X141189979Y-93137847D01*
X141032784Y-92967087D01*
X140855180Y-92828853D01*
X140814368Y-92772143D01*
X140810693Y-92702370D01*
X140845324Y-92641687D01*
X140855181Y-92633146D01*
X141032784Y-92494913D01*
X141189979Y-92324153D01*
X141316924Y-92129849D01*
X141410157Y-91917300D01*
X141467134Y-91692305D01*
X141486300Y-91461000D01*
X141486300Y-91460993D01*
X141467135Y-91229702D01*
X141467133Y-91229691D01*
X141410157Y-91004699D01*
X141316924Y-90792151D01*
X141189983Y-90597852D01*
X141189980Y-90597849D01*
X141189979Y-90597847D01*
X141032784Y-90427087D01*
X140855180Y-90288853D01*
X140814368Y-90232143D01*
X140810693Y-90162370D01*
X140845324Y-90101687D01*
X140855181Y-90093146D01*
X141032784Y-89954913D01*
X141189979Y-89784153D01*
X141316924Y-89589849D01*
X141410157Y-89377300D01*
X141467134Y-89152305D01*
X141469535Y-89123330D01*
X141486300Y-88921006D01*
X141486300Y-88920993D01*
X141467135Y-88689702D01*
X141467133Y-88689691D01*
X141410157Y-88464699D01*
X141316924Y-88252151D01*
X141189983Y-88057852D01*
X141189980Y-88057849D01*
X141189979Y-88057847D01*
X141032784Y-87887087D01*
X140855180Y-87748853D01*
X140814368Y-87692143D01*
X140810693Y-87622370D01*
X140845324Y-87561687D01*
X140855181Y-87553146D01*
X141032784Y-87414913D01*
X141189979Y-87244153D01*
X141316924Y-87049849D01*
X141410157Y-86837300D01*
X141467134Y-86612305D01*
X141467135Y-86612297D01*
X141486300Y-86381006D01*
X141486300Y-86380993D01*
X141467135Y-86149702D01*
X141467133Y-86149691D01*
X141410157Y-85924699D01*
X141316924Y-85712151D01*
X141189983Y-85517852D01*
X141189980Y-85517849D01*
X141189979Y-85517847D01*
X141032784Y-85347087D01*
X141032779Y-85347083D01*
X141032777Y-85347081D01*
X140855181Y-85208852D01*
X140814368Y-85152142D01*
X140810693Y-85082369D01*
X140845325Y-85021686D01*
X140855165Y-85013158D01*
X141032784Y-84874913D01*
X141032795Y-84874900D01*
X141036560Y-84871436D01*
X141037567Y-84872530D01*
X141091655Y-84840026D01*
X141122997Y-84836000D01*
X164211000Y-84836000D01*
X164266654Y-84780345D01*
X164327975Y-84746860D01*
X164397667Y-84751844D01*
X164445564Y-84784042D01*
X164529216Y-84874913D01*
X164529219Y-84874915D01*
X164529222Y-84874918D01*
X164706818Y-85013147D01*
X164747631Y-85069857D01*
X164751306Y-85139630D01*
X164716674Y-85200313D01*
X164706818Y-85208853D01*
X164529222Y-85347081D01*
X164529219Y-85347084D01*
X164372016Y-85517852D01*
X164245075Y-85712151D01*
X164151842Y-85924699D01*
X164094866Y-86149691D01*
X164094864Y-86149702D01*
X164075700Y-86380993D01*
X164075700Y-86381006D01*
X164094864Y-86612297D01*
X164094866Y-86612308D01*
X164151842Y-86837300D01*
X164245075Y-87049848D01*
X164372016Y-87244147D01*
X164372019Y-87244151D01*
X164372021Y-87244153D01*
X164529216Y-87414913D01*
X164529219Y-87414915D01*
X164529222Y-87414918D01*
X164706818Y-87553147D01*
X164747631Y-87609857D01*
X164751306Y-87679630D01*
X164716674Y-87740313D01*
X164706818Y-87748853D01*
X164529222Y-87887081D01*
X164529219Y-87887084D01*
X164372016Y-88057852D01*
X164245075Y-88252151D01*
X164151842Y-88464699D01*
X164094866Y-88689691D01*
X164094864Y-88689702D01*
X164075700Y-88920993D01*
X164075700Y-88921006D01*
X164094864Y-89152297D01*
X164094866Y-89152308D01*
X164151842Y-89377300D01*
X164199826Y-89486690D01*
X164208729Y-89555990D01*
X164178752Y-89619102D01*
X164119413Y-89655989D01*
X164086270Y-89660500D01*
X164076984Y-89660500D01*
X164013755Y-89658340D01*
X164013754Y-89658340D01*
X164013751Y-89658340D01*
X163980167Y-89666524D01*
X163972847Y-89668308D01*
X163966610Y-89669494D01*
X163924887Y-89675229D01*
X163909612Y-89681863D01*
X163889588Y-89688597D01*
X163873408Y-89692541D01*
X163873403Y-89692543D01*
X163836705Y-89713177D01*
X163831016Y-89716003D01*
X163792390Y-89732781D01*
X163779477Y-89743287D01*
X163762004Y-89755180D01*
X163747489Y-89763342D01*
X163717716Y-89793114D01*
X163713002Y-89797368D01*
X163680336Y-89823944D01*
X163680335Y-89823944D01*
X163670728Y-89837554D01*
X163657109Y-89853720D01*
X162702771Y-90808059D01*
X162656531Y-90851243D01*
X162634653Y-90887221D01*
X162631080Y-90892470D01*
X162605638Y-90926020D01*
X162605633Y-90926029D01*
X162599525Y-90941517D01*
X162590125Y-90960442D01*
X162581477Y-90974664D01*
X162581474Y-90974670D01*
X162570114Y-91015211D01*
X162568091Y-91021228D01*
X162552641Y-91060409D01*
X162552640Y-91060411D01*
X162550937Y-91076976D01*
X162546991Y-91097739D01*
X162542500Y-91113767D01*
X162542500Y-91155879D01*
X162542175Y-91162223D01*
X162537869Y-91204107D01*
X162537869Y-91204111D01*
X162540697Y-91220511D01*
X162542500Y-91241580D01*
X162542500Y-93082016D01*
X162540891Y-93129134D01*
X162540340Y-93145250D01*
X162550308Y-93186153D01*
X162551494Y-93192394D01*
X162557228Y-93234109D01*
X162563864Y-93249387D01*
X162570602Y-93269424D01*
X162574542Y-93285593D01*
X162574543Y-93285594D01*
X162595175Y-93322289D01*
X162598000Y-93327977D01*
X162614782Y-93366611D01*
X162625283Y-93379518D01*
X162637183Y-93397001D01*
X162645342Y-93411512D01*
X162675115Y-93441285D01*
X162679372Y-93446002D01*
X162705946Y-93478665D01*
X162719544Y-93488264D01*
X162735715Y-93501885D01*
X163600059Y-94366228D01*
X163643245Y-94412469D01*
X163679222Y-94434346D01*
X163684466Y-94437915D01*
X163718025Y-94463364D01*
X163733510Y-94469470D01*
X163752447Y-94478876D01*
X163766669Y-94487525D01*
X163766671Y-94487525D01*
X163766672Y-94487526D01*
X163807216Y-94498885D01*
X163813220Y-94500903D01*
X163852411Y-94516359D01*
X163868977Y-94518061D01*
X163889741Y-94522008D01*
X163905772Y-94526500D01*
X163947879Y-94526500D01*
X163954220Y-94526824D01*
X163996109Y-94531131D01*
X164012513Y-94528302D01*
X164033579Y-94526500D01*
X164101184Y-94526500D01*
X164168223Y-94546185D01*
X164213978Y-94598989D01*
X164214740Y-94600690D01*
X164245075Y-94669848D01*
X164372016Y-94864147D01*
X164372019Y-94864151D01*
X164372021Y-94864153D01*
X164529216Y-95034913D01*
X164529219Y-95034915D01*
X164529222Y-95034918D01*
X164706818Y-95173147D01*
X164747631Y-95229857D01*
X164751306Y-95299630D01*
X164716674Y-95360313D01*
X164706818Y-95368853D01*
X164529222Y-95507081D01*
X164529219Y-95507084D01*
X164372016Y-95677852D01*
X164245075Y-95872151D01*
X164151842Y-96084699D01*
X164094866Y-96309691D01*
X164094864Y-96309702D01*
X164075700Y-96540993D01*
X164075700Y-96541006D01*
X164094864Y-96772297D01*
X164094866Y-96772308D01*
X164151842Y-96997300D01*
X164245075Y-97209848D01*
X164372016Y-97404147D01*
X164372019Y-97404151D01*
X164372021Y-97404153D01*
X164529216Y-97574913D01*
X164529219Y-97574915D01*
X164529222Y-97574918D01*
X164712365Y-97717464D01*
X164712371Y-97717468D01*
X164712374Y-97717470D01*
X164916497Y-97827936D01*
X165030487Y-97867068D01*
X165136015Y-97903297D01*
X165136017Y-97903297D01*
X165136019Y-97903298D01*
X165364951Y-97941500D01*
X165364952Y-97941500D01*
X165597048Y-97941500D01*
X165597049Y-97941500D01*
X165825981Y-97903298D01*
X166045503Y-97827936D01*
X166249626Y-97717470D01*
X166432784Y-97574913D01*
X166589979Y-97404153D01*
X166716924Y-97209849D01*
X166810157Y-96997300D01*
X166867134Y-96772305D01*
X166867135Y-96772297D01*
X166886300Y-96541006D01*
X166886300Y-96540993D01*
X166867135Y-96309702D01*
X166867133Y-96309691D01*
X166810157Y-96084699D01*
X166716924Y-95872151D01*
X166589983Y-95677852D01*
X166589980Y-95677849D01*
X166589979Y-95677847D01*
X166432784Y-95507087D01*
X166255180Y-95368853D01*
X166214368Y-95312143D01*
X166210693Y-95242370D01*
X166245324Y-95181687D01*
X166255181Y-95173146D01*
X166432784Y-95034913D01*
X166589979Y-94864153D01*
X166716924Y-94669849D01*
X166810157Y-94457300D01*
X166867134Y-94232305D01*
X166886300Y-94001000D01*
X166886300Y-94000993D01*
X166867135Y-93769702D01*
X166867133Y-93769691D01*
X166810157Y-93544699D01*
X166716924Y-93332151D01*
X166589983Y-93137852D01*
X166589980Y-93137849D01*
X166589979Y-93137847D01*
X166432784Y-92967087D01*
X166255180Y-92828853D01*
X166214368Y-92772143D01*
X166210693Y-92702370D01*
X166245324Y-92641687D01*
X166255181Y-92633146D01*
X166432784Y-92494913D01*
X166589979Y-92324153D01*
X166716924Y-92129849D01*
X166747260Y-92060689D01*
X166792216Y-92007204D01*
X166858952Y-91986514D01*
X166860816Y-91986500D01*
X168915968Y-91986500D01*
X168983007Y-92006185D01*
X169003649Y-92022819D01*
X169549700Y-92568870D01*
X169869146Y-92888315D01*
X169902631Y-92949638D01*
X169897647Y-93019329D01*
X169855775Y-93075263D01*
X169790311Y-93099680D01*
X169774258Y-93099786D01*
X169755069Y-93098668D01*
X169755066Y-93098668D01*
X169582293Y-93129134D01*
X169582291Y-93129134D01*
X169582289Y-93129135D01*
X169544930Y-93145250D01*
X169421198Y-93198622D01*
X169421190Y-93198626D01*
X169280469Y-93303390D01*
X169167698Y-93437785D01*
X169167697Y-93437787D01*
X169088961Y-93594562D01*
X169088960Y-93594567D01*
X169050236Y-93757958D01*
X169048500Y-93765281D01*
X169048500Y-100348770D01*
X169028815Y-100415809D01*
X169012181Y-100436451D01*
X168614451Y-100834181D01*
X168553128Y-100867666D01*
X168526770Y-100870500D01*
X167005499Y-100870500D01*
X166938460Y-100850815D01*
X166892705Y-100798011D01*
X166881499Y-100746500D01*
X166881499Y-100589482D01*
X166880009Y-100580075D01*
X166866646Y-100495696D01*
X166809050Y-100382658D01*
X166809046Y-100382654D01*
X166809045Y-100382652D01*
X166719347Y-100292954D01*
X166719344Y-100292952D01*
X166719342Y-100292950D01*
X166632566Y-100248735D01*
X166606301Y-100235352D01*
X166512524Y-100220500D01*
X164449482Y-100220500D01*
X164368519Y-100233323D01*
X164355696Y-100235354D01*
X164242658Y-100292950D01*
X164242657Y-100292951D01*
X164242652Y-100292954D01*
X164152954Y-100382652D01*
X164152951Y-100382657D01*
X164152950Y-100382658D01*
X164136059Y-100415809D01*
X164095352Y-100495698D01*
X164080500Y-100589475D01*
X164080500Y-101908770D01*
X164060815Y-101975809D01*
X164044181Y-101996451D01*
X161925451Y-104115181D01*
X161864128Y-104148666D01*
X161837770Y-104151500D01*
X141078229Y-104151500D01*
X141011190Y-104131815D01*
X140990548Y-104115181D01*
X140108548Y-103233181D01*
X140075063Y-103171858D01*
X140080047Y-103102166D01*
X140121919Y-103046233D01*
X140187383Y-103021816D01*
X140196229Y-103021500D01*
X140197048Y-103021500D01*
X140197049Y-103021500D01*
X140425981Y-102983298D01*
X140645503Y-102907936D01*
X140849626Y-102797470D01*
X140885745Y-102769358D01*
X141032262Y-102655319D01*
X141032784Y-102654913D01*
X141189979Y-102484153D01*
X141195248Y-102476089D01*
X141218578Y-102440379D01*
X141316924Y-102289849D01*
X141410157Y-102077300D01*
X141467134Y-101852305D01*
X141471497Y-101799650D01*
X141486300Y-101621006D01*
X141486300Y-101620993D01*
X141467135Y-101389702D01*
X141467133Y-101389691D01*
X141410157Y-101164699D01*
X141316924Y-100952151D01*
X141189983Y-100757852D01*
X141189980Y-100757849D01*
X141189979Y-100757847D01*
X141032784Y-100587087D01*
X141032779Y-100587083D01*
X141032777Y-100587081D01*
X140849634Y-100444535D01*
X140849628Y-100444531D01*
X140645504Y-100334064D01*
X140645495Y-100334061D01*
X140425984Y-100258702D01*
X140254282Y-100230050D01*
X140197049Y-100220500D01*
X139964951Y-100220500D01*
X139938140Y-100224974D01*
X139736015Y-100258702D01*
X139516504Y-100334061D01*
X139516495Y-100334064D01*
X139312371Y-100444531D01*
X139312365Y-100444535D01*
X139129222Y-100587081D01*
X139129219Y-100587084D01*
X139129216Y-100587086D01*
X139129216Y-100587087D01*
X139075459Y-100645483D01*
X138972016Y-100757852D01*
X138845075Y-100952151D01*
X138751842Y-101164699D01*
X138694866Y-101389691D01*
X138694864Y-101389703D01*
X138684068Y-101520002D01*
X138658915Y-101585187D01*
X138602513Y-101626425D01*
X138532770Y-101630623D01*
X138472811Y-101597443D01*
X136422819Y-99547451D01*
X136389334Y-99486128D01*
X136386500Y-99459770D01*
X136386500Y-78295705D01*
X136387809Y-78277735D01*
X136391289Y-78253974D01*
X136386736Y-78201939D01*
X136386500Y-78196532D01*
X136386500Y-78188297D01*
X136386500Y-78188291D01*
X136382691Y-78155707D01*
X136375998Y-78079202D01*
X136375996Y-78079197D01*
X136374538Y-78072133D01*
X136374597Y-78072120D01*
X136372967Y-78064764D01*
X136372908Y-78064779D01*
X136371241Y-78057751D01*
X136371241Y-78057745D01*
X136344966Y-77985556D01*
X136320813Y-77912665D01*
X136320808Y-77912658D01*
X136317760Y-77906119D01*
X136317815Y-77906092D01*
X136314529Y-77899305D01*
X136314476Y-77899332D01*
X136311238Y-77892883D01*
X136269023Y-77828700D01*
X136228709Y-77763341D01*
X136224233Y-77757681D01*
X136224280Y-77757643D01*
X136219519Y-77751799D01*
X136219474Y-77751838D01*
X136214834Y-77746308D01*
X136210790Y-77742493D01*
X136183350Y-77716604D01*
X136158964Y-77693596D01*
X132046729Y-73581361D01*
X132034949Y-73567730D01*
X132027482Y-73557701D01*
X132020612Y-73548472D01*
X132020610Y-73548470D01*
X131980587Y-73514886D01*
X131976612Y-73511244D01*
X131973690Y-73508322D01*
X131970780Y-73505411D01*
X131945040Y-73485059D01*
X131886209Y-73435694D01*
X131880180Y-73431729D01*
X131880212Y-73431680D01*
X131873853Y-73427628D01*
X131873822Y-73427679D01*
X131867680Y-73423891D01*
X131867678Y-73423890D01*
X131867677Y-73423889D01*
X131828474Y-73405608D01*
X131798058Y-73391424D01*
X131763894Y-73374267D01*
X131729433Y-73356960D01*
X131729431Y-73356959D01*
X131729430Y-73356959D01*
X131722645Y-73354489D01*
X131722665Y-73354433D01*
X131715549Y-73351959D01*
X131715531Y-73352015D01*
X131708671Y-73349742D01*
X131680841Y-73343996D01*
X131633434Y-73334207D01*
X131584472Y-73322603D01*
X131558719Y-73316499D01*
X131551547Y-73315661D01*
X131551553Y-73315601D01*
X131544055Y-73314835D01*
X131544050Y-73314895D01*
X131536860Y-73314265D01*
X131460083Y-73316500D01*
X129074660Y-73316500D01*
X129007621Y-73296815D01*
X128977713Y-73269812D01*
X128921512Y-73199338D01*
X128921509Y-73199335D01*
X128921508Y-73199334D01*
X128816077Y-73107221D01*
X128751999Y-73051237D01*
X128751996Y-73051235D01*
X128697953Y-73018946D01*
X128650502Y-72967665D01*
X128638307Y-72898868D01*
X128665242Y-72834399D01*
X128722756Y-72794726D01*
X128761555Y-72788500D01*
X130547016Y-72788500D01*
X130610245Y-72790660D01*
X130651169Y-72780686D01*
X130657368Y-72779507D01*
X130699111Y-72773771D01*
X130714386Y-72767135D01*
X130734421Y-72760397D01*
X130750594Y-72756457D01*
X130787316Y-72735808D01*
X130792955Y-72733007D01*
X130831609Y-72716219D01*
X130844528Y-72705707D01*
X130861997Y-72693818D01*
X130876512Y-72685658D01*
X130906298Y-72655870D01*
X130910999Y-72651628D01*
X130943665Y-72625054D01*
X130953264Y-72611453D01*
X130966881Y-72595287D01*
X138357350Y-65204819D01*
X138418673Y-65171334D01*
X138445031Y-65168500D01*
X138762062Y-65168500D01*
X138829101Y-65188185D01*
G37*
G04 #@! TD.AperFunction*
M02*
